<?xml version="1.0" encoding="UTF-8" standalone="no"?>
<!-- Created with Inkscape (http://www.inkscape.org/) -->

<svg
   width="25mm"
   height="8mm"
   viewBox="0 0 25 8"
   version="1.1"
   id="svg5"
   inkscape:version="1.2 (dc2aedaf03, 2022-05-15)"
   sodipodi:docname="RS485 Logo Design.svg"
   xmlns:inkscape="http://www.inkscape.org/namespaces/inkscape"
   xmlns:sodipodi="http://sodipodi.sourceforge.net/DTD/sodipodi-0.dtd"
   xmlns="http://www.w3.org/2000/svg"
   xmlns:svg="http://www.w3.org/2000/svg">
  <sodipodi:namedview
     id="namedview7"
     pagecolor="#ffffff"
     bordercolor="#000000"
     borderopacity="0.25"
     inkscape:showpageshadow="2"
     inkscape:pageopacity="0.0"
     inkscape:pagecheckerboard="0"
     inkscape:deskcolor="#d1d1d1"
     inkscape:document-units="mm"
     showgrid="false"
     inkscape:zoom="5.6568543"
     inkscape:cx="79.284348"
     inkscape:cy="19.26866"
     inkscape:window-width="1920"
     inkscape:window-height="1009"
     inkscape:window-x="-8"
     inkscape:window-y="-8"
     inkscape:window-maximized="1"
     inkscape:current-layer="g204"
     showguides="false" />
  <defs
     id="defs2" />
  <g
     inkscape:label="Edge.Cuts"
     inkscape:groupmode="layer"
     id="g196" />
  <g
     inkscape:label="B.Cu"
     inkscape:groupmode="layer"
     id="g198" />
  <g
     inkscape:label="B.Mask"
     inkscape:groupmode="layer"
     id="g200" />
  <g
     inkscape:label="B.SilkS"
     inkscape:groupmode="layer"
     id="g202" />
  <g
     inkscape:label="F.Cu"
     inkscape:groupmode="layer"
     id="g204">
    <path
       id="path2137"
       style="font-weight:bold;font-size:5.92186px;line-height:96.4%;font-family:'256 Bytes';-inkscape-font-specification:'256 Bytes Bold';display:inline;vector-effect:non-scaling-stroke;fill:#ff0000;stroke-width:0.264583;paint-order:stroke markers fill"
       d="M 13.037882,0.58538835 V 3.5335288 c 0,0.1132891 0.02679,0.1800268 0.07028,0.2206584 0.04347,0.040633 0.111209,0.060461 0.21084,0.060461 h 1.163753 v 1.1136271 h 0.232544 V 3.8146486 h 0.478008 V 2.3630576 H 14.715299 V 1.656124 c 0,-0.029524 -0.0076,-0.044038 -0.01602,-0.05271 -0.0084,-0.00867 -0.02071,-0.015503 -0.04651,-0.015503 h -0.101802 c -0.02581,0 -0.04084,0.00603 -0.05064,0.015503 -0.0098,0.00947 -0.01757,0.02447 -0.01757,0.05271 v 0.7069336 h -0.992188 c -0.07867,0 -0.137853,-0.01036 -0.177766,-0.05271 -0.03996,-0.04235 -0.04289,-0.096381 -0.04289,-0.1617472 V 0.58538835 Z m 2.964161,0 c -0.14985,0 -0.28112,0.12805369 -0.28112,0.28370361 V 2.3124147 c 0,0.046618 0.01153,0.078505 0.03514,0.10542 0.02362,0.026915 0.06087,0.05068 0.116788,0.066663 l 0.144695,0.040825 -0.140561,0.054777 c -0.112928,0.043036 -0.156062,0.098649 -0.156062,0.177767 V 4.647157 c 0,0.1624467 0.130159,0.2811198 0.28112,0.2811198 h 1.722375 c 0.164468,0 0.286804,-0.1176314 0.286804,-0.2811198 V 2.7578656 c 0,-0.05346 -0.01202,-0.091935 -0.03514,-0.1193726 -0.02313,-0.027438 -0.0592,-0.046045 -0.113171,-0.056328 L 17.675325,2.544958 17.857226,2.484497 c 0.0572,-0.019074 0.09519,-0.041788 0.118856,-0.068213 0.02367,-0.026426 0.03514,-0.057253 0.03514,-0.1038697 V 0.86909196 c 0,-0.15672523 -0.123378,-0.28370361 -0.286804,-0.28370361 z m 2.642216,0 V 3.0565554 h 1.839163 c 0.06502,0 0.12401,0.018568 0.164332,0.060979 0.04032,0.042411 0.0584,0.1035036 0.0584,0.1736328 v 1.0784872 c 0,0.065041 -0.01806,0.1219044 -0.0584,0.162264 -0.04034,0.04036 -0.09931,0.058394 -0.164332,0.058394 h -1.384411 c -0.06502,0 -0.123421,-0.017434 -0.162264,-0.058394 -0.03884,-0.04096 -0.05426,-0.0981 -0.05426,-0.162264 V 3.7758913 c 0,-0.038006 -0.009,-0.055975 -0.02378,-0.06873 -0.01475,-0.012755 -0.04223,-0.023254 -0.09146,-0.023254 -0.04923,0 -0.08128,0.011867 -0.09767,0.025322 -0.01639,0.013455 -0.02584,0.029698 -0.02584,0.066663 v 0.8712646 c 0,0.1039573 0.03523,0.1700619 0.0863,0.2144572 0.05107,0.044395 0.123723,0.066663 0.203088,0.066663 h 1.722376 c 0.08535,0 0.155016,-0.023735 0.203087,-0.068213 0.04807,-0.044478 0.07803,-0.1108987 0.07803,-0.2129069 V 2.947518 c 0,-0.081588 -0.02296,-0.1387115 -0.06667,-0.1777669 -0.0437,-0.039055 -0.113031,-0.062529 -0.214456,-0.062529 H 19.604924 V 0.92541928 h 1.075903 V 1.8747154 c 0,0.031936 0.0092,0.046406 0.01757,0.054777 0.0084,0.00836 0.01916,0.013953 0.03876,0.013953 h 0.09612 c 0.02719,0 0.04834,-0.00772 0.06046,-0.01757 0.01213,-0.00985 0.01912,-0.021606 0.01912,-0.05116 V 0.58538835 Z M 5.5447996,0.69287533 V 4.9282757 H 6.8475624 V 3.1661093 h 1.1658204 c 0.064393,0 0.1147908,0.012264 0.1519287,0.044959 0.037138,0.032693 0.051159,0.08029 0.051159,0.127124 v 1.5900834 h 0.363286 V 3.1836794 c 0,-0.1287504 -0.058062,-0.1791256 -0.142627,-0.2051555 L 8.265047,2.9258139 8.4386798,2.8829228 c 0.028114,-0.00703 0.066158,-0.036996 0.094051,-0.078032 0.027894,-0.041036 0.047026,-0.093248 0.047026,-0.1291911 V 1.0525433 c 0,-0.13253589 -0.03921,-0.21757811 -0.1038696,-0.27336833 -0.064661,-0.0557902 -0.1634168,-0.0862997 -0.294556,-0.0862997 z m 4.1925089,0 c -0.1544945,-2e-8 -0.2477437,0.0324863 -0.3023071,0.0878499 -0.054564,0.0553636 -0.078548,0.14373817 -0.078548,0.27181807 v 1.6154053 c 0,0.1169469 0.019995,0.180283 0.060978,0.217041 0.040983,0.036758 0.1158985,0.056328 0.2418457,0.056328 h 1.1854579 c 0.0739,0 0.133795,0.010368 0.177766,0.047026 0.04397,0.036658 0.05633,0.093713 0.05633,0.1581298 v 1.0707357 c 0,0.064417 -0.01355,0.1216613 -0.0584,0.1560629 -0.04485,0.0344 -0.102724,0.039274 -0.1757,0.039274 H 9.960034 c -0.080303,0 -0.1404175,-0.00536 -0.1875854,-0.039274 C 9.7252806,4.339358 9.7099206,4.281627 9.7099206,4.2172091 v -0.523483 c 0,-0.043637 -0.00656,-0.060898 -0.01757,-0.07028 -0.011014,-0.00938 -0.040762,-0.019637 -0.1012858,-0.019637 h -0.115239 c -0.054395,0 -0.087625,0.0088 -0.099735,0.01757 -0.012109,0.00877 -0.019637,0.022376 -0.019637,0.072347 v 0.9534302 c 0,0.1053251 0.018597,0.1727914 0.060978,0.2144572 0.042382,0.041666 0.1175324,0.066663 0.2495972,0.066663 h 2.363163 c 0.131602,0 0.226405,-0.026832 0.286804,-0.080098 0.0604,-0.053266 0.09405,-0.1363139 0.09405,-0.2697509 V 2.7619997 c 0,-0.1361402 -0.02434,-0.2147219 -0.07028,-0.2599325 -0.04593,-0.045211 -0.12308,-0.068213 -0.248047,-0.068213 h -2.13269 c -0.07663,0 -0.1352361,-0.0056 -0.1813843,-0.041341 -0.046148,-0.035741 -0.060462,-0.094414 -0.060462,-0.162264 v -0.784965 c 0,-0.067751 0.023105,-0.1297442 0.07183,-0.1679484 0.048726,-0.038204 0.11401,-0.05271 0.1932699,-0.05271 h 1.7926544 c 0.07663,0 0.136468,0.00564 0.183969,0.038757 0.0475,0.033118 0.06615,0.092602 0.06615,0.1581299 v 0.4082438 c -1e-5,0.030226 0.0069,0.037344 0.02171,0.047026 0.01477,0.00968 0.04501,0.01757 0.08991,0.01757 h 0.146244 c 0.03923,0 0.06869,-0.0089 0.08371,-0.019637 0.01499,-0.010739 0.02171,-0.019795 0.02171,-0.044959 V 1.0742474 c 0,-0.15495006 -0.03211,-0.24476388 -0.09198,-0.29920655 -0.05986,-0.0544427 -0.159817,-0.0821656 -0.319877,-0.0821656 z m 6.4600705,0.23254395 h 1.360641 c 0.06502,0 0.123421,0.0179517 0.162264,0.0589112 0.03884,0.0409594 0.05478,0.0975827 0.05478,0.16174712 v 1.0200928 c 0,0.064165 -0.01736,0.1206976 -0.05684,0.1601969 -0.03948,0.039499 -0.09606,0.05426 -0.160196,0.05426 h -1.360641 c -0.06162,0 -0.118166,-0.014762 -0.156579,-0.05426 -0.03842,-0.039498 -0.05426,-0.096033 -0.05426,-0.1601969 V 1.1460776 c 0,-0.064165 0.0165,-0.1208198 0.05426,-0.16174719 0.03776,-0.0409276 0.09404,-0.0589112 0.156579,-0.0589112 z M 6.8475624,1.2086062 h 1.1890748 c 0.057721,0 0.1043941,0.014465 0.1369426,0.047026 0.032549,0.032561 0.042892,0.077315 0.042892,0.1193725 v 1.1467 c 0,0.045168 -0.0092,0.090891 -0.042892,0.1229899 -0.033692,0.0321 -0.080504,0.042891 -0.1369426,0.042891 H 6.8475624 Z m 9.3498166,1.4634764 h 1.360641 c 0.06415,0 0.120715,0.015278 0.160196,0.054777 0.03948,0.0395 0.05684,0.097584 0.05684,0.1617473 v 0.3674194 c 0,0.064164 -0.01594,0.1213053 -0.05478,0.162264 -0.03884,0.04096 -0.09725,0.058394 -0.162264,0.058394 h -1.360641 c -0.06255,0 -0.118816,-0.019534 -0.156579,-0.060462 -0.03777,-0.040928 -0.05426,-0.096033 -0.05426,-0.1601969 V 2.888607 c 0,-0.064165 0.01585,-0.1206996 0.05426,-0.160197 0.03841,-0.039498 0.09496,-0.056328 0.156579,-0.056328 z" />
  </g>
  <g
     inkscape:label="F.Mask"
     inkscape:groupmode="layer"
     id="g206"
     style="display:inline">
    <path
       id="path2021"
       style="font-weight:bold;font-size:5.92186px;line-height:96.4%;font-family:'256 Bytes';-inkscape-font-specification:'256 Bytes Bold';display:inline;vector-effect:non-scaling-stroke;fill:#ff0000;stroke-width:0.264583;paint-order:stroke markers fill"
       d="M 13.037882,0.58538835 V 3.5335288 c 0,0.1132891 0.02679,0.1800268 0.07028,0.2206584 0.04347,0.040633 0.111209,0.060461 0.21084,0.060461 h 1.163753 v 1.1136271 h 0.232544 V 3.8146486 h 0.478008 V 2.3630576 H 14.715299 V 1.656124 c 0,-0.029524 -0.0076,-0.044038 -0.01602,-0.05271 -0.0084,-0.00867 -0.02071,-0.015503 -0.04651,-0.015503 h -0.101802 c -0.02581,0 -0.04084,0.00603 -0.05064,0.015503 -0.0098,0.00947 -0.01757,0.02447 -0.01757,0.05271 v 0.7069336 h -0.992188 c -0.07867,0 -0.137853,-0.01036 -0.177766,-0.05271 -0.03996,-0.04235 -0.04289,-0.096381 -0.04289,-0.1617472 V 0.58538835 Z m 2.964161,0 c -0.14985,0 -0.28112,0.12805369 -0.28112,0.28370361 V 2.3124147 c 0,0.046618 0.01153,0.078505 0.03514,0.10542 0.02362,0.026915 0.06087,0.05068 0.116788,0.066663 l 0.144695,0.040825 -0.140561,0.054777 c -0.112928,0.043036 -0.156062,0.098649 -0.156062,0.177767 V 4.647157 c 0,0.1624467 0.130159,0.2811198 0.28112,0.2811198 h 1.722375 c 0.164468,0 0.286804,-0.1176314 0.286804,-0.2811198 V 2.7578656 c 0,-0.05346 -0.01202,-0.091935 -0.03514,-0.1193726 -0.02313,-0.027438 -0.0592,-0.046045 -0.113171,-0.056328 L 17.675325,2.544958 17.857226,2.484497 c 0.0572,-0.019074 0.09519,-0.041788 0.118856,-0.068213 0.02367,-0.026426 0.03514,-0.057253 0.03514,-0.1038697 V 0.86909196 c 0,-0.15672523 -0.123378,-0.28370361 -0.286804,-0.28370361 z m 2.642216,0 V 3.0565554 h 1.839163 c 0.06502,0 0.12401,0.018568 0.164332,0.060979 0.04032,0.042411 0.0584,0.1035036 0.0584,0.1736328 v 1.0784872 c 0,0.065041 -0.01806,0.1219044 -0.0584,0.162264 -0.04034,0.04036 -0.09931,0.058394 -0.164332,0.058394 h -1.384411 c -0.06502,0 -0.123421,-0.017434 -0.162264,-0.058394 -0.03884,-0.04096 -0.05426,-0.0981 -0.05426,-0.162264 V 3.7758913 c 0,-0.038006 -0.009,-0.055975 -0.02378,-0.06873 -0.01475,-0.012755 -0.04223,-0.023254 -0.09146,-0.023254 -0.04923,0 -0.08128,0.011867 -0.09767,0.025322 -0.01639,0.013455 -0.02584,0.029698 -0.02584,0.066663 v 0.8712646 c 0,0.1039573 0.03523,0.1700619 0.0863,0.2144572 0.05107,0.044395 0.123723,0.066663 0.203088,0.066663 h 1.722376 c 0.08535,0 0.155016,-0.023735 0.203087,-0.068213 0.04807,-0.044478 0.07803,-0.1108987 0.07803,-0.2129069 V 2.947518 c 0,-0.081588 -0.02296,-0.1387115 -0.06667,-0.1777669 -0.0437,-0.039055 -0.113031,-0.062529 -0.214456,-0.062529 H 19.604924 V 0.92541928 h 1.075903 V 1.8747154 c 0,0.031936 0.0092,0.046406 0.01757,0.054777 0.0084,0.00836 0.01916,0.013953 0.03876,0.013953 h 0.09612 c 0.02719,0 0.04834,-0.00772 0.06046,-0.01757 0.01213,-0.00985 0.01912,-0.021606 0.01912,-0.05116 V 0.58538835 Z M 5.5447996,0.69287533 V 4.9282757 H 6.8475624 V 3.1661093 h 1.1658204 c 0.064393,0 0.1147908,0.012264 0.1519287,0.044959 0.037138,0.032693 0.051159,0.08029 0.051159,0.127124 v 1.5900834 h 0.363286 V 3.1836794 c 0,-0.1287504 -0.058062,-0.1791256 -0.142627,-0.2051555 L 8.265047,2.9258139 8.4386798,2.8829228 c 0.028114,-0.00703 0.066158,-0.036996 0.094051,-0.078032 0.027894,-0.041036 0.047026,-0.093248 0.047026,-0.1291911 V 1.0525433 c 0,-0.13253589 -0.03921,-0.21757811 -0.1038696,-0.27336833 -0.064661,-0.0557902 -0.1634168,-0.0862997 -0.294556,-0.0862997 z m 4.1925089,0 c -0.1544945,-2e-8 -0.2477437,0.0324863 -0.3023071,0.0878499 -0.054564,0.0553636 -0.078548,0.14373817 -0.078548,0.27181807 v 1.6154053 c 0,0.1169469 0.019995,0.180283 0.060978,0.217041 0.040983,0.036758 0.1158985,0.056328 0.2418457,0.056328 h 1.1854579 c 0.0739,0 0.133795,0.010368 0.177766,0.047026 0.04397,0.036658 0.05633,0.093713 0.05633,0.1581298 v 1.0707357 c 0,0.064417 -0.01355,0.1216613 -0.0584,0.1560629 -0.04485,0.0344 -0.102724,0.039274 -0.1757,0.039274 H 9.960034 c -0.080303,0 -0.1404175,-0.00536 -0.1875854,-0.039274 C 9.7252806,4.339358 9.7099206,4.281627 9.7099206,4.2172091 v -0.523483 c 0,-0.043637 -0.00656,-0.060898 -0.01757,-0.07028 -0.011014,-0.00938 -0.040762,-0.019637 -0.1012858,-0.019637 h -0.115239 c -0.054395,0 -0.087625,0.0088 -0.099735,0.01757 -0.012109,0.00877 -0.019637,0.022376 -0.019637,0.072347 v 0.9534302 c 0,0.1053251 0.018597,0.1727914 0.060978,0.2144572 0.042382,0.041666 0.1175324,0.066663 0.2495972,0.066663 h 2.363163 c 0.131602,0 0.226405,-0.026832 0.286804,-0.080098 0.0604,-0.053266 0.09405,-0.1363139 0.09405,-0.2697509 V 2.7619997 c 0,-0.1361402 -0.02434,-0.2147219 -0.07028,-0.2599325 -0.04593,-0.045211 -0.12308,-0.068213 -0.248047,-0.068213 h -2.13269 c -0.07663,0 -0.1352361,-0.0056 -0.1813843,-0.041341 -0.046148,-0.035741 -0.060462,-0.094414 -0.060462,-0.162264 v -0.784965 c 0,-0.067751 0.023105,-0.1297442 0.07183,-0.1679484 0.048726,-0.038204 0.11401,-0.05271 0.1932699,-0.05271 h 1.7926544 c 0.07663,0 0.136468,0.00564 0.183969,0.038757 0.0475,0.033118 0.06615,0.092602 0.06615,0.1581299 v 0.4082438 c -1e-5,0.030226 0.0069,0.037344 0.02171,0.047026 0.01477,0.00968 0.04501,0.01757 0.08991,0.01757 h 0.146244 c 0.03923,0 0.06869,-0.0089 0.08371,-0.019637 0.01499,-0.010739 0.02171,-0.019795 0.02171,-0.044959 V 1.0742474 c 0,-0.15495006 -0.03211,-0.24476388 -0.09198,-0.29920655 -0.05986,-0.0544427 -0.159817,-0.0821656 -0.319877,-0.0821656 z m 6.4600705,0.23254395 h 1.360641 c 0.06502,0 0.123421,0.0179517 0.162264,0.0589112 0.03884,0.0409594 0.05478,0.0975827 0.05478,0.16174712 v 1.0200928 c 0,0.064165 -0.01736,0.1206976 -0.05684,0.1601969 -0.03948,0.039499 -0.09606,0.05426 -0.160196,0.05426 h -1.360641 c -0.06162,0 -0.118166,-0.014762 -0.156579,-0.05426 -0.03842,-0.039498 -0.05426,-0.096033 -0.05426,-0.1601969 V 1.1460776 c 0,-0.064165 0.0165,-0.1208198 0.05426,-0.16174719 0.03776,-0.0409276 0.09404,-0.0589112 0.156579,-0.0589112 z M 6.8475624,1.2086062 h 1.1890748 c 0.057721,0 0.1043941,0.014465 0.1369426,0.047026 0.032549,0.032561 0.042892,0.077315 0.042892,0.1193725 v 1.1467 c 0,0.045168 -0.0092,0.090891 -0.042892,0.1229899 -0.033692,0.0321 -0.080504,0.042891 -0.1369426,0.042891 H 6.8475624 Z m 9.3498166,1.4634764 h 1.360641 c 0.06415,0 0.120715,0.015278 0.160196,0.054777 0.03948,0.0395 0.05684,0.097584 0.05684,0.1617473 v 0.3674194 c 0,0.064164 -0.01594,0.1213053 -0.05478,0.162264 -0.03884,0.04096 -0.09725,0.058394 -0.162264,0.058394 h -1.360641 c -0.06255,0 -0.118816,-0.019534 -0.156579,-0.060462 -0.03777,-0.040928 -0.05426,-0.096033 -0.05426,-0.1601969 V 2.888607 c 0,-0.064165 0.01585,-0.1206996 0.05426,-0.160197 0.03841,-0.039498 0.09496,-0.056328 0.156579,-0.056328 z" />
  </g>
  <g
     inkscape:label="F.SilkS"
     inkscape:groupmode="layer"
     id="g208"
     style="display:inline">
    <g
       aria-label="rs485"
       transform="matrix(0.99981054,0,0,1.0001895,0.17678609,0.08347415)"
       id="text617-2-0-3"
       style="font-weight:bold;font-size:5.92186px;font-family:Arial;-inkscape-font-specification:'Arial Bold';display:inline;fill:none;stroke:#ffcc00;stroke-width:0.1;paint-order:stroke markers fill">
      <path
         style="color:#000000;-inkscape-font-specification:'Arial Bold';fill:#ffcc00;stroke:none"
         d="M 5.2695312,0.50976562 V 4.9433594 H 6.7714844 V 3.1816406 h 1.0664062 c 0.051071,0 0.074967,0.00988 0.085937,0.019531 0.01097,0.00965 0.017578,0.022576 0.017578,0.052734 V 4.9433594 H 8.5039063 V 4.8945312 3.0996094 c 0,-0.130809 -0.086206,-0.1904909 -0.1699219,-0.2402344 0.039523,-0.022883 0.081025,-0.043212 0.1074219,-0.082031 0.037537,-0.055202 0.0625,-0.1214046 0.0625,-0.1855469 V 0.96875 c 0,-0.15233072 -0.047422,-0.27259131 -0.1367188,-0.34960938 -0.089296,-0.0770181 -0.2153491,-0.10937499 -0.3613281,-0.109375 z m 0.099609,0.0996094 H 8.005859 c 0.1311642,0 0.2302497,0.0301578 0.2949219,0.0859375 0.064672,0.0557797 0.1035156,0.14092659 0.1035156,0.2734375 V 2.5917969 c 0,0.035937 -0.018976,0.087878 -0.046875,0.1289062 -0.027899,0.041028 -0.065631,0.071095 -0.09375,0.078125 l -0.1738281,0.042969 0.171875,0.052734 c 0.084581,0.026025 0.1425781,0.076352 0.1425781,0.2050781 V 4.84375 H 8.0410156 V 3.2539063 c 0,-0.046825 -0.013636,-0.094266 -0.050781,-0.1269532 -0.037145,-0.032688 -0.087939,-0.044922 -0.1523438,-0.044922 H 6.671875 V 4.84375 H 5.3691406 Z M 6.671875,1.125 v 1.4785156 h 1.1894531 c 0.05645,0 0.1030208,-0.010875 0.1367188,-0.042969 0.033698,-0.032093 0.042969,-0.077888 0.042969,-0.1230469 V 1.2910156 c 0,-0.04205 -0.010414,-0.086586 -0.042969,-0.1191406 C 7.9654923,1.1393203 7.9190602,1.125 7.8613281,1.125 Z m 0.099609,0.1015625 h 1.0898437 c 0.042347,0 0.058544,0.00776 0.066406,0.015625 0.00786,0.00786 0.013672,0.021593 0.013672,0.048828 V 2.4375 c 0,0.031825 -0.005,0.044382 -0.011719,0.050781 -0.00672,0.0064 -0.02473,0.015625 -0.068359,0.015625 H 6.7714844 Z"
         id="path1921" />
      <path
         style="color:#000000;-inkscape-font-specification:'Arial Bold';fill:#ffcc00;stroke:none"
         d="m 9.5625,0.50976562 c -0.1688097,0 -0.292898,0.0358937 -0.3730469,0.1171875 -0.080149,0.0812938 -0.109375,0.20040783 -0.109375,0.34179688 v 1.6152344 c 0,0.1294247 0.025067,0.2296397 0.095703,0.2929687 0.070636,0.063329 0.1728185,0.082031 0.3085937,0.082031 h 1.1855472 c 0.06466,0 0.09952,0.010021 0.113281,0.021484 0.01376,0.011464 0.02148,0.030959 0.02149,0.082031 v 1.0703125 c 0,0.051072 -0.0067,0.066301 -0.01953,0.076172 -0.01287,0.00987 -0.04965,0.019531 -0.115234,0.019531 H 9.7851563 c -0.073651,0 -0.1144958,-0.011127 -0.1289063,-0.021484 C 9.641839,4.1966726 9.634766,4.1838836 9.634766,4.1328116 V 3.609375 C 9.634766,3.552925 9.62298,3.497773 9.582032,3.4628906 9.541083,3.4280086 9.486355,3.4199216 9.4160163,3.4199216 h -0.115235 c -0.061072,0 -0.1145019,0.00351 -0.1582032,0.035156 -0.043701,0.031646 -0.0625,0.088781 -0.0625,0.1542969 V 4.5625 c 0,0.1179489 0.022559,0.2171124 0.091797,0.2851562 0.069238,0.068044 0.1752596,0.095703 0.3203125,0.095703 h 2.3632814 c 0.145516,0 0.267655,-0.029776 0.353515,-0.1054688 0.08586,-0.075692 0.128907,-0.1923202 0.128907,-0.34375 v -1.816406 c 0,-0.1487271 -0.02818,-0.2598325 -0.101563,-0.3320313 C 12.162946,2.2735044 12.054724,2.25 11.917969,2.25 H 9.7851563 C 9.71553,2.25 9.6775684,2.240925 9.6640625,2.2304688 9.6505566,2.2200125 9.6425781,2.2018216 9.6425781,2.1464844 V 1.3613281 c 0,-0.047738 0.010727,-0.072228 0.033203,-0.089844 0.022476,-0.017616 0.065818,-0.029297 0.1328125,-0.029297 h 1.7929694 c 0.06963,0 0.110949,0.00838 0.126953,0.019531 0.016,0.011154 0.02344,0.026212 0.02344,0.076172 v 0.4082031 c 0,0.054463 0.02537,0.1039741 0.06641,0.1308594 0.04104,0.026885 0.08937,0.033203 0.144532,0.033203 h 0.146484 c 0.05313,0 0.101768,-0.00935 0.140625,-0.037109 0.03886,-0.027755 0.06445,-0.075127 0.06445,-0.1269532 V 0.99023438 c 0,-0.16841288 -0.03473,-0.29275692 -0.123047,-0.37304688 -0.08832,-0.08029 -0.217729,-0.10742188 -0.388672,-0.10742188 z m 0,0.0996094 h 2.240234 c 0.16009,0 0.260437,0.0275988 0.320313,0.0820313 0.05988,0.0544324 0.0918,0.14390727 0.0918,0.29882813 V 1.7460937 c 0,0.025159 -0.0065,0.034185 -0.02149,0.044922 -0.01503,0.010737 -0.04474,0.019531 -0.08398,0.019531 h -0.146484 c -0.04491,0 -0.07507,-0.0079 -0.08984,-0.017578 -0.01478,-0.00968 -0.02149,-0.016655 -0.02148,-0.046875 V 1.3378906 c -10e-7,-0.065516 -0.0189,-0.1250913 -0.06641,-0.1582031 -0.04751,-0.033112 -0.10695,-0.039063 -0.183593,-0.039063 H 9.8085938 c -0.079275,0 -0.1446247,0.014537 -0.1933594,0.052734 -0.048735,0.038197 -0.072266,0.1002305 -0.072266,0.1679687 v 0.7851563 c 0,0.067837 0.01439,0.126375 0.060547,0.1621094 0.046157,0.035734 0.1049968,0.041016 0.1816407,0.041016 h 2.1328129 c 0.12499,0 0.202103,0.023157 0.248047,0.068359 0.04594,0.045202 0.07031,0.1236511 0.07031,0.2597656 v 1.8164062 c 0,0.1334119 -0.03334,0.2162751 -0.09375,0.2695313 -0.06041,0.053256 -0.155482,0.080078 -0.287109,0.080078 H 9.4921875 c -0.13209,0 -0.2076104,-0.024748 -0.25,-0.066406 C 9.1997979,4.735685 9.1816406,4.6678052 9.1816406,4.5625 V 3.609375 c 0,-0.049961 0.00742,-0.063495 0.019531,-0.072266 0.012112,-0.00877 0.045204,-0.017578 0.099609,-0.017578 h 0.1152343 c 0.060535,0 0.090547,0.010148 0.1015625,0.019531 0.011016,0.00938 0.017578,0.026683 0.017578,0.070312 v 0.5234375 c 0,0.064405 0.015323,0.1223416 0.0625,0.15625 0.047177,0.033908 0.1071824,0.039063 0.1875,0.039063 h 0.8847656 c 0.07299,0 0.130918,-0.00467 0.175781,-0.039063 0.04486,-0.034395 0.05859,-0.091845 0.05859,-0.15625 V 3.0625 c 0,-0.064405 -0.01266,-0.1215517 -0.05664,-0.1582031 -0.04398,-0.036651 -0.103819,-0.046875 -0.177734,-0.046875 H 9.484375 c -0.1259713,0 -0.2011966,-0.01989 -0.2421875,-0.056641 C 9.2011965,2.7640299 9.1816405,2.7009089 9.1816405,2.583984 V 0.96875 c 0,-0.12805573 0.023551,-0.21613122 0.078125,-0.27148438 C 9.3143392,0.64191247 9.407976,0.609375 9.5625,0.60937502 Z"
         id="path1923" />
      <path
         style="color:#000000;-inkscape-font-specification:'256 Bytes Bold';fill:#ffcc00;stroke:none"
         d="M 12.763672,0.40234375 V 3.4492188 c 0,0.1295281 0.03253,0.2284803 0.101562,0.2929687 0.06903,0.064488 0.165759,0.087891 0.279297,0.087891 h 1.064453 v 1.1132813 h 0.431641 V 4.8945312 3.8300781 h 0.478516 V 2.1796875 H 14.640625 V 1.5722656 c 0,-0.047466 -0.01478,-0.091747 -0.04492,-0.1230469 -0.03014,-0.0313 -0.07193,-0.044922 -0.117187,-0.044922 h -0.101563 c -0.04525,0 -0.08946,0.012461 -0.121094,0.042969 -0.03164,0.030507 -0.04687,0.076251 -0.04687,0.125 v 0.6074219 h -0.892578 c -0.06936,0 -0.09458,-0.012011 -0.103515,-0.021484 -0.0089,-0.00947 -0.01758,-0.034745 -0.01758,-0.09375 V 0.40234375 Z m 0.09961,0.0996094 h 0.232422 V 2.0644531 c 0,0.065354 0.003,0.1197671 0.04297,0.1621094 0.03992,0.042342 0.09904,0.052734 0.177734,0.052734 h 0.992188 V 1.5722656 c 0,-0.028235 0.0078,-0.043269 0.01758,-0.052734 0.0098,-0.00947 0.02497,-0.015625 0.05078,-0.015625 h 0.101563 c 0.02581,0 0.03852,0.00695 0.04687,0.015625 0.0084,0.00867 0.01563,0.023216 0.01563,0.052734 v 0.7070313 h 0.478515 V 3.7304688 H 14.541016 V 4.84375 H 14.308594 V 3.7304688 h -1.164063 c -0.09965,-1e-7 -0.167452,-0.019922 -0.210937,-0.060547 -0.04349,-0.040624 -0.07031,-0.1074353 -0.07031,-0.2207031 z"
         id="path1925" />
      <path
         style="color:#000000;-inkscape-font-specification:'256 Bytes Bold';fill:#ffcc00;stroke:none"
         d="m 15.828125,0.40234375 c -0.205434,0 -0.382812,0.17127813 -0.382812,0.3828125 V 2.2285156 c 0,0.065907 0.0205,0.1262422 0.06055,0.171875 0.02688,0.030634 0.07091,0.046164 0.111329,0.064453 -0.08555,0.055269 -0.171875,0.1147801 -0.171875,0.2089843 V 4.5625 c 0,0.2165826 0.17849,0.3808594 0.382812,0.3808594 h 1.722656 c 0.214499,0 0.388672,-0.1653184 0.388672,-0.3808594 V 2.6738281 c 0,-0.070909 -0.02002,-0.1355222 -0.06055,-0.1835937 -0.01963,-0.023279 -0.05446,-0.029909 -0.08203,-0.044922 0.02665,-0.015664 0.06047,-0.024989 0.08008,-0.046875 0.03999,-0.044642 0.0625,-0.1040151 0.0625,-0.1699219 V 0.78515625 c 0,-0.21045926 -0.173131,-0.3828125 -0.388672,-0.3828125 z m 0,0.0996094 h 1.722656 c 0.163457,0 0.28711,0.12650744 0.28711,0.28320313 V 2.2285156 c 0,0.046608 -0.01149,0.077095 -0.03516,0.1035157 -0.02367,0.02642 -0.06193,0.049289 -0.11914,0.068359 l -0.181641,0.060547 0.1875,0.037109 c 0.05398,0.010281 0.09015,0.029208 0.113281,0.056641 0.02313,0.027432 0.03516,0.065691 0.03516,0.1191406 V 4.5625 c 0,0.1634576 -0.122611,0.28125 -0.28711,0.28125 h -1.722656 c -0.150989,0 -0.28125,-0.1188339 -0.28125,-0.28125 V 2.6738281 c 0,-0.079103 0.0433,-0.1347065 0.15625,-0.1777343 l 0.140625,-0.054687 -0.144531,-0.041016 c -0.05593,-0.01598 -0.09357,-0.039496 -0.117188,-0.066406 -0.02362,-0.02691 -0.03516,-0.05886 -0.03516,-0.1054688 V 0.78515625 c 0,-0.15562058 0.131372,-0.28320313 0.28125,-0.28320313 z m 0.195312,0.33984376 c -0.06255,0 -0.118477,0.017674 -0.156249,0.0585938 C 15.829415,0.9413104 15.8125,0.99834717 15.8125,1.0625 v 1.0195313 c 0,0.064152 0.01626,0.1206653 0.05469,0.1601562 0.03842,0.039491 0.09462,0.054687 0.156249,0.054687 h 1.361329 c 0.06415,0 0.120663,-0.015196 0.160156,-0.054687 0.03949,-0.039492 0.05664,-0.096003 0.05664,-0.1601562 V 1.0625 c 0,-0.0641524 -0.01584,-0.12115768 -0.05469,-0.16210937 -0.03885,-0.0409517 -0.09708,-0.0585938 -0.162109,-0.0585938 z m 0,0.0996094 h 1.361329 c 0.04749,0 0.07392,0.0105574 0.08984,0.0273438 0.01593,0.0167864 0.02734,0.0453871 0.02734,0.09375 v 1.0195313 c 0,0.048362 -0.01206,0.074558 -0.02734,0.089844 -0.01529,0.015285 -0.04148,0.025391 -0.08984,0.025391 h -1.361329 c -0.04496,0 -0.06911,-0.010104 -0.08398,-0.025391 -0.01487,-0.015286 -0.02539,-0.041481 -0.02539,-0.089844 V 1.0625 c 0,-0.048362 0.0099,-0.0769317 0.02539,-0.09375 0.01553,-0.0168183 0.03995,-0.0273438 0.08398,-0.0273437 z m 0,1.64648439 c -0.06163,0 -0.117826,0.01715 -0.156249,0.056641 -0.03842,0.03949 -0.05469,0.096003 -0.05469,0.1601562 V 3.171875 c 0,0.064152 0.01691,0.1192361 0.05469,0.1601563 0.03777,0.04092 0.09369,0.060547 0.156249,0.060547 h 1.361329 c 0.06503,0 0.123257,-0.017642 0.162109,-0.058594 0.03885,-0.040951 0.05469,-0.097957 0.05469,-0.1621094 V 2.8046875 c 0,-0.064152 -0.01715,-0.1226172 -0.05664,-0.1621094 -0.03949,-0.039492 -0.096,-0.054687 -0.160156,-0.054687 z m 0,0.099609 h 1.361329 c 0.04836,0 0.07456,0.012059 0.08984,0.027344 0.01528,0.015285 0.02734,0.041481 0.02734,0.089844 V 3.171875 c 0,0.048362 -0.01142,0.07501 -0.02734,0.091797 -0.01593,0.016787 -0.04236,0.029297 -0.08984,0.029297 h -1.361329 c -0.04404,0 -0.06846,-0.010526 -0.08398,-0.027344 -0.01552,-0.016818 -0.02539,-0.045387 -0.02539,-0.09375 V 2.8046875 c 0,-0.048362 0.01052,-0.07651 0.02539,-0.091797 0.01487,-0.015287 0.03902,-0.025391 0.08398,-0.025391 z"
         id="path1927" />
      <path
         style="color:#000000;-inkscape-font-specification:'256 Bytes Bold';fill:#ffcc00;stroke:none"
         d="M 18.371094,0.40234375 V 3.0722656 h 1.939453 c 0.04749,0 0.07439,0.012954 0.0918,0.03125 0.0174,0.018296 0.0293,0.049273 0.0293,0.1035157 v 1.0781249 c 0,0.047485 -0.01,0.074411 -0.02734,0.091797 -0.01739,0.017386 -0.04626,0.029297 -0.09375,0.029297 h -1.384766 c -0.04749,0 -0.07392,-0.010557 -0.08984,-0.027344 -0.01593,-0.016786 -0.02734,-0.045387 -0.02734,-0.09375 V 3.6914063 c 0,-0.056751 -0.01661,-0.1099099 -0.05664,-0.1445313 C 18.711921,3.5122536 18.657024,3.5 18.59375,3.5 c -0.06328,0 -0.118813,0.012952 -0.160156,0.046875 -0.04134,0.033923 -0.0625,0.08674 -0.0625,0.1445313 V 4.5625 c 0,0.1270146 0.04586,0.2273287 0.11914,0.2910156 0.07328,0.063687 0.171259,0.089844 0.269532,0.089844 h 1.722656 c 0.104125,0 0.201123,-0.028666 0.271484,-0.09375 0.07036,-0.065085 0.109375,-0.164068 0.109375,-0.2871096 V 2.8632813 c 0,-0.1020039 -0.03228,-0.1918096 -0.09961,-0.2519532 -0.06733,-0.060144 -0.163588,-0.087891 -0.28125,-0.087891 H 19.53125 V 0.94140625 h 0.876953 V 1.7910156 c 0,0.050976 0.01675,0.094875 0.04687,0.125 0.03012,0.030125 0.06976,0.042969 0.109375,0.042969 h 0.0957 c 0.04386,0 0.08779,-0.01042 0.123047,-0.039063 0.03525,-0.028643 0.05664,-0.075548 0.05664,-0.1289063 V 0.40234375 Z m 0.09961,0.0996094 h 2.269531 V 1.7910156 c 0,0.029548 -0.0074,0.040932 -0.01953,0.050781 -0.01212,0.00985 -0.03335,0.017578 -0.06055,0.017578 h -0.0957 c -0.01961,0 -0.0307,-0.00531 -0.03906,-0.013672 -0.0084,-0.00837 -0.01758,-0.022757 -0.01758,-0.054687 V 0.84179688 H 19.431641 V 2.6230469 h 1.050781 c 0.101446,0 0.171134,0.023452 0.214844,0.0625 0.04371,0.039048 0.06641,0.096161 0.06641,0.1777344 V 4.5625 c 0,0.1019889 -0.03005,0.1684207 -0.07813,0.2128906 -0.04808,0.04447 -0.11775,0.068359 -0.203125,0.068359 h -1.722656 c -0.07938,0 -0.15205,-0.022019 -0.203125,-0.066406 C 18.50556,4.7329566 18.4707,4.6664376 18.4707,4.5624999 V 3.6914063 c 0,-0.036958 0.009,-0.052954 0.02539,-0.066406 0.01639,-0.013452 0.04842,-0.025391 0.09766,-0.025391 0.04924,0 0.07705,0.010684 0.0918,0.023437 0.01475,0.012753 0.02344,0.03036 0.02344,0.068359 v 0.5937499 c 0,0.064152 0.01584,0.1211577 0.05469,0.1621094 0.03885,0.040952 0.09708,0.058594 0.162109,0.058594 h 1.384766 c 0.06503,0 0.12371,-0.018242 0.164062,-0.058594 0.04035,-0.040352 0.05859,-0.09708 0.05859,-0.1621094 V 3.2070313 c 0,-0.070116 -0.01826,-0.1314252 -0.05859,-0.1738282 -0.04033,-0.042403 -0.09903,-0.060547 -0.164062,-0.060547 h -1.839844 z"
         id="path1929" />
    </g>
    <g
       aria-label="rs485"
       transform="matrix(0.99981054,0,0,1.0001895,-0.01225506,-2.1373789)"
       id="text617-2-0-3-0"
       style="font-weight:bold;font-size:5.92186px;font-family:Arial;-inkscape-font-specification:'Arial Bold';display:inline;fill:none;stroke:#ffcc00;stroke-width:0.1;paint-order:stroke markers fill" />
    <text
       xml:space="preserve"
       style="font-weight:bold;font-size:3.8765px;line-height:96.4%;font-family:Arial;-inkscape-font-specification:'Arial Bold';fill:none;stroke:#0000ff;stroke-width:0.264583;paint-order:stroke markers fill"
       x="5.2745333"
       y="7.6066389"
       id="text617-22"
       transform="scale(0.99981054,1.0001895)"><tspan
         sodipodi:role="line"
         id="tspan615-7"
         style="font-style:normal;font-variant:normal;font-weight:bold;font-stretch:normal;font-family:'256 Bytes';-inkscape-font-specification:'256 Bytes Bold';fill:#ff0000;stroke:none;stroke-width:0.264583"
         x="5.2745333"
         y="7.6066389">interface</tspan></text>
  </g>
  <g
     inkscape:label="Dwgs.User"
     inkscape:groupmode="layer"
     id="g210" />
  <g
     inkscape:label="Drill"
     inkscape:groupmode="layer"
     id="g212" />
</svg>
