%TF.GenerationSoftware,KiCad,Pcbnew,9.0.3*%
%TF.CreationDate,2025-09-30T15:56:12+01:00*%
%TF.ProjectId,RS485 Device Connector PCB,52533438-3520-4446-9576-69636520436f,rev?*%
%TF.SameCoordinates,PX5734380PY7df6180*%
%TF.FileFunction,Copper,L2,Bot*%
%TF.FilePolarity,Positive*%
%FSLAX46Y46*%
G04 Gerber Fmt 4.6, Leading zero omitted, Abs format (unit mm)*
G04 Created by KiCad (PCBNEW 9.0.3) date 2025-09-30 15:56:12*
%MOMM*%
%LPD*%
G01*
G04 APERTURE LIST*
G04 Aperture macros list*
%AMRoundRect*
0 Rectangle with rounded corners*
0 $1 Rounding radius*
0 $2 $3 $4 $5 $6 $7 $8 $9 X,Y pos of 4 corners*
0 Add a 4 corners polygon primitive as box body*
4,1,4,$2,$3,$4,$5,$6,$7,$8,$9,$2,$3,0*
0 Add four circle primitives for the rounded corners*
1,1,$1+$1,$2,$3*
1,1,$1+$1,$4,$5*
1,1,$1+$1,$6,$7*
1,1,$1+$1,$8,$9*
0 Add four rect primitives between the rounded corners*
20,1,$1+$1,$2,$3,$4,$5,0*
20,1,$1+$1,$4,$5,$6,$7,0*
20,1,$1+$1,$6,$7,$8,$9,0*
20,1,$1+$1,$8,$9,$2,$3,0*%
G04 Aperture macros list end*
%TA.AperFunction,ComponentPad*%
%ADD10C,3.000000*%
%TD*%
%TA.AperFunction,ComponentPad*%
%ADD11R,3.000000X3.000000*%
%TD*%
%TA.AperFunction,ComponentPad*%
%ADD12C,2.032000*%
%TD*%
%TA.AperFunction,ComponentPad*%
%ADD13R,2.032000X2.032000*%
%TD*%
%TA.AperFunction,ComponentPad*%
%ADD14C,1.600200*%
%TD*%
%TA.AperFunction,ComponentPad*%
%ADD15R,1.500000X1.500000*%
%TD*%
%TA.AperFunction,ComponentPad*%
%ADD16C,1.500000*%
%TD*%
%TA.AperFunction,ComponentPad*%
%ADD17C,1.905000*%
%TD*%
%TA.AperFunction,ComponentPad*%
%ADD18R,2.100580X2.100580*%
%TD*%
%TA.AperFunction,ComponentPad*%
%ADD19C,2.199640*%
%TD*%
%TA.AperFunction,ComponentPad*%
%ADD20R,3.000000X2.032000*%
%TD*%
%TA.AperFunction,ComponentPad*%
%ADD21RoundRect,0.508000X-0.992000X0.508000X-0.992000X-0.508000X0.992000X-0.508000X0.992000X0.508000X0*%
%TD*%
%TA.AperFunction,ComponentPad*%
%ADD22RoundRect,0.750000X-1.250000X-0.750000X1.250000X-0.750000X1.250000X0.750000X-1.250000X0.750000X0*%
%TD*%
%TA.AperFunction,ComponentPad*%
%ADD23RoundRect,0.250000X-0.550000X0.550000X-0.550000X-0.550000X0.550000X-0.550000X0.550000X0.550000X0*%
%TD*%
%TA.AperFunction,ComponentPad*%
%ADD24C,1.600000*%
%TD*%
%TA.AperFunction,ComponentPad*%
%ADD25R,1.800000X1.717500*%
%TD*%
%TA.AperFunction,ComponentPad*%
%ADD26O,1.800000X1.717500*%
%TD*%
%TA.AperFunction,ComponentPad*%
%ADD27R,1.500000X1.050000*%
%TD*%
%TA.AperFunction,ComponentPad*%
%ADD28O,1.500000X1.050000*%
%TD*%
%TA.AperFunction,ComponentPad*%
%ADD29C,1.800000*%
%TD*%
%TA.AperFunction,ViaPad*%
%ADD30C,0.600000*%
%TD*%
%TA.AperFunction,Conductor*%
%ADD31C,1.000000*%
%TD*%
%TA.AperFunction,Conductor*%
%ADD32C,0.500000*%
%TD*%
%TA.AperFunction,Profile*%
%ADD33C,0.100000*%
%TD*%
G04 APERTURE END LIST*
D10*
%TO.P,DCDC1,1,-Vin*%
%TO.N,GND*%
X46335000Y84455000D03*
D11*
%TO.P,DCDC1,2,+Vin*%
%TO.N,Net-(DCDC1-+Vin)*%
X46335000Y76955000D03*
%TO.P,DCDC1,3,+Vout*%
%TO.N,/PWR_DC_DC*%
X76835000Y76955000D03*
D10*
%TO.P,DCDC1,4,-Vout*%
%TO.N,GND*%
X76835000Y84455000D03*
%TD*%
D12*
%TO.P,J1,3,Pin_3*%
%TO.N,VCC*%
X85090000Y79121000D03*
%TO.P,J1,2,Pin_2*%
%TO.N,Net-(J1-Pin_2)*%
X85090000Y76581000D03*
D13*
%TO.P,J1,1,Pin_1*%
%TO.N,/PWR_DC_DC*%
X85090000Y74041000D03*
%TD*%
D14*
%TO.P,P9,1,1*%
%TO.N,/ATMega328/MISO*%
X36830000Y40640000D03*
%TO.P,P9,2,2*%
%TO.N,VCC*%
X39370000Y40640000D03*
%TO.P,P9,3,3*%
%TO.N,/ATMega328/SCLK*%
X36830000Y38100000D03*
%TO.P,P9,4,4*%
%TO.N,/ATMega328/MOSI*%
X39370000Y38100000D03*
%TO.P,P9,5,5*%
%TO.N,/ATMega328/RESET*%
X36830000Y35560000D03*
%TO.P,P9,6,6*%
%TO.N,GND*%
X39370000Y35560000D03*
%TD*%
D12*
%TO.P,R7,1*%
%TO.N,VCC*%
X97790000Y35560000D03*
%TO.P,R7,2*%
%TO.N,/I2C_SCL*%
X90170000Y35560000D03*
%TD*%
%TO.P,C5,1*%
%TO.N,GND*%
X68580000Y46990000D03*
%TO.P,C5,2*%
%TO.N,Net-(U2-XTAL1{slash}PB6)*%
X68580000Y49530000D03*
%TD*%
%TO.P,R6,1*%
%TO.N,VCC*%
X97790000Y39370000D03*
%TO.P,R6,2*%
%TO.N,/I2C_SDA*%
X90170000Y39370000D03*
%TD*%
D15*
%TO.P,P5,1,Pin_1*%
%TO.N,/I2C_SCL*%
X93980000Y44260000D03*
D16*
%TO.P,P5,2,Pin_2*%
%TO.N,/I2C_SDA*%
X93980000Y46260000D03*
%TO.P,P5,3,Pin_3*%
%TO.N,/Vcc*%
X93980000Y48260000D03*
%TO.P,P5,4,Pin_4*%
%TO.N,GND*%
X93980000Y50260000D03*
%TD*%
D12*
%TO.P,C6,1*%
%TO.N,GND*%
X53340000Y46990000D03*
%TO.P,C6,2*%
%TO.N,Net-(U2-XTAL2{slash}PB7)*%
X53340000Y49530000D03*
%TD*%
%TO.P,R4,1*%
%TO.N,/ATMega328/D7*%
X40640000Y31496000D03*
%TO.P,R4,2*%
%TO.N,Net-(D1-A)*%
X48260000Y31496000D03*
%TD*%
%TO.P,R5,2*%
%TO.N,/ATMega328/RESET*%
X86360000Y52070000D03*
%TO.P,R5,1*%
%TO.N,VCC*%
X78740000Y52070000D03*
%TD*%
D17*
%TO.P,C4,1*%
%TO.N,/ATMega328/DTR*%
X86360000Y35560000D03*
%TO.P,C4,2*%
%TO.N,/ATMega328/RESET*%
X86360000Y40640000D03*
%TD*%
D13*
%TO.P,P6,1,Pin_1*%
%TO.N,/RS485_A*%
X91440000Y85344000D03*
D15*
X93551000Y80724000D03*
D12*
%TO.P,P6,2,Pin_2*%
%TO.N,/RS485_B*%
X91440000Y80264000D03*
D16*
X93551000Y78724000D03*
%TO.P,P6,3,Pin_3*%
%TO.N,Net-(J1-Pin_2)*%
X93551000Y76724000D03*
D12*
X91440000Y75184000D03*
D16*
%TO.P,P6,4,Pin_4*%
%TO.N,GND*%
X93551000Y74724000D03*
D12*
X91440000Y70104000D03*
%TD*%
%TO.P,R2,1*%
%TO.N,GND*%
X39370000Y68580000D03*
%TO.P,R2,2*%
%TO.N,Net-(Q1-B)*%
X39370000Y76200000D03*
%TD*%
%TO.P,R3,1*%
%TO.N,Net-(Q1-C)*%
X36068000Y85344000D03*
%TO.P,R3,2*%
%TO.N,VCC*%
X36068000Y92964000D03*
%TD*%
D13*
%TO.P,C2,1*%
%TO.N,VCC*%
X43180000Y49530000D03*
D12*
%TO.P,C2,2*%
%TO.N,GND*%
X48260000Y49530000D03*
%TD*%
D17*
%TO.P,C3,1*%
%TO.N,GND*%
X85090000Y46990000D03*
%TO.P,C3,2*%
%TO.N,VCC*%
X80010000Y46990000D03*
%TD*%
D18*
%TO.P,P8,1,Pin_1*%
%TO.N,GND*%
X82550000Y29464000D03*
D19*
%TO.P,P8,2,Pin_2*%
X85090000Y29210000D03*
%TO.P,P8,3,Pin_3*%
%TO.N,VCC*%
X87630000Y29464000D03*
%TO.P,P8,4,Pin_4*%
%TO.N,/Rx*%
X90170000Y29210000D03*
%TO.P,P8,5,Pin_5*%
%TO.N,/Tx*%
X92710000Y29464000D03*
%TO.P,P8,6,Pin_6*%
%TO.N,/ATMega328/DTR*%
X95250000Y29210000D03*
%TD*%
D20*
%TO.P,U1,1,Vcc*%
%TO.N,VCC*%
X42850000Y66929000D03*
D21*
%TO.P,U1,2,Tx*%
%TO.N,/RS485_Tx*%
X42850000Y64389000D03*
%TO.P,U1,3,Rx*%
%TO.N,/RS485_Rx*%
X42850000Y61849000D03*
%TO.P,U1,4,GND*%
%TO.N,GND*%
X42850000Y59309000D03*
D22*
X82550000Y58009000D03*
%TO.P,U1,5,B-*%
%TO.N,/RS485_B*%
X82550000Y63089000D03*
%TO.P,U1,6,A+*%
%TO.N,/RS485_A*%
X82550000Y68169000D03*
%TD*%
D23*
%TO.P,U2,1,~{RESET}/PC6*%
%TO.N,/ATMega328/RESET*%
X80010000Y41910000D03*
D24*
%TO.P,U2,2,PD0*%
%TO.N,/Rx*%
X77470000Y41910000D03*
%TO.P,U2,3,PD1*%
%TO.N,/Tx*%
X74930000Y41910000D03*
%TO.P,U2,4,PD2*%
%TO.N,/RS485_Rx*%
X72390000Y41910000D03*
%TO.P,U2,5,PD3*%
%TO.N,/RS485_Tx*%
X69850000Y41910000D03*
%TO.P,U2,6,PD4*%
%TO.N,/RS485_PWR*%
X67310000Y41910000D03*
%TO.P,U2,7,VCC*%
%TO.N,VCC*%
X64770000Y41910000D03*
%TO.P,U2,8,GND*%
%TO.N,GND*%
X62230000Y41910000D03*
%TO.P,U2,9,XTAL1/PB6*%
%TO.N,Net-(U2-XTAL1{slash}PB6)*%
X59690000Y41910000D03*
%TO.P,U2,10,XTAL2/PB7*%
%TO.N,Net-(U2-XTAL2{slash}PB7)*%
X57150000Y41910000D03*
%TO.P,U2,11,PD5*%
%TO.N,/ATMega328/D5*%
X54610000Y41910000D03*
%TO.P,U2,12,PD6*%
%TO.N,/ATMega328/D6*%
X52070000Y41910000D03*
%TO.P,U2,13,PD7*%
%TO.N,/ATMega328/D7*%
X49530000Y41910000D03*
%TO.P,U2,14,PB0*%
%TO.N,/ATMega328/D8*%
X46990000Y41910000D03*
%TO.P,U2,15,PB1*%
%TO.N,/ATMega328/D9*%
X46990000Y34290000D03*
%TO.P,U2,16,PB2*%
%TO.N,/ATMega328/D10*%
X49530000Y34290000D03*
%TO.P,U2,17,PB3*%
%TO.N,/ATMega328/MOSI*%
X52070000Y34290000D03*
%TO.P,U2,18,PB4*%
%TO.N,/ATMega328/MISO*%
X54610000Y34290000D03*
%TO.P,U2,19,PB5*%
%TO.N,/ATMega328/SCLK*%
X57150000Y34290000D03*
%TO.P,U2,20,AVCC*%
%TO.N,VCC*%
X59690000Y34290000D03*
%TO.P,U2,21,AREF*%
%TO.N,Net-(U2-AREF)*%
X62230000Y34290000D03*
%TO.P,U2,22,GND*%
%TO.N,GND*%
X64770000Y34290000D03*
%TO.P,U2,23,PC0*%
%TO.N,/ATMega328/A0*%
X67310000Y34290000D03*
%TO.P,U2,24,PC1*%
%TO.N,/ATMega328/A1*%
X69850000Y34290000D03*
%TO.P,U2,25,PC2*%
%TO.N,/ATMega328/A2*%
X72390000Y34290000D03*
%TO.P,U2,26,PC3*%
%TO.N,/ATMega328/A3*%
X74930000Y34290000D03*
%TO.P,U2,27,PC4*%
%TO.N,/I2C_SDA*%
X77470000Y34290000D03*
%TO.P,U2,28,PC5*%
%TO.N,/I2C_SCL*%
X80010000Y34290000D03*
%TD*%
D16*
%TO.P,Y1,1,1*%
%TO.N,Net-(U2-XTAL1{slash}PB6)*%
X63481000Y49530000D03*
%TO.P,Y1,2,2*%
%TO.N,Net-(U2-XTAL2{slash}PB7)*%
X58601000Y49530000D03*
%TD*%
D12*
%TO.P,D1,1,K*%
%TO.N,GND*%
X43815000Y22352000D03*
%TO.P,D1,2,A*%
%TO.N,Net-(D1-A)*%
X43815000Y24892000D03*
%TD*%
D25*
%TO.P,Q2,1,G*%
%TO.N,Net-(Q1-C)*%
X40132000Y85852000D03*
D26*
%TO.P,Q2,2,D*%
%TO.N,Net-(DCDC1-+Vin)*%
X40132000Y88142000D03*
%TO.P,Q2,3,S*%
%TO.N,VCC*%
X40132000Y90432000D03*
%TD*%
D12*
%TO.P,R1,1*%
%TO.N,Net-(Q1-B)*%
X36830000Y76200000D03*
%TO.P,R1,2*%
%TO.N,/RS485_PWR*%
X36830000Y68580000D03*
%TD*%
D14*
%TO.P,P7,1,1*%
%TO.N,/ATMega328/A2*%
X74930000Y26670000D03*
%TO.P,P7,2,2*%
%TO.N,GND*%
X74930000Y24130000D03*
%TO.P,P7,3,3*%
%TO.N,/ATMega328/A1*%
X72390000Y26670000D03*
%TO.P,P7,4,4*%
%TO.N,GND*%
X72390000Y24130000D03*
%TO.P,P7,5,5*%
%TO.N,/ATMega328/A0*%
X69850000Y26670000D03*
%TO.P,P7,6,6*%
%TO.N,GND*%
X69850000Y24130000D03*
%TD*%
D13*
%TO.P,P1,1,Pin_1*%
%TO.N,/Tx*%
X29210000Y85344000D03*
D15*
X31321000Y80724000D03*
D12*
%TO.P,P1,2,Pin_2*%
%TO.N,/Rx*%
X29210000Y80264000D03*
D16*
X31321000Y78724000D03*
%TO.P,P1,3,Pin_3*%
%TO.N,VCC*%
X31321000Y76724000D03*
D12*
X29210000Y75184000D03*
D16*
%TO.P,P1,4,Pin_4*%
%TO.N,GND*%
X31321000Y74724000D03*
D12*
X29210000Y70104000D03*
%TD*%
D17*
%TO.P,C1,1*%
%TO.N,GND*%
X63500000Y29210000D03*
%TO.P,C1,2*%
%TO.N,Net-(U2-AREF)*%
X58420000Y29210000D03*
%TD*%
D27*
%TO.P,Q1,1,E*%
%TO.N,GND*%
X39476000Y79502000D03*
D28*
%TO.P,Q1,2,B*%
%TO.N,Net-(Q1-B)*%
X39476000Y80772000D03*
%TO.P,Q1,3,C*%
%TO.N,Net-(Q1-C)*%
X39476000Y82042000D03*
%TD*%
D29*
%TO.P,SW2,1,1*%
%TO.N,/ATMega328/RESET*%
X49717500Y25530000D03*
X56217500Y25530000D03*
%TO.P,SW2,2,2*%
%TO.N,GND*%
X49717500Y21030000D03*
X56217500Y21030000D03*
%TD*%
%TO.P,SW1,1,1*%
%TO.N,/ATMega328/D8*%
X30965000Y25530000D03*
X37465000Y25530000D03*
%TO.P,SW1,2,2*%
%TO.N,GND*%
X30965000Y21030000D03*
X37465000Y21030000D03*
%TD*%
D30*
%TO.N,/RS485_Tx*%
X48260000Y60452000D03*
%TO.N,/ATMega328/RESET*%
X84201000Y36830000D03*
%TO.N,/Tx*%
X88646000Y32639000D03*
%TD*%
D31*
%TO.N,VCC*%
X64008000Y39116000D02*
X64770000Y39878000D01*
X63881000Y39116000D02*
X64008000Y39116000D01*
X64897000Y39878000D02*
X65659000Y39116000D01*
X65659000Y39116000D02*
X77978000Y39116000D01*
X64770000Y39878000D02*
X64897000Y39878000D01*
X64770000Y39878000D02*
X64770000Y41910000D01*
X63881000Y39116000D02*
X65278000Y39116000D01*
X59690000Y38100000D02*
X58674000Y39116000D01*
X59690000Y37973000D02*
X59690000Y38100000D01*
X58674000Y39116000D02*
X59690000Y39116000D01*
X59690000Y37973000D02*
X60833000Y39116000D01*
X59690000Y37719000D02*
X59690000Y37973000D01*
X59690000Y39116000D02*
X60833000Y39116000D01*
X59690000Y37719000D02*
X59690000Y39116000D01*
X59690000Y34290000D02*
X59690000Y37719000D01*
X54102000Y39116000D02*
X58674000Y39116000D01*
X64770000Y39116000D02*
X65278000Y39116000D01*
X60833000Y39116000D02*
X63881000Y39116000D01*
X42291000Y44450000D02*
X43180000Y45339000D01*
X43180000Y45466000D02*
X43180000Y49530000D01*
X43180000Y45339000D02*
X43180000Y45466000D01*
X42291000Y44450000D02*
X43180000Y43561000D01*
X41910000Y44450000D02*
X42291000Y44450000D01*
X43180000Y44450000D02*
X43180000Y43561000D01*
X41910000Y44450000D02*
X43180000Y44450000D01*
D32*
X43561000Y40640000D02*
X44069000Y40132000D01*
X42799000Y40640000D02*
X43561000Y40640000D01*
X41656000Y40640000D02*
X42164000Y40640000D01*
X42164000Y40640000D02*
X43180000Y41656000D01*
D31*
X43180000Y43561000D02*
X43180000Y41656000D01*
D32*
X41656000Y40640000D02*
X42799000Y40640000D01*
X39370000Y40640000D02*
X41656000Y40640000D01*
X42799000Y40640000D02*
X43180000Y41021000D01*
D31*
X44069000Y40132000D02*
X45085000Y39116000D01*
X45085000Y39116000D02*
X54102000Y39116000D01*
X43180000Y41021000D02*
X45085000Y39116000D01*
X43180000Y41656000D02*
X43180000Y41021000D01*
X38100000Y44450000D02*
X41910000Y44450000D01*
X32131000Y50419000D02*
X38100000Y44450000D01*
X32131000Y63246000D02*
X32131000Y50419000D01*
X26860500Y68516500D02*
X32131000Y63246000D01*
X26860500Y72961500D02*
X26860500Y68516500D01*
X43180000Y44450000D02*
X43180000Y45466000D01*
D32*
%TO.N,/ATMega328/MISO*%
X54610000Y35306000D02*
X54610000Y34290000D01*
X53213000Y36703000D02*
X54610000Y35306000D01*
X41148000Y39370000D02*
X43815000Y36703000D01*
X38100000Y39370000D02*
X41148000Y39370000D01*
X36830000Y40640000D02*
X38100000Y39370000D01*
X43815000Y36703000D02*
X53213000Y36703000D01*
%TO.N,/ATMega328/MOSI*%
X43434000Y35941000D02*
X50419000Y35941000D01*
X41275000Y38100000D02*
X43434000Y35941000D01*
X50419000Y35941000D02*
X52070000Y34290000D01*
X39370000Y38100000D02*
X41275000Y38100000D01*
D31*
%TO.N,VCC*%
X29083000Y75184000D02*
X26860500Y72961500D01*
X29210000Y75184000D02*
X29083000Y75184000D01*
D32*
X42850000Y72504500D02*
X43053000Y72707500D01*
X42850000Y66929000D02*
X42850000Y72504500D01*
D31*
X36512500Y72707500D02*
X43053000Y72707500D01*
X84074001Y80136999D02*
X85090000Y79121000D01*
X82169000Y80137000D02*
X84074001Y80136999D01*
X66230500Y72707500D02*
X73660000Y80137000D01*
X43053000Y72707500D02*
X66230500Y72707500D01*
X73660000Y80137000D02*
X82169000Y80137000D01*
X32496000Y76724000D02*
X36512500Y72707500D01*
X31321000Y76724000D02*
X32496000Y76724000D01*
D32*
%TO.N,/RS485_PWR*%
X67310000Y43561000D02*
X67310000Y41910000D01*
X69342000Y44704000D02*
X68453000Y44704000D01*
X68453000Y44704000D02*
X67310000Y43561000D01*
X70866000Y52197000D02*
X70866000Y46228000D01*
X70866000Y46228000D02*
X69342000Y44704000D01*
X36830000Y58293000D02*
X39243000Y55880000D01*
X67183000Y55880000D02*
X70866000Y52197000D01*
X39243000Y55880000D02*
X67183000Y55880000D01*
X36830000Y68580000D02*
X36830000Y58293000D01*
D31*
%TO.N,GND*%
X31321000Y72215000D02*
X29210000Y70104000D01*
X31321000Y74724000D02*
X31321000Y72215000D01*
D32*
%TO.N,VCC*%
X78740000Y52070000D02*
X80010000Y50800000D01*
X80010000Y50800000D02*
X80010000Y46990000D01*
D31*
X81534000Y46990000D02*
X82677000Y45847000D01*
X80010000Y46990000D02*
X81534000Y46990000D01*
X82677000Y41148000D02*
X82677000Y45847000D01*
X81534000Y40005000D02*
X82677000Y41148000D01*
X78867000Y40005000D02*
X81534000Y40005000D01*
X77978000Y39116000D02*
X78867000Y40005000D01*
X65278000Y39116000D02*
X65659000Y39116000D01*
D32*
%TO.N,/ATMega328/RESET*%
X86360000Y43688000D02*
X86360000Y40640000D01*
X87630000Y44958000D02*
X86360000Y43688000D01*
X87630000Y50800000D02*
X87630000Y44958000D01*
X86360000Y52070000D02*
X87630000Y50800000D01*
%TO.N,GND*%
X38608000Y70993000D02*
X39370000Y70231000D01*
X39370000Y70231000D02*
X39370000Y68580000D01*
X32004000Y70104000D02*
X32893000Y70993000D01*
X29210000Y70104000D02*
X32004000Y70104000D01*
X32893000Y70993000D02*
X38608000Y70993000D01*
%TO.N,/RS485_Tx*%
X45847000Y64389000D02*
X42850000Y64389000D01*
X48260000Y61976000D02*
X45847000Y64389000D01*
X48260000Y60452000D02*
X48260000Y61976000D01*
D31*
%TO.N,VCC*%
X87630000Y28067000D02*
X87630000Y29464000D01*
X96520000Y27051000D02*
X88646000Y27051000D01*
X97790000Y28321000D02*
X96520000Y27051000D01*
X97790000Y35560000D02*
X97790000Y28321000D01*
X88646000Y27051000D02*
X87630000Y28067000D01*
X97790000Y39370000D02*
X97790000Y35560000D01*
D32*
%TO.N,/ATMega328/RESET*%
X84201000Y34925000D02*
X84201000Y36830000D01*
X80391000Y31115000D02*
X84201000Y34925000D01*
X80391000Y26670000D02*
X80391000Y31115000D01*
X73914000Y20193000D02*
X80391000Y26670000D01*
X58039000Y21717000D02*
X58039000Y20701000D01*
X58547000Y20193000D02*
X73914000Y20193000D01*
X58039000Y20701000D02*
X58547000Y20193000D01*
X56217500Y23538500D02*
X58039000Y21717000D01*
X56217500Y25530000D02*
X56217500Y23538500D01*
%TO.N,/I2C_SDA*%
X88900000Y39370000D02*
X88646000Y39624000D01*
X90170000Y39370000D02*
X88900000Y39370000D01*
X88646000Y43434000D02*
X91472000Y46260000D01*
X88646000Y39624000D02*
X88646000Y43434000D01*
X87503000Y38481000D02*
X88646000Y39624000D01*
X79883000Y38481000D02*
X87503000Y38481000D01*
X77470000Y36068000D02*
X79883000Y38481000D01*
X77470000Y34290000D02*
X77470000Y36068000D01*
X91472000Y46260000D02*
X93980000Y46260000D01*
%TO.N,/I2C_SCL*%
X90170000Y37592000D02*
X90297000Y37719000D01*
X90170000Y35560000D02*
X90170000Y37592000D01*
X90297000Y37719000D02*
X92202000Y37719000D01*
X92202000Y37719000D02*
X93980000Y39497000D01*
X88011000Y37719000D02*
X90297000Y37719000D01*
X93980000Y39497000D02*
X93980000Y44260000D01*
X81915000Y37719000D02*
X88011000Y37719000D01*
X80010000Y35814000D02*
X81915000Y37719000D01*
X80010000Y34290000D02*
X80010000Y35814000D01*
%TO.N,/ATMega328/DTR*%
X86360000Y34671000D02*
X87376000Y33655000D01*
X86360000Y35560000D02*
X86360000Y34671000D01*
X91567000Y33655000D02*
X87376000Y33655000D01*
X95250000Y29972000D02*
X91567000Y33655000D01*
X95250000Y29210000D02*
X95250000Y29972000D01*
%TO.N,/Tx*%
X92710000Y30988000D02*
X92710000Y29464000D01*
X91059000Y32639000D02*
X92710000Y30988000D01*
X88646000Y32639000D02*
X91059000Y32639000D01*
%TO.N,/ATMega328/SCLK*%
X55880000Y33020000D02*
X57150000Y34290000D01*
X44704000Y33020000D02*
X55880000Y33020000D01*
X40894000Y36830000D02*
X44704000Y33020000D01*
X36830000Y38100000D02*
X38100000Y36830000D01*
X38100000Y36830000D02*
X40894000Y36830000D01*
%TO.N,Net-(Q1-B)*%
X36830000Y79502000D02*
X38100000Y80772000D01*
X36830000Y76200000D02*
X36830000Y79502000D01*
X38100000Y80772000D02*
X39476000Y80772000D01*
X36830000Y76200000D02*
X39370000Y76200000D01*
%TO.N,Net-(Q1-C)*%
X39476000Y85365000D02*
X38989000Y85852000D01*
X39476000Y82042000D02*
X39476000Y85365000D01*
X38989000Y85852000D02*
X37973000Y85852000D01*
X39476000Y85196000D02*
X40132000Y85852000D01*
X39476000Y82042000D02*
X39476000Y85196000D01*
X37465000Y85344000D02*
X36068000Y85344000D01*
X37973000Y85852000D02*
X37465000Y85344000D01*
X40132000Y85852000D02*
X38989000Y85852000D01*
D31*
%TO.N,Net-(DCDC1-+Vin)*%
X49530000Y85471000D02*
X49530000Y80150000D01*
X49530000Y80150000D02*
X46335000Y76955000D01*
X46859000Y88142000D02*
X49530000Y85471000D01*
X40132000Y88142000D02*
X46859000Y88142000D01*
D32*
%TO.N,/RS485_B*%
X88392000Y65024000D02*
X88392000Y78740000D01*
X89916000Y80264000D02*
X91440000Y80264000D01*
X86457000Y63089000D02*
X88392000Y65024000D01*
X88392000Y78740000D02*
X89916000Y80264000D01*
X82550000Y63089000D02*
X86457000Y63089000D01*
%TO.N,/RS485_A*%
X87503000Y82804000D02*
X90043000Y85344000D01*
X87503000Y70612000D02*
X87503000Y82804000D01*
X85060000Y68169000D02*
X87503000Y70612000D01*
X90043000Y85344000D02*
X91440000Y85344000D01*
X82550000Y68169000D02*
X85060000Y68169000D01*
%TO.N,/ATMega328/D8*%
X30965000Y25530000D02*
X37465000Y25530000D01*
%TO.N,/ATMega328/RESET*%
X49717500Y25530000D02*
X56217500Y25530000D01*
X48136000Y25530000D02*
X49717500Y25530000D01*
X46742000Y26924000D02*
X48136000Y25530000D01*
X39497000Y26924000D02*
X46742000Y26924000D01*
X36830000Y29591000D02*
X39497000Y26924000D01*
X36830000Y35560000D02*
X36830000Y29591000D01*
D31*
%TO.N,/Tx*%
X29591000Y85344000D02*
X31321000Y83614000D01*
X29210000Y85344000D02*
X29591000Y85344000D01*
X31321000Y83614000D02*
X31321000Y80724000D01*
%TO.N,/Rx*%
X29210000Y79121000D02*
X29607000Y78724000D01*
X29210000Y80264000D02*
X29210000Y79121000D01*
X29607000Y78724000D02*
X31321000Y78724000D01*
%TO.N,VCC*%
X30115000Y76724000D02*
X31321000Y76724000D01*
X29210000Y75819000D02*
X30115000Y76724000D01*
X29210000Y75184000D02*
X29210000Y75819000D01*
X64770000Y39116000D02*
X64770000Y39878000D01*
D32*
%TO.N,Net-(U2-XTAL1{slash}PB6)*%
X65532000Y49530000D02*
X68580000Y49530000D01*
X65532000Y48387000D02*
X65532000Y49530000D01*
X64770000Y47625000D02*
X65532000Y48387000D01*
X61214000Y47625000D02*
X64770000Y47625000D01*
X59690000Y46101000D02*
X61214000Y47625000D01*
X59690000Y41910000D02*
X59690000Y46101000D01*
%TO.N,Net-(U2-XTAL2{slash}PB7)*%
X57150000Y49530000D02*
X53340000Y49530000D01*
X57150000Y41910000D02*
X57150000Y49530000D01*
%TO.N,Net-(U2-XTAL1{slash}PB6)*%
X63481000Y49530000D02*
X65532000Y49530000D01*
%TO.N,Net-(U2-XTAL2{slash}PB7)*%
X58601000Y49530000D02*
X57150000Y49530000D01*
%TD*%
%TA.AperFunction,Conductor*%
%TO.N,GND*%
G36*
X91012960Y98419435D02*
G01*
X91268027Y98406614D01*
X91280372Y98405371D01*
X91524714Y98368343D01*
X91536890Y98365868D01*
X91598203Y98350162D01*
X91772376Y98305545D01*
X91784081Y98301922D01*
X92009782Y98219615D01*
X92020958Y98214906D01*
X92235500Y98111869D01*
X92246076Y98106143D01*
X92448448Y97983502D01*
X92458404Y97976787D01*
X92583762Y97883085D01*
X92647210Y97835658D01*
X92656336Y97828132D01*
X92830504Y97669954D01*
X92838927Y97661531D01*
X92997090Y97487379D01*
X93004640Y97478221D01*
X93145676Y97289412D01*
X93152353Y97279512D01*
X93275096Y97077129D01*
X93280849Y97066509D01*
X93383869Y96852002D01*
X93388587Y96840802D01*
X93470890Y96615113D01*
X93474512Y96603416D01*
X93530788Y96383727D01*
X93534834Y96367933D01*
X93537312Y96355742D01*
X93574340Y96111398D01*
X93575583Y96099049D01*
X93588413Y95844008D01*
X93588570Y95837780D01*
X93588570Y90920007D01*
X93588570Y90919593D01*
X93588863Y90919300D01*
X98507049Y90919300D01*
X98513278Y90919143D01*
X98768329Y90906314D01*
X98780654Y90905074D01*
X99025018Y90868043D01*
X99037190Y90865568D01*
X99098503Y90849862D01*
X99272676Y90805245D01*
X99284381Y90801622D01*
X99510082Y90719315D01*
X99521258Y90714606D01*
X99658547Y90648671D01*
X99735778Y90611579D01*
X99746397Y90605827D01*
X99948773Y90483089D01*
X99958679Y90476408D01*
X100147493Y90335368D01*
X100156651Y90327818D01*
X100160426Y90324390D01*
X100330804Y90169654D01*
X100339227Y90161231D01*
X100497400Y89987068D01*
X100504926Y89977942D01*
X100646049Y89789145D01*
X100652776Y89779171D01*
X100775409Y89576811D01*
X100781139Y89566228D01*
X100884169Y89351702D01*
X100888887Y89340502D01*
X100971190Y89114813D01*
X100974812Y89103116D01*
X101020349Y88925351D01*
X101035134Y88867633D01*
X101037612Y88855442D01*
X101074640Y88611098D01*
X101075883Y88598749D01*
X101088713Y88343708D01*
X101088870Y88337478D01*
X101088870Y28502424D01*
X101088713Y28496194D01*
X101075883Y28241153D01*
X101074640Y28228804D01*
X101037612Y27984460D01*
X101035134Y27972269D01*
X101021774Y27920115D01*
X100974813Y27736792D01*
X100971190Y27725089D01*
X100888887Y27499400D01*
X100884169Y27488200D01*
X100781139Y27273674D01*
X100775409Y27263091D01*
X100652776Y27060731D01*
X100646049Y27050757D01*
X100504926Y26861960D01*
X100497400Y26852834D01*
X100339227Y26678671D01*
X100330799Y26670243D01*
X100156651Y26512084D01*
X100147493Y26504534D01*
X99958679Y26363494D01*
X99948773Y26356813D01*
X99746397Y26234075D01*
X99735778Y26228323D01*
X99521270Y26125301D01*
X99510070Y26120582D01*
X99284388Y26038282D01*
X99272676Y26034657D01*
X99037193Y25974335D01*
X99025001Y25971856D01*
X98780667Y25934830D01*
X98768318Y25933587D01*
X98513278Y25920757D01*
X98507048Y25920600D01*
X97049701Y25920600D01*
X96982662Y25940285D01*
X96936907Y25993089D01*
X96926963Y26062247D01*
X96955988Y26125803D01*
X96993258Y26152679D01*
X96992334Y26154409D01*
X96997697Y26157277D01*
X96997704Y26157279D01*
X97162881Y26267647D01*
X97303353Y26408119D01*
X98573353Y27678119D01*
X98683721Y27843296D01*
X98759744Y28026831D01*
X98798500Y28221671D01*
X98798500Y28420329D01*
X98798500Y34361170D01*
X98818185Y34428209D01*
X98834819Y34448851D01*
X98883391Y34497423D01*
X98952823Y34566855D01*
X99093869Y34760988D01*
X99202810Y34974795D01*
X99276962Y35203012D01*
X99284969Y35253568D01*
X99314500Y35440014D01*
X99314500Y35679987D01*
X99276962Y35916989D01*
X99241451Y36026280D01*
X99202810Y36145205D01*
X99093869Y36359012D01*
X98952823Y36553145D01*
X98834819Y36671149D01*
X98801334Y36732472D01*
X98798500Y36758830D01*
X98798500Y38171170D01*
X98818185Y38238209D01*
X98834819Y38258851D01*
X98952823Y38376855D01*
X99093869Y38570988D01*
X99202810Y38784795D01*
X99276962Y39013012D01*
X99296714Y39137720D01*
X99314500Y39250014D01*
X99314500Y39489987D01*
X99276962Y39726989D01*
X99249606Y39811181D01*
X99202810Y39955205D01*
X99093869Y40169012D01*
X98952823Y40363145D01*
X98783145Y40532823D01*
X98589012Y40673869D01*
X98375205Y40782810D01*
X98316018Y40802041D01*
X98146988Y40856963D01*
X97909986Y40894500D01*
X97909981Y40894500D01*
X97670019Y40894500D01*
X97670014Y40894500D01*
X97433011Y40856963D01*
X97204792Y40782809D01*
X96990987Y40673869D01*
X96917145Y40620219D01*
X96796855Y40532823D01*
X96796853Y40532821D01*
X96796852Y40532821D01*
X96627179Y40363148D01*
X96627179Y40363147D01*
X96627177Y40363145D01*
X96605689Y40333569D01*
X96486131Y40169013D01*
X96377191Y39955208D01*
X96303037Y39726989D01*
X96265500Y39489987D01*
X96265500Y39250014D01*
X96303037Y39013012D01*
X96357959Y38843982D01*
X96377190Y38784795D01*
X96486131Y38570988D01*
X96627177Y38376855D01*
X96627179Y38376853D01*
X96745181Y38258851D01*
X96778666Y38197528D01*
X96781500Y38171170D01*
X96781500Y36758830D01*
X96761815Y36691791D01*
X96745181Y36671149D01*
X96627179Y36553148D01*
X96627179Y36553147D01*
X96627177Y36553145D01*
X96597124Y36511780D01*
X96486131Y36359013D01*
X96377191Y36145208D01*
X96303037Y35916989D01*
X96265500Y35679987D01*
X96265500Y35440014D01*
X96303037Y35203012D01*
X96357959Y35033982D01*
X96377190Y34974795D01*
X96486131Y34760988D01*
X96627177Y34566855D01*
X96627179Y34566853D01*
X96745181Y34448851D01*
X96778666Y34387528D01*
X96781500Y34361170D01*
X96781500Y30219942D01*
X96761815Y30152903D01*
X96709011Y30107148D01*
X96639853Y30097204D01*
X96576297Y30126229D01*
X96557182Y30147057D01*
X96476763Y30257744D01*
X96476759Y30257749D01*
X96297748Y30436760D01*
X96297743Y30436764D01*
X96092946Y30585556D01*
X96092945Y30585557D01*
X96092943Y30585558D01*
X95867381Y30700488D01*
X95626616Y30778718D01*
X95626614Y30778719D01*
X95534931Y30793240D01*
X95471797Y30823170D01*
X95466649Y30828032D01*
X92050518Y34244164D01*
X92050517Y34244165D01*
X91951327Y34310441D01*
X91926284Y34327174D01*
X91888895Y34342661D01*
X91788247Y34384351D01*
X91788239Y34384353D01*
X91714976Y34398926D01*
X91641709Y34413500D01*
X91641706Y34413500D01*
X91464768Y34413500D01*
X91397729Y34433185D01*
X91351974Y34485989D01*
X91342030Y34555147D01*
X91364450Y34610385D01*
X91422293Y34690000D01*
X91473869Y34760988D01*
X91582810Y34974795D01*
X91656962Y35203012D01*
X91664969Y35253568D01*
X91694500Y35440014D01*
X91694500Y35679987D01*
X91656962Y35916989D01*
X91621451Y36026280D01*
X91582810Y36145205D01*
X91473869Y36359012D01*
X91332823Y36553145D01*
X91163145Y36722823D01*
X91144758Y36736182D01*
X91102092Y36791512D01*
X91096113Y36861125D01*
X91128719Y36922920D01*
X91189558Y36957278D01*
X91217643Y36960500D01*
X92276706Y36960500D01*
X92349976Y36975075D01*
X92349977Y36975075D01*
X92378688Y36980786D01*
X92423247Y36989649D01*
X92561284Y37046826D01*
X92685515Y37129834D01*
X94569166Y39013485D01*
X94652174Y39137716D01*
X94709351Y39275754D01*
X94738500Y39422295D01*
X94738500Y39571705D01*
X94738500Y42886102D01*
X94758185Y42953141D01*
X94810989Y42998896D01*
X94833992Y43006780D01*
X94839195Y43008011D01*
X94839201Y43008011D01*
X94976204Y43059111D01*
X95093261Y43146739D01*
X95180889Y43263796D01*
X95231989Y43400799D01*
X95236365Y43441501D01*
X95238499Y43461346D01*
X95238500Y43461363D01*
X95238500Y45058638D01*
X95238499Y45058655D01*
X95235157Y45089730D01*
X95231989Y45119201D01*
X95180889Y45256204D01*
X95093261Y45373261D01*
X95093259Y45373262D01*
X95093259Y45373263D01*
X95060331Y45397912D01*
X95018459Y45453845D01*
X95013475Y45523537D01*
X95034321Y45570062D01*
X95056366Y45600402D01*
X95146298Y45776903D01*
X95207512Y45965300D01*
X95210078Y45981500D01*
X95238500Y46160949D01*
X95238500Y46359052D01*
X95207512Y46554701D01*
X95146296Y46743102D01*
X95098854Y46836210D01*
X95056366Y46919598D01*
X94939930Y47079858D01*
X94847469Y47172319D01*
X94813984Y47233642D01*
X94818968Y47303334D01*
X94847469Y47347681D01*
X94889838Y47390050D01*
X94939930Y47440142D01*
X95056366Y47600402D01*
X95146298Y47776903D01*
X95207512Y47965300D01*
X95238500Y48160949D01*
X95238500Y48359052D01*
X95207512Y48554701D01*
X95157006Y48710141D01*
X95146298Y48743097D01*
X95146296Y48743100D01*
X95146296Y48743102D01*
X95098854Y48836210D01*
X95056366Y48919598D01*
X94939930Y49079858D01*
X94799858Y49219930D01*
X94639598Y49336366D01*
X94474582Y49420446D01*
X94443199Y49443248D01*
X94026448Y49860000D01*
X94032661Y49860000D01*
X94134394Y49887259D01*
X94225606Y49939920D01*
X94300080Y50014394D01*
X94352741Y50105606D01*
X94380000Y50207339D01*
X94380000Y50213552D01*
X95023678Y49569874D01*
X95023678Y49569875D01*
X95049095Y49604857D01*
X95138418Y49780165D01*
X95199221Y49967295D01*
X95230000Y50161618D01*
X95230000Y50358383D01*
X95199221Y50552706D01*
X95138418Y50739836D01*
X95049096Y50915142D01*
X95023678Y50950127D01*
X95023677Y50950127D01*
X94380000Y50306449D01*
X94380000Y50312661D01*
X94352741Y50414394D01*
X94300080Y50505606D01*
X94225606Y50580080D01*
X94134394Y50632741D01*
X94032661Y50660000D01*
X94026447Y50660000D01*
X94670125Y51303680D01*
X94670125Y51303681D01*
X94635145Y51329095D01*
X94459835Y51418419D01*
X94272705Y51479222D01*
X94078382Y51510000D01*
X93881618Y51510000D01*
X93687294Y51479222D01*
X93500161Y51418418D01*
X93324863Y51329101D01*
X93324859Y51329098D01*
X93289873Y51303680D01*
X93289872Y51303680D01*
X93933554Y50660000D01*
X93927339Y50660000D01*
X93825606Y50632741D01*
X93734394Y50580080D01*
X93659920Y50505606D01*
X93607259Y50414394D01*
X93580000Y50312661D01*
X93580000Y50306448D01*
X92936320Y50950128D01*
X92936320Y50950127D01*
X92910902Y50915141D01*
X92910899Y50915137D01*
X92821582Y50739839D01*
X92760778Y50552706D01*
X92730000Y50358383D01*
X92730000Y50161618D01*
X92760778Y49967295D01*
X92821581Y49780165D01*
X92910905Y49604855D01*
X92936319Y49569875D01*
X92936320Y49569875D01*
X93580000Y50213555D01*
X93580000Y50207339D01*
X93607259Y50105606D01*
X93659920Y50014394D01*
X93734394Y49939920D01*
X93825606Y49887259D01*
X93927339Y49860000D01*
X93933553Y49860000D01*
X93516798Y49443247D01*
X93485412Y49420443D01*
X93320401Y49336366D01*
X93228967Y49269935D01*
X93160142Y49219930D01*
X93160140Y49219928D01*
X93160139Y49219928D01*
X93020072Y49079861D01*
X93020072Y49079860D01*
X93020070Y49079858D01*
X92996127Y49046903D01*
X92903634Y48919599D01*
X92813703Y48743102D01*
X92752487Y48554701D01*
X92721500Y48359052D01*
X92721500Y48160949D01*
X92752487Y47965300D01*
X92813703Y47776899D01*
X92903634Y47600402D01*
X93020070Y47440142D01*
X93020072Y47440140D01*
X93112531Y47347681D01*
X93116223Y47340919D01*
X93122493Y47336433D01*
X93132737Y47310676D01*
X93146016Y47286358D01*
X93145466Y47278673D01*
X93148315Y47271510D01*
X93143008Y47244308D01*
X93141032Y47216666D01*
X93136076Y47208770D01*
X93134938Y47202932D01*
X93117238Y47178750D01*
X93114401Y47174229D01*
X93113493Y47173282D01*
X93020070Y47079858D01*
X93007682Y47062809D01*
X93001860Y47056729D01*
X92978566Y47043351D01*
X92957297Y47026949D01*
X92946470Y47024916D01*
X92941272Y47021930D01*
X92932818Y47022352D01*
X92912309Y47018500D01*
X91397292Y47018500D01*
X91250759Y46989353D01*
X91250749Y46989350D01*
X91112719Y46932177D01*
X90988482Y46849165D01*
X88056836Y43917519D01*
X87973828Y43793288D01*
X87973824Y43793280D01*
X87927261Y43680866D01*
X87916650Y43655250D01*
X87916647Y43655242D01*
X87887500Y43508709D01*
X87887500Y41376741D01*
X87867815Y41309702D01*
X87815011Y41263947D01*
X87745853Y41254003D01*
X87682297Y41283028D01*
X87653015Y41320446D01*
X87631019Y41363615D01*
X87609560Y41405731D01*
X87474389Y41591778D01*
X87311778Y41754389D01*
X87239338Y41807020D01*
X87169614Y41857678D01*
X87126949Y41913009D01*
X87118500Y41957996D01*
X87118500Y43322457D01*
X87138185Y43389496D01*
X87154819Y43410138D01*
X87664969Y43920288D01*
X88219165Y44474484D01*
X88224691Y44482754D01*
X88302174Y44598716D01*
X88340124Y44690336D01*
X88359351Y44736753D01*
X88388500Y44883295D01*
X88388500Y45032705D01*
X88388500Y50874706D01*
X88388500Y50874709D01*
X88359352Y51021242D01*
X88359351Y51021244D01*
X88359351Y51021246D01*
X88342519Y51061881D01*
X88335667Y51078424D01*
X88302174Y51159284D01*
X88219165Y51283516D01*
X88113516Y51389165D01*
X87883804Y51618877D01*
X87850319Y51680200D01*
X87849012Y51725956D01*
X87884500Y51950014D01*
X87884500Y52189987D01*
X87846962Y52426989D01*
X87804949Y52556291D01*
X87772810Y52655205D01*
X87663869Y52869012D01*
X87522823Y53063145D01*
X87353145Y53232823D01*
X87159012Y53373869D01*
X86945205Y53482810D01*
X86886018Y53502041D01*
X86716988Y53556963D01*
X86479986Y53594500D01*
X86479981Y53594500D01*
X86240019Y53594500D01*
X86240014Y53594500D01*
X86003011Y53556963D01*
X85774792Y53482809D01*
X85560987Y53373869D01*
X85450228Y53293398D01*
X85366855Y53232823D01*
X85366853Y53232821D01*
X85366852Y53232821D01*
X85197179Y53063148D01*
X85197179Y53063147D01*
X85197177Y53063145D01*
X85136602Y52979772D01*
X85056131Y52869013D01*
X84947191Y52655208D01*
X84873037Y52426989D01*
X84835500Y52189987D01*
X84835500Y51950014D01*
X84873037Y51713012D01*
X84903624Y51618877D01*
X84947190Y51484795D01*
X85056131Y51270988D01*
X85197177Y51076855D01*
X85366855Y50907177D01*
X85560988Y50766131D01*
X85774795Y50657190D01*
X85931216Y50606366D01*
X86003011Y50583038D01*
X86240014Y50545500D01*
X86240019Y50545500D01*
X86479986Y50545500D01*
X86675390Y50576450D01*
X86704044Y50580988D01*
X86709469Y50580287D01*
X86714596Y50582199D01*
X86743746Y50575858D01*
X86773337Y50572034D01*
X86778942Y50568202D01*
X86782869Y50567347D01*
X86811123Y50546196D01*
X86835181Y50522138D01*
X86868666Y50460815D01*
X86871500Y50434457D01*
X86871500Y45323544D01*
X86851815Y45256505D01*
X86835181Y45235863D01*
X85770836Y44171519D01*
X85770835Y44171518D01*
X85687828Y44047288D01*
X85687822Y44047277D01*
X85634077Y43917522D01*
X85634075Y43917515D01*
X85630648Y43909244D01*
X85630646Y43909237D01*
X85601500Y43762711D01*
X85601500Y41957996D01*
X85581815Y41890957D01*
X85550386Y41857678D01*
X85408220Y41754388D01*
X85245613Y41591781D01*
X85110440Y41405732D01*
X85006039Y41200834D01*
X84934973Y40982119D01*
X84899000Y40754989D01*
X84899000Y40525012D01*
X84934973Y40297882D01*
X85006039Y40079167D01*
X85069201Y39955205D01*
X85110440Y39874269D01*
X85245611Y39688222D01*
X85408222Y39525611D01*
X85457263Y39489981D01*
X85493273Y39463818D01*
X85535938Y39408488D01*
X85541917Y39338874D01*
X85509311Y39277079D01*
X85448472Y39242722D01*
X85420387Y39239500D01*
X82494096Y39239500D01*
X82427057Y39259185D01*
X82381302Y39311989D01*
X82371358Y39381147D01*
X82400383Y39444703D01*
X82406415Y39451181D01*
X83460350Y40505116D01*
X83460353Y40505119D01*
X83570721Y40670296D01*
X83646744Y40853831D01*
X83685500Y41048671D01*
X83685500Y41247329D01*
X83685500Y45946329D01*
X83667222Y46038220D01*
X83657257Y46088318D01*
X83663484Y46157909D01*
X83706347Y46213087D01*
X83772237Y46236331D01*
X83840234Y46220263D01*
X83879192Y46185395D01*
X83901347Y46154902D01*
X83901347Y46154901D01*
X84689950Y46943504D01*
X84689950Y46937332D01*
X84717213Y46835586D01*
X84769880Y46744364D01*
X84844364Y46669880D01*
X84935586Y46617213D01*
X85037332Y46589950D01*
X85043503Y46589950D01*
X84254899Y45801349D01*
X84328725Y45747712D01*
X84328731Y45747708D01*
X84532431Y45643918D01*
X84749875Y45573266D01*
X84975687Y45537500D01*
X85204313Y45537500D01*
X85430124Y45573266D01*
X85430125Y45573266D01*
X85647568Y45643918D01*
X85851276Y45747712D01*
X85925098Y45801349D01*
X85136497Y46589950D01*
X85142668Y46589950D01*
X85244414Y46617213D01*
X85335636Y46669880D01*
X85410120Y46744364D01*
X85462787Y46835586D01*
X85490050Y46937332D01*
X85490050Y46943502D01*
X86278651Y46154901D01*
X86278651Y46154902D01*
X86332288Y46228724D01*
X86436082Y46432432D01*
X86506734Y46649875D01*
X86506734Y46649876D01*
X86542500Y46875687D01*
X86542500Y47104314D01*
X86506734Y47330125D01*
X86506734Y47330126D01*
X86436082Y47547569D01*
X86332292Y47751269D01*
X86332288Y47751275D01*
X86278651Y47825100D01*
X86278651Y47825101D01*
X85490050Y47036499D01*
X85490050Y47042668D01*
X85462787Y47144414D01*
X85410120Y47235636D01*
X85335636Y47310120D01*
X85244414Y47362787D01*
X85142668Y47390050D01*
X85136495Y47390050D01*
X85925099Y48178653D01*
X85851276Y48232289D01*
X85647568Y48336083D01*
X85430124Y48406735D01*
X85204313Y48442500D01*
X84975687Y48442500D01*
X84749875Y48406735D01*
X84749874Y48406735D01*
X84532431Y48336083D01*
X84328719Y48232287D01*
X84254900Y48178654D01*
X84254899Y48178653D01*
X85043503Y47390050D01*
X85037332Y47390050D01*
X84935586Y47362787D01*
X84844364Y47310120D01*
X84769880Y47235636D01*
X84717213Y47144414D01*
X84689950Y47042668D01*
X84689950Y47036498D01*
X83901347Y47825101D01*
X83901346Y47825100D01*
X83847713Y47751281D01*
X83743917Y47547569D01*
X83673265Y47330126D01*
X83673265Y47330125D01*
X83637500Y47104314D01*
X83637500Y46875687D01*
X83673265Y46649876D01*
X83673266Y46649871D01*
X83698963Y46570783D01*
X83700958Y46500942D01*
X83664877Y46441110D01*
X83602176Y46410282D01*
X83532762Y46418247D01*
X83478673Y46462476D01*
X83477929Y46463576D01*
X83460352Y46489882D01*
X83395533Y46554701D01*
X83319881Y46630353D01*
X82771484Y47178750D01*
X82176884Y47773351D01*
X82176880Y47773354D01*
X82011710Y47883718D01*
X82011697Y47883725D01*
X81963993Y47903484D01*
X81963992Y47903484D01*
X81828169Y47959744D01*
X81828161Y47959746D01*
X81633333Y47998500D01*
X81633329Y47998500D01*
X81119029Y47998500D01*
X81089588Y48007145D01*
X81059602Y48013668D01*
X81054586Y48017423D01*
X81051990Y48018185D01*
X81031348Y48034819D01*
X80961779Y48104388D01*
X80933318Y48125066D01*
X80897983Y48150739D01*
X80819614Y48207678D01*
X80776949Y48263009D01*
X80768500Y48307996D01*
X80768500Y50874709D01*
X80739352Y51021242D01*
X80739351Y51021244D01*
X80739351Y51021246D01*
X80729097Y51046000D01*
X80722519Y51061882D01*
X80722518Y51061885D01*
X80715668Y51078423D01*
X80699879Y51116540D01*
X80682174Y51159284D01*
X80599165Y51283516D01*
X80493516Y51389165D01*
X80263804Y51618877D01*
X80230319Y51680200D01*
X80229012Y51725956D01*
X80264500Y51950014D01*
X80264500Y52189987D01*
X80226962Y52426989D01*
X80184949Y52556291D01*
X80152810Y52655205D01*
X80043869Y52869012D01*
X79902823Y53063145D01*
X79733145Y53232823D01*
X79539012Y53373869D01*
X79325205Y53482810D01*
X79266018Y53502041D01*
X79096988Y53556963D01*
X78859986Y53594500D01*
X78859981Y53594500D01*
X78620019Y53594500D01*
X78620014Y53594500D01*
X78383011Y53556963D01*
X78154792Y53482809D01*
X77940987Y53373869D01*
X77830228Y53293398D01*
X77746855Y53232823D01*
X77746853Y53232821D01*
X77746852Y53232821D01*
X77577179Y53063148D01*
X77577179Y53063147D01*
X77577177Y53063145D01*
X77516602Y52979772D01*
X77436131Y52869013D01*
X77327191Y52655208D01*
X77253037Y52426989D01*
X77215500Y52189987D01*
X77215500Y51950014D01*
X77253037Y51713012D01*
X77283624Y51618877D01*
X77327190Y51484795D01*
X77436131Y51270988D01*
X77577177Y51076855D01*
X77746855Y50907177D01*
X77940988Y50766131D01*
X78154795Y50657190D01*
X78311216Y50606366D01*
X78383011Y50583038D01*
X78620014Y50545500D01*
X78620019Y50545500D01*
X78859986Y50545500D01*
X79055390Y50576450D01*
X79084044Y50580988D01*
X79089469Y50580287D01*
X79094596Y50582199D01*
X79123746Y50575858D01*
X79153337Y50572034D01*
X79158942Y50568202D01*
X79162869Y50567347D01*
X79191123Y50546196D01*
X79215181Y50522138D01*
X79248666Y50460815D01*
X79251500Y50434457D01*
X79251500Y48307996D01*
X79231815Y48240957D01*
X79200386Y48207678D01*
X79058220Y48104388D01*
X78895613Y47941781D01*
X78760440Y47755732D01*
X78656039Y47550834D01*
X78584973Y47332119D01*
X78549000Y47104989D01*
X78549000Y46875012D01*
X78584973Y46647882D01*
X78656039Y46429167D01*
X78741904Y46260648D01*
X78760440Y46224269D01*
X78895611Y46038222D01*
X79058222Y45875611D01*
X79244269Y45740440D01*
X79283571Y45720415D01*
X79449166Y45636040D01*
X79449168Y45636040D01*
X79449171Y45636038D01*
X79558822Y45600410D01*
X79667881Y45564974D01*
X79895012Y45529000D01*
X79895017Y45529000D01*
X80124988Y45529000D01*
X80352118Y45564974D01*
X80413957Y45585067D01*
X80570829Y45636038D01*
X80775731Y45740440D01*
X80961778Y45875611D01*
X81004286Y45918120D01*
X81065607Y45951604D01*
X81135298Y45946620D01*
X81179647Y45918119D01*
X81632181Y45465585D01*
X81665666Y45404262D01*
X81668500Y45377904D01*
X81668500Y41617097D01*
X81659855Y41587658D01*
X81653332Y41557670D01*
X81649577Y41552655D01*
X81648815Y41550058D01*
X81632181Y41529415D01*
X81530180Y41427415D01*
X81468857Y41393931D01*
X81399165Y41398915D01*
X81343232Y41440787D01*
X81318815Y41506252D01*
X81318499Y41515074D01*
X81318499Y42510544D01*
X81307887Y42614426D01*
X81252115Y42782738D01*
X81159030Y42933652D01*
X81033652Y43059030D01*
X80909682Y43135496D01*
X80882740Y43152114D01*
X80882735Y43152116D01*
X80714427Y43207887D01*
X80610545Y43218500D01*
X79409462Y43218500D01*
X79409446Y43218499D01*
X79305572Y43207887D01*
X79137264Y43152116D01*
X79137259Y43152114D01*
X78986346Y43059029D01*
X78860971Y42933654D01*
X78767886Y42782741D01*
X78767885Y42782738D01*
X78745354Y42714743D01*
X78705581Y42657299D01*
X78641065Y42630476D01*
X78572289Y42642791D01*
X78527330Y42680862D01*
X78468068Y42762430D01*
X78322430Y42908068D01*
X78322428Y42908070D01*
X78322423Y42908074D01*
X78155806Y43029127D01*
X78155805Y43029128D01*
X78155803Y43029129D01*
X78078618Y43068457D01*
X77972294Y43122633D01*
X77776408Y43186281D01*
X77600794Y43214095D01*
X77572981Y43218500D01*
X77367019Y43218500D01*
X77342550Y43214625D01*
X77163591Y43186281D01*
X76967705Y43122633D01*
X76784193Y43029127D01*
X76617576Y42908074D01*
X76617571Y42908070D01*
X76471930Y42762429D01*
X76471926Y42762424D01*
X76350871Y42595805D01*
X76310484Y42516541D01*
X76262510Y42465746D01*
X76194689Y42448951D01*
X76128554Y42471489D01*
X76089516Y42516541D01*
X76049128Y42595805D01*
X75928073Y42762424D01*
X75928069Y42762429D01*
X75782428Y42908070D01*
X75782423Y42908074D01*
X75615806Y43029127D01*
X75615805Y43029128D01*
X75615803Y43029129D01*
X75538618Y43068457D01*
X75432294Y43122633D01*
X75236408Y43186281D01*
X75060794Y43214095D01*
X75032981Y43218500D01*
X74827019Y43218500D01*
X74802550Y43214625D01*
X74623591Y43186281D01*
X74427705Y43122633D01*
X74244193Y43029127D01*
X74077576Y42908074D01*
X74077571Y42908070D01*
X73931930Y42762429D01*
X73931926Y42762424D01*
X73810871Y42595805D01*
X73770484Y42516541D01*
X73722510Y42465746D01*
X73654689Y42448951D01*
X73588554Y42471489D01*
X73549516Y42516541D01*
X73509128Y42595805D01*
X73388073Y42762424D01*
X73388069Y42762429D01*
X73242428Y42908070D01*
X73242423Y42908074D01*
X73075806Y43029127D01*
X73075805Y43029128D01*
X73075803Y43029129D01*
X72998618Y43068457D01*
X72892294Y43122633D01*
X72696408Y43186281D01*
X72520794Y43214095D01*
X72492981Y43218500D01*
X72287019Y43218500D01*
X72262550Y43214625D01*
X72083591Y43186281D01*
X71887705Y43122633D01*
X71704193Y43029127D01*
X71537576Y42908074D01*
X71537571Y42908070D01*
X71391930Y42762429D01*
X71391926Y42762424D01*
X71270871Y42595805D01*
X71230484Y42516541D01*
X71182510Y42465746D01*
X71114689Y42448951D01*
X71048554Y42471489D01*
X71009516Y42516541D01*
X70969128Y42595805D01*
X70848073Y42762424D01*
X70848069Y42762429D01*
X70702428Y42908070D01*
X70702423Y42908074D01*
X70535806Y43029127D01*
X70535805Y43029128D01*
X70535803Y43029129D01*
X70458618Y43068457D01*
X70352294Y43122633D01*
X70156408Y43186281D01*
X69980794Y43214095D01*
X69952981Y43218500D01*
X69747019Y43218500D01*
X69722550Y43214625D01*
X69543591Y43186281D01*
X69347705Y43122633D01*
X69164193Y43029127D01*
X68997576Y42908074D01*
X68997571Y42908070D01*
X68851930Y42762429D01*
X68851926Y42762424D01*
X68730871Y42595805D01*
X68690484Y42516541D01*
X68642510Y42465746D01*
X68574689Y42448951D01*
X68508554Y42471489D01*
X68469516Y42516541D01*
X68429128Y42595805D01*
X68308073Y42762424D01*
X68308069Y42762429D01*
X68162432Y42908066D01*
X68162426Y42908071D01*
X68119615Y42939175D01*
X68116274Y42943507D01*
X68111297Y42945780D01*
X68095164Y42970883D01*
X68076949Y42994505D01*
X68075696Y43001177D01*
X68073523Y43004558D01*
X68068500Y43039493D01*
X68068500Y43195457D01*
X68088185Y43262496D01*
X68104819Y43283138D01*
X68730862Y43909181D01*
X68792185Y43942666D01*
X68818543Y43945500D01*
X69416706Y43945500D01*
X69489976Y43960075D01*
X69489977Y43960075D01*
X69508419Y43963744D01*
X69563247Y43974649D01*
X69701284Y44031826D01*
X69825515Y44114834D01*
X71455165Y45744484D01*
X71538173Y45868715D01*
X71538174Y45868716D01*
X71578180Y45965300D01*
X71595351Y46006753D01*
X71624500Y46153295D01*
X71624500Y46302705D01*
X71624500Y52271706D01*
X71624500Y52271709D01*
X71595352Y52418241D01*
X71595351Y52418242D01*
X71595351Y52418246D01*
X71591730Y52426989D01*
X71538177Y52556278D01*
X71538170Y52556291D01*
X71455166Y52680515D01*
X71455165Y52680516D01*
X71349516Y52786165D01*
X70541181Y53594500D01*
X67666518Y56469164D01*
X67666517Y56469165D01*
X67604399Y56510670D01*
X67542284Y56552174D01*
X67404247Y56609351D01*
X67404239Y56609353D01*
X67330976Y56623926D01*
X67257709Y56638500D01*
X67257706Y56638500D01*
X39608543Y56638500D01*
X39541504Y56658185D01*
X39520862Y56674819D01*
X37624819Y58570862D01*
X37591334Y58632185D01*
X37588500Y58658543D01*
X37588500Y67183516D01*
X37608185Y67250555D01*
X37639614Y67283834D01*
X37823145Y67417177D01*
X37992823Y67586855D01*
X38040859Y67652972D01*
X38045100Y67657702D01*
X38069607Y67672876D01*
X38092443Y67690485D01*
X38099802Y67691570D01*
X38104506Y67694482D01*
X38118013Y67694255D01*
X38132895Y67696449D01*
X38969950Y68533504D01*
X38969950Y68527332D01*
X38997213Y68425586D01*
X39049880Y68334364D01*
X39124364Y68259880D01*
X39215586Y68207213D01*
X39317332Y68179950D01*
X39323503Y68179950D01*
X38489437Y67345887D01*
X38489438Y67345886D01*
X38575439Y67283403D01*
X38788057Y67175067D01*
X38788060Y67175066D01*
X39015000Y67101330D01*
X39250689Y67064000D01*
X39489311Y67064000D01*
X39724999Y67101330D01*
X39951939Y67175066D01*
X39951942Y67175067D01*
X40164557Y67283401D01*
X40250560Y67345887D01*
X40250561Y67345887D01*
X39416497Y68179950D01*
X39422668Y68179950D01*
X39524414Y68207213D01*
X39615636Y68259880D01*
X39690120Y68334364D01*
X39742787Y68425586D01*
X39770050Y68527332D01*
X39770050Y68533502D01*
X40604113Y67699439D01*
X40604113Y67699440D01*
X40617182Y67717426D01*
X40672512Y67760091D01*
X40742126Y67766070D01*
X40803921Y67733464D01*
X40838278Y67672625D01*
X40841500Y67644540D01*
X40841500Y65864346D01*
X40848011Y65803798D01*
X40848011Y65803796D01*
X40899111Y65666796D01*
X40978866Y65560256D01*
X41003283Y65494793D01*
X40988957Y65427493D01*
X40914333Y65287882D01*
X40856208Y65096272D01*
X40848854Y65021602D01*
X40841733Y64949292D01*
X40841500Y64946931D01*
X40841500Y63831070D01*
X40856208Y63681731D01*
X40914333Y63490119D01*
X41008718Y63313537D01*
X41008720Y63313535D01*
X41008722Y63313531D01*
X41103811Y63197664D01*
X41131123Y63133354D01*
X41119332Y63064487D01*
X41103811Y63040336D01*
X41008718Y62924464D01*
X40914333Y62747882D01*
X40856208Y62556272D01*
X40856208Y62556269D01*
X40842475Y62416826D01*
X40841500Y62406931D01*
X40841500Y61291070D01*
X40856208Y61141729D01*
X40914333Y60950119D01*
X41008718Y60773537D01*
X41008720Y60773535D01*
X41008722Y60773531D01*
X41060247Y60710747D01*
X41109308Y60650965D01*
X41136620Y60586655D01*
X41124828Y60517787D01*
X41109308Y60493637D01*
X41015824Y60379725D01*
X41015820Y60379719D01*
X40922224Y60204613D01*
X40864585Y60014606D01*
X40864584Y60014604D01*
X40850000Y59866515D01*
X40850000Y59559000D01*
X42416548Y59559000D01*
X42383720Y59502140D01*
X42349620Y59374876D01*
X42349620Y59243124D01*
X42383720Y59115860D01*
X42416548Y59059000D01*
X40850000Y59059000D01*
X40850000Y58751486D01*
X40864584Y58603397D01*
X40864585Y58603395D01*
X40922224Y58413388D01*
X41015820Y58238282D01*
X41015825Y58238275D01*
X41141787Y58084788D01*
X41295274Y57958826D01*
X41295281Y57958821D01*
X41470387Y57865225D01*
X41660394Y57807586D01*
X41660396Y57807585D01*
X41808485Y57793000D01*
X42600000Y57793000D01*
X42600000Y58875549D01*
X42656860Y58842720D01*
X42784124Y58808620D01*
X42915876Y58808620D01*
X43043140Y58842720D01*
X43100000Y58875549D01*
X43100000Y57793000D01*
X43891515Y57793000D01*
X44039603Y57807585D01*
X44039605Y57807586D01*
X44229612Y57865225D01*
X44331567Y57919720D01*
X44404718Y57958821D01*
X44404725Y57958826D01*
X44558212Y58084788D01*
X44684174Y58238275D01*
X44684179Y58238282D01*
X44777775Y58413388D01*
X44835414Y58603395D01*
X44835415Y58603397D01*
X44850000Y58751486D01*
X44850000Y58823197D01*
X80050000Y58823197D01*
X80050000Y58259000D01*
X81841759Y58259000D01*
X81828822Y58227767D01*
X81800000Y58082869D01*
X81800000Y57935131D01*
X81828822Y57790233D01*
X81841759Y57759000D01*
X80050001Y57759000D01*
X80050001Y57194803D01*
X80060400Y57062668D01*
X80115377Y56844481D01*
X80208428Y56639626D01*
X80208431Y56639620D01*
X80336559Y56454677D01*
X80336569Y56454665D01*
X80495664Y56295570D01*
X80495676Y56295560D01*
X80680619Y56167432D01*
X80680625Y56167429D01*
X80885480Y56074378D01*
X81103667Y56019401D01*
X81235810Y56009001D01*
X82299999Y56009001D01*
X82300000Y56009002D01*
X82300000Y57300760D01*
X82331233Y57287822D01*
X82476131Y57259000D01*
X82623869Y57259000D01*
X82768767Y57287822D01*
X82800000Y57300760D01*
X82800000Y56009001D01*
X83864182Y56009001D01*
X83864197Y56009002D01*
X83996332Y56019401D01*
X84214519Y56074378D01*
X84419374Y56167429D01*
X84419380Y56167432D01*
X84604323Y56295560D01*
X84604335Y56295570D01*
X84763430Y56454665D01*
X84763440Y56454677D01*
X84891568Y56639620D01*
X84891571Y56639626D01*
X84984622Y56844481D01*
X85039599Y57062668D01*
X85049999Y57194804D01*
X85050000Y57194816D01*
X85050000Y57759000D01*
X83258241Y57759000D01*
X83271178Y57790233D01*
X83300000Y57935131D01*
X83300000Y58082869D01*
X83271178Y58227767D01*
X83258241Y58259000D01*
X85049999Y58259000D01*
X85049999Y58534742D01*
X94134500Y58534742D01*
X94134500Y58305259D01*
X94159446Y58115785D01*
X94164452Y58077762D01*
X94203048Y57933718D01*
X94223842Y57856113D01*
X94311650Y57644124D01*
X94311657Y57644110D01*
X94426392Y57445383D01*
X94566081Y57263339D01*
X94566089Y57263330D01*
X94728330Y57101089D01*
X94728338Y57101082D01*
X94910382Y56961393D01*
X94910385Y56961392D01*
X94910388Y56961389D01*
X95109112Y56846656D01*
X95109117Y56846654D01*
X95109123Y56846651D01*
X95200480Y56808810D01*
X95321113Y56758842D01*
X95542762Y56699452D01*
X95770266Y56669500D01*
X95770273Y56669500D01*
X95999727Y56669500D01*
X95999734Y56669500D01*
X96227238Y56699452D01*
X96448887Y56758842D01*
X96660888Y56846656D01*
X96859612Y56961389D01*
X97041661Y57101081D01*
X97041665Y57101086D01*
X97041670Y57101089D01*
X97203911Y57263330D01*
X97203914Y57263335D01*
X97203919Y57263339D01*
X97343611Y57445388D01*
X97458344Y57644112D01*
X97546158Y57856113D01*
X97605548Y58077762D01*
X97635500Y58305266D01*
X97635500Y58534734D01*
X97605548Y58762238D01*
X97546158Y58983887D01*
X97458344Y59195888D01*
X97343611Y59394612D01*
X97343608Y59394615D01*
X97343607Y59394618D01*
X97203918Y59576662D01*
X97203911Y59576670D01*
X97041670Y59738911D01*
X97041661Y59738919D01*
X96859617Y59878608D01*
X96660890Y59993343D01*
X96660876Y59993350D01*
X96448887Y60081158D01*
X96227238Y60140548D01*
X96189215Y60145554D01*
X95999741Y60170500D01*
X95999734Y60170500D01*
X95770266Y60170500D01*
X95770258Y60170500D01*
X95553715Y60141991D01*
X95542762Y60140548D01*
X95449076Y60115446D01*
X95321112Y60081158D01*
X95109123Y59993350D01*
X95109109Y59993343D01*
X94910382Y59878608D01*
X94728338Y59738919D01*
X94566081Y59576662D01*
X94426392Y59394618D01*
X94311657Y59195891D01*
X94311650Y59195877D01*
X94223842Y58983888D01*
X94164453Y58762241D01*
X94164451Y58762230D01*
X94134500Y58534742D01*
X85049999Y58534742D01*
X85049999Y58823183D01*
X85049998Y58823198D01*
X85039599Y58955333D01*
X84984622Y59173520D01*
X84891571Y59378375D01*
X84891568Y59378381D01*
X84763440Y59563324D01*
X84763430Y59563336D01*
X84604335Y59722431D01*
X84604323Y59722441D01*
X84419380Y59850569D01*
X84419374Y59850572D01*
X84214519Y59943623D01*
X83996332Y59998600D01*
X83864196Y60009000D01*
X82800000Y60009000D01*
X82800000Y58717241D01*
X82768767Y58730178D01*
X82623869Y58759000D01*
X82476131Y58759000D01*
X82331233Y58730178D01*
X82300000Y58717241D01*
X82300000Y60009000D01*
X81235817Y60009000D01*
X81235802Y60008999D01*
X81103667Y59998600D01*
X80885480Y59943623D01*
X80680625Y59850572D01*
X80680619Y59850569D01*
X80495676Y59722441D01*
X80495664Y59722431D01*
X80336569Y59563336D01*
X80336559Y59563324D01*
X80208431Y59378381D01*
X80208428Y59378375D01*
X80115377Y59173520D01*
X80060400Y58955333D01*
X80050000Y58823197D01*
X44850000Y58823197D01*
X44850000Y59059000D01*
X43283452Y59059000D01*
X43316280Y59115860D01*
X43350380Y59243124D01*
X43350380Y59374876D01*
X43316280Y59502140D01*
X43283452Y59559000D01*
X44850000Y59559000D01*
X44850000Y59866515D01*
X44835415Y60014604D01*
X44835414Y60014606D01*
X44777775Y60204613D01*
X44684179Y60379719D01*
X44684175Y60379725D01*
X44590691Y60493637D01*
X44563379Y60557947D01*
X44575170Y60626814D01*
X44590688Y60650962D01*
X44691278Y60773531D01*
X44785667Y60950120D01*
X44843792Y61141731D01*
X44858500Y61291066D01*
X44858500Y62406934D01*
X44843792Y62556269D01*
X44785667Y62747880D01*
X44691278Y62924469D01*
X44596188Y63040337D01*
X44568877Y63104646D01*
X44580668Y63173513D01*
X44596189Y63197664D01*
X44691278Y63313531D01*
X44785667Y63490120D01*
X44792370Y63512217D01*
X44801556Y63542497D01*
X44839854Y63600935D01*
X44903666Y63629391D01*
X44920216Y63630500D01*
X45481457Y63630500D01*
X45548496Y63610815D01*
X45569138Y63594181D01*
X47465181Y61698138D01*
X47498666Y61636815D01*
X47501500Y61610457D01*
X47501500Y60758198D01*
X47492062Y60710747D01*
X47482570Y60687831D01*
X47482568Y60687824D01*
X47451500Y60531635D01*
X47451500Y60372366D01*
X47482568Y60216177D01*
X47482570Y60216169D01*
X47543517Y60069031D01*
X47631995Y59936613D01*
X47632001Y59936606D01*
X47744605Y59824002D01*
X47744612Y59823996D01*
X47877030Y59735518D01*
X47877031Y59735518D01*
X47877032Y59735517D01*
X48024169Y59674570D01*
X48180365Y59643501D01*
X48180369Y59643500D01*
X48180370Y59643500D01*
X48339631Y59643500D01*
X48339632Y59643501D01*
X48495831Y59674570D01*
X48642968Y59735517D01*
X48775389Y59823997D01*
X48888003Y59936611D01*
X48976483Y60069032D01*
X49037430Y60216169D01*
X49068500Y60372370D01*
X49068500Y60531630D01*
X49037430Y60687831D01*
X49027938Y60710747D01*
X49018500Y60758198D01*
X49018500Y62050709D01*
X48989352Y62197241D01*
X48989351Y62197242D01*
X48989351Y62197246D01*
X48954445Y62281517D01*
X48932177Y62335278D01*
X48932170Y62335291D01*
X48849166Y62459515D01*
X48808845Y62499836D01*
X48743516Y62565165D01*
X47584967Y63723714D01*
X46330518Y64978164D01*
X46330517Y64978165D01*
X46250427Y65031679D01*
X46206284Y65061174D01*
X46143862Y65087030D01*
X46068247Y65118351D01*
X46068239Y65118353D01*
X45994976Y65132926D01*
X45921709Y65147500D01*
X45921706Y65147500D01*
X44920216Y65147500D01*
X44903532Y65152399D01*
X44886143Y65152273D01*
X44870703Y65162039D01*
X44853177Y65167185D01*
X44841603Y65180445D01*
X44827093Y65189622D01*
X44815655Y65210171D01*
X44807797Y65219174D01*
X44804098Y65227121D01*
X44785667Y65287880D01*
X44709429Y65430510D01*
X44707982Y65433620D01*
X44703251Y65464917D01*
X44696801Y65495896D01*
X44698063Y65499236D01*
X44697539Y65502705D01*
X44709308Y65528978D01*
X44721133Y65560256D01*
X44800889Y65666796D01*
X44851989Y65803799D01*
X44855591Y65837308D01*
X44858499Y65864346D01*
X44858500Y65864363D01*
X44858500Y67993638D01*
X44858499Y67993655D01*
X44855157Y68024730D01*
X44851989Y68054201D01*
X44800889Y68191204D01*
X44713261Y68308261D01*
X44596204Y68395889D01*
X44459203Y68446989D01*
X44398654Y68453500D01*
X44398638Y68453500D01*
X43732500Y68453500D01*
X43665461Y68473185D01*
X43619706Y68525989D01*
X43608500Y68577500D01*
X43608500Y71575000D01*
X43628185Y71642039D01*
X43680989Y71687794D01*
X43732500Y71699000D01*
X66329830Y71699000D01*
X66329831Y71699001D01*
X66524669Y71737756D01*
X66708204Y71813779D01*
X66873381Y71924147D01*
X67013853Y72064619D01*
X67072412Y72123178D01*
X67072425Y72123193D01*
X74041416Y79092181D01*
X74102739Y79125666D01*
X74129097Y79128500D01*
X75013609Y79128500D01*
X75080648Y79108815D01*
X75126403Y79056011D01*
X75136347Y78986853D01*
X75107322Y78923297D01*
X75087921Y78905235D01*
X75040357Y78869628D01*
X74971739Y78818261D01*
X74884111Y78701205D01*
X74833011Y78564205D01*
X74833011Y78564203D01*
X74826500Y78503655D01*
X74826500Y75406346D01*
X74833011Y75345798D01*
X74833011Y75345796D01*
X74881315Y75216292D01*
X74884111Y75208796D01*
X74971739Y75091739D01*
X75088796Y75004111D01*
X75225799Y74953011D01*
X75253050Y74950082D01*
X75286345Y74946501D01*
X75286362Y74946500D01*
X78383638Y74946500D01*
X78383654Y74946501D01*
X78410692Y74949409D01*
X78444201Y74953011D01*
X78581204Y75004111D01*
X78698261Y75091739D01*
X78785889Y75208796D01*
X78836989Y75345799D01*
X78842007Y75392475D01*
X78843499Y75406346D01*
X78843500Y75406363D01*
X78843500Y78503638D01*
X78843499Y78503655D01*
X78837357Y78560776D01*
X78836989Y78564201D01*
X78785889Y78701204D01*
X78698261Y78818261D01*
X78582079Y78905234D01*
X78540209Y78961167D01*
X78535225Y79030859D01*
X78568710Y79092182D01*
X78630033Y79125666D01*
X78656391Y79128500D01*
X82069670Y79128500D01*
X83441500Y79128500D01*
X83508539Y79108815D01*
X83554294Y79056011D01*
X83565500Y79004500D01*
X83565500Y79001014D01*
X83603037Y78764012D01*
X83649891Y78619813D01*
X83677190Y78535795D01*
X83786131Y78321988D01*
X83927177Y78127855D01*
X83927179Y78127853D01*
X84096855Y77958177D01*
X84106297Y77951317D01*
X84148962Y77895986D01*
X84154940Y77826372D01*
X84122333Y77764578D01*
X84106297Y77750683D01*
X84096855Y77743824D01*
X83927179Y77574148D01*
X83927179Y77574147D01*
X83927177Y77574145D01*
X83870522Y77496166D01*
X83786131Y77380013D01*
X83677191Y77166208D01*
X83603037Y76937989D01*
X83565500Y76700987D01*
X83565500Y76461014D01*
X83603037Y76224012D01*
X83653724Y76068017D01*
X83677190Y75995795D01*
X83786131Y75781988D01*
X83857946Y75683143D01*
X83881426Y75617337D01*
X83865601Y75549284D01*
X83831939Y75510991D01*
X83710739Y75420261D01*
X83623111Y75303205D01*
X83572011Y75166205D01*
X83572011Y75166203D01*
X83565500Y75105655D01*
X83565500Y72976346D01*
X83572011Y72915798D01*
X83572011Y72915796D01*
X83623111Y72778796D01*
X83710739Y72661739D01*
X83827796Y72574111D01*
X83964799Y72523011D01*
X83992050Y72520082D01*
X84025345Y72516501D01*
X84025362Y72516500D01*
X86154638Y72516500D01*
X86154654Y72516501D01*
X86181692Y72519409D01*
X86215201Y72523011D01*
X86352204Y72574111D01*
X86469261Y72661739D01*
X86521234Y72731167D01*
X86577167Y72773037D01*
X86646858Y72778021D01*
X86708182Y72744536D01*
X86741666Y72683213D01*
X86744500Y72656855D01*
X86744500Y70977544D01*
X86724815Y70910505D01*
X86708181Y70889863D01*
X85169831Y69351514D01*
X85108508Y69318029D01*
X85038816Y69323013D01*
X84982883Y69364885D01*
X84969251Y69387914D01*
X84898994Y69542591D01*
X84833088Y69637720D01*
X84769985Y69728804D01*
X84609803Y69888986D01*
X84423595Y70017992D01*
X84217338Y70111679D01*
X84070891Y70148580D01*
X83997669Y70167030D01*
X83975496Y70168775D01*
X83864641Y70177500D01*
X83864636Y70177500D01*
X81235364Y70177500D01*
X81235358Y70177500D01*
X81102331Y70167030D01*
X80882661Y70111679D01*
X80676404Y70017992D01*
X80490196Y69888986D01*
X80330014Y69728804D01*
X80201008Y69542596D01*
X80107321Y69336339D01*
X80051970Y69116669D01*
X80041500Y68983642D01*
X80041500Y67354359D01*
X80042167Y67345887D01*
X80051970Y67221331D01*
X80063628Y67175066D01*
X80107321Y67001662D01*
X80201008Y66795405D01*
X80330014Y66609197D01*
X80490196Y66449015D01*
X80676404Y66320009D01*
X80676405Y66320009D01*
X80676409Y66320006D01*
X80814134Y66257449D01*
X80882661Y66226322D01*
X80882662Y66226322D01*
X80882664Y66226321D01*
X81102331Y66170970D01*
X81235364Y66160500D01*
X81235372Y66160500D01*
X83864628Y66160500D01*
X83864636Y66160500D01*
X83997669Y66170970D01*
X84217336Y66226321D01*
X84423591Y66320006D01*
X84609802Y66449014D01*
X84769986Y66609198D01*
X84898994Y66795409D01*
X84992679Y67001664D01*
X85048030Y67221331D01*
X85054411Y67302421D01*
X85064050Y67327709D01*
X85070274Y67354048D01*
X85076308Y67359872D01*
X85079295Y67367706D01*
X85101075Y67383770D01*
X85120553Y67402564D01*
X85132067Y67406627D01*
X85135526Y67409177D01*
X85153828Y67414304D01*
X85207976Y67425075D01*
X85207977Y67425075D01*
X85226419Y67428744D01*
X85281247Y67439649D01*
X85419284Y67496826D01*
X85543515Y67579834D01*
X87421819Y69458138D01*
X87483142Y69491623D01*
X87552834Y69486639D01*
X87608767Y69444767D01*
X87633184Y69379303D01*
X87633500Y69370457D01*
X87633500Y65389543D01*
X87613815Y65322504D01*
X87597181Y65301862D01*
X86179138Y63883819D01*
X86117815Y63850334D01*
X86091457Y63847500D01*
X85177542Y63847500D01*
X85110503Y63867185D01*
X85064748Y63919989D01*
X85053924Y63961768D01*
X85048030Y64036669D01*
X84992679Y64256336D01*
X84898994Y64462591D01*
X84845029Y64540484D01*
X84769985Y64648804D01*
X84609803Y64808986D01*
X84423595Y64937992D01*
X84398717Y64949292D01*
X84335154Y64978164D01*
X84217338Y65031679D01*
X84070891Y65068580D01*
X83997669Y65087030D01*
X83975496Y65088775D01*
X83864641Y65097500D01*
X83864636Y65097500D01*
X81235364Y65097500D01*
X81235358Y65097500D01*
X81102331Y65087030D01*
X80882661Y65031679D01*
X80676404Y64937992D01*
X80490196Y64808986D01*
X80330014Y64648804D01*
X80201008Y64462596D01*
X80107321Y64256339D01*
X80051970Y64036669D01*
X80041500Y63903642D01*
X80041500Y62274359D01*
X80051970Y62141332D01*
X80107321Y61921662D01*
X80201008Y61715405D01*
X80330014Y61529197D01*
X80490196Y61369015D01*
X80676404Y61240009D01*
X80676405Y61240009D01*
X80676409Y61240006D01*
X80814134Y61177449D01*
X80882661Y61146322D01*
X80882662Y61146322D01*
X80882664Y61146321D01*
X81102331Y61090970D01*
X81235364Y61080500D01*
X81235372Y61080500D01*
X83864628Y61080500D01*
X83864636Y61080500D01*
X83997669Y61090970D01*
X84217336Y61146321D01*
X84423591Y61240006D01*
X84609802Y61369014D01*
X84769986Y61529198D01*
X84898994Y61715409D01*
X84992679Y61921664D01*
X85048030Y62141331D01*
X85053924Y62216232D01*
X85078808Y62281517D01*
X85135039Y62322988D01*
X85177542Y62330500D01*
X86531708Y62330500D01*
X86604695Y62345019D01*
X86641190Y62352278D01*
X86678247Y62359649D01*
X86816284Y62416826D01*
X86940515Y62499834D01*
X88981165Y64540484D01*
X89027779Y64610247D01*
X89064174Y64664716D01*
X89121351Y64802754D01*
X89148252Y64937992D01*
X89150500Y64949292D01*
X89150500Y70223312D01*
X89924000Y70223312D01*
X89924000Y69984689D01*
X89961329Y69749001D01*
X90035065Y69522061D01*
X90035066Y69522058D01*
X90143402Y69309440D01*
X90205884Y69223440D01*
X90205886Y69223440D01*
X90956726Y69974280D01*
X90973720Y69910860D01*
X91039596Y69796759D01*
X91132759Y69703596D01*
X91246860Y69637720D01*
X91310279Y69620727D01*
X90559437Y68869887D01*
X90559438Y68869886D01*
X90645439Y68807403D01*
X90858057Y68699067D01*
X90858060Y68699066D01*
X91085000Y68625330D01*
X91320689Y68588000D01*
X91559311Y68588000D01*
X91794999Y68625330D01*
X92021939Y68699066D01*
X92021942Y68699067D01*
X92234557Y68807401D01*
X92320560Y68869887D01*
X92320561Y68869887D01*
X91569720Y69620727D01*
X91633140Y69637720D01*
X91747241Y69703596D01*
X91840404Y69796759D01*
X91906280Y69910860D01*
X91923273Y69974280D01*
X92674113Y69223439D01*
X92674113Y69223440D01*
X92736599Y69309443D01*
X92844933Y69522058D01*
X92844934Y69522061D01*
X92918670Y69749001D01*
X92956000Y69984689D01*
X92956000Y70223312D01*
X92918670Y70459000D01*
X92844934Y70685940D01*
X92844933Y70685943D01*
X92736597Y70898561D01*
X92674114Y70984562D01*
X92674113Y70984563D01*
X91923272Y70233722D01*
X91906280Y70297140D01*
X91840404Y70411241D01*
X91747241Y70504404D01*
X91633140Y70570280D01*
X91569719Y70587274D01*
X92320560Y71338114D01*
X92320560Y71338116D01*
X92234560Y71400598D01*
X92021942Y71508934D01*
X92021939Y71508935D01*
X91794999Y71582671D01*
X91559311Y71620000D01*
X91320689Y71620000D01*
X91085000Y71582671D01*
X90858060Y71508935D01*
X90858057Y71508934D01*
X90645446Y71400602D01*
X90559438Y71338115D01*
X91310280Y70587274D01*
X91246860Y70570280D01*
X91132759Y70504404D01*
X91039596Y70411241D01*
X90973720Y70297140D01*
X90956726Y70233721D01*
X90205885Y70984562D01*
X90143398Y70898554D01*
X90035066Y70685943D01*
X90035065Y70685940D01*
X89961329Y70459000D01*
X89924000Y70223312D01*
X89150500Y70223312D01*
X89150500Y78374458D01*
X89170185Y78441497D01*
X89186814Y78462135D01*
X90056000Y79331321D01*
X90117321Y79364804D01*
X90187012Y79359820D01*
X90242946Y79317948D01*
X90243971Y79316559D01*
X90277177Y79270855D01*
X90446855Y79101177D01*
X90640988Y78960131D01*
X90854795Y78851190D01*
X91028089Y78794884D01*
X91083011Y78777038D01*
X91320014Y78739500D01*
X91320019Y78739500D01*
X91559986Y78739500D01*
X91796988Y78777038D01*
X91821600Y78785035D01*
X92025205Y78851190D01*
X92112205Y78895520D01*
X92180873Y78908416D01*
X92245614Y78882141D01*
X92285871Y78825035D01*
X92292500Y78785035D01*
X92292500Y78624949D01*
X92323487Y78429300D01*
X92384703Y78240899D01*
X92442304Y78127853D01*
X92474634Y78064402D01*
X92591070Y77904142D01*
X92591072Y77904140D01*
X92683531Y77811681D01*
X92717016Y77750358D01*
X92712032Y77680666D01*
X92683531Y77636319D01*
X92591072Y77543861D01*
X92591072Y77543860D01*
X92591070Y77543858D01*
X92564546Y77507351D01*
X92474634Y77383599D01*
X92384703Y77207102D01*
X92323487Y77018701D01*
X92292500Y76823052D01*
X92292500Y76662966D01*
X92272815Y76595927D01*
X92220011Y76550172D01*
X92150853Y76540228D01*
X92112205Y76552481D01*
X92025207Y76596809D01*
X92025206Y76596810D01*
X92025205Y76596810D01*
X91938602Y76624949D01*
X91796988Y76670963D01*
X91559986Y76708500D01*
X91559981Y76708500D01*
X91320019Y76708500D01*
X91320014Y76708500D01*
X91083011Y76670963D01*
X90854792Y76596809D01*
X90640987Y76487869D01*
X90555319Y76425627D01*
X90446855Y76346823D01*
X90446853Y76346821D01*
X90446852Y76346821D01*
X90277179Y76177148D01*
X90277179Y76177147D01*
X90277177Y76177145D01*
X90216602Y76093772D01*
X90136131Y75983013D01*
X90027191Y75769208D01*
X89953037Y75540989D01*
X89915500Y75303987D01*
X89915500Y75064014D01*
X89953037Y74827012D01*
X89990070Y74713038D01*
X90027190Y74598795D01*
X90136131Y74384988D01*
X90277177Y74190855D01*
X90446855Y74021177D01*
X90640988Y73880131D01*
X90854795Y73771190D01*
X91015931Y73718834D01*
X91083011Y73697038D01*
X91320014Y73659500D01*
X91320019Y73659500D01*
X91559986Y73659500D01*
X91796988Y73697038D01*
X92025205Y73771190D01*
X92239012Y73880131D01*
X92419156Y74011014D01*
X92484958Y74034492D01*
X92501769Y74034312D01*
X92507320Y74033875D01*
X93151000Y74677555D01*
X93151000Y74671339D01*
X93178259Y74569606D01*
X93230920Y74478394D01*
X93305394Y74403920D01*
X93396606Y74351259D01*
X93498339Y74324000D01*
X93504553Y74324000D01*
X92860873Y73680323D01*
X92860873Y73680322D01*
X92895858Y73654904D01*
X93071164Y73565582D01*
X93258294Y73504779D01*
X93452618Y73474000D01*
X93649382Y73474000D01*
X93843705Y73504779D01*
X94030835Y73565582D01*
X94206143Y73654905D01*
X94241125Y73680322D01*
X94241126Y73680322D01*
X93597448Y74324000D01*
X93603661Y74324000D01*
X93705394Y74351259D01*
X93796606Y74403920D01*
X93871080Y74478394D01*
X93923741Y74569606D01*
X93951000Y74671339D01*
X93951000Y74677552D01*
X94594678Y74033874D01*
X94594678Y74033875D01*
X94620095Y74068857D01*
X94709418Y74244165D01*
X94770221Y74431295D01*
X94801000Y74625618D01*
X94801000Y74822383D01*
X94770221Y75016706D01*
X94709418Y75203836D01*
X94620096Y75379142D01*
X94594678Y75414127D01*
X94594677Y75414127D01*
X93951000Y74770449D01*
X93951000Y74776661D01*
X93923741Y74878394D01*
X93871080Y74969606D01*
X93796606Y75044080D01*
X93705394Y75096741D01*
X93603661Y75124000D01*
X93597446Y75124000D01*
X94014196Y75540751D01*
X94045580Y75563554D01*
X94210598Y75647634D01*
X94370858Y75764070D01*
X94510930Y75904142D01*
X94627366Y76064402D01*
X94717298Y76240903D01*
X94778512Y76429300D01*
X94798022Y76552481D01*
X94809500Y76624949D01*
X94809500Y76823052D01*
X94778512Y77018701D01*
X94738762Y77141038D01*
X94717298Y77207097D01*
X94717296Y77207100D01*
X94717296Y77207102D01*
X94629193Y77380012D01*
X94627366Y77383598D01*
X94510930Y77543858D01*
X94418469Y77636319D01*
X94384984Y77697642D01*
X94389968Y77767334D01*
X94418469Y77811681D01*
X94457788Y77851000D01*
X94510930Y77904142D01*
X94627366Y78064402D01*
X94717298Y78240903D01*
X94778512Y78429300D01*
X94790286Y78503638D01*
X94809500Y78624949D01*
X94809500Y78823052D01*
X94778512Y79018701D01*
X94735019Y79152556D01*
X94717298Y79207097D01*
X94717296Y79207100D01*
X94717296Y79207102D01*
X94660816Y79317948D01*
X94627366Y79383598D01*
X94605324Y79413936D01*
X94581844Y79479743D01*
X94597669Y79547797D01*
X94631328Y79586086D01*
X94664261Y79610739D01*
X94751889Y79727796D01*
X94802989Y79864799D01*
X94808925Y79920012D01*
X94809499Y79925346D01*
X94809500Y79925363D01*
X94809500Y81522638D01*
X94809499Y81522655D01*
X94804637Y81567869D01*
X94802989Y81583201D01*
X94751889Y81720204D01*
X94664261Y81837261D01*
X94547204Y81924889D01*
X94410203Y81975989D01*
X94349654Y81982500D01*
X94349638Y81982500D01*
X92752362Y81982500D01*
X92752345Y81982500D01*
X92691797Y81975989D01*
X92691795Y81975989D01*
X92554795Y81924889D01*
X92437739Y81837261D01*
X92350111Y81720205D01*
X92333214Y81674902D01*
X92291343Y81618969D01*
X92225878Y81594553D01*
X92160738Y81607752D01*
X92025207Y81676809D01*
X92025206Y81676810D01*
X92025205Y81676810D01*
X91947823Y81701953D01*
X91796988Y81750963D01*
X91559986Y81788500D01*
X91559981Y81788500D01*
X91320019Y81788500D01*
X91320014Y81788500D01*
X91083011Y81750963D01*
X90854792Y81676809D01*
X90640987Y81567869D01*
X90530228Y81487398D01*
X90446855Y81426823D01*
X90446853Y81426821D01*
X90446852Y81426821D01*
X90277179Y81257148D01*
X90277177Y81257145D01*
X90145026Y81075254D01*
X90143834Y81073614D01*
X90088504Y81030949D01*
X90043516Y81022500D01*
X89841292Y81022500D01*
X89794372Y81013167D01*
X89770912Y81008500D01*
X89694753Y80993351D01*
X89637576Y80969669D01*
X89637576Y80969668D01*
X89568559Y80941080D01*
X89556711Y80936172D01*
X89533036Y80920352D01*
X89533036Y80920351D01*
X89432481Y80853164D01*
X89432480Y80853163D01*
X88473181Y79893863D01*
X88411858Y79860378D01*
X88342166Y79865362D01*
X88286233Y79907234D01*
X88261816Y79972698D01*
X88261500Y79981544D01*
X88261500Y82438458D01*
X88281185Y82505497D01*
X88297814Y82526134D01*
X89820706Y84049027D01*
X89882027Y84082510D01*
X89951719Y84077526D01*
X90007651Y84035656D01*
X90060739Y83964739D01*
X90177796Y83877111D01*
X90314799Y83826011D01*
X90342050Y83823082D01*
X90375345Y83819501D01*
X90375362Y83819500D01*
X92504638Y83819500D01*
X92504654Y83819501D01*
X92531692Y83822409D01*
X92565201Y83826011D01*
X92702204Y83877111D01*
X92819261Y83964739D01*
X92906889Y84081796D01*
X92957989Y84218799D01*
X92962634Y84262007D01*
X92964499Y84279346D01*
X92964500Y84279363D01*
X92964500Y86408638D01*
X92964499Y86408655D01*
X92961003Y86441165D01*
X92957989Y86469201D01*
X92943957Y86506821D01*
X92935297Y86530039D01*
X92906889Y86606204D01*
X92819261Y86723261D01*
X92702204Y86810889D01*
X92677903Y86819953D01*
X92565203Y86861989D01*
X92504654Y86868500D01*
X92504638Y86868500D01*
X90375362Y86868500D01*
X90375345Y86868500D01*
X90314797Y86861989D01*
X90314795Y86861989D01*
X90177795Y86810889D01*
X90060739Y86723261D01*
X89973111Y86606205D01*
X89922011Y86469205D01*
X89922011Y86469203D01*
X89915500Y86408655D01*
X89915500Y86193754D01*
X89910167Y86175593D01*
X89909824Y86156669D01*
X89900527Y86142764D01*
X89895815Y86126715D01*
X89881511Y86114321D01*
X89870991Y86098585D01*
X89850707Y86087630D01*
X89843011Y86080960D01*
X89840959Y86080045D01*
X89828784Y86074750D01*
X89821753Y86073351D01*
X89764696Y86049717D01*
X89683716Y86016174D01*
X89683715Y86016173D01*
X89664326Y86003219D01*
X89664317Y86003214D01*
X89559488Y85933169D01*
X89559480Y85933163D01*
X86913835Y83287518D01*
X86830828Y83163288D01*
X86830822Y83163277D01*
X86778016Y83035788D01*
X86778014Y83035782D01*
X86773649Y83025247D01*
X86773646Y83025236D01*
X86744500Y82878711D01*
X86744500Y79745264D01*
X86724815Y79678225D01*
X86672011Y79632470D01*
X86602853Y79622526D01*
X86539297Y79651551D01*
X86505743Y79702157D01*
X86504671Y79701712D01*
X86502811Y79706204D01*
X86423793Y79861283D01*
X86393869Y79920012D01*
X86252823Y80114145D01*
X86083145Y80283823D01*
X85889012Y80424869D01*
X85675205Y80533810D01*
X85616018Y80553041D01*
X85446988Y80607963D01*
X85209986Y80645500D01*
X85209981Y80645500D01*
X85043096Y80645500D01*
X84976057Y80665185D01*
X84955415Y80681819D01*
X84716884Y80920351D01*
X84716881Y80920353D01*
X84551711Y81030717D01*
X84551698Y81030724D01*
X84520319Y81043721D01*
X84520318Y81043721D01*
X84368171Y81106743D01*
X84368163Y81106745D01*
X84173335Y81145499D01*
X84173331Y81145500D01*
X82268329Y81145500D01*
X73560671Y81145500D01*
X73560666Y81145500D01*
X73365838Y81106747D01*
X73365838Y81106746D01*
X73365835Y81106745D01*
X73365831Y81106744D01*
X73289809Y81075255D01*
X73289807Y81075255D01*
X73182294Y81030722D01*
X73017123Y80920358D01*
X73017115Y80920352D01*
X65849085Y73752319D01*
X65787762Y73718834D01*
X65761404Y73716000D01*
X36981597Y73716000D01*
X36914558Y73735685D01*
X36893916Y73752319D01*
X36011908Y74634327D01*
X35978423Y74695650D01*
X35983407Y74765342D01*
X36025279Y74821275D01*
X36090743Y74845692D01*
X36155885Y74832492D01*
X36244790Y74787192D01*
X36244792Y74787192D01*
X36244795Y74787190D01*
X36367126Y74747443D01*
X36473011Y74713038D01*
X36710014Y74675500D01*
X36710019Y74675500D01*
X36949986Y74675500D01*
X37186988Y74713038D01*
X37415205Y74787190D01*
X37629012Y74896131D01*
X37823145Y75037177D01*
X37992823Y75206855D01*
X37997095Y75212735D01*
X37999680Y75216292D01*
X38055008Y75258960D01*
X38124622Y75264941D01*
X38186418Y75232337D01*
X38200320Y75216292D01*
X38207171Y75206862D01*
X38207175Y75206857D01*
X38207177Y75206855D01*
X38376855Y75037177D01*
X38570988Y74896131D01*
X38784795Y74787190D01*
X38958089Y74730884D01*
X39013011Y74713038D01*
X39250014Y74675500D01*
X39250019Y74675500D01*
X39489986Y74675500D01*
X39726988Y74713038D01*
X39955205Y74787190D01*
X40169012Y74896131D01*
X40363145Y75037177D01*
X40532823Y75206855D01*
X40673869Y75400988D01*
X40782810Y75614795D01*
X40856962Y75843012D01*
X40866644Y75904142D01*
X40894500Y76080014D01*
X40894500Y76319987D01*
X40856962Y76556989D01*
X40834880Y76624949D01*
X40782810Y76785205D01*
X40673869Y76999012D01*
X40532823Y77193145D01*
X40363145Y77362823D01*
X40169012Y77503869D01*
X39955205Y77612810D01*
X39876130Y77638503D01*
X39726988Y77686963D01*
X39489986Y77724500D01*
X39489981Y77724500D01*
X39250019Y77724500D01*
X39250014Y77724500D01*
X39013011Y77686963D01*
X38784792Y77612809D01*
X38570987Y77503869D01*
X38546261Y77485904D01*
X38376855Y77362823D01*
X38376853Y77362821D01*
X38376852Y77362821D01*
X38207176Y77193145D01*
X38200317Y77183703D01*
X38144986Y77141038D01*
X38075372Y77135060D01*
X38013578Y77167667D01*
X37999683Y77183703D01*
X37992823Y77193145D01*
X37823147Y77362821D01*
X37823145Y77362823D01*
X37639613Y77496167D01*
X37596949Y77551496D01*
X37588500Y77596484D01*
X37588500Y79136457D01*
X37597144Y79165898D01*
X37603668Y79195884D01*
X37607422Y79200900D01*
X37608185Y79203496D01*
X37624819Y79224138D01*
X38116362Y79715681D01*
X38177685Y79749166D01*
X38204043Y79752000D01*
X39069129Y79752000D01*
X39093319Y79749618D01*
X39095588Y79749166D01*
X39149207Y79738500D01*
X39149209Y79738500D01*
X39182170Y79738500D01*
X39175925Y79732255D01*
X39126556Y79646745D01*
X39101000Y79551370D01*
X39101000Y79452630D01*
X39126556Y79357255D01*
X39175925Y79271745D01*
X39195670Y79252000D01*
X38226000Y79252000D01*
X38226000Y78929156D01*
X38232401Y78869628D01*
X38232403Y78869621D01*
X38282645Y78734914D01*
X38282649Y78734907D01*
X38368809Y78619813D01*
X38368812Y78619810D01*
X38483906Y78533650D01*
X38483913Y78533646D01*
X38618620Y78483404D01*
X38618627Y78483402D01*
X38678155Y78477001D01*
X38678172Y78477000D01*
X39226000Y78477000D01*
X39226000Y79221670D01*
X39245745Y79201925D01*
X39331255Y79152556D01*
X39426630Y79127000D01*
X39525370Y79127000D01*
X39620745Y79152556D01*
X39706255Y79201925D01*
X39726000Y79221670D01*
X39726000Y78477000D01*
X40273828Y78477000D01*
X40273844Y78477001D01*
X40333372Y78483402D01*
X40333379Y78483404D01*
X40468086Y78533646D01*
X40468093Y78533650D01*
X40583187Y78619810D01*
X40583190Y78619813D01*
X40669350Y78734907D01*
X40669354Y78734914D01*
X40719596Y78869621D01*
X40719598Y78869628D01*
X40725999Y78929156D01*
X40726000Y78929173D01*
X40726000Y79252000D01*
X39756330Y79252000D01*
X39776075Y79271745D01*
X39825444Y79357255D01*
X39851000Y79452630D01*
X39851000Y79551370D01*
X39825444Y79646745D01*
X39776075Y79732255D01*
X39769830Y79738500D01*
X39802792Y79738500D01*
X39856412Y79749166D01*
X39858680Y79749618D01*
X39882871Y79752000D01*
X40726000Y79752000D01*
X40726000Y80074828D01*
X40725999Y80074845D01*
X40719598Y80134373D01*
X40719596Y80134380D01*
X40669354Y80269087D01*
X40665103Y80276872D01*
X40668306Y80278622D01*
X40649911Y80327806D01*
X40659024Y80384211D01*
X40694783Y80470539D01*
X40734500Y80670209D01*
X40734500Y80873791D01*
X40734500Y80873794D01*
X40734499Y80873796D01*
X40725237Y80920358D01*
X40694783Y81073461D01*
X40680997Y81106744D01*
X40616879Y81261540D01*
X40616877Y81261543D01*
X40616876Y81261546D01*
X40565715Y81338113D01*
X40544839Y81404786D01*
X40563323Y81472166D01*
X40565679Y81475833D01*
X40616876Y81552454D01*
X40694783Y81740539D01*
X40734500Y81940209D01*
X40734500Y82143791D01*
X40734500Y82143794D01*
X40734499Y82143796D01*
X40694784Y82343454D01*
X40694783Y82343461D01*
X40655434Y82438458D01*
X40616879Y82531540D01*
X40616872Y82531553D01*
X40503772Y82700818D01*
X40503769Y82700822D01*
X40376065Y82828526D01*
X40376061Y82828529D01*
X40359818Y82844772D01*
X40287516Y82893083D01*
X40285450Y82894589D01*
X40265644Y82920361D01*
X40244804Y82945298D01*
X40244181Y82948290D01*
X40242875Y82949989D01*
X40242227Y82957671D01*
X40234500Y82994787D01*
X40234500Y84360750D01*
X40254185Y84427789D01*
X40306989Y84473544D01*
X40358500Y84484750D01*
X41080638Y84484750D01*
X41080654Y84484751D01*
X41107692Y84487659D01*
X41141201Y84491261D01*
X41278204Y84542361D01*
X41395261Y84629989D01*
X41482889Y84747046D01*
X41533989Y84884049D01*
X41537591Y84917558D01*
X41540499Y84944596D01*
X41540500Y84944613D01*
X41540500Y86759388D01*
X41540499Y86759405D01*
X41534963Y86810889D01*
X41533989Y86819951D01*
X41529882Y86830962D01*
X41479790Y86965262D01*
X41483074Y86966487D01*
X41471795Y87018354D01*
X41496216Y87083817D01*
X41552152Y87125685D01*
X41595478Y87133500D01*
X46389904Y87133500D01*
X46456943Y87113815D01*
X46477585Y87097181D01*
X46983403Y86591362D01*
X47016888Y86530039D01*
X47011904Y86460347D01*
X46970032Y86404414D01*
X46904568Y86379997D01*
X46863629Y86383906D01*
X46726020Y86420778D01*
X46726009Y86420780D01*
X46466094Y86455000D01*
X46203905Y86455000D01*
X45943990Y86420780D01*
X45943979Y86420778D01*
X45690744Y86352925D01*
X45448528Y86252596D01*
X45448517Y86252591D01*
X45221471Y86121504D01*
X45108633Y86034921D01*
X45108633Y86034920D01*
X46205591Y84937963D01*
X46142007Y84920925D01*
X46027993Y84855099D01*
X45934901Y84762007D01*
X45869075Y84647993D01*
X45852037Y84584410D01*
X44755080Y85681367D01*
X44755079Y85681367D01*
X44668496Y85568529D01*
X44537409Y85341483D01*
X44537404Y85341472D01*
X44437075Y85099256D01*
X44369222Y84846021D01*
X44369220Y84846010D01*
X44335001Y84586097D01*
X44335000Y84586081D01*
X44335000Y84323906D01*
X44369220Y84063991D01*
X44369222Y84063980D01*
X44437075Y83810745D01*
X44537404Y83568529D01*
X44537409Y83568518D01*
X44668488Y83341484D01*
X44668494Y83341476D01*
X44755080Y83228635D01*
X45852037Y84325592D01*
X45869075Y84262007D01*
X45934901Y84147993D01*
X46027993Y84054901D01*
X46142007Y83989075D01*
X46205590Y83972038D01*
X45108633Y82875083D01*
X45108633Y82875082D01*
X45221475Y82788495D01*
X45221483Y82788489D01*
X45448517Y82657410D01*
X45448528Y82657405D01*
X45690744Y82557076D01*
X45943979Y82489223D01*
X45943990Y82489221D01*
X46203905Y82455001D01*
X46203920Y82455000D01*
X46466080Y82455000D01*
X46466094Y82455001D01*
X46726009Y82489221D01*
X46726020Y82489223D01*
X46979255Y82557076D01*
X47221471Y82657405D01*
X47221482Y82657410D01*
X47448516Y82788489D01*
X47448534Y82788501D01*
X47561365Y82875081D01*
X47561365Y82875083D01*
X46464409Y83972038D01*
X46527993Y83989075D01*
X46642007Y84054901D01*
X46735099Y84147993D01*
X46800925Y84262007D01*
X46817962Y84325591D01*
X47914917Y83228635D01*
X47914919Y83228635D01*
X48001499Y83341466D01*
X48001511Y83341484D01*
X48132590Y83568518D01*
X48132595Y83568529D01*
X48232924Y83810745D01*
X48277725Y83977945D01*
X48314090Y84037606D01*
X48376937Y84068135D01*
X48446312Y84059840D01*
X48500190Y84015355D01*
X48521465Y83948803D01*
X48521500Y83945852D01*
X48521500Y80619096D01*
X48501815Y80552057D01*
X48485181Y80531415D01*
X46953585Y78999819D01*
X46892262Y78966334D01*
X46865904Y78963500D01*
X44786345Y78963500D01*
X44725797Y78956989D01*
X44725795Y78956989D01*
X44588795Y78905889D01*
X44471739Y78818261D01*
X44384111Y78701205D01*
X44333011Y78564205D01*
X44333011Y78564203D01*
X44326500Y78503655D01*
X44326500Y75406346D01*
X44333011Y75345798D01*
X44333011Y75345796D01*
X44381315Y75216292D01*
X44384111Y75208796D01*
X44471739Y75091739D01*
X44588796Y75004111D01*
X44725799Y74953011D01*
X44753050Y74950082D01*
X44786345Y74946501D01*
X44786362Y74946500D01*
X47883638Y74946500D01*
X47883654Y74946501D01*
X47910692Y74949409D01*
X47944201Y74953011D01*
X48081204Y75004111D01*
X48198261Y75091739D01*
X48285889Y75208796D01*
X48336989Y75345799D01*
X48342007Y75392475D01*
X48343499Y75406346D01*
X48343500Y75406363D01*
X48343500Y77485904D01*
X48363185Y77552943D01*
X48379819Y77573585D01*
X50313350Y79507116D01*
X50313353Y79507119D01*
X50423721Y79672296D01*
X50499744Y79855831D01*
X50506600Y79890298D01*
X50538500Y80050671D01*
X50538500Y84586081D01*
X74835000Y84586081D01*
X74835000Y84323906D01*
X74869220Y84063991D01*
X74869222Y84063980D01*
X74937075Y83810745D01*
X75037404Y83568529D01*
X75037409Y83568518D01*
X75168488Y83341484D01*
X75168494Y83341476D01*
X75255080Y83228635D01*
X76352037Y84325592D01*
X76369075Y84262007D01*
X76434901Y84147993D01*
X76527993Y84054901D01*
X76642007Y83989075D01*
X76705590Y83972038D01*
X75608633Y82875083D01*
X75608633Y82875082D01*
X75721475Y82788495D01*
X75721483Y82788489D01*
X75948517Y82657410D01*
X75948528Y82657405D01*
X76190744Y82557076D01*
X76443979Y82489223D01*
X76443990Y82489221D01*
X76703905Y82455001D01*
X76703920Y82455000D01*
X76966080Y82455000D01*
X76966094Y82455001D01*
X77226009Y82489221D01*
X77226020Y82489223D01*
X77479255Y82557076D01*
X77721471Y82657405D01*
X77721482Y82657410D01*
X77948516Y82788489D01*
X77948534Y82788501D01*
X78061365Y82875081D01*
X78061365Y82875083D01*
X76964409Y83972038D01*
X77027993Y83989075D01*
X77142007Y84054901D01*
X77235099Y84147993D01*
X77300925Y84262007D01*
X77317962Y84325590D01*
X78414917Y83228635D01*
X78414919Y83228635D01*
X78501499Y83341466D01*
X78501511Y83341484D01*
X78632590Y83568518D01*
X78632595Y83568529D01*
X78732924Y83810745D01*
X78800777Y84063980D01*
X78800779Y84063991D01*
X78834999Y84323906D01*
X78835000Y84323920D01*
X78835000Y84586081D01*
X78834999Y84586097D01*
X78800779Y84846010D01*
X78800777Y84846021D01*
X78732924Y85099256D01*
X78632595Y85341472D01*
X78632590Y85341483D01*
X78501511Y85568517D01*
X78501505Y85568525D01*
X78414918Y85681367D01*
X78414917Y85681367D01*
X77317962Y84584411D01*
X77300925Y84647993D01*
X77235099Y84762007D01*
X77142007Y84855099D01*
X77027993Y84920925D01*
X76964407Y84937963D01*
X78061365Y86034920D01*
X77948524Y86121506D01*
X77948516Y86121512D01*
X77721482Y86252591D01*
X77721471Y86252596D01*
X77479255Y86352925D01*
X77226020Y86420778D01*
X77226009Y86420780D01*
X76966094Y86455000D01*
X76703905Y86455000D01*
X76443990Y86420780D01*
X76443979Y86420778D01*
X76190744Y86352925D01*
X75948528Y86252596D01*
X75948517Y86252591D01*
X75721471Y86121504D01*
X75608633Y86034921D01*
X75608633Y86034920D01*
X76705590Y84937963D01*
X76642007Y84920925D01*
X76527993Y84855099D01*
X76434901Y84762007D01*
X76369075Y84647993D01*
X76352037Y84584410D01*
X75255080Y85681367D01*
X75255079Y85681367D01*
X75168496Y85568529D01*
X75037409Y85341483D01*
X75037404Y85341472D01*
X74937075Y85099256D01*
X74869222Y84846021D01*
X74869220Y84846010D01*
X74835001Y84586097D01*
X74835000Y84586081D01*
X50538500Y84586081D01*
X50538500Y85570329D01*
X50499744Y85765169D01*
X50431797Y85929208D01*
X50427528Y85939514D01*
X50426516Y85941955D01*
X50423721Y85948704D01*
X50423718Y85948709D01*
X50423717Y85948711D01*
X50313354Y86113880D01*
X50251641Y86175593D01*
X50172881Y86254353D01*
X49001829Y87425405D01*
X47501884Y88925351D01*
X47501880Y88925354D01*
X47336710Y89035718D01*
X47336701Y89035723D01*
X47266622Y89064750D01*
X47153169Y89111744D01*
X47153161Y89111746D01*
X46958333Y89150500D01*
X46958329Y89150500D01*
X41149696Y89150500D01*
X41126071Y89157437D01*
X41101606Y89160205D01*
X41089941Y89168046D01*
X41082657Y89170185D01*
X41071353Y89178383D01*
X41066475Y89182359D01*
X41063954Y89184880D01*
X41058687Y89188707D01*
X41056017Y89190883D01*
X41038123Y89216964D01*
X41018809Y89242010D01*
X41018504Y89245560D01*
X41016489Y89248497D01*
X41015536Y89280110D01*
X41012829Y89311624D01*
X41014491Y89314775D01*
X41014384Y89318334D01*
X41030674Y89345445D01*
X41045435Y89373419D01*
X41049709Y89377123D01*
X41050371Y89378224D01*
X41051786Y89378923D01*
X41061476Y89387319D01*
X41063950Y89389117D01*
X41063950Y89389118D01*
X41063954Y89389120D01*
X41216130Y89541296D01*
X41342627Y89715405D01*
X41440330Y89907158D01*
X41506834Y90111835D01*
X41521796Y90206307D01*
X41540500Y90324390D01*
X41540500Y90539611D01*
X41518056Y90681312D01*
X41506834Y90752165D01*
X41440330Y90956842D01*
X41342627Y91148595D01*
X41326465Y91170840D01*
X41216135Y91322698D01*
X41216131Y91322703D01*
X41063952Y91474882D01*
X41063947Y91474886D01*
X40889848Y91601375D01*
X40889847Y91601376D01*
X40889845Y91601377D01*
X40698092Y91699080D01*
X40493415Y91765584D01*
X40493413Y91765585D01*
X40493411Y91765585D01*
X40280860Y91799250D01*
X40280855Y91799250D01*
X39983145Y91799250D01*
X39983140Y91799250D01*
X39770588Y91765585D01*
X39565905Y91699079D01*
X39374151Y91601375D01*
X39200052Y91474886D01*
X39200047Y91474882D01*
X39047868Y91322703D01*
X39047864Y91322698D01*
X38921375Y91148599D01*
X38823671Y90956845D01*
X38757165Y90752162D01*
X38723500Y90539611D01*
X38723500Y90324390D01*
X38748643Y90165647D01*
X38757166Y90111835D01*
X38823670Y89907158D01*
X38885894Y89785036D01*
X38921375Y89715402D01*
X39047864Y89541303D01*
X39047868Y89541298D01*
X39200046Y89389120D01*
X39202528Y89387317D01*
X39203242Y89386391D01*
X39203751Y89385956D01*
X39203659Y89385850D01*
X39245193Y89331986D01*
X39251171Y89262373D01*
X39218564Y89200578D01*
X39202528Y89186683D01*
X39200046Y89184881D01*
X39047868Y89032703D01*
X39047864Y89032698D01*
X38921375Y88858599D01*
X38823671Y88666845D01*
X38823670Y88666843D01*
X38823670Y88666842D01*
X38805558Y88611098D01*
X38757165Y88462162D01*
X38723500Y88249611D01*
X38723500Y88034390D01*
X38757165Y87821839D01*
X38823671Y87617156D01*
X38921375Y87425402D01*
X38996342Y87322218D01*
X39019822Y87256412D01*
X39003996Y87188358D01*
X38970336Y87150067D01*
X38868739Y87074012D01*
X38781111Y86956955D01*
X38730011Y86819955D01*
X38730011Y86819953D01*
X38723500Y86759405D01*
X38723500Y86734500D01*
X38703815Y86667461D01*
X38651011Y86621706D01*
X38599500Y86610500D01*
X37898290Y86610500D01*
X37825024Y86595926D01*
X37751760Y86581354D01*
X37751756Y86581352D01*
X37751754Y86581352D01*
X37751753Y86581351D01*
X37694576Y86557668D01*
X37694574Y86557667D01*
X37613719Y86524176D01*
X37613709Y86524171D01*
X37538518Y86473929D01*
X37538515Y86473927D01*
X37531443Y86469201D01*
X37489484Y86441165D01*
X37393232Y86344915D01*
X37390478Y86342468D01*
X37362070Y86329076D01*
X37334501Y86314021D01*
X37330713Y86314292D01*
X37327280Y86312673D01*
X37296142Y86316765D01*
X37264809Y86319005D01*
X37261139Y86321364D01*
X37258006Y86321775D01*
X37250104Y86328456D01*
X37220462Y86347506D01*
X37061147Y86506821D01*
X37061145Y86506823D01*
X36867012Y86647869D01*
X36719048Y86723261D01*
X36653207Y86756809D01*
X36653206Y86756810D01*
X36653205Y86756810D01*
X36594018Y86776041D01*
X36424988Y86830963D01*
X36187986Y86868500D01*
X36187981Y86868500D01*
X35948019Y86868500D01*
X35948014Y86868500D01*
X35711011Y86830963D01*
X35482792Y86756809D01*
X35268987Y86647869D01*
X35191213Y86591362D01*
X35074855Y86506823D01*
X35074853Y86506821D01*
X35074852Y86506821D01*
X34905179Y86337148D01*
X34905179Y86337147D01*
X34905177Y86337145D01*
X34887397Y86312673D01*
X34764131Y86143013D01*
X34655191Y85929208D01*
X34581037Y85700989D01*
X34543500Y85463987D01*
X34543500Y85224014D01*
X34581037Y84987012D01*
X34626852Y84846010D01*
X34655190Y84758795D01*
X34764131Y84544988D01*
X34905177Y84350855D01*
X35074855Y84181177D01*
X35268988Y84040131D01*
X35482795Y83931190D01*
X35656089Y83874884D01*
X35711011Y83857038D01*
X35948014Y83819500D01*
X35948019Y83819500D01*
X36187986Y83819500D01*
X36424988Y83857038D01*
X36653205Y83931190D01*
X36867012Y84040131D01*
X37061145Y84181177D01*
X37230823Y84350855D01*
X37364166Y84534387D01*
X37390488Y84554684D01*
X37416212Y84575718D01*
X37418321Y84576146D01*
X37419496Y84577051D01*
X37450346Y84584691D01*
X37457395Y84585500D01*
X37539705Y84585500D01*
X37539706Y84585500D01*
X37646958Y84606834D01*
X37686247Y84614649D01*
X37824284Y84671826D01*
X37948515Y84754834D01*
X38250862Y85057181D01*
X38312185Y85090666D01*
X38338543Y85093500D01*
X38593500Y85093500D01*
X38660539Y85073815D01*
X38706294Y85021011D01*
X38717500Y84969500D01*
X38717500Y82994787D01*
X38697815Y82927748D01*
X38662391Y82891685D01*
X38592182Y82844773D01*
X38592178Y82844770D01*
X38448230Y82700822D01*
X38448227Y82700818D01*
X38335127Y82531553D01*
X38335120Y82531540D01*
X38257218Y82343466D01*
X38257215Y82343454D01*
X38217500Y82143796D01*
X38217500Y81940205D01*
X38257215Y81740547D01*
X38257217Y81740539D01*
X38273200Y81701953D01*
X38276376Y81672409D01*
X38282128Y81643249D01*
X38280070Y81638046D01*
X38280669Y81632483D01*
X38267368Y81605912D01*
X38256442Y81578272D01*
X38251898Y81575007D01*
X38249394Y81570004D01*
X38223838Y81554842D01*
X38199704Y81537497D01*
X38192551Y81536279D01*
X38189305Y81534352D01*
X38165077Y81530667D01*
X38161865Y81530500D01*
X38025294Y81530500D01*
X37985770Y81522638D01*
X37976973Y81520889D01*
X37976968Y81520888D01*
X37878760Y81501353D01*
X37878748Y81501350D01*
X37824314Y81478803D01*
X37824315Y81478802D01*
X37740718Y81444176D01*
X37740709Y81444171D01*
X37649435Y81383182D01*
X37649434Y81383181D01*
X37616481Y81361164D01*
X36240835Y79985518D01*
X36157825Y79861283D01*
X36100648Y79723246D01*
X36100646Y79723241D01*
X36092828Y79683931D01*
X36071500Y79576710D01*
X36071500Y77596484D01*
X36051815Y77529445D01*
X36020386Y77496167D01*
X35926141Y77427694D01*
X35836852Y77362821D01*
X35667179Y77193148D01*
X35667179Y77193147D01*
X35667177Y77193145D01*
X35644663Y77162157D01*
X35526131Y76999013D01*
X35417191Y76785208D01*
X35343037Y76556989D01*
X35305500Y76319987D01*
X35305500Y76080014D01*
X35343037Y75843012D01*
X35417191Y75614793D01*
X35462492Y75525885D01*
X35475388Y75457216D01*
X35449112Y75392475D01*
X35392005Y75352218D01*
X35322200Y75349226D01*
X35264326Y75381909D01*
X33138884Y77507351D01*
X33138880Y77507354D01*
X32973710Y77617718D01*
X32973701Y77617723D01*
X32901488Y77647634D01*
X32790169Y77693744D01*
X32790161Y77693746D01*
X32595333Y77732500D01*
X32595329Y77732500D01*
X32399588Y77732500D01*
X32332549Y77752185D01*
X32286794Y77804989D01*
X32276850Y77874147D01*
X32299268Y77929384D01*
X32397366Y78064402D01*
X32487298Y78240903D01*
X32548512Y78429300D01*
X32560286Y78503638D01*
X32579500Y78624949D01*
X32579500Y78823052D01*
X32548512Y79018701D01*
X32505019Y79152556D01*
X32487298Y79207097D01*
X32487296Y79207100D01*
X32487296Y79207102D01*
X32430816Y79317948D01*
X32397366Y79383598D01*
X32375324Y79413936D01*
X32351844Y79479743D01*
X32367669Y79547797D01*
X32401328Y79586086D01*
X32434261Y79610739D01*
X32521889Y79727796D01*
X32572989Y79864799D01*
X32578925Y79920012D01*
X32579499Y79925346D01*
X32579500Y79925363D01*
X32579500Y81522638D01*
X32579499Y81522655D01*
X32574637Y81567869D01*
X32572989Y81583201D01*
X32521889Y81720204D01*
X32434261Y81837261D01*
X32379189Y81878488D01*
X32337318Y81934422D01*
X32329500Y81977755D01*
X32329500Y83713330D01*
X32329499Y83713334D01*
X32290744Y83908169D01*
X32214721Y84091704D01*
X32214720Y84091705D01*
X32214717Y84091711D01*
X32104354Y84256880D01*
X32037314Y84323920D01*
X31963881Y84397353D01*
X30770819Y85590415D01*
X30737334Y85651738D01*
X30734500Y85678096D01*
X30734500Y86408638D01*
X30734499Y86408655D01*
X30731003Y86441165D01*
X30727989Y86469201D01*
X30713957Y86506821D01*
X30705297Y86530039D01*
X30676889Y86606204D01*
X30589261Y86723261D01*
X30472204Y86810889D01*
X30447903Y86819953D01*
X30335203Y86861989D01*
X30274654Y86868500D01*
X30274638Y86868500D01*
X28145362Y86868500D01*
X28145345Y86868500D01*
X28084797Y86861989D01*
X28084795Y86861989D01*
X27947795Y86810889D01*
X27830739Y86723261D01*
X27743111Y86606205D01*
X27692011Y86469205D01*
X27692011Y86469203D01*
X27685500Y86408655D01*
X27685500Y84279346D01*
X27692011Y84218798D01*
X27692011Y84218796D01*
X27735781Y84101447D01*
X27743111Y84081796D01*
X27830739Y83964739D01*
X27947796Y83877111D01*
X28084799Y83826011D01*
X28112050Y83823082D01*
X28145345Y83819501D01*
X28145362Y83819500D01*
X29637904Y83819500D01*
X29704943Y83799815D01*
X29725585Y83783181D01*
X30276181Y83232585D01*
X30309666Y83171262D01*
X30312500Y83144904D01*
X30312500Y81977755D01*
X30292815Y81910716D01*
X30262811Y81878488D01*
X30207741Y81837263D01*
X30207740Y81837262D01*
X30120111Y81720205D01*
X30103214Y81674902D01*
X30061343Y81618969D01*
X29995878Y81594553D01*
X29930738Y81607752D01*
X29795207Y81676809D01*
X29795206Y81676810D01*
X29795205Y81676810D01*
X29717823Y81701953D01*
X29566988Y81750963D01*
X29329986Y81788500D01*
X29329981Y81788500D01*
X29090019Y81788500D01*
X29090014Y81788500D01*
X28853011Y81750963D01*
X28624792Y81676809D01*
X28410987Y81567869D01*
X28300228Y81487398D01*
X28216855Y81426823D01*
X28216853Y81426821D01*
X28216852Y81426821D01*
X28047179Y81257148D01*
X28047179Y81257147D01*
X28047177Y81257145D01*
X27986602Y81173772D01*
X27906131Y81063013D01*
X27797191Y80849208D01*
X27723037Y80620989D01*
X27685500Y80383987D01*
X27685500Y80144014D01*
X27723037Y79907012D01*
X27757134Y79802075D01*
X27797190Y79678795D01*
X27906131Y79464988D01*
X28047177Y79270855D01*
X28047179Y79270853D01*
X28165181Y79152851D01*
X28198666Y79091528D01*
X28201500Y79065170D01*
X28201500Y79021667D01*
X28240254Y78826838D01*
X28240256Y78826831D01*
X28241821Y78823052D01*
X28245277Y78814711D01*
X28245278Y78814705D01*
X28245279Y78814705D01*
X28316277Y78643299D01*
X28316282Y78643290D01*
X28426646Y78478120D01*
X28426649Y78478116D01*
X28964115Y77940649D01*
X28964119Y77940646D01*
X29129289Y77830282D01*
X29129291Y77830281D01*
X29129296Y77830278D01*
X29259075Y77776523D01*
X29312831Y77754256D01*
X29430952Y77730761D01*
X29435100Y77729631D01*
X29461338Y77713493D01*
X29488626Y77699219D01*
X29490826Y77695356D01*
X29494613Y77693026D01*
X29507959Y77665268D01*
X29523200Y77638503D01*
X29522962Y77634064D01*
X29524889Y77630056D01*
X29521109Y77599487D01*
X29519461Y77568733D01*
X29516860Y77565127D01*
X29516315Y77560715D01*
X29496611Y77537046D01*
X29478595Y77512061D01*
X29472492Y77507660D01*
X29472115Y77507351D01*
X28567120Y76602356D01*
X28567118Y76602352D01*
X28509784Y76545020D01*
X28478401Y76522219D01*
X28410985Y76487868D01*
X28325319Y76425627D01*
X28216855Y76346823D01*
X28216853Y76346821D01*
X28216852Y76346821D01*
X28047179Y76177148D01*
X28047179Y76177147D01*
X28047177Y76177145D01*
X27986602Y76093772D01*
X27906131Y75983013D01*
X27797191Y75769208D01*
X27723037Y75540989D01*
X27685500Y75303987D01*
X27685500Y75264097D01*
X27665815Y75197058D01*
X27649181Y75176416D01*
X26904061Y74431295D01*
X26217619Y73744853D01*
X26169804Y73697038D01*
X26077145Y73604380D01*
X25966782Y73439211D01*
X25966777Y73439202D01*
X25890756Y73255670D01*
X25890754Y73255662D01*
X25852000Y73060834D01*
X25852000Y68417167D01*
X25890754Y68222339D01*
X25890756Y68222331D01*
X25943791Y68094294D01*
X25943791Y68094293D01*
X25966775Y68038803D01*
X25966782Y68038790D01*
X26077146Y67873620D01*
X26077149Y67873616D01*
X31086181Y62864585D01*
X31119666Y62803262D01*
X31122500Y62776904D01*
X31122500Y50319667D01*
X31161254Y50124839D01*
X31161256Y50124831D01*
X31207538Y50013097D01*
X31237277Y49941299D01*
X31237282Y49941290D01*
X31347646Y49776120D01*
X31347649Y49776116D01*
X37457115Y43666649D01*
X37457123Y43666643D01*
X37622286Y43556285D01*
X37622289Y43556284D01*
X37622297Y43556278D01*
X37729809Y43511746D01*
X37805831Y43480256D01*
X38000666Y43441501D01*
X38000670Y43441500D01*
X38000671Y43441500D01*
X38199329Y43441500D01*
X41810671Y43441500D01*
X41821904Y43441500D01*
X41888943Y43421815D01*
X41909585Y43405181D01*
X42135181Y43179585D01*
X42168666Y43118262D01*
X42171500Y43091904D01*
X42171500Y41771543D01*
X42151815Y41704504D01*
X42135181Y41683862D01*
X41886138Y41434819D01*
X41824815Y41401334D01*
X41798457Y41398500D01*
X40499617Y41398500D01*
X40432578Y41418185D01*
X40399300Y41449613D01*
X40368144Y41492495D01*
X40222497Y41638142D01*
X40222495Y41638144D01*
X40055856Y41759215D01*
X40031661Y41771543D01*
X39872328Y41852728D01*
X39872325Y41852729D01*
X39676432Y41916377D01*
X39574710Y41932489D01*
X39472989Y41948600D01*
X39267011Y41948600D01*
X39199197Y41937859D01*
X39063567Y41916377D01*
X38867674Y41852729D01*
X38867671Y41852728D01*
X38684143Y41759215D01*
X38608841Y41704504D01*
X38517505Y41638144D01*
X38517503Y41638142D01*
X38517502Y41638142D01*
X38371858Y41492498D01*
X38371858Y41492497D01*
X38371856Y41492495D01*
X38340700Y41449613D01*
X38250785Y41325857D01*
X38210485Y41246763D01*
X38162510Y41195967D01*
X38094689Y41179172D01*
X38028554Y41201710D01*
X37989515Y41246763D01*
X37960627Y41303459D01*
X37949215Y41325856D01*
X37828144Y41492495D01*
X37682495Y41638144D01*
X37515856Y41759215D01*
X37491661Y41771543D01*
X37332328Y41852728D01*
X37332325Y41852729D01*
X37136432Y41916377D01*
X37034710Y41932489D01*
X36932989Y41948600D01*
X36727011Y41948600D01*
X36659197Y41937859D01*
X36523567Y41916377D01*
X36327674Y41852729D01*
X36327671Y41852728D01*
X36144143Y41759215D01*
X36068841Y41704504D01*
X35977505Y41638144D01*
X35977503Y41638142D01*
X35977502Y41638142D01*
X35831858Y41492498D01*
X35831858Y41492497D01*
X35831856Y41492495D01*
X35800700Y41449613D01*
X35710785Y41325857D01*
X35617272Y41142329D01*
X35617271Y41142326D01*
X35553623Y40946433D01*
X35535265Y40830526D01*
X35521400Y40742989D01*
X35521400Y40537011D01*
X35542882Y40401383D01*
X35553623Y40333568D01*
X35617271Y40137675D01*
X35617272Y40137672D01*
X35710243Y39955208D01*
X35710785Y39954144D01*
X35831856Y39787505D01*
X35977505Y39641856D01*
X36144144Y39520785D01*
X36201652Y39491483D01*
X36223237Y39480485D01*
X36274033Y39432510D01*
X36290828Y39364689D01*
X36268290Y39298554D01*
X36223237Y39259515D01*
X36144143Y39219215D01*
X36049069Y39150139D01*
X35977505Y39098144D01*
X35977503Y39098142D01*
X35977502Y39098142D01*
X35831858Y38952498D01*
X35831858Y38952497D01*
X35831856Y38952495D01*
X35779861Y38880931D01*
X35710785Y38785857D01*
X35617272Y38602329D01*
X35617271Y38602326D01*
X35553623Y38406433D01*
X35553623Y38406431D01*
X35524496Y38222532D01*
X35521400Y38202988D01*
X35521400Y37997013D01*
X35553623Y37793568D01*
X35617271Y37597675D01*
X35617272Y37597672D01*
X35676626Y37481185D01*
X35710785Y37414144D01*
X35831856Y37247505D01*
X35977505Y37101856D01*
X36144144Y36980785D01*
X36155351Y36975075D01*
X36223237Y36940485D01*
X36274033Y36892510D01*
X36290828Y36824689D01*
X36268290Y36758554D01*
X36223237Y36719515D01*
X36144143Y36679215D01*
X36049069Y36610139D01*
X35977505Y36558144D01*
X35977503Y36558142D01*
X35977502Y36558142D01*
X35831858Y36412498D01*
X35831858Y36412497D01*
X35831856Y36412495D01*
X35792999Y36359013D01*
X35710785Y36245857D01*
X35617272Y36062329D01*
X35617271Y36062326D01*
X35553623Y35866433D01*
X35535786Y35753819D01*
X35521400Y35662989D01*
X35521400Y35457011D01*
X35535265Y35369476D01*
X35553623Y35253568D01*
X35617271Y35057675D01*
X35617272Y35057672D01*
X35699373Y34896541D01*
X35710785Y34874144D01*
X35831856Y34707505D01*
X35831858Y34707503D01*
X35977508Y34561853D01*
X36020384Y34530703D01*
X36063050Y34475374D01*
X36071500Y34430384D01*
X36071500Y29516291D01*
X36100647Y29369761D01*
X36100649Y29369753D01*
X36119470Y29324314D01*
X36157826Y29231716D01*
X36172336Y29210000D01*
X36240835Y29107483D01*
X39013482Y26334836D01*
X39013485Y26334834D01*
X39082829Y26288500D01*
X39137716Y26251826D01*
X39137717Y26251826D01*
X39137718Y26251825D01*
X39275749Y26194651D01*
X39275754Y26194649D01*
X39275758Y26194649D01*
X39275759Y26194648D01*
X39422291Y26165500D01*
X39422294Y26165500D01*
X39422295Y26165500D01*
X39571705Y26165500D01*
X42633170Y26165500D01*
X42700209Y26145815D01*
X42745964Y26093011D01*
X42755908Y26023853D01*
X42726883Y25960297D01*
X42720851Y25953819D01*
X42652179Y25885148D01*
X42652179Y25885147D01*
X42652177Y25885145D01*
X42603034Y25817505D01*
X42511131Y25691013D01*
X42402191Y25477208D01*
X42328037Y25248989D01*
X42290500Y25011987D01*
X42290500Y24772014D01*
X42328037Y24535012D01*
X42379308Y24377218D01*
X42402190Y24306795D01*
X42511131Y24092988D01*
X42652177Y23898855D01*
X42652179Y23898853D01*
X42821860Y23729172D01*
X42882817Y23684885D01*
X42925483Y23629556D01*
X42931446Y23589106D01*
X43762153Y22758400D01*
X43761496Y22758400D01*
X43658135Y22730705D01*
X43565464Y22677201D01*
X43489799Y22601536D01*
X43436295Y22508865D01*
X43408600Y22405504D01*
X43408600Y22404847D01*
X42580885Y23232562D01*
X42518398Y23146554D01*
X42410066Y22933943D01*
X42410065Y22933940D01*
X42336329Y22707000D01*
X42299000Y22471312D01*
X42299000Y22232689D01*
X42336329Y21997001D01*
X42410065Y21770061D01*
X42410066Y21770058D01*
X42518402Y21557440D01*
X42580884Y21471440D01*
X42580886Y21471440D01*
X43408600Y22299154D01*
X43408600Y22298496D01*
X43436295Y22195135D01*
X43489799Y22102464D01*
X43565464Y22026799D01*
X43658135Y21973295D01*
X43761496Y21945600D01*
X43762153Y21945600D01*
X42934437Y21117887D01*
X42934438Y21117886D01*
X43020439Y21055403D01*
X43233057Y20947067D01*
X43233060Y20947066D01*
X43460000Y20873330D01*
X43695689Y20836000D01*
X43934311Y20836000D01*
X44169999Y20873330D01*
X44396939Y20947066D01*
X44396942Y20947067D01*
X44609557Y21055401D01*
X44695561Y21117887D01*
X44673266Y21140182D01*
X48317500Y21140182D01*
X48317500Y20919819D01*
X48351973Y20702165D01*
X48420067Y20492590D01*
X48520111Y20296244D01*
X48566432Y20232487D01*
X49234537Y20900592D01*
X49251575Y20837007D01*
X49317401Y20722993D01*
X49410493Y20629901D01*
X49524507Y20564075D01*
X49588090Y20547038D01*
X48919985Y19878935D01*
X48919985Y19878934D01*
X48983743Y19832612D01*
X49180089Y19732568D01*
X49389664Y19664474D01*
X49607319Y19630000D01*
X49827681Y19630000D01*
X50045335Y19664474D01*
X50254910Y19732568D01*
X50451260Y19832614D01*
X50515013Y19878934D01*
X50515014Y19878934D01*
X49846909Y20547038D01*
X49910493Y20564075D01*
X50024507Y20629901D01*
X50117599Y20722993D01*
X50183425Y20837007D01*
X50200462Y20900590D01*
X50868566Y20232486D01*
X50868566Y20232487D01*
X50914886Y20296240D01*
X51014932Y20492590D01*
X51083026Y20702165D01*
X51117500Y20919819D01*
X51117500Y21140182D01*
X51083026Y21357836D01*
X51014932Y21567411D01*
X50914888Y21763757D01*
X50868566Y21827515D01*
X50868565Y21827515D01*
X50200462Y21159411D01*
X50183425Y21222993D01*
X50117599Y21337007D01*
X50024507Y21430099D01*
X49910493Y21495925D01*
X49846907Y21512963D01*
X50515013Y22181068D01*
X50451256Y22227389D01*
X50254910Y22327433D01*
X50045335Y22395527D01*
X49827681Y22430000D01*
X49607319Y22430000D01*
X49389664Y22395527D01*
X49180089Y22327433D01*
X48983733Y22227384D01*
X48919985Y22181069D01*
X48919985Y22181068D01*
X49588090Y21512963D01*
X49524507Y21495925D01*
X49410493Y21430099D01*
X49317401Y21337007D01*
X49251575Y21222993D01*
X49234537Y21159410D01*
X48566432Y21827515D01*
X48566431Y21827515D01*
X48520116Y21763767D01*
X48420067Y21567411D01*
X48351973Y21357836D01*
X48317500Y21140182D01*
X44673266Y21140182D01*
X43867847Y21945600D01*
X43868504Y21945600D01*
X43971865Y21973295D01*
X44064536Y22026799D01*
X44140201Y22102464D01*
X44193705Y22195135D01*
X44221400Y22298496D01*
X44221400Y22299152D01*
X45049113Y21471439D01*
X45049113Y21471440D01*
X45111599Y21557443D01*
X45219933Y21770058D01*
X45219934Y21770061D01*
X45293671Y21997002D01*
X45318411Y22153206D01*
X45318411Y22153207D01*
X45331000Y22232690D01*
X45331000Y22471312D01*
X45293670Y22707000D01*
X45219934Y22933940D01*
X45219933Y22933943D01*
X45111597Y23146561D01*
X45049114Y23232562D01*
X45049113Y23232563D01*
X44221400Y22404849D01*
X44221400Y22405504D01*
X44193705Y22508865D01*
X44140201Y22601536D01*
X44064536Y22677201D01*
X43971865Y22730705D01*
X43868504Y22758400D01*
X43867845Y22758400D01*
X44699682Y23590236D01*
X44710812Y23643214D01*
X44747179Y23684883D01*
X44808145Y23729177D01*
X44977823Y23898855D01*
X45118869Y24092988D01*
X45227810Y24306795D01*
X45301962Y24535012D01*
X45312063Y24598788D01*
X45339500Y24772014D01*
X45339500Y25011987D01*
X45301962Y25248989D01*
X45270858Y25344717D01*
X45227810Y25477205D01*
X45118869Y25691012D01*
X44977823Y25885145D01*
X44909149Y25953819D01*
X44875664Y26015142D01*
X44880648Y26084834D01*
X44922520Y26140767D01*
X44987984Y26165184D01*
X44996830Y26165500D01*
X46376457Y26165500D01*
X46443496Y26145815D01*
X46464138Y26129181D01*
X47546835Y25046484D01*
X47603995Y24989324D01*
X47652485Y24940834D01*
X47776709Y24857830D01*
X47776722Y24857823D01*
X47914749Y24800651D01*
X47914754Y24800649D01*
X47914758Y24800649D01*
X47914759Y24800648D01*
X48061291Y24771500D01*
X48061294Y24771500D01*
X48061295Y24771500D01*
X48210705Y24771500D01*
X48464400Y24771500D01*
X48531439Y24751815D01*
X48564716Y24720388D01*
X48643157Y24612424D01*
X48799924Y24455657D01*
X48979285Y24325343D01*
X49072614Y24277790D01*
X49176819Y24224694D01*
X49176821Y24224694D01*
X49176824Y24224692D01*
X49387676Y24156182D01*
X49606649Y24121500D01*
X49606650Y24121500D01*
X49828350Y24121500D01*
X49828351Y24121500D01*
X50047324Y24156182D01*
X50258176Y24224692D01*
X50455715Y24325343D01*
X50635076Y24455657D01*
X50791843Y24612424D01*
X50870282Y24720387D01*
X50925612Y24763051D01*
X50970600Y24771500D01*
X54964400Y24771500D01*
X55031439Y24751815D01*
X55064716Y24720388D01*
X55143157Y24612424D01*
X55299924Y24455657D01*
X55407886Y24377218D01*
X55450551Y24321888D01*
X55459000Y24276900D01*
X55459000Y23463791D01*
X55488147Y23317261D01*
X55488149Y23317253D01*
X55545325Y23179218D01*
X55628335Y23054983D01*
X55628336Y23054982D01*
X56061272Y22622047D01*
X56094757Y22560724D01*
X56089773Y22491033D01*
X56047902Y22435099D01*
X55992990Y22411893D01*
X55889664Y22395527D01*
X55680089Y22327433D01*
X55483733Y22227384D01*
X55419985Y22181069D01*
X55419985Y22181068D01*
X56088091Y21512963D01*
X56024507Y21495925D01*
X55910493Y21430099D01*
X55817401Y21337007D01*
X55751575Y21222993D01*
X55734537Y21159410D01*
X55066432Y21827515D01*
X55066431Y21827515D01*
X55020116Y21763767D01*
X54920067Y21567411D01*
X54851973Y21357836D01*
X54817500Y21140182D01*
X54817500Y20919819D01*
X54851973Y20702165D01*
X54920067Y20492590D01*
X55020111Y20296244D01*
X55066432Y20232487D01*
X55734537Y20900592D01*
X55751575Y20837007D01*
X55817401Y20722993D01*
X55910493Y20629901D01*
X56024507Y20564075D01*
X56088090Y20547038D01*
X55419985Y19878935D01*
X55419985Y19878934D01*
X55483743Y19832612D01*
X55680089Y19732568D01*
X55889664Y19664474D01*
X56107319Y19630000D01*
X56327681Y19630000D01*
X56545335Y19664474D01*
X56754910Y19732568D01*
X56951260Y19832614D01*
X57015013Y19878934D01*
X57015014Y19878934D01*
X56346909Y20547038D01*
X56410493Y20564075D01*
X56524507Y20629901D01*
X56617599Y20722993D01*
X56683425Y20837007D01*
X56700462Y20900592D01*
X57368565Y20232488D01*
X57373006Y20232837D01*
X57441384Y20218474D01*
X57470419Y20196900D01*
X57957834Y19709485D01*
X57957835Y19709484D01*
X58063484Y19603835D01*
X58063487Y19603833D01*
X58063488Y19603832D01*
X58187705Y19520833D01*
X58187708Y19520832D01*
X58187716Y19520826D01*
X58268576Y19487333D01*
X58325753Y19463649D01*
X58399024Y19449075D01*
X58472294Y19434500D01*
X73988706Y19434500D01*
X74061976Y19449075D01*
X74061977Y19449075D01*
X74080419Y19452744D01*
X74135247Y19463649D01*
X74273284Y19520826D01*
X74397515Y19603834D01*
X80980165Y26186484D01*
X81009521Y26230418D01*
X81063174Y26310716D01*
X81096667Y26391576D01*
X81120351Y26448753D01*
X81143417Y26564715D01*
X81149500Y26595294D01*
X81149500Y27832091D01*
X81169185Y27899130D01*
X81221989Y27944885D01*
X81291147Y27954829D01*
X81316834Y27948272D01*
X81392326Y27920115D01*
X81392337Y27920112D01*
X81451865Y27913711D01*
X81451882Y27913710D01*
X82300000Y27913710D01*
X82300000Y29030988D01*
X82357007Y28998075D01*
X82484174Y28964000D01*
X82615826Y28964000D01*
X82742993Y28998075D01*
X82800000Y29030988D01*
X82800000Y27913710D01*
X83648118Y27913710D01*
X83648134Y27913711D01*
X83707662Y27920112D01*
X83707666Y27920113D01*
X83842380Y27970359D01*
X83865785Y27987880D01*
X83865785Y27987881D01*
X83777737Y28075929D01*
X83744252Y28137252D01*
X83749236Y28206944D01*
X83777737Y28251291D01*
X84607037Y29080592D01*
X84624075Y29017007D01*
X84689901Y28902993D01*
X84782993Y28809901D01*
X84897007Y28744075D01*
X84960590Y28727038D01*
X84149429Y27915879D01*
X84251511Y27841712D01*
X84475877Y27727391D01*
X84715374Y27649574D01*
X84964092Y27610180D01*
X85215908Y27610180D01*
X85464625Y27649574D01*
X85704122Y27727391D01*
X85928488Y27841712D01*
X86030568Y27915879D01*
X86030569Y27915879D01*
X85219409Y28727038D01*
X85282993Y28744075D01*
X85397007Y28809901D01*
X85490099Y28902993D01*
X85555925Y29017007D01*
X85572962Y29080591D01*
X86384120Y28269432D01*
X86391271Y28269995D01*
X86394618Y28274465D01*
X86410508Y28280393D01*
X86423939Y28290749D01*
X86442565Y28292350D01*
X86460082Y28298883D01*
X86476654Y28295279D01*
X86493552Y28296730D01*
X86510087Y28288006D01*
X86528355Y28284032D01*
X86553997Y28264838D01*
X86555348Y28264125D01*
X86556610Y28262882D01*
X86582250Y28237242D01*
X86582253Y28237240D01*
X86585180Y28234313D01*
X86618666Y28172990D01*
X86621500Y28146630D01*
X86621500Y27967667D01*
X86660254Y27772839D01*
X86660256Y27772831D01*
X86714746Y27641282D01*
X86736280Y27589293D01*
X86846646Y27424120D01*
X86846649Y27424116D01*
X87862647Y26408119D01*
X87935930Y26334836D01*
X88003120Y26267646D01*
X88168289Y26157283D01*
X88168298Y26157278D01*
X88179401Y26152679D01*
X88351831Y26081256D01*
X88546666Y26042501D01*
X88546670Y26042500D01*
X93464570Y26042500D01*
X93531609Y26022815D01*
X93577364Y25970011D01*
X93588570Y25918500D01*
X93588570Y21002124D01*
X93588413Y20995894D01*
X93575583Y20740853D01*
X93574340Y20728504D01*
X93537312Y20484160D01*
X93534836Y20471977D01*
X93474513Y20236492D01*
X93470890Y20224789D01*
X93388587Y19999100D01*
X93383869Y19987900D01*
X93280850Y19773396D01*
X93275097Y19762776D01*
X93152356Y19560396D01*
X93145676Y19550492D01*
X93004640Y19361682D01*
X92997090Y19352523D01*
X92838927Y19178371D01*
X92830499Y19169943D01*
X92656336Y19011770D01*
X92647210Y19004244D01*
X92458413Y18863121D01*
X92448439Y18856394D01*
X92246079Y18733761D01*
X92235496Y18728031D01*
X92020970Y18625001D01*
X92009770Y18620282D01*
X91784088Y18537982D01*
X91772376Y18534357D01*
X91536893Y18474035D01*
X91524701Y18471556D01*
X91280367Y18434530D01*
X91268018Y18433287D01*
X91012978Y18420457D01*
X91006748Y18420300D01*
X31171692Y18420300D01*
X31165462Y18420457D01*
X30910421Y18433287D01*
X30898072Y18434530D01*
X30653728Y18471558D01*
X30641537Y18474036D01*
X30625743Y18478082D01*
X30406054Y18534358D01*
X30394357Y18537980D01*
X30168668Y18620283D01*
X30157468Y18625001D01*
X29942942Y18728031D01*
X29932359Y18733761D01*
X29729999Y18856394D01*
X29720025Y18863121D01*
X29531228Y19004244D01*
X29522102Y19011770D01*
X29347939Y19169943D01*
X29339516Y19178366D01*
X29276415Y19247845D01*
X29181352Y19352519D01*
X29173802Y19361677D01*
X29032762Y19550491D01*
X29026081Y19560397D01*
X28903343Y19762773D01*
X28897591Y19773391D01*
X28869148Y19832614D01*
X28794564Y19987912D01*
X28789855Y19999088D01*
X28707548Y20224789D01*
X28703925Y20236494D01*
X28643603Y20471977D01*
X28641126Y20484160D01*
X28604096Y20728516D01*
X28602856Y20740841D01*
X28590027Y20995894D01*
X28589870Y21002122D01*
X28589870Y21140182D01*
X29565000Y21140182D01*
X29565000Y20919819D01*
X29599473Y20702165D01*
X29667567Y20492590D01*
X29767611Y20296244D01*
X29813932Y20232487D01*
X30482037Y20900592D01*
X30499075Y20837007D01*
X30564901Y20722993D01*
X30657993Y20629901D01*
X30772007Y20564075D01*
X30835590Y20547038D01*
X30167485Y19878935D01*
X30167485Y19878934D01*
X30231243Y19832612D01*
X30427589Y19732568D01*
X30637164Y19664474D01*
X30854819Y19630000D01*
X31075181Y19630000D01*
X31292835Y19664474D01*
X31502410Y19732568D01*
X31698760Y19832614D01*
X31762513Y19878934D01*
X31762514Y19878934D01*
X31094409Y20547038D01*
X31157993Y20564075D01*
X31272007Y20629901D01*
X31365099Y20722993D01*
X31430925Y20837007D01*
X31447962Y20900590D01*
X32116066Y20232486D01*
X32116066Y20232487D01*
X32162386Y20296240D01*
X32262432Y20492590D01*
X32330526Y20702165D01*
X32365000Y20919819D01*
X32365000Y21140182D01*
X36065000Y21140182D01*
X36065000Y20919819D01*
X36099473Y20702165D01*
X36167567Y20492590D01*
X36267611Y20296244D01*
X36313932Y20232487D01*
X36982037Y20900592D01*
X36999075Y20837007D01*
X37064901Y20722993D01*
X37157993Y20629901D01*
X37272007Y20564075D01*
X37335590Y20547038D01*
X36667485Y19878935D01*
X36667485Y19878934D01*
X36731243Y19832612D01*
X36927589Y19732568D01*
X37137164Y19664474D01*
X37354819Y19630000D01*
X37575181Y19630000D01*
X37792835Y19664474D01*
X38002410Y19732568D01*
X38198760Y19832614D01*
X38262513Y19878934D01*
X38262514Y19878934D01*
X37594409Y20547038D01*
X37657993Y20564075D01*
X37772007Y20629901D01*
X37865099Y20722993D01*
X37930925Y20837007D01*
X37947962Y20900590D01*
X38616066Y20232486D01*
X38616066Y20232487D01*
X38662386Y20296240D01*
X38762432Y20492590D01*
X38830526Y20702165D01*
X38865000Y20919819D01*
X38865000Y21140178D01*
X38864118Y21145745D01*
X38864118Y21145748D01*
X38830526Y21357836D01*
X38762432Y21567411D01*
X38662388Y21763757D01*
X38616066Y21827515D01*
X38616065Y21827515D01*
X37947962Y21159411D01*
X37930925Y21222993D01*
X37865099Y21337007D01*
X37772007Y21430099D01*
X37657993Y21495925D01*
X37594407Y21512963D01*
X38262513Y22181068D01*
X38198756Y22227389D01*
X38002410Y22327433D01*
X37907554Y22358253D01*
X37792835Y22395527D01*
X37575181Y22430000D01*
X37354819Y22430000D01*
X37137164Y22395527D01*
X36927589Y22327433D01*
X36731233Y22227384D01*
X36667485Y22181069D01*
X36667485Y22181068D01*
X37335590Y21512963D01*
X37272007Y21495925D01*
X37157993Y21430099D01*
X37064901Y21337007D01*
X36999075Y21222993D01*
X36982037Y21159410D01*
X36313932Y21827515D01*
X36313931Y21827515D01*
X36267616Y21763767D01*
X36167567Y21567411D01*
X36099473Y21357836D01*
X36065000Y21140182D01*
X32365000Y21140182D01*
X32330526Y21357836D01*
X32262432Y21567411D01*
X32162388Y21763757D01*
X32116066Y21827515D01*
X32116065Y21827515D01*
X31447962Y21159411D01*
X31430925Y21222993D01*
X31365099Y21337007D01*
X31272007Y21430099D01*
X31157993Y21495925D01*
X31094407Y21512963D01*
X31762513Y22181068D01*
X31698756Y22227389D01*
X31502410Y22327433D01*
X31292835Y22395527D01*
X31075181Y22430000D01*
X30854819Y22430000D01*
X30637164Y22395527D01*
X30427589Y22327433D01*
X30231233Y22227384D01*
X30167485Y22181069D01*
X30167485Y22181068D01*
X30835590Y21512963D01*
X30772007Y21495925D01*
X30657993Y21430099D01*
X30564901Y21337007D01*
X30499075Y21222993D01*
X30482037Y21159410D01*
X29813932Y21827515D01*
X29813931Y21827515D01*
X29767616Y21763767D01*
X29667567Y21567411D01*
X29599473Y21357836D01*
X29565000Y21140182D01*
X28589870Y21140182D01*
X28589870Y25640851D01*
X29556500Y25640851D01*
X29556500Y25419150D01*
X29591182Y25200176D01*
X29659693Y24989320D01*
X29726691Y24857830D01*
X29760343Y24791785D01*
X29890657Y24612424D01*
X30047424Y24455657D01*
X30226785Y24325343D01*
X30320114Y24277790D01*
X30424319Y24224694D01*
X30424321Y24224694D01*
X30424324Y24224692D01*
X30635176Y24156182D01*
X30854149Y24121500D01*
X30854150Y24121500D01*
X31075850Y24121500D01*
X31075851Y24121500D01*
X31294824Y24156182D01*
X31505676Y24224692D01*
X31703215Y24325343D01*
X31882576Y24455657D01*
X32039343Y24612424D01*
X32117782Y24720387D01*
X32173112Y24763051D01*
X32218100Y24771500D01*
X36211900Y24771500D01*
X36278939Y24751815D01*
X36312216Y24720388D01*
X36390657Y24612424D01*
X36547424Y24455657D01*
X36726785Y24325343D01*
X36820114Y24277790D01*
X36924319Y24224694D01*
X36924321Y24224694D01*
X36924324Y24224692D01*
X37135176Y24156182D01*
X37354149Y24121500D01*
X37354150Y24121500D01*
X37575850Y24121500D01*
X37575851Y24121500D01*
X37794824Y24156182D01*
X38005676Y24224692D01*
X38203215Y24325343D01*
X38382576Y24455657D01*
X38539343Y24612424D01*
X38669657Y24791785D01*
X38770308Y24989324D01*
X38838818Y25200176D01*
X38873500Y25419149D01*
X38873500Y25640851D01*
X38838818Y25859824D01*
X38770308Y26070676D01*
X38770306Y26070679D01*
X38770306Y26070681D01*
X38689146Y26229965D01*
X38669657Y26268215D01*
X38539343Y26447576D01*
X38382576Y26604343D01*
X38203215Y26734657D01*
X38005680Y26835307D01*
X37794824Y26903818D01*
X37575851Y26938500D01*
X37354149Y26938500D01*
X37244662Y26921159D01*
X37135175Y26903818D01*
X36924319Y26835307D01*
X36726784Y26734657D01*
X36642486Y26673410D01*
X36547424Y26604343D01*
X36547422Y26604341D01*
X36547421Y26604341D01*
X36390659Y26447579D01*
X36390659Y26447578D01*
X36390657Y26447576D01*
X36324714Y26356813D01*
X36312218Y26339614D01*
X36256888Y26296949D01*
X36211900Y26288500D01*
X32218100Y26288500D01*
X32151061Y26308185D01*
X32117782Y26339614D01*
X32105286Y26356813D01*
X32039343Y26447576D01*
X31882576Y26604343D01*
X31703215Y26734657D01*
X31505680Y26835307D01*
X31294824Y26903818D01*
X31075851Y26938500D01*
X30854149Y26938500D01*
X30744662Y26921159D01*
X30635175Y26903818D01*
X30424319Y26835307D01*
X30226784Y26734657D01*
X30142486Y26673410D01*
X30047424Y26604343D01*
X30047422Y26604341D01*
X30047421Y26604341D01*
X29890659Y26447579D01*
X29890659Y26447578D01*
X29890657Y26447576D01*
X29844752Y26384393D01*
X29760343Y26268216D01*
X29659693Y26070681D01*
X29591182Y25859825D01*
X29556500Y25640851D01*
X28589870Y25640851D01*
X28589870Y25920307D01*
X28589577Y25920600D01*
X23671392Y25920600D01*
X23665162Y25920757D01*
X23410121Y25933587D01*
X23397772Y25934830D01*
X23153428Y25971858D01*
X23141237Y25974336D01*
X23125443Y25978382D01*
X22905754Y26034658D01*
X22894057Y26038280D01*
X22668368Y26120583D01*
X22657168Y26125301D01*
X22442664Y26228320D01*
X22432044Y26234073D01*
X22229664Y26356814D01*
X22219760Y26363494D01*
X22030950Y26504530D01*
X22021791Y26512080D01*
X21847639Y26670243D01*
X21839216Y26678666D01*
X21681038Y26852834D01*
X21673512Y26861960D01*
X21626085Y26925408D01*
X21532383Y27050766D01*
X21525668Y27060722D01*
X21403027Y27263094D01*
X21397299Y27273674D01*
X21294264Y27488212D01*
X21289555Y27499388D01*
X21207248Y27725089D01*
X21203625Y27736794D01*
X21156666Y27920112D01*
X21143302Y27972280D01*
X21140826Y27984460D01*
X21103799Y28228804D01*
X21102556Y28241148D01*
X21101365Y28264838D01*
X21089736Y28496211D01*
X21089580Y28502436D01*
X21089580Y58534742D01*
X24542834Y58534742D01*
X24542834Y58305259D01*
X24567780Y58115785D01*
X24572786Y58077762D01*
X24611382Y57933718D01*
X24632176Y57856113D01*
X24719984Y57644124D01*
X24719991Y57644110D01*
X24834726Y57445383D01*
X24974415Y57263339D01*
X24974423Y57263330D01*
X25136664Y57101089D01*
X25136672Y57101082D01*
X25318716Y56961393D01*
X25318719Y56961392D01*
X25318722Y56961389D01*
X25517446Y56846656D01*
X25517451Y56846654D01*
X25517457Y56846651D01*
X25608814Y56808810D01*
X25729447Y56758842D01*
X25951096Y56699452D01*
X26178600Y56669500D01*
X26178607Y56669500D01*
X26408061Y56669500D01*
X26408068Y56669500D01*
X26635572Y56699452D01*
X26857221Y56758842D01*
X27069222Y56846656D01*
X27267946Y56961389D01*
X27449995Y57101081D01*
X27449999Y57101086D01*
X27450004Y57101089D01*
X27612245Y57263330D01*
X27612248Y57263335D01*
X27612253Y57263339D01*
X27751945Y57445388D01*
X27866678Y57644112D01*
X27954492Y57856113D01*
X28013882Y58077762D01*
X28043834Y58305266D01*
X28043834Y58534734D01*
X28013882Y58762238D01*
X27954492Y58983887D01*
X27866678Y59195888D01*
X27751945Y59394612D01*
X27751942Y59394615D01*
X27751941Y59394618D01*
X27612252Y59576662D01*
X27612245Y59576670D01*
X27450004Y59738911D01*
X27449995Y59738919D01*
X27267951Y59878608D01*
X27069224Y59993343D01*
X27069210Y59993350D01*
X26857221Y60081158D01*
X26635572Y60140548D01*
X26597549Y60145554D01*
X26408075Y60170500D01*
X26408068Y60170500D01*
X26178600Y60170500D01*
X26178592Y60170500D01*
X25962049Y60141991D01*
X25951096Y60140548D01*
X25857410Y60115446D01*
X25729446Y60081158D01*
X25517457Y59993350D01*
X25517443Y59993343D01*
X25318716Y59878608D01*
X25136672Y59738919D01*
X24974415Y59576662D01*
X24834726Y59394618D01*
X24719991Y59195891D01*
X24719984Y59195877D01*
X24632176Y58983888D01*
X24572787Y58762241D01*
X24572785Y58762230D01*
X24542834Y58534742D01*
X21089580Y58534742D01*
X21089580Y88337466D01*
X21089736Y88343691D01*
X21102556Y88598754D01*
X21103800Y88611107D01*
X21112246Y88666842D01*
X21140827Y88855450D01*
X21143303Y88867625D01*
X21158091Y88925351D01*
X21203625Y89103108D01*
X21207248Y89114813D01*
X21289558Y89340521D01*
X21294260Y89351683D01*
X21397305Y89566241D01*
X21403022Y89576800D01*
X21525674Y89779189D01*
X21532376Y89789127D01*
X21673516Y89977948D01*
X21681032Y89987062D01*
X21839226Y90161247D01*
X21847623Y90169644D01*
X22021803Y90327833D01*
X22030950Y90335372D01*
X22219760Y90476408D01*
X22229664Y90483088D01*
X22229666Y90483089D01*
X22432048Y90605832D01*
X22442654Y90611577D01*
X22657187Y90714610D01*
X22668368Y90719319D01*
X22758429Y90752162D01*
X22894059Y90801623D01*
X22905736Y90805239D01*
X23141254Y90865570D01*
X23153425Y90868044D01*
X23397787Y90905074D01*
X23410108Y90906314D01*
X23665162Y90919143D01*
X23671391Y90919300D01*
X28589577Y90919300D01*
X28589870Y90919593D01*
X28589870Y93083987D01*
X34543500Y93083987D01*
X34543500Y92844014D01*
X34581037Y92607012D01*
X34635317Y92439959D01*
X34655190Y92378795D01*
X34764131Y92164988D01*
X34905177Y91970855D01*
X35074855Y91801177D01*
X35268988Y91660131D01*
X35482795Y91551190D01*
X35654841Y91495289D01*
X35711011Y91477038D01*
X35948014Y91439500D01*
X35948019Y91439500D01*
X36187986Y91439500D01*
X36424988Y91477038D01*
X36653205Y91551190D01*
X36867012Y91660131D01*
X37061145Y91801177D01*
X37230823Y91970855D01*
X37371869Y92164988D01*
X37480810Y92378795D01*
X37554962Y92607012D01*
X37562079Y92651948D01*
X37592500Y92844014D01*
X37592500Y93083987D01*
X37555874Y93315230D01*
X37555873Y93315231D01*
X37554962Y93320988D01*
X37551846Y93330577D01*
X59338670Y93330577D01*
X59338670Y93101094D01*
X59363616Y92911620D01*
X59368622Y92873597D01*
X59376549Y92844014D01*
X59428012Y92651948D01*
X59515820Y92439959D01*
X59515827Y92439945D01*
X59630562Y92241218D01*
X59770251Y92059174D01*
X59770259Y92059165D01*
X59932500Y91896924D01*
X59932508Y91896917D01*
X60114552Y91757228D01*
X60114555Y91757227D01*
X60114558Y91757224D01*
X60313282Y91642491D01*
X60313287Y91642489D01*
X60313293Y91642486D01*
X60404650Y91604645D01*
X60525283Y91554677D01*
X60746932Y91495287D01*
X60974436Y91465335D01*
X60974443Y91465335D01*
X61203897Y91465335D01*
X61203904Y91465335D01*
X61431408Y91495287D01*
X61653057Y91554677D01*
X61865058Y91642491D01*
X62063782Y91757224D01*
X62245831Y91896916D01*
X62245835Y91896921D01*
X62245840Y91896924D01*
X62408081Y92059165D01*
X62408084Y92059170D01*
X62408089Y92059174D01*
X62547781Y92241223D01*
X62662514Y92439947D01*
X62750328Y92651948D01*
X62809718Y92873597D01*
X62839670Y93101101D01*
X62839670Y93330569D01*
X62809718Y93558073D01*
X62750328Y93779722D01*
X62676836Y93957147D01*
X62662519Y93991712D01*
X62662516Y93991718D01*
X62662514Y93991723D01*
X62547781Y94190447D01*
X62547778Y94190450D01*
X62547777Y94190453D01*
X62408088Y94372497D01*
X62408081Y94372505D01*
X62245840Y94534746D01*
X62245831Y94534754D01*
X62063787Y94674443D01*
X61865060Y94789178D01*
X61865046Y94789185D01*
X61653057Y94876993D01*
X61431408Y94936383D01*
X61393385Y94941389D01*
X61203911Y94966335D01*
X61203904Y94966335D01*
X60974436Y94966335D01*
X60974428Y94966335D01*
X60757885Y94937826D01*
X60746932Y94936383D01*
X60653246Y94911281D01*
X60525282Y94876993D01*
X60313293Y94789185D01*
X60313279Y94789178D01*
X60114552Y94674443D01*
X59932508Y94534754D01*
X59770251Y94372497D01*
X59630562Y94190453D01*
X59515827Y93991726D01*
X59515820Y93991712D01*
X59428012Y93779723D01*
X59368623Y93558076D01*
X59368621Y93558065D01*
X59338670Y93330577D01*
X37551846Y93330577D01*
X37480810Y93549205D01*
X37371869Y93763012D01*
X37230823Y93957145D01*
X37061145Y94126823D01*
X36867012Y94267869D01*
X36653205Y94376810D01*
X36594018Y94396041D01*
X36424988Y94450963D01*
X36187986Y94488500D01*
X36187981Y94488500D01*
X35948019Y94488500D01*
X35948014Y94488500D01*
X35711011Y94450963D01*
X35482792Y94376809D01*
X35268987Y94267869D01*
X35162434Y94190453D01*
X35074855Y94126823D01*
X35074853Y94126821D01*
X35074852Y94126821D01*
X34905179Y93957148D01*
X34905179Y93957147D01*
X34905177Y93957145D01*
X34844602Y93873772D01*
X34764131Y93763013D01*
X34655191Y93549208D01*
X34581037Y93320989D01*
X34543500Y93083987D01*
X28589870Y93083987D01*
X28589870Y95837780D01*
X28590027Y95844009D01*
X28602856Y96099063D01*
X28604096Y96111384D01*
X28641128Y96355754D01*
X28643603Y96367925D01*
X28703925Y96603408D01*
X28707548Y96615113D01*
X28789858Y96840821D01*
X28794560Y96851983D01*
X28897596Y97066522D01*
X28903343Y97077129D01*
X29026089Y97279516D01*
X29032767Y97289416D01*
X29173798Y97478220D01*
X29181342Y97487373D01*
X29339526Y97661547D01*
X29347923Y97669944D01*
X29522108Y97828138D01*
X29531222Y97835654D01*
X29720043Y97976794D01*
X29729981Y97983496D01*
X29932370Y98106148D01*
X29942929Y98111865D01*
X30157487Y98214910D01*
X30168668Y98219619D01*
X30394357Y98301922D01*
X30406036Y98305539D01*
X30641554Y98365870D01*
X30653725Y98368344D01*
X30898070Y98405371D01*
X30910409Y98406614D01*
X31165479Y98419435D01*
X31171704Y98419590D01*
X91006736Y98419590D01*
X91012960Y98419435D01*
G37*
%TD.AperFunction*%
%TA.AperFunction,Conductor*%
G36*
X83335539Y36940815D02*
G01*
X83381294Y36888011D01*
X83392500Y36836500D01*
X83392500Y36750366D01*
X83423568Y36594177D01*
X83423570Y36594169D01*
X83433061Y36571256D01*
X83442500Y36523803D01*
X83442500Y35290544D01*
X83422815Y35223505D01*
X83406181Y35202863D01*
X79801836Y31598519D01*
X79801835Y31598518D01*
X79718828Y31474288D01*
X79718822Y31474277D01*
X79690756Y31406517D01*
X79690756Y31406516D01*
X79661649Y31336247D01*
X79661647Y31336241D01*
X79632500Y31189709D01*
X79632500Y27035543D01*
X79612815Y26968504D01*
X79596181Y26947862D01*
X76416040Y23767722D01*
X76354717Y23734237D01*
X76285025Y23739221D01*
X76229092Y23781093D01*
X76204675Y23846557D01*
X76205886Y23874801D01*
X76230100Y24027681D01*
X76230100Y24232320D01*
X76198086Y24434443D01*
X76198086Y24434446D01*
X76134851Y24629063D01*
X76041944Y24811402D01*
X76009545Y24855994D01*
X76009545Y24855995D01*
X75413273Y24259721D01*
X75396280Y24323140D01*
X75330404Y24437241D01*
X75237241Y24530404D01*
X75123140Y24596280D01*
X75059719Y24613274D01*
X75655993Y25209547D01*
X75611398Y25241947D01*
X75527400Y25284747D01*
X75476605Y25332722D01*
X75459810Y25400543D01*
X75482348Y25466677D01*
X75527400Y25505715D01*
X75615856Y25550785D01*
X75782495Y25671856D01*
X75928144Y25817505D01*
X76049215Y25984144D01*
X76142727Y26167672D01*
X76206377Y26363569D01*
X76238600Y26567011D01*
X76238600Y26772989D01*
X76206377Y26976431D01*
X76142727Y27172328D01*
X76142727Y27172329D01*
X76094007Y27267946D01*
X76049215Y27355856D01*
X75928144Y27522495D01*
X75782495Y27668144D01*
X75615856Y27789215D01*
X75432328Y27882728D01*
X75432325Y27882729D01*
X75236432Y27946377D01*
X75072960Y27972269D01*
X75032989Y27978600D01*
X74827011Y27978600D01*
X74787040Y27972269D01*
X74623567Y27946377D01*
X74427674Y27882729D01*
X74427671Y27882728D01*
X74244143Y27789215D01*
X74163158Y27730375D01*
X74077505Y27668144D01*
X74077503Y27668142D01*
X74077502Y27668142D01*
X73931858Y27522498D01*
X73931858Y27522497D01*
X73931856Y27522495D01*
X73910524Y27493134D01*
X73810785Y27355857D01*
X73770485Y27276763D01*
X73722510Y27225967D01*
X73654689Y27209172D01*
X73588554Y27231710D01*
X73549515Y27276763D01*
X73509214Y27355857D01*
X73388144Y27522495D01*
X73242495Y27668144D01*
X73075856Y27789215D01*
X72892328Y27882728D01*
X72892325Y27882729D01*
X72696432Y27946377D01*
X72532960Y27972269D01*
X72492989Y27978600D01*
X72287011Y27978600D01*
X72247040Y27972269D01*
X72083567Y27946377D01*
X71887674Y27882729D01*
X71887671Y27882728D01*
X71704143Y27789215D01*
X71623158Y27730375D01*
X71537505Y27668144D01*
X71537503Y27668142D01*
X71537502Y27668142D01*
X71391858Y27522498D01*
X71391858Y27522497D01*
X71391856Y27522495D01*
X71370524Y27493134D01*
X71270785Y27355857D01*
X71230485Y27276763D01*
X71182510Y27225967D01*
X71114689Y27209172D01*
X71048554Y27231710D01*
X71009515Y27276763D01*
X70969214Y27355857D01*
X70848144Y27522495D01*
X70702495Y27668144D01*
X70535856Y27789215D01*
X70352328Y27882728D01*
X70352325Y27882729D01*
X70156432Y27946377D01*
X69992960Y27972269D01*
X69952989Y27978600D01*
X69747011Y27978600D01*
X69707040Y27972269D01*
X69543567Y27946377D01*
X69347674Y27882729D01*
X69347671Y27882728D01*
X69164143Y27789215D01*
X69083158Y27730375D01*
X68997505Y27668144D01*
X68997503Y27668142D01*
X68997502Y27668142D01*
X68851858Y27522498D01*
X68851858Y27522497D01*
X68851856Y27522495D01*
X68830524Y27493134D01*
X68730785Y27355857D01*
X68637272Y27172329D01*
X68637271Y27172326D01*
X68573623Y26976433D01*
X68573623Y26976431D01*
X68541400Y26772989D01*
X68541400Y26567011D01*
X68550834Y26507451D01*
X68573623Y26363568D01*
X68637271Y26167675D01*
X68637272Y26167672D01*
X68705047Y26034657D01*
X68730785Y25984144D01*
X68851856Y25817505D01*
X68997505Y25671856D01*
X69122484Y25581053D01*
X69164145Y25550784D01*
X69252597Y25505716D01*
X69303394Y25457742D01*
X69320189Y25389921D01*
X69297652Y25323786D01*
X69252599Y25284747D01*
X69168605Y25241949D01*
X69124006Y25209547D01*
X69720280Y24613274D01*
X69656860Y24596280D01*
X69542759Y24530404D01*
X69449596Y24437241D01*
X69383720Y24323140D01*
X69366726Y24259721D01*
X68770453Y24855994D01*
X68738053Y24811398D01*
X68645148Y24629063D01*
X68581913Y24434446D01*
X68581913Y24434443D01*
X68549900Y24232320D01*
X68549900Y24027681D01*
X68581913Y23825558D01*
X68581913Y23825555D01*
X68645148Y23630938D01*
X68738055Y23448599D01*
X68770453Y23404008D01*
X68770453Y23404007D01*
X69366726Y24000280D01*
X69383720Y23936860D01*
X69449596Y23822759D01*
X69542759Y23729596D01*
X69656860Y23663720D01*
X69720279Y23646727D01*
X69124005Y23050455D01*
X69168598Y23018056D01*
X69350937Y22925149D01*
X69545555Y22861914D01*
X69747681Y22829900D01*
X69952319Y22829900D01*
X70154442Y22861914D01*
X70154445Y22861914D01*
X70349062Y22925149D01*
X70531401Y23018056D01*
X70575992Y23050454D01*
X70575992Y23050455D01*
X69979720Y23646727D01*
X70043140Y23663720D01*
X70157241Y23729596D01*
X70250404Y23822759D01*
X70316280Y23936860D01*
X70333273Y24000280D01*
X70929545Y23404008D01*
X70929546Y23404008D01*
X70961944Y23448599D01*
X71009515Y23541961D01*
X71057489Y23592757D01*
X71125310Y23609552D01*
X71191445Y23587015D01*
X71230485Y23541961D01*
X71278055Y23448599D01*
X71310453Y23404008D01*
X71310453Y23404007D01*
X71906726Y24000280D01*
X71923720Y23936860D01*
X71989596Y23822759D01*
X72082759Y23729596D01*
X72196860Y23663720D01*
X72260279Y23646727D01*
X71664005Y23050455D01*
X71708598Y23018056D01*
X71890937Y22925149D01*
X72085555Y22861914D01*
X72287681Y22829900D01*
X72492319Y22829900D01*
X72694442Y22861914D01*
X72694445Y22861914D01*
X72889062Y22925149D01*
X73071401Y23018056D01*
X73115992Y23050454D01*
X73115992Y23050455D01*
X72519720Y23646727D01*
X72583140Y23663720D01*
X72697241Y23729596D01*
X72790404Y23822759D01*
X72856280Y23936860D01*
X72873273Y24000280D01*
X73469545Y23404008D01*
X73469546Y23404008D01*
X73501944Y23448599D01*
X73549515Y23541961D01*
X73597489Y23592757D01*
X73665310Y23609552D01*
X73731445Y23587015D01*
X73770485Y23541961D01*
X73818055Y23448599D01*
X73850453Y23404008D01*
X73850453Y23404007D01*
X74446726Y24000280D01*
X74463720Y23936860D01*
X74529596Y23822759D01*
X74622759Y23729596D01*
X74736860Y23663720D01*
X74800279Y23646727D01*
X74204005Y23050455D01*
X74248598Y23018056D01*
X74430937Y22925149D01*
X74625555Y22861914D01*
X74827681Y22829900D01*
X75032319Y22829900D01*
X75185199Y22854114D01*
X75254492Y22845159D01*
X75307944Y22800163D01*
X75328584Y22733412D01*
X75309859Y22666098D01*
X75292278Y22643960D01*
X73636138Y20987819D01*
X73574815Y20954334D01*
X73548457Y20951500D01*
X58921500Y20951500D01*
X58854461Y20971185D01*
X58808706Y21023989D01*
X58797500Y21075500D01*
X58797500Y21791709D01*
X58768352Y21938241D01*
X58768351Y21938242D01*
X58768351Y21938246D01*
X58758092Y21963013D01*
X58711176Y22076281D01*
X58628164Y22200518D01*
X57089770Y23738912D01*
X59338670Y23738912D01*
X59338670Y23509429D01*
X59363616Y23319955D01*
X59368622Y23281932D01*
X59404894Y23146561D01*
X59428012Y23060283D01*
X59515820Y22848294D01*
X59515827Y22848280D01*
X59630562Y22649553D01*
X59770251Y22467509D01*
X59770259Y22467500D01*
X59932500Y22305259D01*
X59932508Y22305252D01*
X60114552Y22165563D01*
X60114555Y22165562D01*
X60114558Y22165559D01*
X60313282Y22050826D01*
X60313287Y22050824D01*
X60313293Y22050821D01*
X60371288Y22026799D01*
X60525283Y21963012D01*
X60746932Y21903622D01*
X60974436Y21873670D01*
X60974443Y21873670D01*
X61203897Y21873670D01*
X61203904Y21873670D01*
X61431408Y21903622D01*
X61653057Y21963012D01*
X61865058Y22050826D01*
X62063782Y22165559D01*
X62245831Y22305251D01*
X62245835Y22305256D01*
X62245840Y22305259D01*
X62408081Y22467500D01*
X62408084Y22467505D01*
X62408089Y22467509D01*
X62547781Y22649558D01*
X62662514Y22848282D01*
X62750328Y23060283D01*
X62809718Y23281932D01*
X62839670Y23509436D01*
X62839670Y23738904D01*
X62809718Y23966408D01*
X62750328Y24188057D01*
X62662514Y24400058D01*
X62547781Y24598782D01*
X62547778Y24598785D01*
X62547777Y24598788D01*
X62415249Y24771500D01*
X62408089Y24780831D01*
X62408088Y24780832D01*
X62408081Y24780840D01*
X62245840Y24943081D01*
X62245831Y24943089D01*
X62063787Y25082778D01*
X61865060Y25197513D01*
X61865046Y25197520D01*
X61653057Y25285328D01*
X61431408Y25344718D01*
X61393385Y25349724D01*
X61203911Y25374670D01*
X61203904Y25374670D01*
X60974436Y25374670D01*
X60974428Y25374670D01*
X60757885Y25346161D01*
X60746932Y25344718D01*
X60702162Y25332722D01*
X60525282Y25285328D01*
X60313293Y25197520D01*
X60313279Y25197513D01*
X60114552Y25082778D01*
X59932508Y24943089D01*
X59770251Y24780832D01*
X59630562Y24598788D01*
X59515827Y24400061D01*
X59515820Y24400047D01*
X59428012Y24188058D01*
X59368623Y23966411D01*
X59368621Y23966400D01*
X59338670Y23738912D01*
X57089770Y23738912D01*
X57012319Y23816363D01*
X56978834Y23877686D01*
X56976000Y23904044D01*
X56976000Y24276900D01*
X56995685Y24343939D01*
X57027114Y24377218D01*
X57135076Y24455657D01*
X57291843Y24612424D01*
X57422157Y24791785D01*
X57522808Y24989324D01*
X57591318Y25200176D01*
X57626000Y25419149D01*
X57626000Y25640851D01*
X57591318Y25859824D01*
X57522808Y26070676D01*
X57522806Y26070679D01*
X57522806Y26070681D01*
X57441646Y26229965D01*
X57422157Y26268215D01*
X57291843Y26447576D01*
X57135076Y26604343D01*
X56955715Y26734657D01*
X56758180Y26835307D01*
X56547324Y26903818D01*
X56328351Y26938500D01*
X56106649Y26938500D01*
X55997162Y26921159D01*
X55887675Y26903818D01*
X55676819Y26835307D01*
X55479284Y26734657D01*
X55394986Y26673410D01*
X55299924Y26604343D01*
X55299922Y26604341D01*
X55299921Y26604341D01*
X55143159Y26447579D01*
X55143159Y26447578D01*
X55143157Y26447576D01*
X55077214Y26356813D01*
X55064718Y26339614D01*
X55009388Y26296949D01*
X54964400Y26288500D01*
X50970600Y26288500D01*
X50903561Y26308185D01*
X50870282Y26339614D01*
X50857786Y26356813D01*
X50791843Y26447576D01*
X50635076Y26604343D01*
X50455715Y26734657D01*
X50258180Y26835307D01*
X50047324Y26903818D01*
X49828351Y26938500D01*
X49606649Y26938500D01*
X49497162Y26921159D01*
X49387675Y26903818D01*
X49176819Y26835307D01*
X48979284Y26734657D01*
X48894986Y26673410D01*
X48799924Y26604343D01*
X48799922Y26604341D01*
X48799921Y26604341D01*
X48643158Y26447578D01*
X48580348Y26361127D01*
X48525017Y26318462D01*
X48455404Y26312483D01*
X48393609Y26345089D01*
X48392349Y26346332D01*
X47225518Y27513164D01*
X47225517Y27513165D01*
X47111582Y27589293D01*
X47101284Y27596174D01*
X46963247Y27653351D01*
X46963239Y27653353D01*
X46838730Y27678119D01*
X46838728Y27678120D01*
X46816706Y27682500D01*
X39862543Y27682500D01*
X39795504Y27702185D01*
X39774862Y27718819D01*
X38168692Y29324989D01*
X56959000Y29324989D01*
X56959000Y29095012D01*
X56994973Y28867882D01*
X57066039Y28649167D01*
X57142409Y28499283D01*
X57170440Y28444269D01*
X57305611Y28258222D01*
X57468222Y28095611D01*
X57654269Y27960440D01*
X57751078Y27911114D01*
X57859166Y27856040D01*
X57859168Y27856040D01*
X57859171Y27856038D01*
X57903262Y27841712D01*
X58077881Y27784974D01*
X58305012Y27749000D01*
X58305017Y27749000D01*
X58534988Y27749000D01*
X58762118Y27784974D01*
X58787638Y27793266D01*
X58980829Y27856038D01*
X59185731Y27960440D01*
X59371778Y28095611D01*
X59534389Y28258222D01*
X59669560Y28444269D01*
X59773962Y28649171D01*
X59845026Y28867882D01*
X59850587Y28902993D01*
X59881000Y29095012D01*
X59881000Y29324314D01*
X62047500Y29324314D01*
X62047500Y29095687D01*
X62083265Y28869876D01*
X62083265Y28869875D01*
X62153917Y28652432D01*
X62257711Y28448724D01*
X62311347Y28374902D01*
X62311347Y28374901D01*
X63099950Y29163504D01*
X63099950Y29157332D01*
X63127213Y29055586D01*
X63179880Y28964364D01*
X63254364Y28889880D01*
X63345586Y28837213D01*
X63447332Y28809950D01*
X63453503Y28809950D01*
X62664899Y28021349D01*
X62738725Y27967712D01*
X62738731Y27967708D01*
X62942431Y27863918D01*
X63159875Y27793266D01*
X63385687Y27757500D01*
X63614313Y27757500D01*
X63840124Y27793266D01*
X63840125Y27793266D01*
X64057568Y27863918D01*
X64261276Y27967712D01*
X64335098Y28021349D01*
X63546497Y28809950D01*
X63552668Y28809950D01*
X63654414Y28837213D01*
X63745636Y28889880D01*
X63820120Y28964364D01*
X63872787Y29055586D01*
X63900050Y29157332D01*
X63900050Y29163502D01*
X64688651Y28374901D01*
X64688651Y28374902D01*
X64742288Y28448724D01*
X64846082Y28652432D01*
X64916734Y28869875D01*
X64916734Y28869876D01*
X64952500Y29095687D01*
X64952500Y29324314D01*
X64916734Y29550125D01*
X64916734Y29550126D01*
X64846082Y29767569D01*
X64742292Y29971269D01*
X64742288Y29971275D01*
X64688651Y30045100D01*
X64688651Y30045101D01*
X63900050Y29256499D01*
X63900050Y29262668D01*
X63872787Y29364414D01*
X63820120Y29455636D01*
X63745636Y29530120D01*
X63654414Y29582787D01*
X63552668Y29610050D01*
X63546495Y29610050D01*
X64335099Y30398653D01*
X64261276Y30452289D01*
X64057568Y30556083D01*
X63840124Y30626735D01*
X63614313Y30662500D01*
X63385687Y30662500D01*
X63159875Y30626735D01*
X63159874Y30626735D01*
X62942431Y30556083D01*
X62738719Y30452287D01*
X62664900Y30398654D01*
X62664899Y30398653D01*
X63453503Y29610050D01*
X63447332Y29610050D01*
X63345586Y29582787D01*
X63254364Y29530120D01*
X63179880Y29455636D01*
X63127213Y29364414D01*
X63099950Y29262668D01*
X63099950Y29256498D01*
X62311347Y30045101D01*
X62311346Y30045100D01*
X62257713Y29971281D01*
X62153917Y29767569D01*
X62083265Y29550126D01*
X62083265Y29550125D01*
X62047500Y29324314D01*
X59881000Y29324314D01*
X59881000Y29324989D01*
X59845026Y29552119D01*
X59796599Y29701161D01*
X59773962Y29770829D01*
X59773960Y29770832D01*
X59773960Y29770834D01*
X59692899Y29929925D01*
X59669560Y29975731D01*
X59534389Y30161778D01*
X59371778Y30324389D01*
X59185731Y30459560D01*
X58980833Y30563961D01*
X58762118Y30635027D01*
X58534988Y30671000D01*
X58534983Y30671000D01*
X58305017Y30671000D01*
X58305012Y30671000D01*
X58077881Y30635027D01*
X57859166Y30563961D01*
X57654268Y30459560D01*
X57468219Y30324387D01*
X57305613Y30161781D01*
X57170440Y29975732D01*
X57066039Y29770834D01*
X56994973Y29552119D01*
X56959000Y29324989D01*
X38168692Y29324989D01*
X37624819Y29868862D01*
X37591334Y29930185D01*
X37588500Y29956543D01*
X37588500Y31615987D01*
X39115500Y31615987D01*
X39115500Y31376014D01*
X39153037Y31139012D01*
X39195642Y31007889D01*
X39227190Y30910795D01*
X39336131Y30696988D01*
X39477177Y30502855D01*
X39646855Y30333177D01*
X39840988Y30192131D01*
X40054795Y30083190D01*
X40228089Y30026884D01*
X40283011Y30009038D01*
X40520014Y29971500D01*
X40520019Y29971500D01*
X40759986Y29971500D01*
X40996988Y30009038D01*
X41225205Y30083190D01*
X41439012Y30192131D01*
X41633145Y30333177D01*
X41802823Y30502855D01*
X41943869Y30696988D01*
X42052810Y30910795D01*
X42126962Y31139012D01*
X42158201Y31336247D01*
X42164500Y31376014D01*
X42164500Y31615987D01*
X42126962Y31852989D01*
X42075622Y32010996D01*
X42052810Y32081205D01*
X41943869Y32295012D01*
X41802823Y32489145D01*
X41633145Y32658823D01*
X41439012Y32799869D01*
X41225205Y32908810D01*
X41166018Y32928041D01*
X40996988Y32982963D01*
X40759986Y33020500D01*
X40759981Y33020500D01*
X40520019Y33020500D01*
X40520014Y33020500D01*
X40283011Y32982963D01*
X40054792Y32908809D01*
X39840987Y32799869D01*
X39730228Y32719398D01*
X39646855Y32658823D01*
X39646853Y32658821D01*
X39646852Y32658821D01*
X39477179Y32489148D01*
X39477179Y32489147D01*
X39477177Y32489145D01*
X39434814Y32430837D01*
X39336131Y32295013D01*
X39227191Y32081208D01*
X39153037Y31852989D01*
X39115500Y31615987D01*
X37588500Y31615987D01*
X37588500Y34430384D01*
X37598225Y34463507D01*
X37607856Y34496910D01*
X37608115Y34497187D01*
X37608185Y34497423D01*
X37630837Y34523696D01*
X37635065Y34527397D01*
X37682495Y34561856D01*
X37828144Y34707505D01*
X37949215Y34874144D01*
X37994285Y34962600D01*
X38042258Y35013394D01*
X38110079Y35030190D01*
X38176214Y35007653D01*
X38215253Y34962600D01*
X38258053Y34878602D01*
X38290453Y34834008D01*
X38290453Y34834007D01*
X38886726Y35430281D01*
X38903720Y35366860D01*
X38969596Y35252759D01*
X39062759Y35159596D01*
X39176860Y35093720D01*
X39240279Y35076727D01*
X38644005Y34480455D01*
X38688598Y34448056D01*
X38870937Y34355149D01*
X39065555Y34291914D01*
X39267681Y34259900D01*
X39472319Y34259900D01*
X39674442Y34291914D01*
X39674445Y34291914D01*
X39869062Y34355149D01*
X40051401Y34448056D01*
X40095992Y34480454D01*
X40095992Y34480455D01*
X39499720Y35076727D01*
X39563140Y35093720D01*
X39677241Y35159596D01*
X39770404Y35252759D01*
X39836280Y35366860D01*
X39853273Y35430280D01*
X40449545Y34834008D01*
X40449546Y34834008D01*
X40481944Y34878599D01*
X40574851Y35060938D01*
X40638086Y35255555D01*
X40638086Y35255558D01*
X40670100Y35457681D01*
X40670100Y35662314D01*
X40669786Y35664296D01*
X40669884Y35665058D01*
X40669718Y35667171D01*
X40670161Y35667206D01*
X40678739Y35733589D01*
X40723733Y35787043D01*
X40790484Y35807685D01*
X40857798Y35788962D01*
X40879940Y35771379D01*
X44220481Y32430837D01*
X44220485Y32430834D01*
X44259822Y32404550D01*
X44344716Y32347826D01*
X44482754Y32290649D01*
X44482758Y32290649D01*
X44482759Y32290648D01*
X44629291Y32261500D01*
X44629294Y32261500D01*
X44629295Y32261500D01*
X44778705Y32261500D01*
X46736706Y32261500D01*
X46803745Y32241815D01*
X46849500Y32189011D01*
X46859444Y32119853D01*
X46848667Y32085865D01*
X46849054Y32085704D01*
X46847190Y32081205D01*
X46773037Y31852989D01*
X46735500Y31615987D01*
X46735500Y31376014D01*
X46773037Y31139012D01*
X46815642Y31007889D01*
X46847190Y30910795D01*
X46956131Y30696988D01*
X47097177Y30502855D01*
X47266855Y30333177D01*
X47460988Y30192131D01*
X47674795Y30083190D01*
X47848089Y30026884D01*
X47903011Y30009038D01*
X48140014Y29971500D01*
X48140019Y29971500D01*
X48379986Y29971500D01*
X48616988Y30009038D01*
X48845205Y30083190D01*
X49059012Y30192131D01*
X49253145Y30333177D01*
X49422823Y30502855D01*
X49563869Y30696988D01*
X49672810Y30910795D01*
X49746962Y31139012D01*
X49778201Y31336247D01*
X49784500Y31376014D01*
X49784500Y31615987D01*
X49746962Y31852989D01*
X49695622Y32010996D01*
X49672810Y32081205D01*
X49672804Y32081216D01*
X49670946Y32085704D01*
X49671891Y32086096D01*
X49659913Y32149871D01*
X49686187Y32214612D01*
X49743293Y32254871D01*
X49783294Y32261500D01*
X55954707Y32261500D01*
X56000494Y32270608D01*
X56046283Y32279716D01*
X56101247Y32290649D01*
X56239284Y32347826D01*
X56363515Y32430834D01*
X56887669Y32954990D01*
X56948990Y32988473D01*
X56994742Y32989780D01*
X57047019Y32981500D01*
X57047021Y32981500D01*
X57252980Y32981500D01*
X57252981Y32981500D01*
X57456408Y33013720D01*
X57652290Y33077366D01*
X57835803Y33170871D01*
X58002430Y33291932D01*
X58148068Y33437570D01*
X58269129Y33604197D01*
X58309515Y33683460D01*
X58357490Y33734255D01*
X58425311Y33751050D01*
X58491446Y33728513D01*
X58530484Y33683460D01*
X58568602Y33608650D01*
X58570873Y33604194D01*
X58691926Y33437577D01*
X58691930Y33437572D01*
X58837571Y33291931D01*
X58837576Y33291927D01*
X58949616Y33210526D01*
X59004197Y33170871D01*
X59121128Y33111291D01*
X59187705Y33077368D01*
X59187707Y33077368D01*
X59187710Y33077366D01*
X59292707Y33043251D01*
X59383591Y33013720D01*
X59485305Y32997610D01*
X59587019Y32981500D01*
X59587020Y32981500D01*
X59792980Y32981500D01*
X59792981Y32981500D01*
X59996408Y33013720D01*
X60192290Y33077366D01*
X60375803Y33170871D01*
X60542430Y33291932D01*
X60688068Y33437570D01*
X60809129Y33604197D01*
X60849515Y33683460D01*
X60897490Y33734255D01*
X60965311Y33751050D01*
X61031446Y33728513D01*
X61070484Y33683460D01*
X61108602Y33608650D01*
X61110873Y33604194D01*
X61231926Y33437577D01*
X61231930Y33437572D01*
X61377571Y33291931D01*
X61377576Y33291927D01*
X61489616Y33210526D01*
X61544197Y33170871D01*
X61661128Y33111291D01*
X61727705Y33077368D01*
X61727707Y33077368D01*
X61727710Y33077366D01*
X61832707Y33043251D01*
X61923591Y33013720D01*
X62025305Y32997610D01*
X62127019Y32981500D01*
X62127020Y32981500D01*
X62332980Y32981500D01*
X62332981Y32981500D01*
X62536408Y33013720D01*
X62732290Y33077366D01*
X62915803Y33170871D01*
X63082430Y33291932D01*
X63228068Y33437570D01*
X63349129Y33604197D01*
X63394284Y33692820D01*
X63442258Y33743616D01*
X63510079Y33760411D01*
X63576214Y33737874D01*
X63615254Y33692820D01*
X63658141Y33608650D01*
X63658147Y33608641D01*
X63690523Y33564079D01*
X63690524Y33564078D01*
X64370000Y34243554D01*
X64370000Y34237339D01*
X64397259Y34135606D01*
X64449920Y34044394D01*
X64524394Y33969920D01*
X64615606Y33917259D01*
X64717339Y33890000D01*
X64723553Y33890000D01*
X64044076Y33210526D01*
X64088650Y33178141D01*
X64270968Y33085245D01*
X64465582Y33022010D01*
X64667683Y32990000D01*
X64872317Y32990000D01*
X65074417Y33022010D01*
X65269031Y33085245D01*
X65451349Y33178141D01*
X65495921Y33210526D01*
X64816447Y33890000D01*
X64822661Y33890000D01*
X64924394Y33917259D01*
X65015606Y33969920D01*
X65090080Y34044394D01*
X65142741Y34135606D01*
X65170000Y34237339D01*
X65170000Y34243552D01*
X65849474Y33564078D01*
X65849474Y33564079D01*
X65881861Y33608653D01*
X65881861Y33608654D01*
X65924745Y33692819D01*
X65972718Y33743615D01*
X66040539Y33760411D01*
X66106674Y33737874D01*
X66145715Y33692820D01*
X66188602Y33608650D01*
X66190873Y33604194D01*
X66311926Y33437577D01*
X66311930Y33437572D01*
X66457571Y33291931D01*
X66457576Y33291927D01*
X66569616Y33210526D01*
X66624197Y33170871D01*
X66741128Y33111291D01*
X66807705Y33077368D01*
X66807707Y33077368D01*
X66807710Y33077366D01*
X66912707Y33043251D01*
X67003591Y33013720D01*
X67105305Y32997610D01*
X67207019Y32981500D01*
X67207020Y32981500D01*
X67412980Y32981500D01*
X67412981Y32981500D01*
X67616408Y33013720D01*
X67812290Y33077366D01*
X67995803Y33170871D01*
X68162430Y33291932D01*
X68308068Y33437570D01*
X68429129Y33604197D01*
X68469515Y33683460D01*
X68517490Y33734255D01*
X68585311Y33751050D01*
X68651446Y33728513D01*
X68690484Y33683460D01*
X68728602Y33608650D01*
X68730873Y33604194D01*
X68851926Y33437577D01*
X68851930Y33437572D01*
X68997571Y33291931D01*
X68997576Y33291927D01*
X69109616Y33210526D01*
X69164197Y33170871D01*
X69281128Y33111291D01*
X69347705Y33077368D01*
X69347707Y33077368D01*
X69347710Y33077366D01*
X69452707Y33043251D01*
X69543591Y33013720D01*
X69645305Y32997610D01*
X69747019Y32981500D01*
X69747020Y32981500D01*
X69952980Y32981500D01*
X69952981Y32981500D01*
X70156408Y33013720D01*
X70352290Y33077366D01*
X70535803Y33170871D01*
X70702430Y33291932D01*
X70848068Y33437570D01*
X70969129Y33604197D01*
X71009515Y33683460D01*
X71057490Y33734255D01*
X71125311Y33751050D01*
X71191446Y33728513D01*
X71230484Y33683460D01*
X71268602Y33608650D01*
X71270873Y33604194D01*
X71391926Y33437577D01*
X71391930Y33437572D01*
X71537571Y33291931D01*
X71537576Y33291927D01*
X71649616Y33210526D01*
X71704197Y33170871D01*
X71821128Y33111291D01*
X71887705Y33077368D01*
X71887707Y33077368D01*
X71887710Y33077366D01*
X71992707Y33043251D01*
X72083591Y33013720D01*
X72185305Y32997610D01*
X72287019Y32981500D01*
X72287020Y32981500D01*
X72492980Y32981500D01*
X72492981Y32981500D01*
X72696408Y33013720D01*
X72892290Y33077366D01*
X73075803Y33170871D01*
X73242430Y33291932D01*
X73388068Y33437570D01*
X73509129Y33604197D01*
X73549515Y33683460D01*
X73597490Y33734255D01*
X73665311Y33751050D01*
X73731446Y33728513D01*
X73770484Y33683460D01*
X73808602Y33608650D01*
X73810873Y33604194D01*
X73931926Y33437577D01*
X73931930Y33437572D01*
X74077571Y33291931D01*
X74077576Y33291927D01*
X74189616Y33210526D01*
X74244197Y33170871D01*
X74361128Y33111291D01*
X74427705Y33077368D01*
X74427707Y33077368D01*
X74427710Y33077366D01*
X74532707Y33043251D01*
X74623591Y33013720D01*
X74725305Y32997610D01*
X74827019Y32981500D01*
X74827020Y32981500D01*
X75032980Y32981500D01*
X75032981Y32981500D01*
X75236408Y33013720D01*
X75432290Y33077366D01*
X75615803Y33170871D01*
X75782430Y33291932D01*
X75928068Y33437570D01*
X76049129Y33604197D01*
X76089515Y33683460D01*
X76137490Y33734255D01*
X76205311Y33751050D01*
X76271446Y33728513D01*
X76310484Y33683460D01*
X76348602Y33608650D01*
X76350873Y33604194D01*
X76471926Y33437577D01*
X76471930Y33437572D01*
X76617571Y33291931D01*
X76617576Y33291927D01*
X76729616Y33210526D01*
X76784197Y33170871D01*
X76901128Y33111291D01*
X76967705Y33077368D01*
X76967707Y33077368D01*
X76967710Y33077366D01*
X77072707Y33043251D01*
X77163591Y33013720D01*
X77265305Y32997610D01*
X77367019Y32981500D01*
X77367020Y32981500D01*
X77572980Y32981500D01*
X77572981Y32981500D01*
X77776408Y33013720D01*
X77972290Y33077366D01*
X78155803Y33170871D01*
X78322430Y33291932D01*
X78468068Y33437570D01*
X78589129Y33604197D01*
X78629515Y33683460D01*
X78677490Y33734255D01*
X78745311Y33751050D01*
X78811446Y33728513D01*
X78850484Y33683460D01*
X78888602Y33608650D01*
X78890873Y33604194D01*
X79011926Y33437577D01*
X79011930Y33437572D01*
X79157571Y33291931D01*
X79157576Y33291927D01*
X79269616Y33210526D01*
X79324197Y33170871D01*
X79441128Y33111291D01*
X79507705Y33077368D01*
X79507707Y33077368D01*
X79507710Y33077366D01*
X79612707Y33043251D01*
X79703591Y33013720D01*
X79805305Y32997610D01*
X79907019Y32981500D01*
X79907020Y32981500D01*
X80112980Y32981500D01*
X80112981Y32981500D01*
X80316408Y33013720D01*
X80512290Y33077366D01*
X80695803Y33170871D01*
X80862430Y33291932D01*
X81008068Y33437570D01*
X81129129Y33604197D01*
X81222634Y33787710D01*
X81286280Y33983592D01*
X81318500Y34187019D01*
X81318500Y34392981D01*
X81305268Y34476525D01*
X81286280Y34596409D01*
X81237770Y34745705D01*
X81222634Y34792290D01*
X81222632Y34792293D01*
X81222632Y34792295D01*
X81178657Y34878599D01*
X81129129Y34975803D01*
X81043458Y35093720D01*
X81008073Y35142424D01*
X81008069Y35142429D01*
X80862432Y35288066D01*
X80862426Y35288071D01*
X80819615Y35319175D01*
X80816274Y35323507D01*
X80811297Y35325780D01*
X80795164Y35350883D01*
X80776949Y35374505D01*
X80775696Y35381177D01*
X80773523Y35384558D01*
X80768500Y35419493D01*
X80768500Y35448457D01*
X80788185Y35515496D01*
X80804819Y35536138D01*
X82192862Y36924181D01*
X82254185Y36957666D01*
X82280543Y36960500D01*
X83268500Y36960500D01*
X83335539Y36940815D01*
G37*
%TD.AperFunction*%
%TA.AperFunction,Conductor*%
G36*
X71191445Y26108292D02*
G01*
X71230484Y26063239D01*
X71270785Y25984144D01*
X71391856Y25817505D01*
X71537505Y25671856D01*
X71662484Y25581053D01*
X71704145Y25550784D01*
X71792597Y25505716D01*
X71843394Y25457742D01*
X71860189Y25389921D01*
X71837652Y25323786D01*
X71792599Y25284747D01*
X71708605Y25241949D01*
X71664006Y25209547D01*
X72260280Y24613274D01*
X72196860Y24596280D01*
X72082759Y24530404D01*
X71989596Y24437241D01*
X71923720Y24323140D01*
X71906726Y24259721D01*
X71310453Y24855994D01*
X71278053Y24811398D01*
X71230485Y24718040D01*
X71182510Y24667244D01*
X71114689Y24650449D01*
X71048554Y24672987D01*
X71009515Y24718040D01*
X70961944Y24811402D01*
X70929545Y24855994D01*
X70929545Y24855995D01*
X70333272Y24259722D01*
X70316280Y24323140D01*
X70250404Y24437241D01*
X70157241Y24530404D01*
X70043140Y24596280D01*
X69979719Y24613274D01*
X70575993Y25209547D01*
X70531398Y25241947D01*
X70447400Y25284747D01*
X70396605Y25332722D01*
X70379810Y25400543D01*
X70402348Y25466677D01*
X70447400Y25505715D01*
X70535856Y25550785D01*
X70702495Y25671856D01*
X70848144Y25817505D01*
X70969215Y25984144D01*
X71009515Y26063239D01*
X71057489Y26114034D01*
X71125310Y26130829D01*
X71191445Y26108292D01*
G37*
%TD.AperFunction*%
%TA.AperFunction,Conductor*%
G36*
X73731445Y26108292D02*
G01*
X73770484Y26063239D01*
X73810785Y25984144D01*
X73931856Y25817505D01*
X74077505Y25671856D01*
X74202484Y25581053D01*
X74244145Y25550784D01*
X74332597Y25505716D01*
X74383394Y25457742D01*
X74400189Y25389921D01*
X74377652Y25323786D01*
X74332599Y25284747D01*
X74248605Y25241949D01*
X74204006Y25209547D01*
X74800280Y24613274D01*
X74736860Y24596280D01*
X74622759Y24530404D01*
X74529596Y24437241D01*
X74463720Y24323140D01*
X74446726Y24259721D01*
X73850453Y24855994D01*
X73818053Y24811398D01*
X73770485Y24718040D01*
X73722510Y24667244D01*
X73654689Y24650449D01*
X73588554Y24672987D01*
X73549515Y24718040D01*
X73501944Y24811402D01*
X73469545Y24855994D01*
X73469545Y24855995D01*
X72873272Y24259722D01*
X72856280Y24323140D01*
X72790404Y24437241D01*
X72697241Y24530404D01*
X72583140Y24596280D01*
X72519719Y24613274D01*
X73115993Y25209547D01*
X73071398Y25241947D01*
X72987400Y25284747D01*
X72936605Y25332722D01*
X72919810Y25400543D01*
X72942348Y25466677D01*
X72987400Y25505715D01*
X73075856Y25550785D01*
X73242495Y25671856D01*
X73388144Y25817505D01*
X73509215Y25984144D01*
X73549515Y26063239D01*
X73597489Y26114034D01*
X73665310Y26130829D01*
X73731445Y26108292D01*
G37*
%TD.AperFunction*%
%TA.AperFunction,Conductor*%
G36*
X85101540Y34780162D02*
G01*
X85149349Y34740715D01*
X85245611Y34608222D01*
X85408222Y34445611D01*
X85594269Y34310440D01*
X85693460Y34259900D01*
X85708580Y34252196D01*
X85755387Y34210603D01*
X85770836Y34187482D01*
X86892482Y33065836D01*
X86892485Y33065834D01*
X87016716Y32982826D01*
X87154753Y32925649D01*
X87180106Y32920607D01*
X87227970Y32911085D01*
X87227997Y32911081D01*
X87228024Y32911075D01*
X87301294Y32896500D01*
X87301295Y32896500D01*
X87450705Y32896500D01*
X87721786Y32896500D01*
X87788825Y32876815D01*
X87834580Y32824011D01*
X87844524Y32754853D01*
X87843403Y32748309D01*
X87837500Y32718635D01*
X87837500Y32559366D01*
X87868568Y32403177D01*
X87868570Y32403169D01*
X87929517Y32256031D01*
X88017995Y32123613D01*
X88018001Y32123606D01*
X88130605Y32011002D01*
X88130612Y32010996D01*
X88263030Y31922518D01*
X88263031Y31922518D01*
X88263032Y31922517D01*
X88410169Y31861570D01*
X88566365Y31830501D01*
X88566369Y31830500D01*
X88566370Y31830500D01*
X88725631Y31830500D01*
X88725632Y31830501D01*
X88881831Y31861570D01*
X88904744Y31871061D01*
X88952197Y31880500D01*
X90693457Y31880500D01*
X90760496Y31860815D01*
X90781138Y31844181D01*
X91717308Y30908011D01*
X91750793Y30846688D01*
X91745809Y30776996D01*
X91703937Y30721063D01*
X91702515Y30720014D01*
X91662253Y30690761D01*
X91662247Y30690756D01*
X91483240Y30511749D01*
X91483236Y30511744D01*
X91425301Y30432002D01*
X91369971Y30389336D01*
X91300358Y30383357D01*
X91238563Y30415962D01*
X91237302Y30417206D01*
X91217748Y30436760D01*
X91217743Y30436764D01*
X91012946Y30585556D01*
X91012945Y30585557D01*
X91012943Y30585558D01*
X90787381Y30700488D01*
X90546616Y30778718D01*
X90546614Y30778719D01*
X90546612Y30778719D01*
X90296583Y30818320D01*
X90296578Y30818320D01*
X90043422Y30818320D01*
X90043417Y30818320D01*
X89793387Y30778719D01*
X89552616Y30700487D01*
X89327053Y30585556D01*
X89122253Y30436762D01*
X89122246Y30436756D01*
X89102695Y30417205D01*
X89041371Y30383721D01*
X88971680Y30388707D01*
X88915747Y30430580D01*
X88914698Y30432003D01*
X88856763Y30511745D01*
X88677748Y30690760D01*
X88677743Y30690764D01*
X88472946Y30839556D01*
X88472945Y30839557D01*
X88472943Y30839558D01*
X88247381Y30954488D01*
X88006616Y31032718D01*
X88006614Y31032719D01*
X88006612Y31032719D01*
X87756583Y31072320D01*
X87756578Y31072320D01*
X87503422Y31072320D01*
X87503417Y31072320D01*
X87253387Y31032719D01*
X87012616Y30954487D01*
X86787053Y30839556D01*
X86582256Y30690764D01*
X86582251Y30690760D01*
X86403240Y30511749D01*
X86403236Y30511744D01*
X86254444Y30306947D01*
X86139513Y30081386D01*
X86064279Y29849840D01*
X86034029Y29800478D01*
X85572962Y29339411D01*
X85555925Y29402993D01*
X85490099Y29517007D01*
X85397007Y29610099D01*
X85282993Y29675925D01*
X85219408Y29692963D01*
X86030569Y30504123D01*
X86030568Y30504125D01*
X85928491Y30578287D01*
X85704122Y30692610D01*
X85464625Y30770427D01*
X85215908Y30809820D01*
X84964092Y30809820D01*
X84715374Y30770427D01*
X84475877Y30692609D01*
X84256541Y30580852D01*
X84187871Y30567956D01*
X84123131Y30594233D01*
X84084064Y30648005D01*
X84043645Y30756375D01*
X84043640Y30756384D01*
X83957480Y30871478D01*
X83957477Y30871481D01*
X83842383Y30957641D01*
X83842376Y30957645D01*
X83707669Y31007887D01*
X83707662Y31007889D01*
X83648134Y31014290D01*
X82800000Y31014290D01*
X82800000Y29897012D01*
X82742993Y29929925D01*
X82615826Y29964000D01*
X82484174Y29964000D01*
X82357007Y29929925D01*
X82300000Y29897012D01*
X82300000Y31014290D01*
X81662332Y31014290D01*
X81595293Y31033975D01*
X81549538Y31086779D01*
X81539594Y31155937D01*
X81568619Y31219493D01*
X81574637Y31225957D01*
X84790166Y34441485D01*
X84873174Y34565716D01*
X84873646Y34566854D01*
X84919084Y34676554D01*
X84930351Y34703754D01*
X84930352Y34703764D01*
X84930369Y34703815D01*
X84930389Y34703847D01*
X84932682Y34709381D01*
X84933731Y34708947D01*
X84968662Y34762256D01*
X85032473Y34790717D01*
X85101540Y34780162D01*
G37*
%TD.AperFunction*%
%TA.AperFunction,Conductor*%
G36*
X78194751Y38110789D02*
G01*
X78249929Y38067926D01*
X78273175Y38002037D01*
X78257108Y37934040D01*
X78237034Y37907717D01*
X76880835Y36551518D01*
X76797825Y36427283D01*
X76740648Y36289246D01*
X76740646Y36289241D01*
X76726772Y36219485D01*
X76711500Y36142710D01*
X76711500Y35419493D01*
X76691815Y35352454D01*
X76660385Y35319175D01*
X76617573Y35288071D01*
X76617567Y35288066D01*
X76471930Y35142429D01*
X76471926Y35142424D01*
X76350871Y34975805D01*
X76310484Y34896541D01*
X76262510Y34845746D01*
X76194689Y34828951D01*
X76128554Y34851489D01*
X76089516Y34896541D01*
X76049128Y34975805D01*
X75928073Y35142424D01*
X75928069Y35142429D01*
X75782428Y35288070D01*
X75782423Y35288074D01*
X75615806Y35409127D01*
X75615805Y35409128D01*
X75615803Y35409129D01*
X75520515Y35457681D01*
X75432294Y35502633D01*
X75236408Y35566281D01*
X75060794Y35594095D01*
X75032981Y35598500D01*
X74827019Y35598500D01*
X74802550Y35594625D01*
X74623591Y35566281D01*
X74427705Y35502633D01*
X74244193Y35409127D01*
X74077576Y35288074D01*
X74077571Y35288070D01*
X73931930Y35142429D01*
X73931926Y35142424D01*
X73810871Y34975805D01*
X73770484Y34896541D01*
X73722510Y34845746D01*
X73654689Y34828951D01*
X73588554Y34851489D01*
X73549516Y34896541D01*
X73509128Y34975805D01*
X73388073Y35142424D01*
X73388069Y35142429D01*
X73242428Y35288070D01*
X73242423Y35288074D01*
X73075806Y35409127D01*
X73075805Y35409128D01*
X73075803Y35409129D01*
X72980515Y35457681D01*
X72892294Y35502633D01*
X72696408Y35566281D01*
X72520794Y35594095D01*
X72492981Y35598500D01*
X72287019Y35598500D01*
X72262550Y35594625D01*
X72083591Y35566281D01*
X71887705Y35502633D01*
X71704193Y35409127D01*
X71537576Y35288074D01*
X71537571Y35288070D01*
X71391930Y35142429D01*
X71391926Y35142424D01*
X71270871Y34975805D01*
X71230484Y34896541D01*
X71182510Y34845746D01*
X71114689Y34828951D01*
X71048554Y34851489D01*
X71009516Y34896541D01*
X70969128Y34975805D01*
X70848073Y35142424D01*
X70848069Y35142429D01*
X70702428Y35288070D01*
X70702423Y35288074D01*
X70535806Y35409127D01*
X70535805Y35409128D01*
X70535803Y35409129D01*
X70440515Y35457681D01*
X70352294Y35502633D01*
X70156408Y35566281D01*
X69980794Y35594095D01*
X69952981Y35598500D01*
X69747019Y35598500D01*
X69722550Y35594625D01*
X69543591Y35566281D01*
X69347705Y35502633D01*
X69164193Y35409127D01*
X68997576Y35288074D01*
X68997571Y35288070D01*
X68851930Y35142429D01*
X68851926Y35142424D01*
X68730871Y34975805D01*
X68690484Y34896541D01*
X68642510Y34845746D01*
X68574689Y34828951D01*
X68508554Y34851489D01*
X68469516Y34896541D01*
X68429128Y34975805D01*
X68308073Y35142424D01*
X68308069Y35142429D01*
X68162428Y35288070D01*
X68162423Y35288074D01*
X67995806Y35409127D01*
X67995805Y35409128D01*
X67995803Y35409129D01*
X67900515Y35457681D01*
X67812294Y35502633D01*
X67616408Y35566281D01*
X67440794Y35594095D01*
X67412981Y35598500D01*
X67207019Y35598500D01*
X67182550Y35594625D01*
X67003591Y35566281D01*
X66807705Y35502633D01*
X66624193Y35409127D01*
X66457576Y35288074D01*
X66457571Y35288070D01*
X66311930Y35142429D01*
X66311926Y35142424D01*
X66190871Y34975805D01*
X66145714Y34887180D01*
X66097740Y34836385D01*
X66029918Y34819590D01*
X65963784Y34842128D01*
X65924745Y34887182D01*
X65881861Y34971348D01*
X65849474Y35015923D01*
X65849474Y35015924D01*
X65170000Y34336449D01*
X65170000Y34342661D01*
X65142741Y34444394D01*
X65090080Y34535606D01*
X65015606Y34610080D01*
X64924394Y34662741D01*
X64822661Y34690000D01*
X64816446Y34690000D01*
X65495922Y35369476D01*
X65495921Y35369477D01*
X65451359Y35401853D01*
X65451350Y35401859D01*
X65269031Y35494756D01*
X65074417Y35557991D01*
X64872317Y35590000D01*
X64667683Y35590000D01*
X64465582Y35557991D01*
X64270968Y35494756D01*
X64088644Y35401857D01*
X64044077Y35369477D01*
X64044077Y35369476D01*
X64723554Y34690000D01*
X64717339Y34690000D01*
X64615606Y34662741D01*
X64524394Y34610080D01*
X64449920Y34535606D01*
X64397259Y34444394D01*
X64370000Y34342661D01*
X64370000Y34336447D01*
X63690524Y35015923D01*
X63690523Y35015923D01*
X63658143Y34971355D01*
X63658141Y34971352D01*
X63615253Y34887180D01*
X63567279Y34836385D01*
X63499457Y34819590D01*
X63433323Y34842128D01*
X63394284Y34887181D01*
X63349129Y34975803D01*
X63263458Y35093720D01*
X63228073Y35142424D01*
X63228069Y35142429D01*
X63082428Y35288070D01*
X63082423Y35288074D01*
X62915806Y35409127D01*
X62915805Y35409128D01*
X62915803Y35409129D01*
X62820515Y35457681D01*
X62732294Y35502633D01*
X62536408Y35566281D01*
X62360794Y35594095D01*
X62332981Y35598500D01*
X62127019Y35598500D01*
X62102550Y35594625D01*
X61923591Y35566281D01*
X61727705Y35502633D01*
X61544193Y35409127D01*
X61377576Y35288074D01*
X61377571Y35288070D01*
X61231930Y35142429D01*
X61231926Y35142424D01*
X61110871Y34975805D01*
X61070484Y34896541D01*
X61022510Y34845746D01*
X60954689Y34828951D01*
X60888554Y34851489D01*
X60849516Y34896541D01*
X60809128Y34975805D01*
X60722182Y35095477D01*
X60698702Y35161283D01*
X60698500Y35168362D01*
X60698500Y37503904D01*
X60718185Y37570943D01*
X60734819Y37591585D01*
X61214415Y38071181D01*
X61275738Y38104666D01*
X61302096Y38107500D01*
X78077329Y38107500D01*
X78125162Y38117015D01*
X78194751Y38110789D01*
G37*
%TD.AperFunction*%
%TA.AperFunction,Conductor*%
G36*
X32743366Y75045843D02*
G01*
X32765505Y75028261D01*
X35869615Y71924149D01*
X35869619Y71924146D01*
X36034789Y71813782D01*
X36034791Y71813781D01*
X36034796Y71813778D01*
X36164575Y71760023D01*
X36218331Y71737756D01*
X36413166Y71699001D01*
X36413170Y71699000D01*
X36413171Y71699000D01*
X36611829Y71699000D01*
X41967500Y71699000D01*
X42034539Y71679315D01*
X42080294Y71626511D01*
X42091500Y71575000D01*
X42091500Y68577500D01*
X42071815Y68510461D01*
X42019011Y68464706D01*
X41967500Y68453500D01*
X41301345Y68453500D01*
X41240797Y68446989D01*
X41240795Y68446989D01*
X41103795Y68395889D01*
X41084310Y68381302D01*
X41018845Y68356886D01*
X40950572Y68371738D01*
X40901167Y68421144D01*
X40886000Y68480570D01*
X40886000Y68699312D01*
X40848670Y68935000D01*
X40774934Y69161940D01*
X40774933Y69161943D01*
X40666597Y69374561D01*
X40604114Y69460562D01*
X40604113Y69460563D01*
X39770050Y68626499D01*
X39770050Y68632668D01*
X39742787Y68734414D01*
X39690120Y68825636D01*
X39615636Y68900120D01*
X39524414Y68952787D01*
X39422668Y68980050D01*
X39416496Y68980050D01*
X40250560Y69814114D01*
X40250560Y69814116D01*
X40164560Y69876598D01*
X39951942Y69984934D01*
X39951939Y69984935D01*
X39724999Y70058671D01*
X39489311Y70096000D01*
X39250689Y70096000D01*
X39015000Y70058671D01*
X38788060Y69984935D01*
X38788057Y69984934D01*
X38575446Y69876602D01*
X38489438Y69814115D01*
X39323504Y68980050D01*
X39317332Y68980050D01*
X39215586Y68952787D01*
X39124364Y68900120D01*
X39049880Y68825636D01*
X38997213Y68734414D01*
X38969950Y68632668D01*
X38969950Y68626497D01*
X38133780Y69462667D01*
X38109387Y69469386D01*
X38078783Y69475815D01*
X38074868Y69478893D01*
X38072159Y69479639D01*
X38062437Y69488668D01*
X38045100Y69502299D01*
X38040855Y69507034D01*
X37992823Y69573145D01*
X37823145Y69742823D01*
X37629012Y69883869D01*
X37415205Y69992810D01*
X37337703Y70017992D01*
X37186988Y70066963D01*
X36949986Y70104500D01*
X36949981Y70104500D01*
X36710019Y70104500D01*
X36710014Y70104500D01*
X36473011Y70066963D01*
X36244792Y69992809D01*
X36030987Y69883869D01*
X35920228Y69803398D01*
X35836855Y69742823D01*
X35836853Y69742821D01*
X35836852Y69742821D01*
X35667179Y69573148D01*
X35667179Y69573147D01*
X35667177Y69573145D01*
X35630062Y69522061D01*
X35526131Y69379013D01*
X35417191Y69165208D01*
X35343037Y68936989D01*
X35305500Y68699987D01*
X35305500Y68460014D01*
X35343037Y68223012D01*
X35384861Y68094294D01*
X35417190Y67994795D01*
X35526131Y67780988D01*
X35667177Y67586855D01*
X35836855Y67417177D01*
X35994807Y67302418D01*
X36020386Y67283834D01*
X36063051Y67228504D01*
X36071500Y67183516D01*
X36071500Y58218291D01*
X36100647Y58071761D01*
X36100649Y58071753D01*
X36157825Y57933718D01*
X36240835Y57809483D01*
X36240836Y57809482D01*
X37498144Y56552175D01*
X38653834Y55396485D01*
X38653835Y55396484D01*
X38759484Y55290835D01*
X38759487Y55290833D01*
X38759488Y55290832D01*
X38883705Y55207833D01*
X38883708Y55207832D01*
X38883716Y55207826D01*
X38964576Y55174333D01*
X39021753Y55150649D01*
X39095024Y55136075D01*
X39168294Y55121500D01*
X39168295Y55121500D01*
X39317705Y55121500D01*
X66817457Y55121500D01*
X66884496Y55101815D01*
X66905138Y55085181D01*
X70071181Y51919138D01*
X70104666Y51857815D01*
X70107500Y51831457D01*
X70107500Y50402844D01*
X70087815Y50335805D01*
X70035011Y50290050D01*
X69965853Y50280106D01*
X69902297Y50309131D01*
X69883182Y50329958D01*
X69859761Y50362194D01*
X69742823Y50523145D01*
X69573145Y50692823D01*
X69379012Y50833869D01*
X69373387Y50836735D01*
X69165207Y50942809D01*
X69165206Y50942810D01*
X69165205Y50942810D01*
X69106018Y50962041D01*
X68936988Y51016963D01*
X68699986Y51054500D01*
X68699981Y51054500D01*
X68460019Y51054500D01*
X68460014Y51054500D01*
X68223011Y51016963D01*
X67994792Y50942809D01*
X67780987Y50833869D01*
X67675893Y50757513D01*
X67586855Y50692823D01*
X67586853Y50692821D01*
X67586852Y50692821D01*
X67417179Y50523148D01*
X67283834Y50339614D01*
X67228504Y50296949D01*
X67183516Y50288500D01*
X64548691Y50288500D01*
X64481652Y50308185D01*
X64448373Y50339615D01*
X64440935Y50349852D01*
X64440931Y50349857D01*
X64300860Y50489928D01*
X64300858Y50489930D01*
X64140598Y50606366D01*
X64126491Y50613554D01*
X63964101Y50696297D01*
X63775700Y50757513D01*
X63580051Y50788500D01*
X63580046Y50788500D01*
X63381954Y50788500D01*
X63381949Y50788500D01*
X63186299Y50757513D01*
X62997898Y50696297D01*
X62821401Y50606366D01*
X62738585Y50546196D01*
X62661142Y50489930D01*
X62661140Y50489928D01*
X62661139Y50489928D01*
X62521072Y50349861D01*
X62521072Y50349860D01*
X62521070Y50349858D01*
X62502691Y50324561D01*
X62404634Y50189599D01*
X62314703Y50013102D01*
X62253487Y49824701D01*
X62222500Y49629052D01*
X62222500Y49430949D01*
X62253487Y49235300D01*
X62314703Y49046899D01*
X62379567Y48919599D01*
X62404634Y48870402D01*
X62521070Y48710142D01*
X62521072Y48710140D01*
X62636031Y48595181D01*
X62669516Y48533858D01*
X62664532Y48464166D01*
X62622660Y48408233D01*
X62557196Y48383816D01*
X62548350Y48383500D01*
X61139290Y48383500D01*
X61066024Y48368926D01*
X60992760Y48354354D01*
X60992756Y48354352D01*
X60992754Y48354352D01*
X60992753Y48354351D01*
X60946247Y48335088D01*
X60935574Y48330667D01*
X60854719Y48297176D01*
X60854709Y48297171D01*
X60748392Y48226132D01*
X60748392Y48226131D01*
X60736531Y48218206D01*
X60730479Y48214162D01*
X59100835Y46584518D01*
X59017825Y46460283D01*
X58960649Y46322248D01*
X58960647Y46322240D01*
X58948396Y46260649D01*
X58948396Y46260648D01*
X58931500Y46175708D01*
X58931500Y43039493D01*
X58911815Y42972454D01*
X58880385Y42939175D01*
X58837573Y42908071D01*
X58837567Y42908066D01*
X58691930Y42762429D01*
X58691926Y42762424D01*
X58570871Y42595805D01*
X58530484Y42516541D01*
X58482510Y42465746D01*
X58414689Y42448951D01*
X58348554Y42471489D01*
X58309516Y42516541D01*
X58269128Y42595805D01*
X58148073Y42762424D01*
X58148069Y42762429D01*
X58002432Y42908066D01*
X58002426Y42908071D01*
X57959615Y42939175D01*
X57916949Y42994505D01*
X57908500Y43039493D01*
X57908500Y48268049D01*
X57928185Y48335088D01*
X57980989Y48380843D01*
X58050147Y48390787D01*
X58088793Y48378535D01*
X58117903Y48363702D01*
X58243522Y48322886D01*
X58306299Y48302488D01*
X58501949Y48271500D01*
X58501954Y48271500D01*
X58700051Y48271500D01*
X58895700Y48302488D01*
X58925870Y48312291D01*
X59084097Y48363702D01*
X59260598Y48453634D01*
X59420858Y48570070D01*
X59560930Y48710142D01*
X59677366Y48870402D01*
X59767298Y49046903D01*
X59828512Y49235300D01*
X59850731Y49375586D01*
X59859500Y49430949D01*
X59859500Y49629052D01*
X59828512Y49824701D01*
X59791075Y49939920D01*
X59767298Y50013097D01*
X59767296Y50013100D01*
X59767296Y50013102D01*
X59715270Y50115208D01*
X59677366Y50189598D01*
X59560930Y50349858D01*
X59420858Y50489930D01*
X59260598Y50606366D01*
X59246491Y50613554D01*
X59084101Y50696297D01*
X58895700Y50757513D01*
X58700051Y50788500D01*
X58700046Y50788500D01*
X58501954Y50788500D01*
X58501949Y50788500D01*
X58306299Y50757513D01*
X58117898Y50696297D01*
X57941401Y50606366D01*
X57858585Y50546196D01*
X57781142Y50489930D01*
X57781140Y50489928D01*
X57781139Y50489928D01*
X57641068Y50349857D01*
X57641064Y50349852D01*
X57633627Y50339615D01*
X57578297Y50296949D01*
X57533309Y50288500D01*
X54736484Y50288500D01*
X54669445Y50308185D01*
X54636166Y50339614D01*
X54628721Y50349861D01*
X54502823Y50523145D01*
X54333145Y50692823D01*
X54139012Y50833869D01*
X54133387Y50836735D01*
X53925207Y50942809D01*
X53925206Y50942810D01*
X53925205Y50942810D01*
X53866018Y50962041D01*
X53696988Y51016963D01*
X53459986Y51054500D01*
X53459981Y51054500D01*
X53220019Y51054500D01*
X53220014Y51054500D01*
X52983011Y51016963D01*
X52754792Y50942809D01*
X52540987Y50833869D01*
X52435893Y50757513D01*
X52346855Y50692823D01*
X52346853Y50692821D01*
X52346852Y50692821D01*
X52177179Y50523148D01*
X52177179Y50523147D01*
X52177177Y50523145D01*
X52150058Y50485819D01*
X52036131Y50329013D01*
X51927191Y50115208D01*
X51853037Y49886989D01*
X51815500Y49649987D01*
X51815500Y49410014D01*
X51853037Y49173012D01*
X51883305Y49079858D01*
X51927190Y48944795D01*
X52036131Y48730988D01*
X52177177Y48536855D01*
X52177179Y48536853D01*
X52346860Y48367172D01*
X52407817Y48322885D01*
X52450483Y48267556D01*
X52456446Y48227106D01*
X53293503Y47390050D01*
X53287332Y47390050D01*
X53185586Y47362787D01*
X53094364Y47310120D01*
X53019880Y47235636D01*
X52967213Y47144414D01*
X52939950Y47042668D01*
X52939950Y47036497D01*
X52105885Y47870562D01*
X52043398Y47784554D01*
X51935066Y47571943D01*
X51935065Y47571940D01*
X51861329Y47345000D01*
X51824000Y47109312D01*
X51824000Y46870689D01*
X51861329Y46635001D01*
X51935065Y46408061D01*
X51935066Y46408058D01*
X52043402Y46195440D01*
X52105884Y46109440D01*
X52105886Y46109440D01*
X52939950Y46943504D01*
X52939950Y46937332D01*
X52967213Y46835586D01*
X53019880Y46744364D01*
X53094364Y46669880D01*
X53185586Y46617213D01*
X53287332Y46589950D01*
X53293503Y46589950D01*
X52459437Y45755887D01*
X52459438Y45755886D01*
X52545439Y45693403D01*
X52758057Y45585067D01*
X52758060Y45585066D01*
X52985000Y45511330D01*
X53220689Y45474000D01*
X53459311Y45474000D01*
X53694999Y45511330D01*
X53921939Y45585066D01*
X53921942Y45585067D01*
X54134557Y45693401D01*
X54220560Y45755887D01*
X54220561Y45755887D01*
X53386497Y46589950D01*
X53392668Y46589950D01*
X53494414Y46617213D01*
X53585636Y46669880D01*
X53660120Y46744364D01*
X53712787Y46835586D01*
X53740050Y46937332D01*
X53740050Y46943502D01*
X54574113Y46109439D01*
X54574113Y46109440D01*
X54636599Y46195443D01*
X54744933Y46408058D01*
X54744934Y46408061D01*
X54818670Y46635001D01*
X54856000Y46870689D01*
X54856000Y47109312D01*
X54818670Y47345000D01*
X54744934Y47571940D01*
X54744933Y47571943D01*
X54636597Y47784561D01*
X54574114Y47870562D01*
X54574113Y47870563D01*
X53740050Y47036499D01*
X53740050Y47042668D01*
X53712787Y47144414D01*
X53660120Y47235636D01*
X53585636Y47310120D01*
X53494414Y47362787D01*
X53392668Y47390050D01*
X53386495Y47390050D01*
X54224682Y48228236D01*
X54235812Y48281214D01*
X54272179Y48322883D01*
X54333145Y48367177D01*
X54502823Y48536855D01*
X54636166Y48720387D01*
X54691496Y48763051D01*
X54736484Y48771500D01*
X56267500Y48771500D01*
X56334539Y48751815D01*
X56380294Y48699011D01*
X56391500Y48647500D01*
X56391500Y43039493D01*
X56371815Y42972454D01*
X56340385Y42939175D01*
X56297573Y42908071D01*
X56297567Y42908066D01*
X56151930Y42762429D01*
X56151926Y42762424D01*
X56030871Y42595805D01*
X55990484Y42516541D01*
X55942510Y42465746D01*
X55874689Y42448951D01*
X55808554Y42471489D01*
X55769516Y42516541D01*
X55729128Y42595805D01*
X55608073Y42762424D01*
X55608069Y42762429D01*
X55462428Y42908070D01*
X55462423Y42908074D01*
X55295806Y43029127D01*
X55295805Y43029128D01*
X55295803Y43029129D01*
X55218618Y43068457D01*
X55112294Y43122633D01*
X54916408Y43186281D01*
X54740794Y43214095D01*
X54712981Y43218500D01*
X54507019Y43218500D01*
X54482550Y43214625D01*
X54303591Y43186281D01*
X54107705Y43122633D01*
X53924193Y43029127D01*
X53757576Y42908074D01*
X53757571Y42908070D01*
X53611930Y42762429D01*
X53611926Y42762424D01*
X53490871Y42595805D01*
X53450484Y42516541D01*
X53402510Y42465746D01*
X53334689Y42448951D01*
X53268554Y42471489D01*
X53229516Y42516541D01*
X53189128Y42595805D01*
X53068073Y42762424D01*
X53068069Y42762429D01*
X52922428Y42908070D01*
X52922423Y42908074D01*
X52755806Y43029127D01*
X52755805Y43029128D01*
X52755803Y43029129D01*
X52678618Y43068457D01*
X52572294Y43122633D01*
X52376408Y43186281D01*
X52200794Y43214095D01*
X52172981Y43218500D01*
X51967019Y43218500D01*
X51942550Y43214625D01*
X51763591Y43186281D01*
X51567705Y43122633D01*
X51384193Y43029127D01*
X51217576Y42908074D01*
X51217571Y42908070D01*
X51071930Y42762429D01*
X51071926Y42762424D01*
X50950871Y42595805D01*
X50910484Y42516541D01*
X50862510Y42465746D01*
X50794689Y42448951D01*
X50728554Y42471489D01*
X50689516Y42516541D01*
X50649128Y42595805D01*
X50528073Y42762424D01*
X50528069Y42762429D01*
X50382428Y42908070D01*
X50382423Y42908074D01*
X50215806Y43029127D01*
X50215805Y43029128D01*
X50215803Y43029129D01*
X50138618Y43068457D01*
X50032294Y43122633D01*
X49836408Y43186281D01*
X49660794Y43214095D01*
X49632981Y43218500D01*
X49427019Y43218500D01*
X49402550Y43214625D01*
X49223591Y43186281D01*
X49027705Y43122633D01*
X48844193Y43029127D01*
X48677576Y42908074D01*
X48677571Y42908070D01*
X48531930Y42762429D01*
X48531926Y42762424D01*
X48410871Y42595805D01*
X48370484Y42516541D01*
X48322510Y42465746D01*
X48254689Y42448951D01*
X48188554Y42471489D01*
X48149516Y42516541D01*
X48109128Y42595805D01*
X47988073Y42762424D01*
X47988069Y42762429D01*
X47842428Y42908070D01*
X47842423Y42908074D01*
X47675806Y43029127D01*
X47675805Y43029128D01*
X47675803Y43029129D01*
X47598618Y43068457D01*
X47492294Y43122633D01*
X47296408Y43186281D01*
X47120794Y43214095D01*
X47092981Y43218500D01*
X46887019Y43218500D01*
X46862550Y43214625D01*
X46683591Y43186281D01*
X46487705Y43122633D01*
X46304193Y43029127D01*
X46137576Y42908074D01*
X46137571Y42908070D01*
X45991930Y42762429D01*
X45991926Y42762424D01*
X45870873Y42595807D01*
X45777367Y42412295D01*
X45713719Y42216409D01*
X45681500Y42012981D01*
X45681500Y41807020D01*
X45713719Y41603592D01*
X45777367Y41407706D01*
X45830485Y41303459D01*
X45868602Y41228650D01*
X45870873Y41224194D01*
X45991926Y41057577D01*
X45991930Y41057572D01*
X46137571Y40911931D01*
X46137576Y40911927D01*
X46218248Y40853316D01*
X46304197Y40790871D01*
X46421128Y40731291D01*
X46487705Y40697368D01*
X46487707Y40697368D01*
X46487710Y40697366D01*
X46571014Y40670299D01*
X46683591Y40633720D01*
X46768833Y40620219D01*
X46887019Y40601500D01*
X46887020Y40601500D01*
X47092980Y40601500D01*
X47092981Y40601500D01*
X47296408Y40633720D01*
X47492290Y40697366D01*
X47675803Y40790871D01*
X47842430Y40911932D01*
X47988068Y41057570D01*
X48109129Y41224197D01*
X48149515Y41303460D01*
X48197490Y41354255D01*
X48265311Y41371050D01*
X48331446Y41348513D01*
X48370484Y41303460D01*
X48408602Y41228650D01*
X48410873Y41224194D01*
X48531926Y41057577D01*
X48531930Y41057572D01*
X48677571Y40911931D01*
X48677576Y40911927D01*
X48758248Y40853316D01*
X48844197Y40790871D01*
X48961128Y40731291D01*
X49027705Y40697368D01*
X49027707Y40697368D01*
X49027710Y40697366D01*
X49111014Y40670299D01*
X49223591Y40633720D01*
X49308833Y40620219D01*
X49427019Y40601500D01*
X49427020Y40601500D01*
X49632980Y40601500D01*
X49632981Y40601500D01*
X49836408Y40633720D01*
X50032290Y40697366D01*
X50215803Y40790871D01*
X50382430Y40911932D01*
X50528068Y41057570D01*
X50649129Y41224197D01*
X50689515Y41303460D01*
X50737490Y41354255D01*
X50805311Y41371050D01*
X50871446Y41348513D01*
X50910484Y41303460D01*
X50948602Y41228650D01*
X50950873Y41224194D01*
X51071926Y41057577D01*
X51071930Y41057572D01*
X51217571Y40911931D01*
X51217576Y40911927D01*
X51298248Y40853316D01*
X51384197Y40790871D01*
X51501128Y40731291D01*
X51567705Y40697368D01*
X51567707Y40697368D01*
X51567710Y40697366D01*
X51651014Y40670299D01*
X51763591Y40633720D01*
X51848833Y40620219D01*
X51967019Y40601500D01*
X51967020Y40601500D01*
X52172980Y40601500D01*
X52172981Y40601500D01*
X52376408Y40633720D01*
X52572290Y40697366D01*
X52755803Y40790871D01*
X52922430Y40911932D01*
X53068068Y41057570D01*
X53189129Y41224197D01*
X53229515Y41303460D01*
X53277490Y41354255D01*
X53345311Y41371050D01*
X53411446Y41348513D01*
X53450484Y41303460D01*
X53488602Y41228650D01*
X53490873Y41224194D01*
X53611926Y41057577D01*
X53611930Y41057572D01*
X53757571Y40911931D01*
X53757576Y40911927D01*
X53838248Y40853316D01*
X53924197Y40790871D01*
X54041128Y40731291D01*
X54107705Y40697368D01*
X54107707Y40697368D01*
X54107710Y40697366D01*
X54191014Y40670299D01*
X54303591Y40633720D01*
X54388833Y40620219D01*
X54507019Y40601500D01*
X54507020Y40601500D01*
X54712980Y40601500D01*
X54712981Y40601500D01*
X54916408Y40633720D01*
X55112290Y40697366D01*
X55295803Y40790871D01*
X55462430Y40911932D01*
X55608068Y41057570D01*
X55729129Y41224197D01*
X55769515Y41303460D01*
X55817490Y41354255D01*
X55885311Y41371050D01*
X55951446Y41348513D01*
X55990484Y41303460D01*
X56028602Y41228650D01*
X56030873Y41224194D01*
X56151926Y41057577D01*
X56151930Y41057572D01*
X56297571Y40911931D01*
X56297576Y40911927D01*
X56378248Y40853316D01*
X56464197Y40790871D01*
X56581128Y40731291D01*
X56647705Y40697368D01*
X56647707Y40697368D01*
X56647710Y40697366D01*
X56731014Y40670299D01*
X56843591Y40633720D01*
X56928833Y40620219D01*
X57047019Y40601500D01*
X57047020Y40601500D01*
X57252980Y40601500D01*
X57252981Y40601500D01*
X57456408Y40633720D01*
X57652290Y40697366D01*
X57835803Y40790871D01*
X58002430Y40911932D01*
X58148068Y41057570D01*
X58269129Y41224197D01*
X58309515Y41303460D01*
X58357490Y41354255D01*
X58425311Y41371050D01*
X58491446Y41348513D01*
X58530484Y41303460D01*
X58568602Y41228650D01*
X58570873Y41224194D01*
X58691926Y41057577D01*
X58691930Y41057572D01*
X58837571Y40911931D01*
X58837576Y40911927D01*
X58918248Y40853316D01*
X59004197Y40790871D01*
X59121128Y40731291D01*
X59187705Y40697368D01*
X59187707Y40697368D01*
X59187710Y40697366D01*
X59271014Y40670299D01*
X59383591Y40633720D01*
X59468833Y40620219D01*
X59587019Y40601500D01*
X59587020Y40601500D01*
X59792980Y40601500D01*
X59792981Y40601500D01*
X59996408Y40633720D01*
X60192290Y40697366D01*
X60375803Y40790871D01*
X60542430Y40911932D01*
X60688068Y41057570D01*
X60809129Y41224197D01*
X60854284Y41312820D01*
X60902258Y41363616D01*
X60970079Y41380411D01*
X61036214Y41357874D01*
X61075254Y41312820D01*
X61118141Y41228650D01*
X61118147Y41228641D01*
X61150523Y41184079D01*
X61150524Y41184078D01*
X61830000Y41863554D01*
X61830000Y41857339D01*
X61857259Y41755606D01*
X61909920Y41664394D01*
X61984394Y41589920D01*
X62075606Y41537259D01*
X62177339Y41510000D01*
X62183553Y41510000D01*
X61504076Y40830526D01*
X61548650Y40798141D01*
X61730968Y40705245D01*
X61925582Y40642010D01*
X62127683Y40610000D01*
X62332317Y40610000D01*
X62534417Y40642010D01*
X62729031Y40705245D01*
X62911349Y40798141D01*
X62955921Y40830526D01*
X62276447Y41510000D01*
X62282661Y41510000D01*
X62384394Y41537259D01*
X62475606Y41589920D01*
X62550080Y41664394D01*
X62602741Y41755606D01*
X62630000Y41857339D01*
X62630000Y41863552D01*
X63309474Y41184078D01*
X63309474Y41184079D01*
X63341861Y41228653D01*
X63341861Y41228654D01*
X63384745Y41312819D01*
X63432718Y41363615D01*
X63500539Y41380411D01*
X63566674Y41357874D01*
X63605715Y41312820D01*
X63650871Y41224197D01*
X63737819Y41104524D01*
X63761298Y41038720D01*
X63761500Y41031640D01*
X63761500Y40347097D01*
X63752854Y40317654D01*
X63746332Y40287671D01*
X63742577Y40282656D01*
X63741815Y40280058D01*
X63725185Y40259421D01*
X63626583Y40160818D01*
X63565263Y40127334D01*
X63538904Y40124500D01*
X45554097Y40124500D01*
X45487058Y40144185D01*
X45466416Y40160819D01*
X44224819Y41402416D01*
X44191334Y41463739D01*
X44188500Y41490097D01*
X44188500Y47888082D01*
X44208185Y47955121D01*
X44260989Y48000876D01*
X44299243Y48011371D01*
X44305201Y48012011D01*
X44442204Y48063111D01*
X44559261Y48150739D01*
X44646889Y48267796D01*
X44680926Y48359052D01*
X44691155Y48386476D01*
X44691157Y48386482D01*
X44697989Y48404799D01*
X44704499Y48465346D01*
X44704500Y48465363D01*
X44704500Y49649312D01*
X46744000Y49649312D01*
X46744000Y49410689D01*
X46781329Y49175001D01*
X46855065Y48948061D01*
X46855066Y48948058D01*
X46963402Y48735440D01*
X47025884Y48649440D01*
X47025886Y48649440D01*
X47859950Y49483504D01*
X47859950Y49477332D01*
X47887213Y49375586D01*
X47939880Y49284364D01*
X48014364Y49209880D01*
X48105586Y49157213D01*
X48207332Y49129950D01*
X48213503Y49129950D01*
X47379437Y48295887D01*
X47379438Y48295886D01*
X47465439Y48233403D01*
X47678057Y48125067D01*
X47678060Y48125066D01*
X47905000Y48051330D01*
X48140689Y48014000D01*
X48379311Y48014000D01*
X48614999Y48051330D01*
X48841939Y48125066D01*
X48841942Y48125067D01*
X49054557Y48233401D01*
X49140560Y48295887D01*
X49140561Y48295887D01*
X48306497Y49129950D01*
X48312668Y49129950D01*
X48414414Y49157213D01*
X48505636Y49209880D01*
X48580120Y49284364D01*
X48632787Y49375586D01*
X48660050Y49477332D01*
X48660050Y49483503D01*
X49494113Y48649439D01*
X49494113Y48649440D01*
X49556599Y48735443D01*
X49664933Y48948058D01*
X49664934Y48948061D01*
X49738670Y49175001D01*
X49776000Y49410689D01*
X49776000Y49649312D01*
X49738670Y49885000D01*
X49664934Y50111940D01*
X49664933Y50111943D01*
X49556597Y50324561D01*
X49494114Y50410562D01*
X49494113Y50410563D01*
X48660050Y49576499D01*
X48660050Y49582668D01*
X48632787Y49684414D01*
X48580120Y49775636D01*
X48505636Y49850120D01*
X48414414Y49902787D01*
X48312668Y49930050D01*
X48306496Y49930050D01*
X49140560Y50764114D01*
X49140560Y50764116D01*
X49054560Y50826598D01*
X48841942Y50934934D01*
X48841939Y50934935D01*
X48614999Y51008671D01*
X48379311Y51046000D01*
X48140689Y51046000D01*
X47905000Y51008671D01*
X47678060Y50934935D01*
X47678057Y50934934D01*
X47465446Y50826602D01*
X47379438Y50764115D01*
X48213504Y49930050D01*
X48207332Y49930050D01*
X48105586Y49902787D01*
X48014364Y49850120D01*
X47939880Y49775636D01*
X47887213Y49684414D01*
X47859950Y49582668D01*
X47859950Y49576497D01*
X47025885Y50410562D01*
X46963398Y50324554D01*
X46855066Y50111943D01*
X46855065Y50111940D01*
X46781329Y49885000D01*
X46744000Y49649312D01*
X44704500Y49649312D01*
X44704500Y50594638D01*
X44704499Y50594655D01*
X44701157Y50625730D01*
X44697989Y50655201D01*
X44697247Y50657190D01*
X44691156Y50673523D01*
X44691155Y50673524D01*
X44666420Y50739839D01*
X44646889Y50792204D01*
X44559261Y50909261D01*
X44442204Y50996889D01*
X44410616Y51008671D01*
X44305203Y51047989D01*
X44244654Y51054500D01*
X44244638Y51054500D01*
X42115362Y51054500D01*
X42115345Y51054500D01*
X42054797Y51047989D01*
X42054795Y51047989D01*
X41917795Y50996889D01*
X41800739Y50909261D01*
X41713111Y50792205D01*
X41662011Y50655205D01*
X41662011Y50655203D01*
X41655500Y50594655D01*
X41655500Y48465346D01*
X41662011Y48404798D01*
X41662011Y48404796D01*
X41702633Y48295887D01*
X41713111Y48267796D01*
X41800739Y48150739D01*
X41917796Y48063111D01*
X41993649Y48034819D01*
X42054793Y48012013D01*
X42054799Y48012011D01*
X42060753Y48011371D01*
X42125303Y47984636D01*
X42165153Y47927245D01*
X42171500Y47888082D01*
X42171500Y45808096D01*
X42151815Y45741057D01*
X42135181Y45720415D01*
X41909585Y45494819D01*
X41848262Y45461334D01*
X41821904Y45458500D01*
X38569097Y45458500D01*
X38502058Y45478185D01*
X38481416Y45494819D01*
X33175819Y50800416D01*
X33142334Y50861739D01*
X33139500Y50888097D01*
X33139500Y63345330D01*
X33139499Y63345334D01*
X33100744Y63540169D01*
X33042107Y63681731D01*
X33024722Y63723703D01*
X32940110Y63850334D01*
X32914357Y63888877D01*
X32914351Y63888885D01*
X27905319Y68897917D01*
X27871834Y68959240D01*
X27869000Y68985598D01*
X27869000Y69097709D01*
X27888685Y69164748D01*
X27941489Y69210503D01*
X27967557Y69215111D01*
X28726726Y69974280D01*
X28743720Y69910860D01*
X28809596Y69796759D01*
X28902759Y69703596D01*
X29016860Y69637720D01*
X29080279Y69620727D01*
X28329437Y68869887D01*
X28329438Y68869886D01*
X28415439Y68807403D01*
X28628057Y68699067D01*
X28628060Y68699066D01*
X28855000Y68625330D01*
X29090689Y68588000D01*
X29329311Y68588000D01*
X29564999Y68625330D01*
X29791939Y68699066D01*
X29791942Y68699067D01*
X30004557Y68807401D01*
X30090560Y68869887D01*
X30090561Y68869887D01*
X29339720Y69620727D01*
X29403140Y69637720D01*
X29517241Y69703596D01*
X29610404Y69796759D01*
X29676280Y69910860D01*
X29693272Y69974280D01*
X30444113Y69223439D01*
X30444113Y69223440D01*
X30506599Y69309443D01*
X30614933Y69522058D01*
X30614934Y69522061D01*
X30688670Y69749001D01*
X30726000Y69984689D01*
X30726000Y70223312D01*
X30688670Y70459000D01*
X30614934Y70685940D01*
X30614933Y70685943D01*
X30506597Y70898561D01*
X30444114Y70984562D01*
X30444113Y70984563D01*
X29693272Y70233722D01*
X29676280Y70297140D01*
X29610404Y70411241D01*
X29517241Y70504404D01*
X29403140Y70570280D01*
X29339719Y70587274D01*
X30090560Y71338114D01*
X30090560Y71338116D01*
X30004560Y71400598D01*
X29791942Y71508934D01*
X29791939Y71508935D01*
X29564999Y71582671D01*
X29329311Y71620000D01*
X29090689Y71620000D01*
X28855000Y71582671D01*
X28628060Y71508935D01*
X28628057Y71508934D01*
X28415446Y71400602D01*
X28329438Y71338115D01*
X29080280Y70587274D01*
X29016860Y70570280D01*
X28902759Y70504404D01*
X28809596Y70411241D01*
X28743720Y70297140D01*
X28726726Y70233721D01*
X27970823Y70989624D01*
X27955600Y70996576D01*
X27934350Y71001040D01*
X27924446Y71010804D01*
X27911797Y71016580D01*
X27900057Y71034848D01*
X27884594Y71050092D01*
X27880767Y71064863D01*
X27874023Y71075358D01*
X27869000Y71110293D01*
X27869000Y72492405D01*
X27888685Y72559444D01*
X27905314Y72580082D01*
X28954455Y73629223D01*
X29015776Y73662706D01*
X29061527Y73664013D01*
X29090019Y73659500D01*
X29090024Y73659500D01*
X29329986Y73659500D01*
X29566988Y73697038D01*
X29795205Y73771190D01*
X30009012Y73880131D01*
X30189156Y74011014D01*
X30254958Y74034492D01*
X30271769Y74034312D01*
X30277320Y74033875D01*
X30921000Y74677555D01*
X30921000Y74671339D01*
X30948259Y74569606D01*
X31000920Y74478394D01*
X31075394Y74403920D01*
X31166606Y74351259D01*
X31268339Y74324000D01*
X31274553Y74324000D01*
X30630873Y73680323D01*
X30630873Y73680322D01*
X30665858Y73654904D01*
X30841164Y73565582D01*
X31028294Y73504779D01*
X31222618Y73474000D01*
X31419382Y73474000D01*
X31613705Y73504779D01*
X31800835Y73565582D01*
X31976143Y73654905D01*
X32011125Y73680322D01*
X32011126Y73680322D01*
X31367448Y74324000D01*
X31373661Y74324000D01*
X31475394Y74351259D01*
X31566606Y74403920D01*
X31641080Y74478394D01*
X31693741Y74569606D01*
X31721000Y74671339D01*
X31721000Y74677553D01*
X32364678Y74033874D01*
X32364678Y74033875D01*
X32390095Y74068857D01*
X32479418Y74244165D01*
X32540221Y74431295D01*
X32571000Y74625618D01*
X32571000Y74822382D01*
X32555351Y74921181D01*
X32564305Y74990475D01*
X32609301Y75043927D01*
X32676053Y75064567D01*
X32743366Y75045843D01*
G37*
%TD.AperFunction*%
%TA.AperFunction,Conductor*%
G36*
X67250555Y48751815D02*
G01*
X67283833Y48720387D01*
X67417177Y48536855D01*
X67417178Y48536854D01*
X67417179Y48536853D01*
X67586860Y48367172D01*
X67647817Y48322885D01*
X67690483Y48267556D01*
X67696446Y48227106D01*
X68533503Y47390050D01*
X68527332Y47390050D01*
X68425586Y47362787D01*
X68334364Y47310120D01*
X68259880Y47235636D01*
X68207213Y47144414D01*
X68179950Y47042668D01*
X68179950Y47036497D01*
X67345885Y47870562D01*
X67283398Y47784554D01*
X67175066Y47571943D01*
X67175065Y47571940D01*
X67101329Y47345000D01*
X67064000Y47109312D01*
X67064000Y46870689D01*
X67101329Y46635001D01*
X67175065Y46408061D01*
X67175066Y46408058D01*
X67283402Y46195440D01*
X67345884Y46109440D01*
X67345886Y46109440D01*
X68179950Y46943504D01*
X68179950Y46937332D01*
X68207213Y46835586D01*
X68259880Y46744364D01*
X68334364Y46669880D01*
X68425586Y46617213D01*
X68527332Y46589950D01*
X68533503Y46589950D01*
X67699437Y45755887D01*
X67699438Y45755886D01*
X67785439Y45693403D01*
X67998057Y45585067D01*
X67998060Y45585066D01*
X68029622Y45574811D01*
X68087297Y45535374D01*
X68114496Y45471015D01*
X68102582Y45402169D01*
X68060196Y45353778D01*
X67969481Y45293164D01*
X66720835Y44044518D01*
X66637828Y43920288D01*
X66637824Y43920280D01*
X66590952Y43807120D01*
X66580650Y43782250D01*
X66580647Y43782242D01*
X66551500Y43635709D01*
X66551500Y43039493D01*
X66531815Y42972454D01*
X66500385Y42939175D01*
X66457573Y42908071D01*
X66457567Y42908066D01*
X66311930Y42762429D01*
X66311926Y42762424D01*
X66190871Y42595805D01*
X66150484Y42516541D01*
X66102510Y42465746D01*
X66034689Y42448951D01*
X65968554Y42471489D01*
X65929516Y42516541D01*
X65889128Y42595805D01*
X65768073Y42762424D01*
X65768069Y42762429D01*
X65622428Y42908070D01*
X65622423Y42908074D01*
X65455806Y43029127D01*
X65455805Y43029128D01*
X65455803Y43029129D01*
X65378618Y43068457D01*
X65272294Y43122633D01*
X65076408Y43186281D01*
X64900794Y43214095D01*
X64872981Y43218500D01*
X64667019Y43218500D01*
X64642550Y43214625D01*
X64463591Y43186281D01*
X64267705Y43122633D01*
X64084193Y43029127D01*
X63917576Y42908074D01*
X63917571Y42908070D01*
X63771930Y42762429D01*
X63771926Y42762424D01*
X63650871Y42595805D01*
X63605714Y42507180D01*
X63557740Y42456385D01*
X63489918Y42439590D01*
X63423784Y42462128D01*
X63384745Y42507182D01*
X63341861Y42591348D01*
X63309474Y42635923D01*
X63309474Y42635924D01*
X62630000Y41956449D01*
X62630000Y41962661D01*
X62602741Y42064394D01*
X62550080Y42155606D01*
X62475606Y42230080D01*
X62384394Y42282741D01*
X62282661Y42310000D01*
X62276446Y42310000D01*
X62955922Y42989476D01*
X62955921Y42989477D01*
X62911359Y43021853D01*
X62911350Y43021859D01*
X62729031Y43114756D01*
X62534417Y43177991D01*
X62332317Y43210000D01*
X62127683Y43210000D01*
X61925582Y43177991D01*
X61730968Y43114756D01*
X61548644Y43021857D01*
X61504077Y42989477D01*
X61504077Y42989476D01*
X62183554Y42310000D01*
X62177339Y42310000D01*
X62075606Y42282741D01*
X61984394Y42230080D01*
X61909920Y42155606D01*
X61857259Y42064394D01*
X61830000Y41962661D01*
X61830000Y41956447D01*
X61150524Y42635923D01*
X61150523Y42635923D01*
X61118143Y42591355D01*
X61118141Y42591352D01*
X61075253Y42507180D01*
X61027279Y42456385D01*
X60959457Y42439590D01*
X60893323Y42462128D01*
X60854284Y42507181D01*
X60809129Y42595803D01*
X60779980Y42635924D01*
X60688073Y42762424D01*
X60688069Y42762429D01*
X60598882Y42851616D01*
X60542430Y42908068D01*
X60495060Y42942484D01*
X60490833Y42946184D01*
X60474984Y42971117D01*
X60456949Y42994505D01*
X60455620Y43001579D01*
X60453351Y43005149D01*
X60453392Y43013444D01*
X60448500Y43039493D01*
X60448500Y45735457D01*
X60468185Y45802496D01*
X60484819Y45823138D01*
X61491862Y46830181D01*
X61553185Y46863666D01*
X61579543Y46866500D01*
X64844706Y46866500D01*
X64917976Y46881075D01*
X64917977Y46881075D01*
X64936419Y46884744D01*
X64991247Y46895649D01*
X65129284Y46952826D01*
X65253515Y47035834D01*
X65326993Y47109312D01*
X65419547Y47201865D01*
X66121163Y47903482D01*
X66121165Y47903484D01*
X66121166Y47903485D01*
X66204174Y48027716D01*
X66218836Y48063112D01*
X66241235Y48117190D01*
X66261351Y48165754D01*
X66261352Y48165761D01*
X66261354Y48165766D01*
X66290499Y48312291D01*
X66290500Y48312293D01*
X66290500Y48647500D01*
X66310185Y48714539D01*
X66362989Y48760294D01*
X66414500Y48771500D01*
X67183516Y48771500D01*
X67250555Y48751815D01*
G37*
%TD.AperFunction*%
%TA.AperFunction,Conductor*%
G36*
X70069920Y48746081D02*
G01*
X70104278Y48685242D01*
X70107500Y48657157D01*
X70107500Y47847434D01*
X70087815Y47780395D01*
X70035011Y47734640D01*
X69965853Y47724696D01*
X69902297Y47753721D01*
X69879481Y47780629D01*
X69879464Y47780616D01*
X69879296Y47780846D01*
X69877774Y47782642D01*
X69876598Y47784560D01*
X69814114Y47870562D01*
X69814113Y47870563D01*
X68980050Y47036497D01*
X68980050Y47042668D01*
X68952787Y47144414D01*
X68900120Y47235636D01*
X68825636Y47310120D01*
X68734414Y47362787D01*
X68632668Y47390050D01*
X68626495Y47390050D01*
X69464682Y48228236D01*
X69475812Y48281214D01*
X69512179Y48322883D01*
X69573145Y48367177D01*
X69742823Y48536855D01*
X69883182Y48730044D01*
X69938512Y48772708D01*
X70008125Y48778687D01*
X70069920Y48746081D01*
G37*
%TD.AperFunction*%
%TD*%
D33*
%TO.C,P3*%
X21089080Y88340600D02*
X21089080Y28499300D01*
X21089080Y28499300D02*
X21102370Y28234900D01*
X21102370Y88605000D02*
X21089080Y88340600D01*
X21102370Y28234900D02*
X21141270Y27978200D01*
X21141270Y88861700D02*
X21102370Y88605000D01*
X21141270Y27978200D02*
X21204670Y27730700D01*
X21204670Y89109200D02*
X21141270Y88861700D01*
X21204670Y27730700D02*
X21291170Y27493500D01*
X21291170Y89346400D02*
X21204670Y89109200D01*
X21291170Y27493500D02*
X21399470Y27268000D01*
X21399470Y89571900D02*
X21291170Y89346400D01*
X21399470Y27268000D02*
X21528370Y27055300D01*
X21528370Y89784600D02*
X21399470Y89571900D01*
X21528370Y27055300D02*
X21676670Y26856900D01*
X21676670Y89983000D02*
X21528370Y89784600D01*
X21676670Y26856900D02*
X21842870Y26673900D01*
X21842870Y90166000D02*
X21676670Y89983000D01*
X21842870Y26673900D02*
X22025870Y26507700D01*
X22025870Y90332200D02*
X21842870Y90166000D01*
X22025870Y26507700D02*
X22224270Y26359500D01*
X22224270Y90480400D02*
X22025870Y90332200D01*
X22224270Y26359500D02*
X22436970Y26230500D01*
X22436970Y90609400D02*
X22224270Y90480400D01*
X22436970Y26230500D02*
X22662470Y26122200D01*
X22662470Y90717700D02*
X22436970Y90609400D01*
X22662470Y26122200D02*
X22899670Y26035700D01*
X22899670Y90804200D02*
X22662470Y90717700D01*
X22899670Y26035700D02*
X23147170Y25972300D01*
X23147170Y90867600D02*
X22899670Y90804200D01*
X23147170Y25972300D02*
X23403870Y25933400D01*
X23403870Y90906500D02*
X23147170Y90867600D01*
X23403870Y25933400D02*
X23668270Y25920100D01*
X23668270Y90919800D02*
X23403870Y90906500D01*
X23668270Y25920100D02*
X28589370Y25920100D01*
X28589370Y95840900D02*
X28589370Y90919800D01*
X28589370Y90919800D02*
X23668270Y90919800D01*
X28589370Y25920100D02*
X28589370Y20999000D01*
X28589370Y20999000D02*
X28602670Y20734600D01*
X28602670Y96105300D02*
X28589370Y95840900D01*
X28602670Y20734600D02*
X28641570Y20477900D01*
X28641570Y96362000D02*
X28602670Y96105300D01*
X28641570Y20477900D02*
X28704970Y20230400D01*
X28704970Y96609500D02*
X28641570Y96362000D01*
X28704970Y20230400D02*
X28791470Y19993200D01*
X28791470Y96846700D02*
X28704970Y96609500D01*
X28791470Y19993200D02*
X28899770Y19767700D01*
X28899770Y97072200D02*
X28791470Y96846700D01*
X28899770Y19767700D02*
X29028770Y19555000D01*
X29028770Y97284900D02*
X28899770Y97072200D01*
X29028770Y19555000D02*
X29176970Y19356600D01*
X29176970Y97483300D02*
X29028770Y97284900D01*
X29176970Y19356600D02*
X29343170Y19173600D01*
X29343170Y97666300D02*
X29176970Y97483300D01*
X29343170Y19173600D02*
X29526170Y19007400D01*
X29526170Y97832500D02*
X29343170Y97666300D01*
X29526170Y19007400D02*
X29724570Y18859100D01*
X29724570Y97980800D02*
X29526170Y97832500D01*
X29724570Y18859100D02*
X29937270Y18730200D01*
X29937270Y98109700D02*
X29724570Y97980800D01*
X29937270Y18730200D02*
X30162770Y18621900D01*
X30162770Y98218000D02*
X29937270Y98109700D01*
X30162770Y18621900D02*
X30399970Y18535400D01*
X30399970Y98304500D02*
X30162770Y98218000D01*
X30399970Y18535400D02*
X30647470Y18472000D01*
X30647470Y98367900D02*
X30399970Y98304500D01*
X30647470Y18472000D02*
X30904170Y18433100D01*
X30904170Y98406800D02*
X30647470Y98367900D01*
X30904170Y18433100D02*
X31168570Y18419800D01*
X31168570Y98420090D02*
X30904170Y98406800D01*
X31168570Y98420090D02*
X31168570Y98420090D01*
X31168570Y98420090D02*
X31168570Y98420090D01*
X31168570Y18419800D02*
X91009870Y18419800D01*
X91009870Y98420090D02*
X31168570Y98420090D01*
X91009870Y18419800D02*
X91274270Y18433100D01*
X91274270Y98406800D02*
X91009870Y98420090D01*
X91274270Y18433100D02*
X91530970Y18472000D01*
X91530970Y98367900D02*
X91274270Y98406800D01*
X91530970Y18472000D02*
X91778470Y18535400D01*
X91778470Y98304500D02*
X91530970Y98367900D01*
X91778470Y18535400D02*
X92015670Y18621900D01*
X92015670Y98218000D02*
X91778470Y98304500D01*
X92015670Y18621900D02*
X92241170Y18730200D01*
X92241170Y98109700D02*
X92015670Y98218000D01*
X92241170Y18730200D02*
X92453870Y18859100D01*
X92453870Y97980800D02*
X92241170Y98109700D01*
X92453870Y18859100D02*
X92652270Y19007400D01*
X92652270Y97832500D02*
X92453870Y97980800D01*
X92652270Y19007400D02*
X92835270Y19173600D01*
X92835270Y97666300D02*
X92652270Y97832500D01*
X92835270Y19173600D02*
X93001470Y19356600D01*
X93001470Y97483300D02*
X92835270Y97666300D01*
X93001470Y19356600D02*
X93149670Y19555000D01*
X93149670Y97284900D02*
X93001470Y97483300D01*
X93149670Y19555000D02*
X93278670Y19767700D01*
X93278670Y97072200D02*
X93149670Y97284900D01*
X93278670Y19767700D02*
X93386970Y19993200D01*
X93386970Y96846700D02*
X93278670Y97072200D01*
X93386970Y19993200D02*
X93473470Y20230400D01*
X93473470Y96609500D02*
X93386970Y96846700D01*
X93473470Y20230400D02*
X93536870Y20477900D01*
X93536870Y96362000D02*
X93473470Y96609500D01*
X93536870Y20477900D02*
X93575770Y20734600D01*
X93575770Y96105300D02*
X93536870Y96362000D01*
X93575770Y20734600D02*
X93589070Y20999000D01*
X93589070Y95840900D02*
X93575770Y96105300D01*
X93589070Y90919800D02*
X93589070Y95840900D01*
X93589070Y25920100D02*
X98510170Y25920100D01*
X93589070Y20999000D02*
X93589070Y25920100D01*
X98510170Y90919800D02*
X93589070Y90919800D01*
X98510170Y25920100D02*
X98774570Y25933400D01*
X98774570Y90906500D02*
X98510170Y90919800D01*
X98774570Y25933400D02*
X99031270Y25972300D01*
X99031270Y90867600D02*
X98774570Y90906500D01*
X99031270Y25972300D02*
X99278770Y26035700D01*
X99278770Y90804200D02*
X99031270Y90867600D01*
X99278770Y26035700D02*
X99515970Y26122200D01*
X99515970Y90717700D02*
X99278770Y90804200D01*
X99515970Y26122200D02*
X99741470Y26230500D01*
X99741470Y90609400D02*
X99515970Y90717700D01*
X99741470Y26230500D02*
X99954170Y26359500D01*
X99954170Y90480400D02*
X99741470Y90609400D01*
X99954170Y26359500D02*
X100152570Y26507700D01*
X100152570Y90332200D02*
X99954170Y90480400D01*
X100152570Y26507700D02*
X100335570Y26673900D01*
X100335570Y90166000D02*
X100152570Y90332200D01*
X100335570Y26673900D02*
X100501770Y26856900D01*
X100501770Y89983000D02*
X100335570Y90166000D01*
X100501770Y26856900D02*
X100650070Y27055300D01*
X100650070Y89784600D02*
X100501770Y89983000D01*
X100650070Y27055300D02*
X100778970Y27268000D01*
X100778970Y89571900D02*
X100650070Y89784600D01*
X100778970Y27268000D02*
X100887270Y27493500D01*
X100887270Y89346400D02*
X100778970Y89571900D01*
X100887270Y27493500D02*
X100973770Y27730700D01*
X100973770Y89109200D02*
X100887270Y89346400D01*
X100973770Y27730700D02*
X101037170Y27978200D01*
X101037170Y88861700D02*
X100973770Y89109200D01*
X101037170Y27978200D02*
X101076070Y28234900D01*
X101076070Y88605000D02*
X101037170Y88861700D01*
X101076070Y28234900D02*
X101089370Y28499300D01*
X101089370Y88340600D02*
X101076070Y88605000D01*
X101089370Y28499300D02*
X101089370Y88340600D01*
%TD*%
M02*
