M48
; DRILL file {KiCad 9.0.3} date 2025-09-30T15:56:14+0100
; FORMAT={-:-/ absolute / inch / decimal}
; #@! TF.CreationDate,2025-09-30T15:56:14+01:00
; #@! TF.GenerationSoftware,Kicad,Pcbnew,9.0.3
; #@! TF.FileFunction,MixedPlating,1,2
FMAT,2
INCH
; #@! TA.AperFunction,Plated,PTH,ViaDrill
T1C0.0157
; #@! TA.AperFunction,Plated,PTH,ComponentDrill
T2C0.0295
; #@! TA.AperFunction,Plated,PTH,ComponentDrill
T3C0.0315
; #@! TA.AperFunction,Plated,PTH,ComponentDrill
T4C0.0315
; #@! TA.AperFunction,Plated,PTH,ComponentDrill
T5C0.0320
; #@! TA.AperFunction,Plated,PTH,ComponentDrill
T6C0.0394
; #@! TA.AperFunction,Plated,PTH,ComponentDrill
T7C0.0394
; #@! TA.AperFunction,Plated,PTH,ComponentDrill
T8C0.0433
; #@! TA.AperFunction,Plated,PTH,ComponentDrill
T9C0.0591
; #@! TA.AperFunction,NonPlated,NPTH,ComponentDrill
T10C0.1181
%
G90
G05
T1
X1.9Y2.38
X3.315Y1.45
X3.49Y1.285
T2
X1.5542Y3.23
X1.5542Y3.18
X1.5542Y3.13
T3
X1.2331Y3.1781
X1.2331Y3.0994
X1.2331Y3.0206
X1.2331Y2.9419
X1.85Y1.65
X1.85Y1.35
X1.95Y1.65
X1.95Y1.35
X2.05Y1.65
X2.05Y1.35
X2.15Y1.65
X2.15Y1.35
X2.25Y1.65
X2.25Y1.35
X2.3071Y1.95
X2.35Y1.65
X2.35Y1.35
X2.45Y1.65
X2.45Y1.35
X2.4993Y1.95
X2.55Y1.65
X2.55Y1.35
X2.65Y1.65
X2.65Y1.35
X2.75Y1.65
X2.75Y1.35
X2.85Y1.65
X2.85Y1.35
X2.95Y1.65
X2.95Y1.35
X3.05Y1.65
X3.05Y1.35
X3.15Y1.65
X3.15Y1.35
X3.6831Y3.1781
X3.6831Y3.0994
X3.6831Y3.0206
X3.6831Y2.9419
X3.7Y1.9787
X3.7Y1.9
X3.7Y1.8213
X3.7Y1.7425
T4
X1.42Y3.66
X1.42Y3.36
X1.45Y3.0
X1.45Y2.7
X1.55Y3.0
X1.55Y2.7
X1.6Y1.24
X1.7Y1.95
X1.9Y1.95
X1.9Y1.24
X2.1Y1.95
X2.1Y1.85
X2.3Y1.15
X2.5Y1.15
X2.7Y1.95
X2.7Y1.85
X3.1Y2.05
X3.15Y1.85
X3.35Y1.85
X3.4Y2.05
X3.4Y1.6
X3.4Y1.4
X3.55Y1.55
X3.55Y1.4
X3.85Y1.55
X3.85Y1.4
T5
X1.725Y0.98
X1.725Y0.88
X3.35Y3.115
X3.35Y3.015
X3.35Y2.915
T6
X1.2191Y1.0051
X1.2191Y0.828
X1.475Y1.0051
X1.475Y0.828
X1.8242Y3.325
X1.8242Y3.0297
X1.9574Y1.0051
X1.9574Y0.828
X2.2133Y1.0051
X2.2133Y0.828
X3.025Y3.325
X3.025Y3.0297
X3.25Y1.16
X3.35Y1.15
X3.45Y1.16
X3.55Y1.15
X3.65Y1.16
X3.75Y1.15
T7
X1.15Y3.36
X1.15Y3.16
X1.15Y2.96
X1.15Y2.76
X1.45Y1.6
X1.45Y1.5
X1.45Y1.4
X1.55Y1.6
X1.55Y1.5
X1.55Y1.4
X1.687Y2.635
X1.687Y2.535
X1.687Y2.435
X1.687Y2.335
X2.75Y1.05
X2.75Y0.95
X2.85Y1.05
X2.85Y0.95
X2.95Y1.05
X2.95Y0.95
X3.6Y3.36
X3.6Y3.16
X3.6Y2.96
X3.6Y2.76
T8
X1.58Y3.5603
X1.58Y3.4702
X1.58Y3.38
T9
X3.25Y2.6838
X3.25Y2.4838
X3.25Y2.2838
T10
X1.0352Y2.3
X2.4051Y3.6699
X2.4051Y0.9301
X3.775Y2.3
M30
