%TF.GenerationSoftware,KiCad,Pcbnew,9.0.3*%
%TF.CreationDate,2025-09-30T15:56:12+01:00*%
%TF.ProjectId,RS485 Device Connector PCB,52533438-3520-4446-9576-69636520436f,rev?*%
%TF.SameCoordinates,PX5734380PY7df6180*%
%TF.FileFunction,Soldermask,Top*%
%TF.FilePolarity,Negative*%
%FSLAX46Y46*%
G04 Gerber Fmt 4.6, Leading zero omitted, Abs format (unit mm)*
G04 Created by KiCad (PCBNEW 9.0.3) date 2025-09-30 15:56:12*
%MOMM*%
%LPD*%
G01*
G04 APERTURE LIST*
G04 Aperture macros list*
%AMRoundRect*
0 Rectangle with rounded corners*
0 $1 Rounding radius*
0 $2 $3 $4 $5 $6 $7 $8 $9 X,Y pos of 4 corners*
0 Add a 4 corners polygon primitive as box body*
4,1,4,$2,$3,$4,$5,$6,$7,$8,$9,$2,$3,0*
0 Add four circle primitives for the rounded corners*
1,1,$1+$1,$2,$3*
1,1,$1+$1,$4,$5*
1,1,$1+$1,$6,$7*
1,1,$1+$1,$8,$9*
0 Add four rect primitives between the rounded corners*
20,1,$1+$1,$2,$3,$4,$5,0*
20,1,$1+$1,$4,$5,$6,$7,0*
20,1,$1+$1,$6,$7,$8,$9,0*
20,1,$1+$1,$8,$9,$2,$3,0*%
G04 Aperture macros list end*
%ADD10C,0.010000*%
%ADD11C,3.000000*%
%ADD12R,3.000000X3.000000*%
%ADD13C,2.032000*%
%ADD14R,2.032000X2.032000*%
%ADD15C,1.600200*%
%ADD16R,1.500000X1.500000*%
%ADD17C,1.500000*%
%ADD18C,1.905000*%
%ADD19R,2.100580X2.100580*%
%ADD20C,2.199640*%
%ADD21R,3.000000X2.032000*%
%ADD22RoundRect,0.508000X-0.992000X0.508000X-0.992000X-0.508000X0.992000X-0.508000X0.992000X0.508000X0*%
%ADD23RoundRect,0.750000X-1.250000X-0.750000X1.250000X-0.750000X1.250000X0.750000X-1.250000X0.750000X0*%
%ADD24RoundRect,0.250000X-0.550000X0.550000X-0.550000X-0.550000X0.550000X-0.550000X0.550000X0.550000X0*%
%ADD25C,1.600000*%
%ADD26R,1.800000X1.717500*%
%ADD27O,1.800000X1.717500*%
%ADD28R,1.500000X1.050000*%
%ADD29O,1.500000X1.050000*%
%ADD30C,1.800000*%
%TA.AperFunction,Profile*%
%ADD31C,0.100000*%
%TD*%
G04 APERTURE END LIST*
D10*
%TO.C,P2*%
X75723384Y96943333D02*
X75729587Y96094778D01*
X75735791Y95246223D01*
X75785761Y95205778D01*
X75803648Y95193429D01*
X75826547Y95183873D01*
X75859707Y95176756D01*
X75908376Y95171724D01*
X75977801Y95168421D01*
X76073231Y95166491D01*
X76199914Y95165581D01*
X76363097Y95165335D01*
X76383719Y95165333D01*
X76931708Y95165333D01*
X76931708Y95927333D01*
X77045860Y95927333D01*
X77119499Y95923458D01*
X77159771Y95910359D01*
X77172860Y95893852D01*
X77177189Y95862145D01*
X77180896Y95796025D01*
X77183714Y95703414D01*
X77185375Y95592232D01*
X77185708Y95512852D01*
X77185708Y95165333D01*
X77651374Y95165333D01*
X77651374Y93683667D01*
X77185708Y93683667D01*
X77185708Y92583000D01*
X76931708Y92583000D01*
X76931708Y93683667D01*
X76318303Y93683667D01*
X76119168Y93684182D01*
X75957905Y93686181D01*
X75830059Y93690341D01*
X75731176Y93697340D01*
X75656801Y93707855D01*
X75602481Y93722566D01*
X75563760Y93742150D01*
X75536184Y93767285D01*
X75515299Y93798648D01*
X75511124Y93806523D01*
X75505359Y93824163D01*
X75500303Y93855007D01*
X75495895Y93901765D01*
X75492076Y93967147D01*
X75488786Y94053863D01*
X75485964Y94164624D01*
X75483552Y94302139D01*
X75481488Y94469119D01*
X75479714Y94668273D01*
X75478169Y94902312D01*
X75476793Y95173947D01*
X75475839Y95403458D01*
X75469887Y96943334D01*
X75596636Y96943334D01*
X75723384Y96943333D01*
G36*
X75723384Y96943333D02*
G01*
X75729587Y96094778D01*
X75735791Y95246223D01*
X75785761Y95205778D01*
X75803648Y95193429D01*
X75826547Y95183873D01*
X75859707Y95176756D01*
X75908376Y95171724D01*
X75977801Y95168421D01*
X76073231Y95166491D01*
X76199914Y95165581D01*
X76363097Y95165335D01*
X76383719Y95165333D01*
X76931708Y95165333D01*
X76931708Y95927333D01*
X77045860Y95927333D01*
X77119499Y95923458D01*
X77159771Y95910359D01*
X77172860Y95893852D01*
X77177189Y95862145D01*
X77180896Y95796025D01*
X77183714Y95703414D01*
X77185375Y95592232D01*
X77185708Y95512852D01*
X77185708Y95165333D01*
X77651374Y95165333D01*
X77651374Y93683667D01*
X77185708Y93683667D01*
X77185708Y92583000D01*
X76931708Y92583000D01*
X76931708Y93683667D01*
X76318303Y93683667D01*
X76119168Y93684182D01*
X75957905Y93686181D01*
X75830059Y93690341D01*
X75731176Y93697340D01*
X75656801Y93707855D01*
X75602481Y93722566D01*
X75563760Y93742150D01*
X75536184Y93767285D01*
X75515299Y93798648D01*
X75511124Y93806523D01*
X75505359Y93824163D01*
X75500303Y93855007D01*
X75495895Y93901765D01*
X75492076Y93967147D01*
X75488786Y94053863D01*
X75485964Y94164624D01*
X75483552Y94302139D01*
X75481488Y94469119D01*
X75479714Y94668273D01*
X75478169Y94902312D01*
X75476793Y95173947D01*
X75475839Y95403458D01*
X75469887Y96943334D01*
X75596636Y96943334D01*
X75723384Y96943333D01*
G37*
X83361376Y96260709D02*
X83355791Y95578083D01*
X83247399Y95571780D01*
X83182623Y95570016D01*
X83147909Y95577259D01*
X83131263Y95597690D01*
X83125980Y95614114D01*
X83122119Y95649106D01*
X83118685Y95719470D01*
X83115861Y95818242D01*
X83113829Y95938462D01*
X83112770Y96073167D01*
X83112663Y96123125D01*
X83112374Y96583500D01*
X82075208Y96583500D01*
X82075208Y94826667D01*
X82588499Y94825745D01*
X82777854Y94824805D01*
X82929834Y94822335D01*
X83049387Y94817728D01*
X83141463Y94810378D01*
X83211009Y94799677D01*
X83262973Y94785021D01*
X83302305Y94765802D01*
X83333952Y94741413D01*
X83342325Y94733362D01*
X83398124Y94677587D01*
X83404940Y93836669D01*
X83406733Y93593712D01*
X83407648Y93389341D01*
X83407395Y93219813D01*
X83405686Y93081385D01*
X83402230Y92970314D01*
X83396739Y92882855D01*
X83388923Y92815267D01*
X83378492Y92763806D01*
X83365159Y92724729D01*
X83348632Y92694292D01*
X83328623Y92668753D01*
X83313434Y92652826D01*
X83243607Y92583000D01*
X82262533Y92583312D01*
X82015158Y92583690D01*
X81807325Y92584702D01*
X81636245Y92586418D01*
X81499128Y92588910D01*
X81393186Y92592250D01*
X81315631Y92596510D01*
X81263674Y92601760D01*
X81234526Y92608072D01*
X81230581Y92609771D01*
X81181826Y92645584D01*
X81135631Y92695220D01*
X81135331Y92695622D01*
X81121313Y92716747D01*
X81110482Y92741395D01*
X81102339Y92775169D01*
X81096383Y92823672D01*
X81092113Y92892507D01*
X81089029Y92987276D01*
X81086631Y93113584D01*
X81084585Y93263650D01*
X81083069Y93441602D01*
X81083570Y93580340D01*
X81086195Y93682939D01*
X81091049Y93752475D01*
X81098237Y93792023D01*
X81103051Y93801904D01*
X81140956Y93821776D01*
X81204893Y93831467D01*
X81221073Y93831833D01*
X81265778Y93829367D01*
X81299333Y93818453D01*
X81323328Y93793815D01*
X81339348Y93750178D01*
X81348981Y93682270D01*
X81353815Y93584813D01*
X81355436Y93452535D01*
X81355541Y93384993D01*
X81355772Y93258130D01*
X81357095Y93166516D01*
X81360452Y93103065D01*
X81366787Y93060693D01*
X81377044Y93032315D01*
X81392165Y93010846D01*
X81407495Y92994788D01*
X81459450Y92942833D01*
X83029632Y92942833D01*
X83080184Y92993385D01*
X83120586Y93051496D01*
X83144062Y93115094D01*
X83147407Y93155089D01*
X83149939Y93230937D01*
X83151589Y93336165D01*
X83152287Y93464299D01*
X83151967Y93608865D01*
X83150757Y93747167D01*
X83148338Y93926659D01*
X83145244Y94068686D01*
X83140627Y94178117D01*
X83133640Y94259822D01*
X83123436Y94318667D01*
X83109167Y94359522D01*
X83089986Y94387256D01*
X83065046Y94406736D01*
X83033500Y94422832D01*
X83033144Y94422994D01*
X82996923Y94429354D01*
X82918578Y94434676D01*
X82798306Y94438956D01*
X82636304Y94442189D01*
X82432768Y94444372D01*
X82187897Y94445498D01*
X82031878Y94445667D01*
X81080374Y94445667D01*
X81080374Y96943333D01*
X82223667Y96943334D01*
X83366961Y96943334D01*
X83361376Y96260709D01*
G36*
X83361376Y96260709D02*
G01*
X83355791Y95578083D01*
X83247399Y95571780D01*
X83182623Y95570016D01*
X83147909Y95577259D01*
X83131263Y95597690D01*
X83125980Y95614114D01*
X83122119Y95649106D01*
X83118685Y95719470D01*
X83115861Y95818242D01*
X83113829Y95938462D01*
X83112770Y96073167D01*
X83112663Y96123125D01*
X83112374Y96583500D01*
X82075208Y96583500D01*
X82075208Y94826667D01*
X82588499Y94825745D01*
X82777854Y94824805D01*
X82929834Y94822335D01*
X83049387Y94817728D01*
X83141463Y94810378D01*
X83211009Y94799677D01*
X83262973Y94785021D01*
X83302305Y94765802D01*
X83333952Y94741413D01*
X83342325Y94733362D01*
X83398124Y94677587D01*
X83404940Y93836669D01*
X83406733Y93593712D01*
X83407648Y93389341D01*
X83407395Y93219813D01*
X83405686Y93081385D01*
X83402230Y92970314D01*
X83396739Y92882855D01*
X83388923Y92815267D01*
X83378492Y92763806D01*
X83365159Y92724729D01*
X83348632Y92694292D01*
X83328623Y92668753D01*
X83313434Y92652826D01*
X83243607Y92583000D01*
X82262533Y92583312D01*
X82015158Y92583690D01*
X81807325Y92584702D01*
X81636245Y92586418D01*
X81499128Y92588910D01*
X81393186Y92592250D01*
X81315631Y92596510D01*
X81263674Y92601760D01*
X81234526Y92608072D01*
X81230581Y92609771D01*
X81181826Y92645584D01*
X81135631Y92695220D01*
X81135331Y92695622D01*
X81121313Y92716747D01*
X81110482Y92741395D01*
X81102339Y92775169D01*
X81096383Y92823672D01*
X81092113Y92892507D01*
X81089029Y92987276D01*
X81086631Y93113584D01*
X81084585Y93263650D01*
X81083069Y93441602D01*
X81083570Y93580340D01*
X81086195Y93682939D01*
X81091049Y93752475D01*
X81098237Y93792023D01*
X81103051Y93801904D01*
X81140956Y93821776D01*
X81204893Y93831467D01*
X81221073Y93831833D01*
X81265778Y93829367D01*
X81299333Y93818453D01*
X81323328Y93793815D01*
X81339348Y93750178D01*
X81348981Y93682270D01*
X81353815Y93584813D01*
X81355436Y93452535D01*
X81355541Y93384993D01*
X81355772Y93258130D01*
X81357095Y93166516D01*
X81360452Y93103065D01*
X81366787Y93060693D01*
X81377044Y93032315D01*
X81392165Y93010846D01*
X81407495Y92994788D01*
X81459450Y92942833D01*
X83029632Y92942833D01*
X83080184Y92993385D01*
X83120586Y93051496D01*
X83144062Y93115094D01*
X83147407Y93155089D01*
X83149939Y93230937D01*
X83151589Y93336165D01*
X83152287Y93464299D01*
X83151967Y93608865D01*
X83150757Y93747167D01*
X83148338Y93926659D01*
X83145244Y94068686D01*
X83140627Y94178117D01*
X83133640Y94259822D01*
X83123436Y94318667D01*
X83109167Y94359522D01*
X83089986Y94387256D01*
X83065046Y94406736D01*
X83033500Y94422832D01*
X83033144Y94422994D01*
X82996923Y94429354D01*
X82918578Y94434676D01*
X82798306Y94438956D01*
X82636304Y94442189D01*
X82432768Y94444372D01*
X82187897Y94445498D01*
X82031878Y94445667D01*
X81080374Y94445667D01*
X81080374Y96943333D01*
X82223667Y96943334D01*
X83366961Y96943334D01*
X83361376Y96260709D01*
G37*
X69391083Y96832922D02*
X69670319Y96831702D01*
X69910374Y96830520D01*
X70114399Y96829275D01*
X70285546Y96827862D01*
X70426967Y96826177D01*
X70541813Y96824118D01*
X70633236Y96821581D01*
X70704387Y96818463D01*
X70758419Y96814659D01*
X70798483Y96810066D01*
X70827730Y96804582D01*
X70849313Y96798101D01*
X70866382Y96790522D01*
X70878041Y96784099D01*
X70941854Y96730310D01*
X70995794Y96654869D01*
X70999749Y96647323D01*
X71011469Y96623331D01*
X71021088Y96599201D01*
X71028815Y96570717D01*
X71034858Y96533662D01*
X71039422Y96483821D01*
X71042715Y96416976D01*
X71044945Y96328911D01*
X71046318Y96215410D01*
X71047043Y96072256D01*
X71047326Y95895232D01*
X71047374Y95680123D01*
X71047374Y95678381D01*
X71047276Y95454736D01*
X71046724Y95269403D01*
X71045332Y95118362D01*
X71042714Y94997592D01*
X71038483Y94903071D01*
X71032253Y94830778D01*
X71023637Y94776693D01*
X71012251Y94736794D01*
X70997706Y94707061D01*
X70979618Y94683473D01*
X70957599Y94662008D01*
X70949000Y94654348D01*
X70901041Y94625887D01*
X70838699Y94604478D01*
X70835708Y94603816D01*
X70761624Y94587919D01*
X70858497Y94559556D01*
X70899758Y94547991D01*
X70934116Y94537127D01*
X70962225Y94523247D01*
X70984738Y94502631D01*
X71002310Y94471561D01*
X71015594Y94426318D01*
X71025245Y94363184D01*
X71031917Y94278439D01*
X71036264Y94168365D01*
X71038939Y94029244D01*
X71040598Y93857357D01*
X71041894Y93648984D01*
X71042723Y93512130D01*
X71048654Y92583000D01*
X70666374Y92583000D01*
X70666374Y93386338D01*
X70665770Y93630209D01*
X70663945Y93832429D01*
X70660881Y93993665D01*
X70656559Y94114582D01*
X70650962Y94195845D01*
X70644071Y94238120D01*
X70642873Y94241253D01*
X70628091Y94268482D01*
X70608205Y94290198D01*
X70578640Y94307020D01*
X70534818Y94319566D01*
X70472163Y94328455D01*
X70386097Y94334307D01*
X70272045Y94337741D01*
X70125430Y94339375D01*
X69941674Y94339829D01*
X69913962Y94339833D01*
X69311708Y94339833D01*
X69311708Y92583000D01*
X67978208Y92583000D01*
X67978208Y94826667D01*
X69311708Y94826667D01*
X69888499Y94826785D01*
X70048917Y94827597D01*
X70197102Y94829832D01*
X70326900Y94833288D01*
X70432153Y94837761D01*
X70506705Y94843050D01*
X70542232Y94848274D01*
X70576637Y94859426D01*
X70604138Y94874672D01*
X70625448Y94898446D01*
X70641280Y94935181D01*
X70652347Y94989309D01*
X70659362Y95065265D01*
X70663038Y95167479D01*
X70664088Y95300386D01*
X70663224Y95468417D01*
X70662031Y95593153D01*
X70660034Y95770061D01*
X70657879Y95909539D01*
X70655214Y96016488D01*
X70651687Y96095812D01*
X70646948Y96152413D01*
X70640645Y96191194D01*
X70632425Y96217056D01*
X70621939Y96234902D01*
X70615469Y96242647D01*
X70602641Y96255338D01*
X70586582Y96265356D01*
X70562524Y96273016D01*
X70525700Y96278636D01*
X70471344Y96282530D01*
X70394688Y96285014D01*
X70290967Y96286404D01*
X70155414Y96287015D01*
X69983262Y96287165D01*
X69943427Y96287167D01*
X69311708Y96287167D01*
X69311708Y94826667D01*
X67978208Y94826667D01*
X67978208Y96287167D01*
X67978208Y96838927D01*
X69391083Y96832922D01*
G36*
X69391083Y96832922D02*
G01*
X69670319Y96831702D01*
X69910374Y96830520D01*
X70114399Y96829275D01*
X70285546Y96827862D01*
X70426967Y96826177D01*
X70541813Y96824118D01*
X70633236Y96821581D01*
X70704387Y96818463D01*
X70758419Y96814659D01*
X70798483Y96810066D01*
X70827730Y96804582D01*
X70849313Y96798101D01*
X70866382Y96790522D01*
X70878041Y96784099D01*
X70941854Y96730310D01*
X70995794Y96654869D01*
X70999749Y96647323D01*
X71011469Y96623331D01*
X71021088Y96599201D01*
X71028815Y96570717D01*
X71034858Y96533662D01*
X71039422Y96483821D01*
X71042715Y96416976D01*
X71044945Y96328911D01*
X71046318Y96215410D01*
X71047043Y96072256D01*
X71047326Y95895232D01*
X71047374Y95680123D01*
X71047374Y95678381D01*
X71047276Y95454736D01*
X71046724Y95269403D01*
X71045332Y95118362D01*
X71042714Y94997592D01*
X71038483Y94903071D01*
X71032253Y94830778D01*
X71023637Y94776693D01*
X71012251Y94736794D01*
X70997706Y94707061D01*
X70979618Y94683473D01*
X70957599Y94662008D01*
X70949000Y94654348D01*
X70901041Y94625887D01*
X70838699Y94604478D01*
X70835708Y94603816D01*
X70761624Y94587919D01*
X70858497Y94559556D01*
X70899758Y94547991D01*
X70934116Y94537127D01*
X70962225Y94523247D01*
X70984738Y94502631D01*
X71002310Y94471561D01*
X71015594Y94426318D01*
X71025245Y94363184D01*
X71031917Y94278439D01*
X71036264Y94168365D01*
X71038939Y94029244D01*
X71040598Y93857357D01*
X71041894Y93648984D01*
X71042723Y93512130D01*
X71048654Y92583000D01*
X70666374Y92583000D01*
X70666374Y93386338D01*
X70665770Y93630209D01*
X70663945Y93832429D01*
X70660881Y93993665D01*
X70656559Y94114582D01*
X70650962Y94195845D01*
X70644071Y94238120D01*
X70642873Y94241253D01*
X70628091Y94268482D01*
X70608205Y94290198D01*
X70578640Y94307020D01*
X70534818Y94319566D01*
X70472163Y94328455D01*
X70386097Y94334307D01*
X70272045Y94337741D01*
X70125430Y94339375D01*
X69941674Y94339829D01*
X69913962Y94339833D01*
X69311708Y94339833D01*
X69311708Y92583000D01*
X67978208Y92583000D01*
X67978208Y94826667D01*
X69311708Y94826667D01*
X69888499Y94826785D01*
X70048917Y94827597D01*
X70197102Y94829832D01*
X70326900Y94833288D01*
X70432153Y94837761D01*
X70506705Y94843050D01*
X70542232Y94848274D01*
X70576637Y94859426D01*
X70604138Y94874672D01*
X70625448Y94898446D01*
X70641280Y94935181D01*
X70652347Y94989309D01*
X70659362Y95065265D01*
X70663038Y95167479D01*
X70664088Y95300386D01*
X70663224Y95468417D01*
X70662031Y95593153D01*
X70660034Y95770061D01*
X70657879Y95909539D01*
X70655214Y96016488D01*
X70651687Y96095812D01*
X70646948Y96152413D01*
X70640645Y96191194D01*
X70632425Y96217056D01*
X70621939Y96234902D01*
X70615469Y96242647D01*
X70602641Y96255338D01*
X70586582Y96265356D01*
X70562524Y96273016D01*
X70525700Y96278636D01*
X70471344Y96282530D01*
X70394688Y96285014D01*
X70290967Y96286404D01*
X70155414Y96287015D01*
X69983262Y96287165D01*
X69943427Y96287167D01*
X69311708Y96287167D01*
X69311708Y94826667D01*
X67978208Y94826667D01*
X67978208Y96287167D01*
X67978208Y96838927D01*
X69391083Y96832922D01*
G37*
X79554823Y96943209D02*
X79750773Y96942605D01*
X79911996Y96941022D01*
X80042294Y96937992D01*
X80145470Y96933049D01*
X80225327Y96925726D01*
X80285668Y96915555D01*
X80330295Y96902069D01*
X80363011Y96884802D01*
X80387620Y96863287D01*
X80407924Y96837056D01*
X80426627Y96807444D01*
X80436812Y96788414D01*
X80445101Y96765205D01*
X80451686Y96733542D01*
X80456764Y96689153D01*
X80460529Y96627766D01*
X80463175Y96545106D01*
X80464897Y96436902D01*
X80465889Y96298879D01*
X80466346Y96126765D01*
X80466462Y95932625D01*
X80466557Y95718488D01*
X80466309Y95542673D01*
X80464982Y95401173D01*
X80461842Y95289978D01*
X80456157Y95205081D01*
X80447190Y95142472D01*
X80434209Y95098144D01*
X80416479Y95068087D01*
X80393267Y95048292D01*
X80363837Y95034752D01*
X80327456Y95023458D01*
X80298421Y95015030D01*
X80245644Y94996006D01*
X80215363Y94978871D01*
X80212541Y94974188D01*
X80231224Y94961774D01*
X80277944Y94949026D01*
X80297505Y94945491D01*
X80363573Y94926222D01*
X80417465Y94896147D01*
X80424505Y94889869D01*
X80434074Y94879054D01*
X80442069Y94864993D01*
X80448632Y94844055D01*
X80453904Y94812608D01*
X80458026Y94767023D01*
X80461139Y94703668D01*
X80463385Y94618912D01*
X80464904Y94509125D01*
X80465838Y94370674D01*
X80466328Y94199930D01*
X80466515Y93993262D01*
X80466541Y93808641D01*
X80466421Y93569256D01*
X80465983Y93368579D01*
X80465115Y93202983D01*
X80463702Y93068844D01*
X80461628Y92962535D01*
X80458780Y92880432D01*
X80455044Y92818908D01*
X80450306Y92774338D01*
X80444450Y92743097D01*
X80437362Y92721559D01*
X80431922Y92710843D01*
X80414484Y92681744D01*
X80397052Y92657433D01*
X80375887Y92637479D01*
X80347248Y92621453D01*
X80307396Y92608926D01*
X80252589Y92599466D01*
X80179088Y92592645D01*
X80083153Y92588033D01*
X79961043Y92585199D01*
X79809019Y92583714D01*
X79623341Y92583148D01*
X79400267Y92583071D01*
X79320275Y92583079D01*
X79093393Y92583161D01*
X78904942Y92583475D01*
X78751020Y92584183D01*
X78627723Y92585447D01*
X78531150Y92587429D01*
X78457397Y92590292D01*
X78402563Y92594197D01*
X78362744Y92599307D01*
X78334039Y92605784D01*
X78312544Y92613789D01*
X78294358Y92623487D01*
X78290392Y92625876D01*
X78261272Y92644308D01*
X78236822Y92663518D01*
X78216633Y92687157D01*
X78200299Y92718880D01*
X78187410Y92762337D01*
X78177558Y92821181D01*
X78170336Y92899066D01*
X78165334Y92999642D01*
X78162146Y93126563D01*
X78160363Y93283482D01*
X78159577Y93474049D01*
X78159380Y93701919D01*
X78159374Y93798408D01*
X78159759Y94056776D01*
X78160945Y94274720D01*
X78162944Y94451339D01*
X78455708Y94451339D01*
X78457574Y94319950D01*
X78464499Y94223998D01*
X78478469Y94156697D01*
X78501471Y94111260D01*
X78535491Y94080903D01*
X78569097Y94064087D01*
X78600312Y94059847D01*
X78668698Y94056189D01*
X78769095Y94053206D01*
X78896344Y94050991D01*
X79045284Y94049638D01*
X79210757Y94049239D01*
X79362435Y94049732D01*
X80110413Y94054083D01*
X80161477Y94113472D01*
X80183190Y94141475D01*
X80197696Y94171384D01*
X80206438Y94212057D01*
X80210858Y94272350D01*
X80212398Y94361121D01*
X80212541Y94427072D01*
X80210619Y94554621D01*
X80203733Y94647535D01*
X80190197Y94713384D01*
X80168328Y94759739D01*
X80136443Y94794171D01*
X80129708Y94799535D01*
X80108258Y94806830D01*
X80062764Y94812788D01*
X79990270Y94817507D01*
X79887820Y94821084D01*
X79752458Y94823618D01*
X79581227Y94825205D01*
X79371172Y94825942D01*
X79327870Y94825994D01*
X78559617Y94826667D01*
X78507662Y94774712D01*
X78486264Y94751180D01*
X78471721Y94725636D01*
X78462714Y94689867D01*
X78457923Y94635658D01*
X78456028Y94554794D01*
X78455708Y94451339D01*
X78162944Y94451339D01*
X78162976Y94454144D01*
X78165897Y94596952D01*
X78169753Y94705045D01*
X78174588Y94780329D01*
X78180448Y94824705D01*
X78183796Y94835942D01*
X78219961Y94878689D01*
X78284384Y94923609D01*
X78364243Y94962664D01*
X78412832Y94979533D01*
X78413090Y94989043D01*
X78379801Y95003554D01*
X78345657Y95013356D01*
X78258535Y95048351D01*
X78202607Y95094914D01*
X78191161Y95110512D01*
X78181897Y95128108D01*
X78174623Y95151969D01*
X78169145Y95186362D01*
X78165271Y95235554D01*
X78162809Y95303810D01*
X78161566Y95395397D01*
X78161348Y95514582D01*
X78161964Y95665631D01*
X78163220Y95852811D01*
X78163948Y95950744D01*
X78165574Y96156038D01*
X78167220Y96323284D01*
X78169098Y96454140D01*
X78455708Y96454140D01*
X78456381Y95857362D01*
X78456754Y95676909D01*
X78457866Y95533934D01*
X78460384Y95423583D01*
X78464977Y95340999D01*
X78472311Y95281329D01*
X78483055Y95239718D01*
X78497876Y95211309D01*
X78517443Y95191249D01*
X78542423Y95174681D01*
X78550958Y95169732D01*
X78580712Y95162414D01*
X78643223Y95156446D01*
X78740277Y95151772D01*
X78873662Y95148336D01*
X79045163Y95146081D01*
X79256567Y95144951D01*
X79341044Y95144810D01*
X80088797Y95144167D01*
X80150669Y95206039D01*
X80212541Y95267910D01*
X80212541Y96454140D01*
X80161457Y96513528D01*
X80110373Y96572917D01*
X78557875Y96572917D01*
X78506791Y96513528D01*
X78455708Y96454140D01*
X78169098Y96454140D01*
X78169136Y96456766D01*
X78171571Y96560769D01*
X78174773Y96639576D01*
X78178991Y96697474D01*
X78184473Y96738745D01*
X78191468Y96767675D01*
X78200225Y96788548D01*
X78210993Y96805649D01*
X78213795Y96809519D01*
X78236959Y96840349D01*
X78259780Y96866035D01*
X78286144Y96887047D01*
X78319934Y96903854D01*
X78365035Y96916926D01*
X78425331Y96926733D01*
X78504707Y96933745D01*
X78607046Y96938430D01*
X78736234Y96941258D01*
X78896154Y96942700D01*
X79090690Y96943224D01*
X79320342Y96943301D01*
X79554823Y96943209D01*
G36*
X79554823Y96943209D02*
G01*
X79750773Y96942605D01*
X79911996Y96941022D01*
X80042294Y96937992D01*
X80145470Y96933049D01*
X80225327Y96925726D01*
X80285668Y96915555D01*
X80330295Y96902069D01*
X80363011Y96884802D01*
X80387620Y96863287D01*
X80407924Y96837056D01*
X80426627Y96807444D01*
X80436812Y96788414D01*
X80445101Y96765205D01*
X80451686Y96733542D01*
X80456764Y96689153D01*
X80460529Y96627766D01*
X80463175Y96545106D01*
X80464897Y96436902D01*
X80465889Y96298879D01*
X80466346Y96126765D01*
X80466462Y95932625D01*
X80466557Y95718488D01*
X80466309Y95542673D01*
X80464982Y95401173D01*
X80461842Y95289978D01*
X80456157Y95205081D01*
X80447190Y95142472D01*
X80434209Y95098144D01*
X80416479Y95068087D01*
X80393267Y95048292D01*
X80363837Y95034752D01*
X80327456Y95023458D01*
X80298421Y95015030D01*
X80245644Y94996006D01*
X80215363Y94978871D01*
X80212541Y94974188D01*
X80231224Y94961774D01*
X80277944Y94949026D01*
X80297505Y94945491D01*
X80363573Y94926222D01*
X80417465Y94896147D01*
X80424505Y94889869D01*
X80434074Y94879054D01*
X80442069Y94864993D01*
X80448632Y94844055D01*
X80453904Y94812608D01*
X80458026Y94767023D01*
X80461139Y94703668D01*
X80463385Y94618912D01*
X80464904Y94509125D01*
X80465838Y94370674D01*
X80466328Y94199930D01*
X80466515Y93993262D01*
X80466541Y93808641D01*
X80466421Y93569256D01*
X80465983Y93368579D01*
X80465115Y93202983D01*
X80463702Y93068844D01*
X80461628Y92962535D01*
X80458780Y92880432D01*
X80455044Y92818908D01*
X80450306Y92774338D01*
X80444450Y92743097D01*
X80437362Y92721559D01*
X80431922Y92710843D01*
X80414484Y92681744D01*
X80397052Y92657433D01*
X80375887Y92637479D01*
X80347248Y92621453D01*
X80307396Y92608926D01*
X80252589Y92599466D01*
X80179088Y92592645D01*
X80083153Y92588033D01*
X79961043Y92585199D01*
X79809019Y92583714D01*
X79623341Y92583148D01*
X79400267Y92583071D01*
X79320275Y92583079D01*
X79093393Y92583161D01*
X78904942Y92583475D01*
X78751020Y92584183D01*
X78627723Y92585447D01*
X78531150Y92587429D01*
X78457397Y92590292D01*
X78402563Y92594197D01*
X78362744Y92599307D01*
X78334039Y92605784D01*
X78312544Y92613789D01*
X78294358Y92623487D01*
X78290392Y92625876D01*
X78261272Y92644308D01*
X78236822Y92663518D01*
X78216633Y92687157D01*
X78200299Y92718880D01*
X78187410Y92762337D01*
X78177558Y92821181D01*
X78170336Y92899066D01*
X78165334Y92999642D01*
X78162146Y93126563D01*
X78160363Y93283482D01*
X78159577Y93474049D01*
X78159380Y93701919D01*
X78159374Y93798408D01*
X78159759Y94056776D01*
X78160945Y94274720D01*
X78162944Y94451339D01*
X78455708Y94451339D01*
X78457574Y94319950D01*
X78464499Y94223998D01*
X78478469Y94156697D01*
X78501471Y94111260D01*
X78535491Y94080903D01*
X78569097Y94064087D01*
X78600312Y94059847D01*
X78668698Y94056189D01*
X78769095Y94053206D01*
X78896344Y94050991D01*
X79045284Y94049638D01*
X79210757Y94049239D01*
X79362435Y94049732D01*
X80110413Y94054083D01*
X80161477Y94113472D01*
X80183190Y94141475D01*
X80197696Y94171384D01*
X80206438Y94212057D01*
X80210858Y94272350D01*
X80212398Y94361121D01*
X80212541Y94427072D01*
X80210619Y94554621D01*
X80203733Y94647535D01*
X80190197Y94713384D01*
X80168328Y94759739D01*
X80136443Y94794171D01*
X80129708Y94799535D01*
X80108258Y94806830D01*
X80062764Y94812788D01*
X79990270Y94817507D01*
X79887820Y94821084D01*
X79752458Y94823618D01*
X79581227Y94825205D01*
X79371172Y94825942D01*
X79327870Y94825994D01*
X78559617Y94826667D01*
X78507662Y94774712D01*
X78486264Y94751180D01*
X78471721Y94725636D01*
X78462714Y94689867D01*
X78457923Y94635658D01*
X78456028Y94554794D01*
X78455708Y94451339D01*
X78162944Y94451339D01*
X78162976Y94454144D01*
X78165897Y94596952D01*
X78169753Y94705045D01*
X78174588Y94780329D01*
X78180448Y94824705D01*
X78183796Y94835942D01*
X78219961Y94878689D01*
X78284384Y94923609D01*
X78364243Y94962664D01*
X78412832Y94979533D01*
X78413090Y94989043D01*
X78379801Y95003554D01*
X78345657Y95013356D01*
X78258535Y95048351D01*
X78202607Y95094914D01*
X78191161Y95110512D01*
X78181897Y95128108D01*
X78174623Y95151969D01*
X78169145Y95186362D01*
X78165271Y95235554D01*
X78162809Y95303810D01*
X78161566Y95395397D01*
X78161348Y95514582D01*
X78161964Y95665631D01*
X78163220Y95852811D01*
X78163948Y95950744D01*
X78165574Y96156038D01*
X78167220Y96323284D01*
X78169098Y96454140D01*
X78455708Y96454140D01*
X78456381Y95857362D01*
X78456754Y95676909D01*
X78457866Y95533934D01*
X78460384Y95423583D01*
X78464977Y95340999D01*
X78472311Y95281329D01*
X78483055Y95239718D01*
X78497876Y95211309D01*
X78517443Y95191249D01*
X78542423Y95174681D01*
X78550958Y95169732D01*
X78580712Y95162414D01*
X78643223Y95156446D01*
X78740277Y95151772D01*
X78873662Y95148336D01*
X79045163Y95146081D01*
X79256567Y95144951D01*
X79341044Y95144810D01*
X80088797Y95144167D01*
X80150669Y95206039D01*
X80212541Y95267910D01*
X80212541Y96454140D01*
X80161457Y96513528D01*
X80110373Y96572917D01*
X78557875Y96572917D01*
X78506791Y96513528D01*
X78455708Y96454140D01*
X78169098Y96454140D01*
X78169136Y96456766D01*
X78171571Y96560769D01*
X78174773Y96639576D01*
X78178991Y96697474D01*
X78184473Y96738745D01*
X78191468Y96767675D01*
X78200225Y96788548D01*
X78210993Y96805649D01*
X78213795Y96809519D01*
X78236959Y96840349D01*
X78259780Y96866035D01*
X78286144Y96887047D01*
X78319934Y96903854D01*
X78365035Y96916926D01*
X78425331Y96926733D01*
X78504707Y96933745D01*
X78607046Y96938430D01*
X78736234Y96941258D01*
X78896154Y96942700D01*
X79090690Y96943224D01*
X79320342Y96943301D01*
X79554823Y96943209D01*
G37*
X73591654Y96826910D02*
X73831906Y96826693D01*
X74036105Y96825969D01*
X74207390Y96824442D01*
X74348899Y96821815D01*
X74463774Y96817793D01*
X74555153Y96812078D01*
X74626177Y96804374D01*
X74679984Y96794386D01*
X74719715Y96781816D01*
X74748509Y96766369D01*
X74769505Y96747748D01*
X74785844Y96725657D01*
X74800666Y96699799D01*
X74808301Y96685709D01*
X74821071Y96657497D01*
X74830947Y96621713D01*
X74838414Y96572488D01*
X74843960Y96503954D01*
X74848069Y96410241D01*
X74851230Y96285480D01*
X74853726Y96137700D01*
X74855670Y95979712D01*
X74856090Y95858889D01*
X74854736Y95770082D01*
X74851360Y95708142D01*
X74845711Y95667921D01*
X74837538Y95644269D01*
X74829269Y95634025D01*
X74785364Y95618826D01*
X74703821Y95613076D01*
X74642374Y95614158D01*
X74486958Y95620417D01*
X74476213Y95885000D01*
X74469594Y95998784D01*
X74460158Y96094849D01*
X74448942Y96164523D01*
X74438922Y96196282D01*
X74401470Y96232690D01*
X74343788Y96261695D01*
X74333250Y96264956D01*
X74292256Y96270345D01*
X74214422Y96274990D01*
X74105236Y96278889D01*
X73970184Y96282043D01*
X73814753Y96284451D01*
X73644428Y96286114D01*
X73464697Y96287030D01*
X73281046Y96287200D01*
X73098962Y96286623D01*
X72923930Y96285299D01*
X72761438Y96283227D01*
X72616973Y96280408D01*
X72496020Y96276841D01*
X72404066Y96272526D01*
X72346598Y96267462D01*
X72333873Y96265060D01*
X72290449Y96251517D01*
X72256800Y96234530D01*
X72231681Y96208960D01*
X72213847Y96169667D01*
X72202054Y96111514D01*
X72195056Y96029361D01*
X72191610Y95918070D01*
X72190469Y95772504D01*
X72190374Y95672669D01*
X72191029Y95505231D01*
X72193145Y95375846D01*
X72196951Y95280252D01*
X72202677Y95214187D01*
X72210551Y95173388D01*
X72218087Y95156692D01*
X72255202Y95129490D01*
X72315294Y95106427D01*
X72339795Y95100651D01*
X72378716Y95097157D01*
X72455639Y95093848D01*
X72566235Y95090795D01*
X72706174Y95088063D01*
X72871126Y95085722D01*
X73056760Y95083838D01*
X73258746Y95082479D01*
X73472755Y95081713D01*
X73559538Y95081589D01*
X73798124Y95081015D01*
X74017103Y95079739D01*
X74213241Y95077818D01*
X74383304Y95075309D01*
X74524059Y95072272D01*
X74632272Y95068764D01*
X74704709Y95064843D01*
X74738136Y95060567D01*
X74738473Y95060445D01*
X74788423Y95028040D01*
X74829809Y94982001D01*
X74838398Y94966598D01*
X74845598Y94946445D01*
X74851531Y94917935D01*
X74856317Y94877459D01*
X74860079Y94821411D01*
X74862938Y94746182D01*
X74865015Y94648165D01*
X74866433Y94523751D01*
X74867313Y94369332D01*
X74867777Y94181302D01*
X74867945Y93956052D01*
X74867958Y93850192D01*
X74867916Y93609454D01*
X74867700Y93407422D01*
X74867167Y93240471D01*
X74866178Y93104972D01*
X74864593Y92997299D01*
X74862271Y92913825D01*
X74859072Y92850924D01*
X74854855Y92804968D01*
X74849481Y92772330D01*
X74842809Y92749385D01*
X74834699Y92732504D01*
X74825010Y92718062D01*
X74824120Y92716844D01*
X74804996Y92690532D01*
X74786960Y92667914D01*
X74766841Y92648712D01*
X74741470Y92632653D01*
X74707677Y92619458D01*
X74662293Y92608854D01*
X74602148Y92600564D01*
X74524072Y92594312D01*
X74424897Y92589823D01*
X74301451Y92586821D01*
X74150567Y92585029D01*
X73969074Y92584173D01*
X73753802Y92583976D01*
X73501582Y92584163D01*
X73301624Y92584375D01*
X73066735Y92584895D01*
X72843580Y92585950D01*
X72635897Y92587485D01*
X72447423Y92589446D01*
X72281897Y92591778D01*
X72143056Y92594429D01*
X72034637Y92597343D01*
X71960380Y92600467D01*
X71924020Y92603745D01*
X71921733Y92604370D01*
X71890021Y92618866D01*
X71864884Y92637080D01*
X71845618Y92663679D01*
X71831517Y92703330D01*
X71821877Y92760700D01*
X71815992Y92840456D01*
X71813158Y92947264D01*
X71812669Y93085793D01*
X71813819Y93260708D01*
X71814325Y93315346D01*
X71819958Y93905917D01*
X72158624Y93905917D01*
X72169560Y93567250D01*
X72174321Y93449538D01*
X72180346Y93345056D01*
X72187028Y93261900D01*
X72193761Y93208162D01*
X72197539Y93193480D01*
X72213348Y93169381D01*
X72237784Y93150427D01*
X72275456Y93136101D01*
X72330978Y93125886D01*
X72408960Y93119264D01*
X72514014Y93115718D01*
X72650751Y93114732D01*
X72823782Y93115787D01*
X72884425Y93116435D01*
X73053549Y93118600D01*
X73185398Y93121021D01*
X73285033Y93124077D01*
X73357511Y93128143D01*
X73407893Y93133599D01*
X73441237Y93140819D01*
X73462602Y93150183D01*
X73475529Y93160513D01*
X73486883Y93175217D01*
X73495854Y93197298D01*
X73502800Y93231704D01*
X73508076Y93283383D01*
X73512039Y93357280D01*
X73515047Y93458345D01*
X73517454Y93591523D01*
X73519619Y93761762D01*
X73519761Y93774347D01*
X73521020Y93929992D01*
X73521271Y94074847D01*
X73520574Y94202580D01*
X73518990Y94306859D01*
X73516582Y94381352D01*
X73513480Y94419369D01*
X73505980Y94454642D01*
X73495132Y94483567D01*
X73476954Y94506840D01*
X73447465Y94525160D01*
X73402685Y94539226D01*
X73338632Y94549735D01*
X73251324Y94557385D01*
X73136780Y94562875D01*
X72991020Y94566902D01*
X72810061Y94570165D01*
X72639246Y94572667D01*
X71890233Y94583250D01*
X71849804Y94633220D01*
X71840302Y94646696D01*
X71832416Y94664042D01*
X71825994Y94689052D01*
X71820888Y94725515D01*
X71816947Y94777224D01*
X71814021Y94847970D01*
X71811961Y94941543D01*
X71810616Y95061736D01*
X71809837Y95212339D01*
X71809473Y95397144D01*
X71809375Y95619942D01*
X71809374Y95655563D01*
X71809417Y95894550D01*
X71809834Y96094885D01*
X71811055Y96260252D01*
X71813510Y96394334D01*
X71817632Y96500811D01*
X71823850Y96583367D01*
X71832595Y96645684D01*
X71844299Y96691444D01*
X71859391Y96724330D01*
X71878303Y96748024D01*
X71901465Y96766209D01*
X71929308Y96782567D01*
X71942024Y96789517D01*
X71958515Y96797227D01*
X71979770Y96803805D01*
X72009055Y96809339D01*
X72049637Y96813919D01*
X72104783Y96817633D01*
X72177762Y96820572D01*
X72271839Y96822824D01*
X72390282Y96824478D01*
X72536359Y96825624D01*
X72713336Y96826350D01*
X72924480Y96826746D01*
X73173060Y96826902D01*
X73312208Y96826917D01*
X73591654Y96826910D01*
G36*
X73591654Y96826910D02*
G01*
X73831906Y96826693D01*
X74036105Y96825969D01*
X74207390Y96824442D01*
X74348899Y96821815D01*
X74463774Y96817793D01*
X74555153Y96812078D01*
X74626177Y96804374D01*
X74679984Y96794386D01*
X74719715Y96781816D01*
X74748509Y96766369D01*
X74769505Y96747748D01*
X74785844Y96725657D01*
X74800666Y96699799D01*
X74808301Y96685709D01*
X74821071Y96657497D01*
X74830947Y96621713D01*
X74838414Y96572488D01*
X74843960Y96503954D01*
X74848069Y96410241D01*
X74851230Y96285480D01*
X74853726Y96137700D01*
X74855670Y95979712D01*
X74856090Y95858889D01*
X74854736Y95770082D01*
X74851360Y95708142D01*
X74845711Y95667921D01*
X74837538Y95644269D01*
X74829269Y95634025D01*
X74785364Y95618826D01*
X74703821Y95613076D01*
X74642374Y95614158D01*
X74486958Y95620417D01*
X74476213Y95885000D01*
X74469594Y95998784D01*
X74460158Y96094849D01*
X74448942Y96164523D01*
X74438922Y96196282D01*
X74401470Y96232690D01*
X74343788Y96261695D01*
X74333250Y96264956D01*
X74292256Y96270345D01*
X74214422Y96274990D01*
X74105236Y96278889D01*
X73970184Y96282043D01*
X73814753Y96284451D01*
X73644428Y96286114D01*
X73464697Y96287030D01*
X73281046Y96287200D01*
X73098962Y96286623D01*
X72923930Y96285299D01*
X72761438Y96283227D01*
X72616973Y96280408D01*
X72496020Y96276841D01*
X72404066Y96272526D01*
X72346598Y96267462D01*
X72333873Y96265060D01*
X72290449Y96251517D01*
X72256800Y96234530D01*
X72231681Y96208960D01*
X72213847Y96169667D01*
X72202054Y96111514D01*
X72195056Y96029361D01*
X72191610Y95918070D01*
X72190469Y95772504D01*
X72190374Y95672669D01*
X72191029Y95505231D01*
X72193145Y95375846D01*
X72196951Y95280252D01*
X72202677Y95214187D01*
X72210551Y95173388D01*
X72218087Y95156692D01*
X72255202Y95129490D01*
X72315294Y95106427D01*
X72339795Y95100651D01*
X72378716Y95097157D01*
X72455639Y95093848D01*
X72566235Y95090795D01*
X72706174Y95088063D01*
X72871126Y95085722D01*
X73056760Y95083838D01*
X73258746Y95082479D01*
X73472755Y95081713D01*
X73559538Y95081589D01*
X73798124Y95081015D01*
X74017103Y95079739D01*
X74213241Y95077818D01*
X74383304Y95075309D01*
X74524059Y95072272D01*
X74632272Y95068764D01*
X74704709Y95064843D01*
X74738136Y95060567D01*
X74738473Y95060445D01*
X74788423Y95028040D01*
X74829809Y94982001D01*
X74838398Y94966598D01*
X74845598Y94946445D01*
X74851531Y94917935D01*
X74856317Y94877459D01*
X74860079Y94821411D01*
X74862938Y94746182D01*
X74865015Y94648165D01*
X74866433Y94523751D01*
X74867313Y94369332D01*
X74867777Y94181302D01*
X74867945Y93956052D01*
X74867958Y93850192D01*
X74867916Y93609454D01*
X74867700Y93407422D01*
X74867167Y93240471D01*
X74866178Y93104972D01*
X74864593Y92997299D01*
X74862271Y92913825D01*
X74859072Y92850924D01*
X74854855Y92804968D01*
X74849481Y92772330D01*
X74842809Y92749385D01*
X74834699Y92732504D01*
X74825010Y92718062D01*
X74824120Y92716844D01*
X74804996Y92690532D01*
X74786960Y92667914D01*
X74766841Y92648712D01*
X74741470Y92632653D01*
X74707677Y92619458D01*
X74662293Y92608854D01*
X74602148Y92600564D01*
X74524072Y92594312D01*
X74424897Y92589823D01*
X74301451Y92586821D01*
X74150567Y92585029D01*
X73969074Y92584173D01*
X73753802Y92583976D01*
X73501582Y92584163D01*
X73301624Y92584375D01*
X73066735Y92584895D01*
X72843580Y92585950D01*
X72635897Y92587485D01*
X72447423Y92589446D01*
X72281897Y92591778D01*
X72143056Y92594429D01*
X72034637Y92597343D01*
X71960380Y92600467D01*
X71924020Y92603745D01*
X71921733Y92604370D01*
X71890021Y92618866D01*
X71864884Y92637080D01*
X71845618Y92663679D01*
X71831517Y92703330D01*
X71821877Y92760700D01*
X71815992Y92840456D01*
X71813158Y92947264D01*
X71812669Y93085793D01*
X71813819Y93260708D01*
X71814325Y93315346D01*
X71819958Y93905917D01*
X72158624Y93905917D01*
X72169560Y93567250D01*
X72174321Y93449538D01*
X72180346Y93345056D01*
X72187028Y93261900D01*
X72193761Y93208162D01*
X72197539Y93193480D01*
X72213348Y93169381D01*
X72237784Y93150427D01*
X72275456Y93136101D01*
X72330978Y93125886D01*
X72408960Y93119264D01*
X72514014Y93115718D01*
X72650751Y93114732D01*
X72823782Y93115787D01*
X72884425Y93116435D01*
X73053549Y93118600D01*
X73185398Y93121021D01*
X73285033Y93124077D01*
X73357511Y93128143D01*
X73407893Y93133599D01*
X73441237Y93140819D01*
X73462602Y93150183D01*
X73475529Y93160513D01*
X73486883Y93175217D01*
X73495854Y93197298D01*
X73502800Y93231704D01*
X73508076Y93283383D01*
X73512039Y93357280D01*
X73515047Y93458345D01*
X73517454Y93591523D01*
X73519619Y93761762D01*
X73519761Y93774347D01*
X73521020Y93929992D01*
X73521271Y94074847D01*
X73520574Y94202580D01*
X73518990Y94306859D01*
X73516582Y94381352D01*
X73513480Y94419369D01*
X73505980Y94454642D01*
X73495132Y94483567D01*
X73476954Y94506840D01*
X73447465Y94525160D01*
X73402685Y94539226D01*
X73338632Y94549735D01*
X73251324Y94557385D01*
X73136780Y94562875D01*
X72991020Y94566902D01*
X72810061Y94570165D01*
X72639246Y94572667D01*
X71890233Y94583250D01*
X71849804Y94633220D01*
X71840302Y94646696D01*
X71832416Y94664042D01*
X71825994Y94689052D01*
X71820888Y94725515D01*
X71816947Y94777224D01*
X71814021Y94847970D01*
X71811961Y94941543D01*
X71810616Y95061736D01*
X71809837Y95212339D01*
X71809473Y95397144D01*
X71809375Y95619942D01*
X71809374Y95655563D01*
X71809417Y95894550D01*
X71809834Y96094885D01*
X71811055Y96260252D01*
X71813510Y96394334D01*
X71817632Y96500811D01*
X71823850Y96583367D01*
X71832595Y96645684D01*
X71844299Y96691444D01*
X71859391Y96724330D01*
X71878303Y96748024D01*
X71901465Y96766209D01*
X71929308Y96782567D01*
X71942024Y96789517D01*
X71958515Y96797227D01*
X71979770Y96803805D01*
X72009055Y96809339D01*
X72049637Y96813919D01*
X72104783Y96817633D01*
X72177762Y96820572D01*
X72271839Y96822824D01*
X72390282Y96824478D01*
X72536359Y96825624D01*
X72713336Y96826350D01*
X72924480Y96826746D01*
X73173060Y96826902D01*
X73312208Y96826917D01*
X73591654Y96826910D01*
G37*
%TO.C,P11*%
X37553312Y61274661D02*
X37854943Y61273627D01*
X38125985Y61271007D01*
X38355622Y61267037D01*
X38533038Y61261951D01*
X38647419Y61255986D01*
X38687949Y61249376D01*
X38685202Y61243735D01*
X38646395Y61183044D01*
X38565249Y61061697D01*
X38446275Y60886287D01*
X38293987Y60663408D01*
X38112896Y60399651D01*
X37907517Y60101609D01*
X37682360Y59775875D01*
X37441940Y59429042D01*
X37356368Y59305725D01*
X37121469Y58966784D01*
X36903760Y58652031D01*
X36707694Y58367941D01*
X36537721Y58120986D01*
X36398292Y57917641D01*
X36293857Y57764379D01*
X36228869Y57667675D01*
X36207778Y57634001D01*
X36230361Y57639654D01*
X36324033Y57665010D01*
X36479920Y57707898D01*
X36686764Y57765207D01*
X36933308Y57833823D01*
X37208294Y57910634D01*
X37402694Y57964508D01*
X37663786Y58035124D01*
X37890912Y58094516D01*
X38072212Y58139670D01*
X38195827Y58167575D01*
X38249896Y58175217D01*
X38247891Y58165014D01*
X38212962Y58094283D01*
X38140808Y57962680D01*
X38035929Y57777761D01*
X37902823Y57547087D01*
X37745991Y57278217D01*
X37569932Y56978709D01*
X37379145Y56656123D01*
X37178130Y56318018D01*
X36971386Y55971953D01*
X36763414Y55625487D01*
X36558712Y55286179D01*
X36361780Y54961589D01*
X36177118Y54659276D01*
X36009225Y54386797D01*
X35862601Y54151714D01*
X35741745Y53961585D01*
X35695528Y53897633D01*
X35661205Y53866335D01*
X35660347Y53866497D01*
X35659032Y53879664D01*
X35668513Y53918149D01*
X35691001Y53987907D01*
X35728705Y54094894D01*
X35783835Y54245062D01*
X35858602Y54444368D01*
X35955216Y54698765D01*
X36075887Y55014207D01*
X36222824Y55396651D01*
X36398239Y55852050D01*
X36488566Y56086990D01*
X36602097Y56384238D01*
X36702202Y56648587D01*
X36785439Y56870830D01*
X36848368Y57041761D01*
X36887545Y57152175D01*
X36899530Y57192866D01*
X36898488Y57193066D01*
X36849010Y57177409D01*
X36735006Y57134370D01*
X36568544Y57068701D01*
X36361693Y56985153D01*
X36126522Y56888480D01*
X36080941Y56869598D01*
X35790911Y56749985D01*
X35569115Y56660246D01*
X35406944Y56597748D01*
X35295786Y56559856D01*
X35227032Y56543935D01*
X35192071Y56547350D01*
X35182294Y56567468D01*
X35189089Y56601654D01*
X35191963Y56612016D01*
X35213248Y56694176D01*
X35252266Y56847711D01*
X35307006Y57064613D01*
X35375455Y57336874D01*
X35455603Y57656485D01*
X35545438Y58015438D01*
X35642948Y58405724D01*
X35746122Y58819335D01*
X35779017Y58951291D01*
X35881579Y59362480D01*
X35978395Y59750288D01*
X36067363Y60106318D01*
X36146382Y60422174D01*
X36213350Y60689458D01*
X36266165Y60899775D01*
X36302726Y61044727D01*
X36320931Y61115918D01*
X36362879Y61274668D01*
X37525414Y61274668D01*
X37553312Y61274661D01*
G36*
X37553312Y61274661D02*
G01*
X37854943Y61273627D01*
X38125985Y61271007D01*
X38355622Y61267037D01*
X38533038Y61261951D01*
X38647419Y61255986D01*
X38687949Y61249376D01*
X38685202Y61243735D01*
X38646395Y61183044D01*
X38565249Y61061697D01*
X38446275Y60886287D01*
X38293987Y60663408D01*
X38112896Y60399651D01*
X37907517Y60101609D01*
X37682360Y59775875D01*
X37441940Y59429042D01*
X37356368Y59305725D01*
X37121469Y58966784D01*
X36903760Y58652031D01*
X36707694Y58367941D01*
X36537721Y58120986D01*
X36398292Y57917641D01*
X36293857Y57764379D01*
X36228869Y57667675D01*
X36207778Y57634001D01*
X36230361Y57639654D01*
X36324033Y57665010D01*
X36479920Y57707898D01*
X36686764Y57765207D01*
X36933308Y57833823D01*
X37208294Y57910634D01*
X37402694Y57964508D01*
X37663786Y58035124D01*
X37890912Y58094516D01*
X38072212Y58139670D01*
X38195827Y58167575D01*
X38249896Y58175217D01*
X38247891Y58165014D01*
X38212962Y58094283D01*
X38140808Y57962680D01*
X38035929Y57777761D01*
X37902823Y57547087D01*
X37745991Y57278217D01*
X37569932Y56978709D01*
X37379145Y56656123D01*
X37178130Y56318018D01*
X36971386Y55971953D01*
X36763414Y55625487D01*
X36558712Y55286179D01*
X36361780Y54961589D01*
X36177118Y54659276D01*
X36009225Y54386797D01*
X35862601Y54151714D01*
X35741745Y53961585D01*
X35695528Y53897633D01*
X35661205Y53866335D01*
X35660347Y53866497D01*
X35659032Y53879664D01*
X35668513Y53918149D01*
X35691001Y53987907D01*
X35728705Y54094894D01*
X35783835Y54245062D01*
X35858602Y54444368D01*
X35955216Y54698765D01*
X36075887Y55014207D01*
X36222824Y55396651D01*
X36398239Y55852050D01*
X36488566Y56086990D01*
X36602097Y56384238D01*
X36702202Y56648587D01*
X36785439Y56870830D01*
X36848368Y57041761D01*
X36887545Y57152175D01*
X36899530Y57192866D01*
X36898488Y57193066D01*
X36849010Y57177409D01*
X36735006Y57134370D01*
X36568544Y57068701D01*
X36361693Y56985153D01*
X36126522Y56888480D01*
X36080941Y56869598D01*
X35790911Y56749985D01*
X35569115Y56660246D01*
X35406944Y56597748D01*
X35295786Y56559856D01*
X35227032Y56543935D01*
X35192071Y56547350D01*
X35182294Y56567468D01*
X35189089Y56601654D01*
X35191963Y56612016D01*
X35213248Y56694176D01*
X35252266Y56847711D01*
X35307006Y57064613D01*
X35375455Y57336874D01*
X35455603Y57656485D01*
X35545438Y58015438D01*
X35642948Y58405724D01*
X35746122Y58819335D01*
X35779017Y58951291D01*
X35881579Y59362480D01*
X35978395Y59750288D01*
X36067363Y60106318D01*
X36146382Y60422174D01*
X36213350Y60689458D01*
X36266165Y60899775D01*
X36302726Y61044727D01*
X36320931Y61115918D01*
X36362879Y61274668D01*
X37525414Y61274668D01*
X37553312Y61274661D01*
G37*
%TD*%
D11*
%TO.C,DCDC1*%
X46335000Y84455000D03*
D12*
X46335000Y76955000D03*
X76835000Y76955000D03*
D11*
X76835000Y84455000D03*
%TD*%
D13*
%TO.C,J1*%
X85090000Y79121000D03*
X85090000Y76581000D03*
D14*
X85090000Y74041000D03*
%TD*%
D15*
%TO.C,P9*%
X36830000Y40640000D03*
X39370000Y40640000D03*
X36830000Y38100000D03*
X39370000Y38100000D03*
X36830000Y35560000D03*
X39370000Y35560000D03*
%TD*%
D13*
%TO.C,R7*%
X97790000Y35560000D03*
X90170000Y35560000D03*
%TD*%
%TO.C,C5*%
X68580000Y46990000D03*
X68580000Y49530000D03*
%TD*%
%TO.C,R6*%
X97790000Y39370000D03*
X90170000Y39370000D03*
%TD*%
D16*
%TO.C,P5*%
X93980000Y44260000D03*
D17*
X93980000Y46260000D03*
X93980000Y48260000D03*
X93980000Y50260000D03*
%TD*%
D13*
%TO.C,C6*%
X53340000Y46990000D03*
X53340000Y49530000D03*
%TD*%
%TO.C,R4*%
X40640000Y31496000D03*
X48260000Y31496000D03*
%TD*%
%TO.C,R5*%
X86360000Y52070000D03*
X78740000Y52070000D03*
%TD*%
D18*
%TO.C,C4*%
X86360000Y35560000D03*
X86360000Y40640000D03*
%TD*%
D14*
%TO.C,P6*%
X91440000Y85344000D03*
D16*
X93551000Y80724000D03*
D13*
X91440000Y80264000D03*
D17*
X93551000Y78724000D03*
X93551000Y76724000D03*
D13*
X91440000Y75184000D03*
D17*
X93551000Y74724000D03*
D13*
X91440000Y70104000D03*
%TD*%
%TO.C,R2*%
X39370000Y68580000D03*
X39370000Y76200000D03*
%TD*%
%TO.C,R3*%
X36068000Y85344000D03*
X36068000Y92964000D03*
%TD*%
D14*
%TO.C,C2*%
X43180000Y49530000D03*
D13*
X48260000Y49530000D03*
%TD*%
D18*
%TO.C,C3*%
X85090000Y46990000D03*
X80010000Y46990000D03*
%TD*%
D19*
%TO.C,P8*%
X82550000Y29464000D03*
D20*
X85090000Y29210000D03*
X87630000Y29464000D03*
X90170000Y29210000D03*
X92710000Y29464000D03*
X95250000Y29210000D03*
%TD*%
D21*
%TO.C,U1*%
X42850000Y66929000D03*
D22*
X42850000Y64389000D03*
X42850000Y61849000D03*
X42850000Y59309000D03*
D23*
X82550000Y58009000D03*
X82550000Y63089000D03*
X82550000Y68169000D03*
%TD*%
D24*
%TO.C,U2*%
X80010000Y41910000D03*
D25*
X77470000Y41910000D03*
X74930000Y41910000D03*
X72390000Y41910000D03*
X69850000Y41910000D03*
X67310000Y41910000D03*
X64770000Y41910000D03*
X62230000Y41910000D03*
X59690000Y41910000D03*
X57150000Y41910000D03*
X54610000Y41910000D03*
X52070000Y41910000D03*
X49530000Y41910000D03*
X46990000Y41910000D03*
X46990000Y34290000D03*
X49530000Y34290000D03*
X52070000Y34290000D03*
X54610000Y34290000D03*
X57150000Y34290000D03*
X59690000Y34290000D03*
X62230000Y34290000D03*
X64770000Y34290000D03*
X67310000Y34290000D03*
X69850000Y34290000D03*
X72390000Y34290000D03*
X74930000Y34290000D03*
X77470000Y34290000D03*
X80010000Y34290000D03*
%TD*%
D17*
%TO.C,Y1*%
X63481000Y49530000D03*
X58601000Y49530000D03*
%TD*%
D13*
%TO.C,D1*%
X43815000Y22352000D03*
X43815000Y24892000D03*
%TD*%
D26*
%TO.C,Q2*%
X40132000Y85852000D03*
D27*
X40132000Y88142000D03*
X40132000Y90432000D03*
%TD*%
D13*
%TO.C,R1*%
X36830000Y76200000D03*
X36830000Y68580000D03*
%TD*%
D15*
%TO.C,P7*%
X74930000Y26670000D03*
X74930000Y24130000D03*
X72390000Y26670000D03*
X72390000Y24130000D03*
X69850000Y26670000D03*
X69850000Y24130000D03*
%TD*%
D14*
%TO.C,P1*%
X29210000Y85344000D03*
D16*
X31321000Y80724000D03*
D13*
X29210000Y80264000D03*
D17*
X31321000Y78724000D03*
X31321000Y76724000D03*
D13*
X29210000Y75184000D03*
D17*
X31321000Y74724000D03*
D13*
X29210000Y70104000D03*
%TD*%
D18*
%TO.C,C1*%
X63500000Y29210000D03*
X58420000Y29210000D03*
%TD*%
D11*
%TO.C,P3*%
X26293334Y58420000D03*
X61089170Y93215835D03*
X61089170Y23624170D03*
X95885000Y58420000D03*
%TD*%
D28*
%TO.C,Q1*%
X39476000Y79502000D03*
D29*
X39476000Y80772000D03*
X39476000Y82042000D03*
%TD*%
D30*
%TO.C,SW2*%
X49717500Y25530000D03*
X56217500Y25530000D03*
X49717500Y21030000D03*
X56217500Y21030000D03*
%TD*%
%TO.C,SW1*%
X30965000Y25530000D03*
X37465000Y25530000D03*
X30965000Y21030000D03*
X37465000Y21030000D03*
%TD*%
D31*
%TO.C,P3*%
X21089080Y88340600D02*
X21089080Y28499300D01*
X21089080Y28499300D02*
X21102370Y28234900D01*
X21102370Y88605000D02*
X21089080Y88340600D01*
X21102370Y28234900D02*
X21141270Y27978200D01*
X21141270Y88861700D02*
X21102370Y88605000D01*
X21141270Y27978200D02*
X21204670Y27730700D01*
X21204670Y89109200D02*
X21141270Y88861700D01*
X21204670Y27730700D02*
X21291170Y27493500D01*
X21291170Y89346400D02*
X21204670Y89109200D01*
X21291170Y27493500D02*
X21399470Y27268000D01*
X21399470Y89571900D02*
X21291170Y89346400D01*
X21399470Y27268000D02*
X21528370Y27055300D01*
X21528370Y89784600D02*
X21399470Y89571900D01*
X21528370Y27055300D02*
X21676670Y26856900D01*
X21676670Y89983000D02*
X21528370Y89784600D01*
X21676670Y26856900D02*
X21842870Y26673900D01*
X21842870Y90166000D02*
X21676670Y89983000D01*
X21842870Y26673900D02*
X22025870Y26507700D01*
X22025870Y90332200D02*
X21842870Y90166000D01*
X22025870Y26507700D02*
X22224270Y26359500D01*
X22224270Y90480400D02*
X22025870Y90332200D01*
X22224270Y26359500D02*
X22436970Y26230500D01*
X22436970Y90609400D02*
X22224270Y90480400D01*
X22436970Y26230500D02*
X22662470Y26122200D01*
X22662470Y90717700D02*
X22436970Y90609400D01*
X22662470Y26122200D02*
X22899670Y26035700D01*
X22899670Y90804200D02*
X22662470Y90717700D01*
X22899670Y26035700D02*
X23147170Y25972300D01*
X23147170Y90867600D02*
X22899670Y90804200D01*
X23147170Y25972300D02*
X23403870Y25933400D01*
X23403870Y90906500D02*
X23147170Y90867600D01*
X23403870Y25933400D02*
X23668270Y25920100D01*
X23668270Y90919800D02*
X23403870Y90906500D01*
X23668270Y25920100D02*
X28589370Y25920100D01*
X28589370Y95840900D02*
X28589370Y90919800D01*
X28589370Y90919800D02*
X23668270Y90919800D01*
X28589370Y25920100D02*
X28589370Y20999000D01*
X28589370Y20999000D02*
X28602670Y20734600D01*
X28602670Y96105300D02*
X28589370Y95840900D01*
X28602670Y20734600D02*
X28641570Y20477900D01*
X28641570Y96362000D02*
X28602670Y96105300D01*
X28641570Y20477900D02*
X28704970Y20230400D01*
X28704970Y96609500D02*
X28641570Y96362000D01*
X28704970Y20230400D02*
X28791470Y19993200D01*
X28791470Y96846700D02*
X28704970Y96609500D01*
X28791470Y19993200D02*
X28899770Y19767700D01*
X28899770Y97072200D02*
X28791470Y96846700D01*
X28899770Y19767700D02*
X29028770Y19555000D01*
X29028770Y97284900D02*
X28899770Y97072200D01*
X29028770Y19555000D02*
X29176970Y19356600D01*
X29176970Y97483300D02*
X29028770Y97284900D01*
X29176970Y19356600D02*
X29343170Y19173600D01*
X29343170Y97666300D02*
X29176970Y97483300D01*
X29343170Y19173600D02*
X29526170Y19007400D01*
X29526170Y97832500D02*
X29343170Y97666300D01*
X29526170Y19007400D02*
X29724570Y18859100D01*
X29724570Y97980800D02*
X29526170Y97832500D01*
X29724570Y18859100D02*
X29937270Y18730200D01*
X29937270Y98109700D02*
X29724570Y97980800D01*
X29937270Y18730200D02*
X30162770Y18621900D01*
X30162770Y98218000D02*
X29937270Y98109700D01*
X30162770Y18621900D02*
X30399970Y18535400D01*
X30399970Y98304500D02*
X30162770Y98218000D01*
X30399970Y18535400D02*
X30647470Y18472000D01*
X30647470Y98367900D02*
X30399970Y98304500D01*
X30647470Y18472000D02*
X30904170Y18433100D01*
X30904170Y98406800D02*
X30647470Y98367900D01*
X30904170Y18433100D02*
X31168570Y18419800D01*
X31168570Y98420090D02*
X30904170Y98406800D01*
X31168570Y98420090D02*
X31168570Y98420090D01*
X31168570Y98420090D02*
X31168570Y98420090D01*
X31168570Y18419800D02*
X91009870Y18419800D01*
X91009870Y98420090D02*
X31168570Y98420090D01*
X91009870Y18419800D02*
X91274270Y18433100D01*
X91274270Y98406800D02*
X91009870Y98420090D01*
X91274270Y18433100D02*
X91530970Y18472000D01*
X91530970Y98367900D02*
X91274270Y98406800D01*
X91530970Y18472000D02*
X91778470Y18535400D01*
X91778470Y98304500D02*
X91530970Y98367900D01*
X91778470Y18535400D02*
X92015670Y18621900D01*
X92015670Y98218000D02*
X91778470Y98304500D01*
X92015670Y18621900D02*
X92241170Y18730200D01*
X92241170Y98109700D02*
X92015670Y98218000D01*
X92241170Y18730200D02*
X92453870Y18859100D01*
X92453870Y97980800D02*
X92241170Y98109700D01*
X92453870Y18859100D02*
X92652270Y19007400D01*
X92652270Y97832500D02*
X92453870Y97980800D01*
X92652270Y19007400D02*
X92835270Y19173600D01*
X92835270Y97666300D02*
X92652270Y97832500D01*
X92835270Y19173600D02*
X93001470Y19356600D01*
X93001470Y97483300D02*
X92835270Y97666300D01*
X93001470Y19356600D02*
X93149670Y19555000D01*
X93149670Y97284900D02*
X93001470Y97483300D01*
X93149670Y19555000D02*
X93278670Y19767700D01*
X93278670Y97072200D02*
X93149670Y97284900D01*
X93278670Y19767700D02*
X93386970Y19993200D01*
X93386970Y96846700D02*
X93278670Y97072200D01*
X93386970Y19993200D02*
X93473470Y20230400D01*
X93473470Y96609500D02*
X93386970Y96846700D01*
X93473470Y20230400D02*
X93536870Y20477900D01*
X93536870Y96362000D02*
X93473470Y96609500D01*
X93536870Y20477900D02*
X93575770Y20734600D01*
X93575770Y96105300D02*
X93536870Y96362000D01*
X93575770Y20734600D02*
X93589070Y20999000D01*
X93589070Y95840900D02*
X93575770Y96105300D01*
X93589070Y90919800D02*
X93589070Y95840900D01*
X93589070Y25920100D02*
X98510170Y25920100D01*
X93589070Y20999000D02*
X93589070Y25920100D01*
X98510170Y90919800D02*
X93589070Y90919800D01*
X98510170Y25920100D02*
X98774570Y25933400D01*
X98774570Y90906500D02*
X98510170Y90919800D01*
X98774570Y25933400D02*
X99031270Y25972300D01*
X99031270Y90867600D02*
X98774570Y90906500D01*
X99031270Y25972300D02*
X99278770Y26035700D01*
X99278770Y90804200D02*
X99031270Y90867600D01*
X99278770Y26035700D02*
X99515970Y26122200D01*
X99515970Y90717700D02*
X99278770Y90804200D01*
X99515970Y26122200D02*
X99741470Y26230500D01*
X99741470Y90609400D02*
X99515970Y90717700D01*
X99741470Y26230500D02*
X99954170Y26359500D01*
X99954170Y90480400D02*
X99741470Y90609400D01*
X99954170Y26359500D02*
X100152570Y26507700D01*
X100152570Y90332200D02*
X99954170Y90480400D01*
X100152570Y26507700D02*
X100335570Y26673900D01*
X100335570Y90166000D02*
X100152570Y90332200D01*
X100335570Y26673900D02*
X100501770Y26856900D01*
X100501770Y89983000D02*
X100335570Y90166000D01*
X100501770Y26856900D02*
X100650070Y27055300D01*
X100650070Y89784600D02*
X100501770Y89983000D01*
X100650070Y27055300D02*
X100778970Y27268000D01*
X100778970Y89571900D02*
X100650070Y89784600D01*
X100778970Y27268000D02*
X100887270Y27493500D01*
X100887270Y89346400D02*
X100778970Y89571900D01*
X100887270Y27493500D02*
X100973770Y27730700D01*
X100973770Y89109200D02*
X100887270Y89346400D01*
X100973770Y27730700D02*
X101037170Y27978200D01*
X101037170Y88861700D02*
X100973770Y89109200D01*
X101037170Y27978200D02*
X101076070Y28234900D01*
X101076070Y88605000D02*
X101037170Y88861700D01*
X101076070Y28234900D02*
X101089370Y28499300D01*
X101089370Y88340600D02*
X101076070Y88605000D01*
X101089370Y28499300D02*
X101089370Y88340600D01*
%TD*%
M02*
