%TF.GenerationSoftware,KiCad,Pcbnew,9.0.3*%
%TF.CreationDate,2025-09-30T15:56:12+01:00*%
%TF.ProjectId,RS485 Device Connector PCB,52533438-3520-4446-9576-69636520436f,rev?*%
%TF.SameCoordinates,PX5734380PY7df6180*%
%TF.FileFunction,Soldermask,Bot*%
%TF.FilePolarity,Negative*%
%FSLAX46Y46*%
G04 Gerber Fmt 4.6, Leading zero omitted, Abs format (unit mm)*
G04 Created by KiCad (PCBNEW 9.0.3) date 2025-09-30 15:56:12*
%MOMM*%
%LPD*%
G01*
G04 APERTURE LIST*
G04 Aperture macros list*
%AMRoundRect*
0 Rectangle with rounded corners*
0 $1 Rounding radius*
0 $2 $3 $4 $5 $6 $7 $8 $9 X,Y pos of 4 corners*
0 Add a 4 corners polygon primitive as box body*
4,1,4,$2,$3,$4,$5,$6,$7,$8,$9,$2,$3,0*
0 Add four circle primitives for the rounded corners*
1,1,$1+$1,$2,$3*
1,1,$1+$1,$4,$5*
1,1,$1+$1,$6,$7*
1,1,$1+$1,$8,$9*
0 Add four rect primitives between the rounded corners*
20,1,$1+$1,$2,$3,$4,$5,0*
20,1,$1+$1,$4,$5,$6,$7,0*
20,1,$1+$1,$6,$7,$8,$9,0*
20,1,$1+$1,$8,$9,$2,$3,0*%
G04 Aperture macros list end*
%ADD10C,3.000000*%
%ADD11R,3.000000X3.000000*%
%ADD12C,2.032000*%
%ADD13R,2.032000X2.032000*%
%ADD14C,1.600200*%
%ADD15R,1.500000X1.500000*%
%ADD16C,1.500000*%
%ADD17C,1.905000*%
%ADD18R,2.100580X2.100580*%
%ADD19C,2.199640*%
%ADD20R,3.000000X2.032000*%
%ADD21RoundRect,0.508000X-0.992000X0.508000X-0.992000X-0.508000X0.992000X-0.508000X0.992000X0.508000X0*%
%ADD22RoundRect,0.750000X-1.250000X-0.750000X1.250000X-0.750000X1.250000X0.750000X-1.250000X0.750000X0*%
%ADD23RoundRect,0.250000X-0.550000X0.550000X-0.550000X-0.550000X0.550000X-0.550000X0.550000X0.550000X0*%
%ADD24C,1.600000*%
%ADD25R,1.800000X1.717500*%
%ADD26O,1.800000X1.717500*%
%ADD27R,1.500000X1.050000*%
%ADD28O,1.500000X1.050000*%
%ADD29C,1.800000*%
%TA.AperFunction,Profile*%
%ADD30C,0.100000*%
%TD*%
G04 APERTURE END LIST*
D10*
%TO.C,DCDC1*%
X46335000Y84455000D03*
D11*
X46335000Y76955000D03*
X76835000Y76955000D03*
D10*
X76835000Y84455000D03*
%TD*%
D12*
%TO.C,J1*%
X85090000Y79121000D03*
X85090000Y76581000D03*
D13*
X85090000Y74041000D03*
%TD*%
D14*
%TO.C,P9*%
X36830000Y40640000D03*
X39370000Y40640000D03*
X36830000Y38100000D03*
X39370000Y38100000D03*
X36830000Y35560000D03*
X39370000Y35560000D03*
%TD*%
D12*
%TO.C,R7*%
X97790000Y35560000D03*
X90170000Y35560000D03*
%TD*%
%TO.C,C5*%
X68580000Y46990000D03*
X68580000Y49530000D03*
%TD*%
%TO.C,R6*%
X97790000Y39370000D03*
X90170000Y39370000D03*
%TD*%
D15*
%TO.C,P5*%
X93980000Y44260000D03*
D16*
X93980000Y46260000D03*
X93980000Y48260000D03*
X93980000Y50260000D03*
%TD*%
D12*
%TO.C,C6*%
X53340000Y46990000D03*
X53340000Y49530000D03*
%TD*%
%TO.C,R4*%
X40640000Y31496000D03*
X48260000Y31496000D03*
%TD*%
%TO.C,R5*%
X86360000Y52070000D03*
X78740000Y52070000D03*
%TD*%
D17*
%TO.C,C4*%
X86360000Y35560000D03*
X86360000Y40640000D03*
%TD*%
D13*
%TO.C,P6*%
X91440000Y85344000D03*
D15*
X93551000Y80724000D03*
D12*
X91440000Y80264000D03*
D16*
X93551000Y78724000D03*
X93551000Y76724000D03*
D12*
X91440000Y75184000D03*
D16*
X93551000Y74724000D03*
D12*
X91440000Y70104000D03*
%TD*%
%TO.C,R2*%
X39370000Y68580000D03*
X39370000Y76200000D03*
%TD*%
%TO.C,R3*%
X36068000Y85344000D03*
X36068000Y92964000D03*
%TD*%
D13*
%TO.C,C2*%
X43180000Y49530000D03*
D12*
X48260000Y49530000D03*
%TD*%
D17*
%TO.C,C3*%
X85090000Y46990000D03*
X80010000Y46990000D03*
%TD*%
D18*
%TO.C,P8*%
X82550000Y29464000D03*
D19*
X85090000Y29210000D03*
X87630000Y29464000D03*
X90170000Y29210000D03*
X92710000Y29464000D03*
X95250000Y29210000D03*
%TD*%
D20*
%TO.C,U1*%
X42850000Y66929000D03*
D21*
X42850000Y64389000D03*
X42850000Y61849000D03*
X42850000Y59309000D03*
D22*
X82550000Y58009000D03*
X82550000Y63089000D03*
X82550000Y68169000D03*
%TD*%
D23*
%TO.C,U2*%
X80010000Y41910000D03*
D24*
X77470000Y41910000D03*
X74930000Y41910000D03*
X72390000Y41910000D03*
X69850000Y41910000D03*
X67310000Y41910000D03*
X64770000Y41910000D03*
X62230000Y41910000D03*
X59690000Y41910000D03*
X57150000Y41910000D03*
X54610000Y41910000D03*
X52070000Y41910000D03*
X49530000Y41910000D03*
X46990000Y41910000D03*
X46990000Y34290000D03*
X49530000Y34290000D03*
X52070000Y34290000D03*
X54610000Y34290000D03*
X57150000Y34290000D03*
X59690000Y34290000D03*
X62230000Y34290000D03*
X64770000Y34290000D03*
X67310000Y34290000D03*
X69850000Y34290000D03*
X72390000Y34290000D03*
X74930000Y34290000D03*
X77470000Y34290000D03*
X80010000Y34290000D03*
%TD*%
D16*
%TO.C,Y1*%
X63481000Y49530000D03*
X58601000Y49530000D03*
%TD*%
D12*
%TO.C,D1*%
X43815000Y22352000D03*
X43815000Y24892000D03*
%TD*%
D25*
%TO.C,Q2*%
X40132000Y85852000D03*
D26*
X40132000Y88142000D03*
X40132000Y90432000D03*
%TD*%
D12*
%TO.C,R1*%
X36830000Y76200000D03*
X36830000Y68580000D03*
%TD*%
D14*
%TO.C,P7*%
X74930000Y26670000D03*
X74930000Y24130000D03*
X72390000Y26670000D03*
X72390000Y24130000D03*
X69850000Y26670000D03*
X69850000Y24130000D03*
%TD*%
D13*
%TO.C,P1*%
X29210000Y85344000D03*
D15*
X31321000Y80724000D03*
D12*
X29210000Y80264000D03*
D16*
X31321000Y78724000D03*
X31321000Y76724000D03*
D12*
X29210000Y75184000D03*
D16*
X31321000Y74724000D03*
D12*
X29210000Y70104000D03*
%TD*%
D17*
%TO.C,C1*%
X63500000Y29210000D03*
X58420000Y29210000D03*
%TD*%
D10*
%TO.C,P3*%
X26293334Y58420000D03*
X61089170Y93215835D03*
X61089170Y23624170D03*
X95885000Y58420000D03*
%TD*%
D27*
%TO.C,Q1*%
X39476000Y79502000D03*
D28*
X39476000Y80772000D03*
X39476000Y82042000D03*
%TD*%
D29*
%TO.C,SW2*%
X49717500Y25530000D03*
X56217500Y25530000D03*
X49717500Y21030000D03*
X56217500Y21030000D03*
%TD*%
%TO.C,SW1*%
X30965000Y25530000D03*
X37465000Y25530000D03*
X30965000Y21030000D03*
X37465000Y21030000D03*
%TD*%
D30*
%TO.C,P3*%
X21089080Y88340600D02*
X21089080Y28499300D01*
X21089080Y28499300D02*
X21102370Y28234900D01*
X21102370Y88605000D02*
X21089080Y88340600D01*
X21102370Y28234900D02*
X21141270Y27978200D01*
X21141270Y88861700D02*
X21102370Y88605000D01*
X21141270Y27978200D02*
X21204670Y27730700D01*
X21204670Y89109200D02*
X21141270Y88861700D01*
X21204670Y27730700D02*
X21291170Y27493500D01*
X21291170Y89346400D02*
X21204670Y89109200D01*
X21291170Y27493500D02*
X21399470Y27268000D01*
X21399470Y89571900D02*
X21291170Y89346400D01*
X21399470Y27268000D02*
X21528370Y27055300D01*
X21528370Y89784600D02*
X21399470Y89571900D01*
X21528370Y27055300D02*
X21676670Y26856900D01*
X21676670Y89983000D02*
X21528370Y89784600D01*
X21676670Y26856900D02*
X21842870Y26673900D01*
X21842870Y90166000D02*
X21676670Y89983000D01*
X21842870Y26673900D02*
X22025870Y26507700D01*
X22025870Y90332200D02*
X21842870Y90166000D01*
X22025870Y26507700D02*
X22224270Y26359500D01*
X22224270Y90480400D02*
X22025870Y90332200D01*
X22224270Y26359500D02*
X22436970Y26230500D01*
X22436970Y90609400D02*
X22224270Y90480400D01*
X22436970Y26230500D02*
X22662470Y26122200D01*
X22662470Y90717700D02*
X22436970Y90609400D01*
X22662470Y26122200D02*
X22899670Y26035700D01*
X22899670Y90804200D02*
X22662470Y90717700D01*
X22899670Y26035700D02*
X23147170Y25972300D01*
X23147170Y90867600D02*
X22899670Y90804200D01*
X23147170Y25972300D02*
X23403870Y25933400D01*
X23403870Y90906500D02*
X23147170Y90867600D01*
X23403870Y25933400D02*
X23668270Y25920100D01*
X23668270Y90919800D02*
X23403870Y90906500D01*
X23668270Y25920100D02*
X28589370Y25920100D01*
X28589370Y95840900D02*
X28589370Y90919800D01*
X28589370Y90919800D02*
X23668270Y90919800D01*
X28589370Y25920100D02*
X28589370Y20999000D01*
X28589370Y20999000D02*
X28602670Y20734600D01*
X28602670Y96105300D02*
X28589370Y95840900D01*
X28602670Y20734600D02*
X28641570Y20477900D01*
X28641570Y96362000D02*
X28602670Y96105300D01*
X28641570Y20477900D02*
X28704970Y20230400D01*
X28704970Y96609500D02*
X28641570Y96362000D01*
X28704970Y20230400D02*
X28791470Y19993200D01*
X28791470Y96846700D02*
X28704970Y96609500D01*
X28791470Y19993200D02*
X28899770Y19767700D01*
X28899770Y97072200D02*
X28791470Y96846700D01*
X28899770Y19767700D02*
X29028770Y19555000D01*
X29028770Y97284900D02*
X28899770Y97072200D01*
X29028770Y19555000D02*
X29176970Y19356600D01*
X29176970Y97483300D02*
X29028770Y97284900D01*
X29176970Y19356600D02*
X29343170Y19173600D01*
X29343170Y97666300D02*
X29176970Y97483300D01*
X29343170Y19173600D02*
X29526170Y19007400D01*
X29526170Y97832500D02*
X29343170Y97666300D01*
X29526170Y19007400D02*
X29724570Y18859100D01*
X29724570Y97980800D02*
X29526170Y97832500D01*
X29724570Y18859100D02*
X29937270Y18730200D01*
X29937270Y98109700D02*
X29724570Y97980800D01*
X29937270Y18730200D02*
X30162770Y18621900D01*
X30162770Y98218000D02*
X29937270Y98109700D01*
X30162770Y18621900D02*
X30399970Y18535400D01*
X30399970Y98304500D02*
X30162770Y98218000D01*
X30399970Y18535400D02*
X30647470Y18472000D01*
X30647470Y98367900D02*
X30399970Y98304500D01*
X30647470Y18472000D02*
X30904170Y18433100D01*
X30904170Y98406800D02*
X30647470Y98367900D01*
X30904170Y18433100D02*
X31168570Y18419800D01*
X31168570Y98420090D02*
X30904170Y98406800D01*
X31168570Y98420090D02*
X31168570Y98420090D01*
X31168570Y98420090D02*
X31168570Y98420090D01*
X31168570Y18419800D02*
X91009870Y18419800D01*
X91009870Y98420090D02*
X31168570Y98420090D01*
X91009870Y18419800D02*
X91274270Y18433100D01*
X91274270Y98406800D02*
X91009870Y98420090D01*
X91274270Y18433100D02*
X91530970Y18472000D01*
X91530970Y98367900D02*
X91274270Y98406800D01*
X91530970Y18472000D02*
X91778470Y18535400D01*
X91778470Y98304500D02*
X91530970Y98367900D01*
X91778470Y18535400D02*
X92015670Y18621900D01*
X92015670Y98218000D02*
X91778470Y98304500D01*
X92015670Y18621900D02*
X92241170Y18730200D01*
X92241170Y98109700D02*
X92015670Y98218000D01*
X92241170Y18730200D02*
X92453870Y18859100D01*
X92453870Y97980800D02*
X92241170Y98109700D01*
X92453870Y18859100D02*
X92652270Y19007400D01*
X92652270Y97832500D02*
X92453870Y97980800D01*
X92652270Y19007400D02*
X92835270Y19173600D01*
X92835270Y97666300D02*
X92652270Y97832500D01*
X92835270Y19173600D02*
X93001470Y19356600D01*
X93001470Y97483300D02*
X92835270Y97666300D01*
X93001470Y19356600D02*
X93149670Y19555000D01*
X93149670Y97284900D02*
X93001470Y97483300D01*
X93149670Y19555000D02*
X93278670Y19767700D01*
X93278670Y97072200D02*
X93149670Y97284900D01*
X93278670Y19767700D02*
X93386970Y19993200D01*
X93386970Y96846700D02*
X93278670Y97072200D01*
X93386970Y19993200D02*
X93473470Y20230400D01*
X93473470Y96609500D02*
X93386970Y96846700D01*
X93473470Y20230400D02*
X93536870Y20477900D01*
X93536870Y96362000D02*
X93473470Y96609500D01*
X93536870Y20477900D02*
X93575770Y20734600D01*
X93575770Y96105300D02*
X93536870Y96362000D01*
X93575770Y20734600D02*
X93589070Y20999000D01*
X93589070Y95840900D02*
X93575770Y96105300D01*
X93589070Y90919800D02*
X93589070Y95840900D01*
X93589070Y25920100D02*
X98510170Y25920100D01*
X93589070Y20999000D02*
X93589070Y25920100D01*
X98510170Y90919800D02*
X93589070Y90919800D01*
X98510170Y25920100D02*
X98774570Y25933400D01*
X98774570Y90906500D02*
X98510170Y90919800D01*
X98774570Y25933400D02*
X99031270Y25972300D01*
X99031270Y90867600D02*
X98774570Y90906500D01*
X99031270Y25972300D02*
X99278770Y26035700D01*
X99278770Y90804200D02*
X99031270Y90867600D01*
X99278770Y26035700D02*
X99515970Y26122200D01*
X99515970Y90717700D02*
X99278770Y90804200D01*
X99515970Y26122200D02*
X99741470Y26230500D01*
X99741470Y90609400D02*
X99515970Y90717700D01*
X99741470Y26230500D02*
X99954170Y26359500D01*
X99954170Y90480400D02*
X99741470Y90609400D01*
X99954170Y26359500D02*
X100152570Y26507700D01*
X100152570Y90332200D02*
X99954170Y90480400D01*
X100152570Y26507700D02*
X100335570Y26673900D01*
X100335570Y90166000D02*
X100152570Y90332200D01*
X100335570Y26673900D02*
X100501770Y26856900D01*
X100501770Y89983000D02*
X100335570Y90166000D01*
X100501770Y26856900D02*
X100650070Y27055300D01*
X100650070Y89784600D02*
X100501770Y89983000D01*
X100650070Y27055300D02*
X100778970Y27268000D01*
X100778970Y89571900D02*
X100650070Y89784600D01*
X100778970Y27268000D02*
X100887270Y27493500D01*
X100887270Y89346400D02*
X100778970Y89571900D01*
X100887270Y27493500D02*
X100973770Y27730700D01*
X100973770Y89109200D02*
X100887270Y89346400D01*
X100973770Y27730700D02*
X101037170Y27978200D01*
X101037170Y88861700D02*
X100973770Y89109200D01*
X101037170Y27978200D02*
X101076070Y28234900D01*
X101076070Y88605000D02*
X101037170Y88861700D01*
X101076070Y28234900D02*
X101089370Y28499300D01*
X101089370Y88340600D02*
X101076070Y88605000D01*
X101089370Y28499300D02*
X101089370Y88340600D01*
%TD*%
M02*
