%TF.GenerationSoftware,KiCad,Pcbnew,9.0.3*%
%TF.CreationDate,2025-09-30T15:56:12+01:00*%
%TF.ProjectId,RS485 Device Connector PCB,52533438-3520-4446-9576-69636520436f,rev?*%
%TF.SameCoordinates,PX5734380PY7df6180*%
%TF.FileFunction,Profile,NP*%
%FSLAX46Y46*%
G04 Gerber Fmt 4.6, Leading zero omitted, Abs format (unit mm)*
G04 Created by KiCad (PCBNEW 9.0.3) date 2025-09-30 15:56:12*
%MOMM*%
%LPD*%
G01*
G04 APERTURE LIST*
%TA.AperFunction,Profile*%
%ADD10C,0.100000*%
%TD*%
G04 APERTURE END LIST*
D10*
%TO.C,P3*%
X21089080Y88340600D02*
X21089080Y28499300D01*
X21089080Y28499300D02*
X21102370Y28234900D01*
X21102370Y88605000D02*
X21089080Y88340600D01*
X21102370Y28234900D02*
X21141270Y27978200D01*
X21141270Y88861700D02*
X21102370Y88605000D01*
X21141270Y27978200D02*
X21204670Y27730700D01*
X21204670Y89109200D02*
X21141270Y88861700D01*
X21204670Y27730700D02*
X21291170Y27493500D01*
X21291170Y89346400D02*
X21204670Y89109200D01*
X21291170Y27493500D02*
X21399470Y27268000D01*
X21399470Y89571900D02*
X21291170Y89346400D01*
X21399470Y27268000D02*
X21528370Y27055300D01*
X21528370Y89784600D02*
X21399470Y89571900D01*
X21528370Y27055300D02*
X21676670Y26856900D01*
X21676670Y89983000D02*
X21528370Y89784600D01*
X21676670Y26856900D02*
X21842870Y26673900D01*
X21842870Y90166000D02*
X21676670Y89983000D01*
X21842870Y26673900D02*
X22025870Y26507700D01*
X22025870Y90332200D02*
X21842870Y90166000D01*
X22025870Y26507700D02*
X22224270Y26359500D01*
X22224270Y90480400D02*
X22025870Y90332200D01*
X22224270Y26359500D02*
X22436970Y26230500D01*
X22436970Y90609400D02*
X22224270Y90480400D01*
X22436970Y26230500D02*
X22662470Y26122200D01*
X22662470Y90717700D02*
X22436970Y90609400D01*
X22662470Y26122200D02*
X22899670Y26035700D01*
X22899670Y90804200D02*
X22662470Y90717700D01*
X22899670Y26035700D02*
X23147170Y25972300D01*
X23147170Y90867600D02*
X22899670Y90804200D01*
X23147170Y25972300D02*
X23403870Y25933400D01*
X23403870Y90906500D02*
X23147170Y90867600D01*
X23403870Y25933400D02*
X23668270Y25920100D01*
X23668270Y90919800D02*
X23403870Y90906500D01*
X23668270Y25920100D02*
X28589370Y25920100D01*
X28589370Y95840900D02*
X28589370Y90919800D01*
X28589370Y90919800D02*
X23668270Y90919800D01*
X28589370Y25920100D02*
X28589370Y20999000D01*
X28589370Y20999000D02*
X28602670Y20734600D01*
X28602670Y96105300D02*
X28589370Y95840900D01*
X28602670Y20734600D02*
X28641570Y20477900D01*
X28641570Y96362000D02*
X28602670Y96105300D01*
X28641570Y20477900D02*
X28704970Y20230400D01*
X28704970Y96609500D02*
X28641570Y96362000D01*
X28704970Y20230400D02*
X28791470Y19993200D01*
X28791470Y96846700D02*
X28704970Y96609500D01*
X28791470Y19993200D02*
X28899770Y19767700D01*
X28899770Y97072200D02*
X28791470Y96846700D01*
X28899770Y19767700D02*
X29028770Y19555000D01*
X29028770Y97284900D02*
X28899770Y97072200D01*
X29028770Y19555000D02*
X29176970Y19356600D01*
X29176970Y97483300D02*
X29028770Y97284900D01*
X29176970Y19356600D02*
X29343170Y19173600D01*
X29343170Y97666300D02*
X29176970Y97483300D01*
X29343170Y19173600D02*
X29526170Y19007400D01*
X29526170Y97832500D02*
X29343170Y97666300D01*
X29526170Y19007400D02*
X29724570Y18859100D01*
X29724570Y97980800D02*
X29526170Y97832500D01*
X29724570Y18859100D02*
X29937270Y18730200D01*
X29937270Y98109700D02*
X29724570Y97980800D01*
X29937270Y18730200D02*
X30162770Y18621900D01*
X30162770Y98218000D02*
X29937270Y98109700D01*
X30162770Y18621900D02*
X30399970Y18535400D01*
X30399970Y98304500D02*
X30162770Y98218000D01*
X30399970Y18535400D02*
X30647470Y18472000D01*
X30647470Y98367900D02*
X30399970Y98304500D01*
X30647470Y18472000D02*
X30904170Y18433100D01*
X30904170Y98406800D02*
X30647470Y98367900D01*
X30904170Y18433100D02*
X31168570Y18419800D01*
X31168570Y98420090D02*
X30904170Y98406800D01*
X31168570Y98420090D02*
X31168570Y98420090D01*
X31168570Y98420090D02*
X31168570Y98420090D01*
X31168570Y18419800D02*
X91009870Y18419800D01*
X91009870Y98420090D02*
X31168570Y98420090D01*
X91009870Y18419800D02*
X91274270Y18433100D01*
X91274270Y98406800D02*
X91009870Y98420090D01*
X91274270Y18433100D02*
X91530970Y18472000D01*
X91530970Y98367900D02*
X91274270Y98406800D01*
X91530970Y18472000D02*
X91778470Y18535400D01*
X91778470Y98304500D02*
X91530970Y98367900D01*
X91778470Y18535400D02*
X92015670Y18621900D01*
X92015670Y98218000D02*
X91778470Y98304500D01*
X92015670Y18621900D02*
X92241170Y18730200D01*
X92241170Y98109700D02*
X92015670Y98218000D01*
X92241170Y18730200D02*
X92453870Y18859100D01*
X92453870Y97980800D02*
X92241170Y98109700D01*
X92453870Y18859100D02*
X92652270Y19007400D01*
X92652270Y97832500D02*
X92453870Y97980800D01*
X92652270Y19007400D02*
X92835270Y19173600D01*
X92835270Y97666300D02*
X92652270Y97832500D01*
X92835270Y19173600D02*
X93001470Y19356600D01*
X93001470Y97483300D02*
X92835270Y97666300D01*
X93001470Y19356600D02*
X93149670Y19555000D01*
X93149670Y97284900D02*
X93001470Y97483300D01*
X93149670Y19555000D02*
X93278670Y19767700D01*
X93278670Y97072200D02*
X93149670Y97284900D01*
X93278670Y19767700D02*
X93386970Y19993200D01*
X93386970Y96846700D02*
X93278670Y97072200D01*
X93386970Y19993200D02*
X93473470Y20230400D01*
X93473470Y96609500D02*
X93386970Y96846700D01*
X93473470Y20230400D02*
X93536870Y20477900D01*
X93536870Y96362000D02*
X93473470Y96609500D01*
X93536870Y20477900D02*
X93575770Y20734600D01*
X93575770Y96105300D02*
X93536870Y96362000D01*
X93575770Y20734600D02*
X93589070Y20999000D01*
X93589070Y95840900D02*
X93575770Y96105300D01*
X93589070Y90919800D02*
X93589070Y95840900D01*
X93589070Y25920100D02*
X98510170Y25920100D01*
X93589070Y20999000D02*
X93589070Y25920100D01*
X98510170Y90919800D02*
X93589070Y90919800D01*
X98510170Y25920100D02*
X98774570Y25933400D01*
X98774570Y90906500D02*
X98510170Y90919800D01*
X98774570Y25933400D02*
X99031270Y25972300D01*
X99031270Y90867600D02*
X98774570Y90906500D01*
X99031270Y25972300D02*
X99278770Y26035700D01*
X99278770Y90804200D02*
X99031270Y90867600D01*
X99278770Y26035700D02*
X99515970Y26122200D01*
X99515970Y90717700D02*
X99278770Y90804200D01*
X99515970Y26122200D02*
X99741470Y26230500D01*
X99741470Y90609400D02*
X99515970Y90717700D01*
X99741470Y26230500D02*
X99954170Y26359500D01*
X99954170Y90480400D02*
X99741470Y90609400D01*
X99954170Y26359500D02*
X100152570Y26507700D01*
X100152570Y90332200D02*
X99954170Y90480400D01*
X100152570Y26507700D02*
X100335570Y26673900D01*
X100335570Y90166000D02*
X100152570Y90332200D01*
X100335570Y26673900D02*
X100501770Y26856900D01*
X100501770Y89983000D02*
X100335570Y90166000D01*
X100501770Y26856900D02*
X100650070Y27055300D01*
X100650070Y89784600D02*
X100501770Y89983000D01*
X100650070Y27055300D02*
X100778970Y27268000D01*
X100778970Y89571900D02*
X100650070Y89784600D01*
X100778970Y27268000D02*
X100887270Y27493500D01*
X100887270Y89346400D02*
X100778970Y89571900D01*
X100887270Y27493500D02*
X100973770Y27730700D01*
X100973770Y89109200D02*
X100887270Y89346400D01*
X100973770Y27730700D02*
X101037170Y27978200D01*
X101037170Y88861700D02*
X100973770Y89109200D01*
X101037170Y27978200D02*
X101076070Y28234900D01*
X101076070Y88605000D02*
X101037170Y88861700D01*
X101076070Y28234900D02*
X101089370Y28499300D01*
X101089370Y88340600D02*
X101076070Y88605000D01*
X101089370Y28499300D02*
X101089370Y88340600D01*
%TD*%
M02*
