%TF.GenerationSoftware,KiCad,Pcbnew,10.0.3*%
%TF.CreationDate,2026-06-19T16:25:36+01:00*%
%TF.ProjectId,RS485 Interface Board PCB,52533438-3520-4496-9e74-657266616365,rev?*%
%TF.SameCoordinates,PX5734380PY7df6180*%
%TF.FileFunction,Legend,Bot*%
%TF.FilePolarity,Positive*%
%FSLAX46Y46*%
G04 Gerber Fmt 4.6, Leading zero omitted, Abs format (unit mm)*
G04 Created by KiCad (PCBNEW 10.0.3) date 2026-06-19 16:25:36*
%MOMM*%
%LPD*%
G01*
G04 APERTURE LIST*
%ADD10C,0.200000*%
%ADD11C,0.300000*%
%ADD12C,0.500000*%
%TA.AperFunction,Profile*%
%ADD13C,0.120000*%
%TD*%
G04 APERTURE END LIST*
D10*
X98944326Y36962781D02*
X98944326Y37962781D01*
X98515755Y37867543D02*
X98468136Y37915162D01*
X98468136Y37915162D02*
X98372898Y37962781D01*
X98372898Y37962781D02*
X98134803Y37962781D01*
X98134803Y37962781D02*
X98039565Y37915162D01*
X98039565Y37915162D02*
X97991946Y37867543D01*
X97991946Y37867543D02*
X97944327Y37772305D01*
X97944327Y37772305D02*
X97944327Y37677067D01*
X97944327Y37677067D02*
X97991946Y37534210D01*
X97991946Y37534210D02*
X98563374Y36962781D01*
X98563374Y36962781D02*
X97944327Y36962781D01*
X96944327Y37058020D02*
X96991946Y37010400D01*
X96991946Y37010400D02*
X97134803Y36962781D01*
X97134803Y36962781D02*
X97230041Y36962781D01*
X97230041Y36962781D02*
X97372898Y37010400D01*
X97372898Y37010400D02*
X97468136Y37105639D01*
X97468136Y37105639D02*
X97515755Y37200877D01*
X97515755Y37200877D02*
X97563374Y37391353D01*
X97563374Y37391353D02*
X97563374Y37534210D01*
X97563374Y37534210D02*
X97515755Y37724686D01*
X97515755Y37724686D02*
X97468136Y37819924D01*
X97468136Y37819924D02*
X97372898Y37915162D01*
X97372898Y37915162D02*
X97230041Y37962781D01*
X97230041Y37962781D02*
X97134803Y37962781D01*
X97134803Y37962781D02*
X96991946Y37915162D01*
X96991946Y37915162D02*
X96944327Y37867543D01*
X95753850Y36962781D02*
X95753850Y37962781D01*
X95753850Y37962781D02*
X95372898Y37962781D01*
X95372898Y37962781D02*
X95277660Y37915162D01*
X95277660Y37915162D02*
X95230041Y37867543D01*
X95230041Y37867543D02*
X95182422Y37772305D01*
X95182422Y37772305D02*
X95182422Y37629448D01*
X95182422Y37629448D02*
X95230041Y37534210D01*
X95230041Y37534210D02*
X95277660Y37486591D01*
X95277660Y37486591D02*
X95372898Y37438972D01*
X95372898Y37438972D02*
X95753850Y37438972D01*
X94753850Y37962781D02*
X94753850Y37153258D01*
X94753850Y37153258D02*
X94706231Y37058020D01*
X94706231Y37058020D02*
X94658612Y37010400D01*
X94658612Y37010400D02*
X94563374Y36962781D01*
X94563374Y36962781D02*
X94372898Y36962781D01*
X94372898Y36962781D02*
X94277660Y37010400D01*
X94277660Y37010400D02*
X94230041Y37058020D01*
X94230041Y37058020D02*
X94182422Y37153258D01*
X94182422Y37153258D02*
X94182422Y37962781D01*
X93230041Y36962781D02*
X93706231Y36962781D01*
X93706231Y36962781D02*
X93706231Y37962781D01*
X92420517Y36962781D02*
X92896707Y36962781D01*
X92896707Y36962781D02*
X92896707Y37962781D01*
X91325278Y37962781D02*
X91325278Y37153258D01*
X91325278Y37153258D02*
X91277659Y37058020D01*
X91277659Y37058020D02*
X91230040Y37010400D01*
X91230040Y37010400D02*
X91134802Y36962781D01*
X91134802Y36962781D02*
X90944326Y36962781D01*
X90944326Y36962781D02*
X90849088Y37010400D01*
X90849088Y37010400D02*
X90801469Y37058020D01*
X90801469Y37058020D02*
X90753850Y37153258D01*
X90753850Y37153258D02*
X90753850Y37962781D01*
X90277659Y36962781D02*
X90277659Y37962781D01*
X90277659Y37962781D02*
X89896707Y37962781D01*
X89896707Y37962781D02*
X89801469Y37915162D01*
X89801469Y37915162D02*
X89753850Y37867543D01*
X89753850Y37867543D02*
X89706231Y37772305D01*
X89706231Y37772305D02*
X89706231Y37629448D01*
X89706231Y37629448D02*
X89753850Y37534210D01*
X89753850Y37534210D02*
X89801469Y37486591D01*
X89801469Y37486591D02*
X89896707Y37438972D01*
X89896707Y37438972D02*
X90277659Y37438972D01*
X89325278Y37010400D02*
X89230040Y36962781D01*
X89230040Y36962781D02*
X89039564Y36962781D01*
X89039564Y36962781D02*
X88944326Y37010400D01*
X88944326Y37010400D02*
X88896707Y37105639D01*
X88896707Y37105639D02*
X88896707Y37153258D01*
X88896707Y37153258D02*
X88944326Y37248496D01*
X88944326Y37248496D02*
X89039564Y37296115D01*
X89039564Y37296115D02*
X89182421Y37296115D01*
X89182421Y37296115D02*
X89277659Y37343734D01*
X89277659Y37343734D02*
X89325278Y37438972D01*
X89325278Y37438972D02*
X89325278Y37486591D01*
X89325278Y37486591D02*
X89277659Y37581829D01*
X89277659Y37581829D02*
X89182421Y37629448D01*
X89182421Y37629448D02*
X89039564Y37629448D01*
X89039564Y37629448D02*
X88944326Y37581829D01*
D11*
X74264284Y63525672D02*
X74035713Y62525672D01*
X74035713Y62525672D02*
X73807141Y63239958D01*
X73807141Y63239958D02*
X73578570Y62525672D01*
X73578570Y62525672D02*
X73349998Y63525672D01*
X73007141Y63525672D02*
X72778570Y62525672D01*
X72778570Y62525672D02*
X72549998Y63239958D01*
X72549998Y63239958D02*
X72321427Y62525672D01*
X72321427Y62525672D02*
X72092855Y63525672D01*
X71749998Y63525672D02*
X71521427Y62525672D01*
X71521427Y62525672D02*
X71292855Y63239958D01*
X71292855Y63239958D02*
X71064284Y62525672D01*
X71064284Y62525672D02*
X70835712Y63525672D01*
X70378569Y62668529D02*
X70321426Y62597100D01*
X70321426Y62597100D02*
X70378569Y62525672D01*
X70378569Y62525672D02*
X70435712Y62597100D01*
X70435712Y62597100D02*
X70378569Y62668529D01*
X70378569Y62668529D02*
X70378569Y62525672D01*
X69292855Y62597100D02*
X69407140Y62525672D01*
X69407140Y62525672D02*
X69635712Y62525672D01*
X69635712Y62525672D02*
X69749997Y62597100D01*
X69749997Y62597100D02*
X69807140Y62668529D01*
X69807140Y62668529D02*
X69864283Y62811386D01*
X69864283Y62811386D02*
X69864283Y63239958D01*
X69864283Y63239958D02*
X69807140Y63382815D01*
X69807140Y63382815D02*
X69749997Y63454243D01*
X69749997Y63454243D02*
X69635712Y63525672D01*
X69635712Y63525672D02*
X69407140Y63525672D01*
X69407140Y63525672D02*
X69292855Y63454243D01*
X68264284Y63525672D02*
X68264284Y62525672D01*
X68778569Y63525672D02*
X68778569Y62739958D01*
X68778569Y62739958D02*
X68721426Y62597100D01*
X68721426Y62597100D02*
X68607141Y62525672D01*
X68607141Y62525672D02*
X68435712Y62525672D01*
X68435712Y62525672D02*
X68321426Y62597100D01*
X68321426Y62597100D02*
X68264284Y62668529D01*
X67692855Y62525672D02*
X67692855Y63525672D01*
X67692855Y63239958D02*
X67635712Y63382815D01*
X67635712Y63382815D02*
X67578570Y63454243D01*
X67578570Y63454243D02*
X67464284Y63525672D01*
X67464284Y63525672D02*
X67349998Y63525672D01*
X66949998Y62525672D02*
X66949998Y63525672D01*
X66949998Y64025672D02*
X67007141Y63954243D01*
X67007141Y63954243D02*
X66949998Y63882815D01*
X66949998Y63882815D02*
X66892855Y63954243D01*
X66892855Y63954243D02*
X66949998Y64025672D01*
X66949998Y64025672D02*
X66949998Y63882815D01*
X66207141Y62525672D02*
X66321426Y62597100D01*
X66321426Y62597100D02*
X66378569Y62668529D01*
X66378569Y62668529D02*
X66435712Y62811386D01*
X66435712Y62811386D02*
X66435712Y63239958D01*
X66435712Y63239958D02*
X66378569Y63382815D01*
X66378569Y63382815D02*
X66321426Y63454243D01*
X66321426Y63454243D02*
X66207141Y63525672D01*
X66207141Y63525672D02*
X66035712Y63525672D01*
X66035712Y63525672D02*
X65921426Y63454243D01*
X65921426Y63454243D02*
X65864284Y63382815D01*
X65864284Y63382815D02*
X65807141Y63239958D01*
X65807141Y63239958D02*
X65807141Y62811386D01*
X65807141Y62811386D02*
X65864284Y62668529D01*
X65864284Y62668529D02*
X65921426Y62597100D01*
X65921426Y62597100D02*
X66035712Y62525672D01*
X66035712Y62525672D02*
X66207141Y62525672D01*
X64778570Y63525672D02*
X64778570Y62525672D01*
X65292855Y63525672D02*
X65292855Y62739958D01*
X65292855Y62739958D02*
X65235712Y62597100D01*
X65235712Y62597100D02*
X65121427Y62525672D01*
X65121427Y62525672D02*
X64949998Y62525672D01*
X64949998Y62525672D02*
X64835712Y62597100D01*
X64835712Y62597100D02*
X64778570Y62668529D01*
X64264284Y62597100D02*
X64149998Y62525672D01*
X64149998Y62525672D02*
X63921427Y62525672D01*
X63921427Y62525672D02*
X63807141Y62597100D01*
X63807141Y62597100D02*
X63749998Y62739958D01*
X63749998Y62739958D02*
X63749998Y62811386D01*
X63749998Y62811386D02*
X63807141Y62954243D01*
X63807141Y62954243D02*
X63921427Y63025672D01*
X63921427Y63025672D02*
X64092856Y63025672D01*
X64092856Y63025672D02*
X64207141Y63097100D01*
X64207141Y63097100D02*
X64264284Y63239958D01*
X64264284Y63239958D02*
X64264284Y63311386D01*
X64264284Y63311386D02*
X64207141Y63454243D01*
X64207141Y63454243D02*
X64092856Y63525672D01*
X64092856Y63525672D02*
X63921427Y63525672D01*
X63921427Y63525672D02*
X63807141Y63454243D01*
X62778569Y62597100D02*
X62892855Y62525672D01*
X62892855Y62525672D02*
X63121427Y62525672D01*
X63121427Y62525672D02*
X63235712Y62597100D01*
X63235712Y62597100D02*
X63292855Y62739958D01*
X63292855Y62739958D02*
X63292855Y63311386D01*
X63292855Y63311386D02*
X63235712Y63454243D01*
X63235712Y63454243D02*
X63121427Y63525672D01*
X63121427Y63525672D02*
X62892855Y63525672D01*
X62892855Y63525672D02*
X62778569Y63454243D01*
X62778569Y63454243D02*
X62721427Y63311386D01*
X62721427Y63311386D02*
X62721427Y63168529D01*
X62721427Y63168529D02*
X63292855Y63025672D01*
X62035713Y62525672D02*
X62149998Y62597100D01*
X62149998Y62597100D02*
X62207141Y62739958D01*
X62207141Y62739958D02*
X62207141Y64025672D01*
X61121427Y62597100D02*
X61235713Y62525672D01*
X61235713Y62525672D02*
X61464285Y62525672D01*
X61464285Y62525672D02*
X61578570Y62597100D01*
X61578570Y62597100D02*
X61635713Y62739958D01*
X61635713Y62739958D02*
X61635713Y63311386D01*
X61635713Y63311386D02*
X61578570Y63454243D01*
X61578570Y63454243D02*
X61464285Y63525672D01*
X61464285Y63525672D02*
X61235713Y63525672D01*
X61235713Y63525672D02*
X61121427Y63454243D01*
X61121427Y63454243D02*
X61064285Y63311386D01*
X61064285Y63311386D02*
X61064285Y63168529D01*
X61064285Y63168529D02*
X61635713Y63025672D01*
X60035714Y62597100D02*
X60149999Y62525672D01*
X60149999Y62525672D02*
X60378571Y62525672D01*
X60378571Y62525672D02*
X60492856Y62597100D01*
X60492856Y62597100D02*
X60549999Y62668529D01*
X60549999Y62668529D02*
X60607142Y62811386D01*
X60607142Y62811386D02*
X60607142Y63239958D01*
X60607142Y63239958D02*
X60549999Y63382815D01*
X60549999Y63382815D02*
X60492856Y63454243D01*
X60492856Y63454243D02*
X60378571Y63525672D01*
X60378571Y63525672D02*
X60149999Y63525672D01*
X60149999Y63525672D02*
X60035714Y63454243D01*
X59692857Y63525672D02*
X59235714Y63525672D01*
X59521428Y64025672D02*
X59521428Y62739958D01*
X59521428Y62739958D02*
X59464285Y62597100D01*
X59464285Y62597100D02*
X59350000Y62525672D01*
X59350000Y62525672D02*
X59235714Y62525672D01*
X58835714Y62525672D02*
X58835714Y63525672D01*
X58835714Y63239958D02*
X58778571Y63382815D01*
X58778571Y63382815D02*
X58721429Y63454243D01*
X58721429Y63454243D02*
X58607143Y63525672D01*
X58607143Y63525672D02*
X58492857Y63525672D01*
X58092857Y62525672D02*
X58092857Y63525672D01*
X58092857Y64025672D02*
X58150000Y63954243D01*
X58150000Y63954243D02*
X58092857Y63882815D01*
X58092857Y63882815D02*
X58035714Y63954243D01*
X58035714Y63954243D02*
X58092857Y64025672D01*
X58092857Y64025672D02*
X58092857Y63882815D01*
X57007143Y62597100D02*
X57121428Y62525672D01*
X57121428Y62525672D02*
X57350000Y62525672D01*
X57350000Y62525672D02*
X57464285Y62597100D01*
X57464285Y62597100D02*
X57521428Y62668529D01*
X57521428Y62668529D02*
X57578571Y62811386D01*
X57578571Y62811386D02*
X57578571Y63239958D01*
X57578571Y63239958D02*
X57521428Y63382815D01*
X57521428Y63382815D02*
X57464285Y63454243D01*
X57464285Y63454243D02*
X57350000Y63525672D01*
X57350000Y63525672D02*
X57121428Y63525672D01*
X57121428Y63525672D02*
X57007143Y63454243D01*
X56492857Y62668529D02*
X56435714Y62597100D01*
X56435714Y62597100D02*
X56492857Y62525672D01*
X56492857Y62525672D02*
X56550000Y62597100D01*
X56550000Y62597100D02*
X56492857Y62668529D01*
X56492857Y62668529D02*
X56492857Y62525672D01*
X55407143Y62597100D02*
X55521428Y62525672D01*
X55521428Y62525672D02*
X55750000Y62525672D01*
X55750000Y62525672D02*
X55864285Y62597100D01*
X55864285Y62597100D02*
X55921428Y62668529D01*
X55921428Y62668529D02*
X55978571Y62811386D01*
X55978571Y62811386D02*
X55978571Y63239958D01*
X55978571Y63239958D02*
X55921428Y63382815D01*
X55921428Y63382815D02*
X55864285Y63454243D01*
X55864285Y63454243D02*
X55750000Y63525672D01*
X55750000Y63525672D02*
X55521428Y63525672D01*
X55521428Y63525672D02*
X55407143Y63454243D01*
X54721429Y62525672D02*
X54835714Y62597100D01*
X54835714Y62597100D02*
X54892857Y62668529D01*
X54892857Y62668529D02*
X54950000Y62811386D01*
X54950000Y62811386D02*
X54950000Y63239958D01*
X54950000Y63239958D02*
X54892857Y63382815D01*
X54892857Y63382815D02*
X54835714Y63454243D01*
X54835714Y63454243D02*
X54721429Y63525672D01*
X54721429Y63525672D02*
X54550000Y63525672D01*
X54550000Y63525672D02*
X54435714Y63454243D01*
X54435714Y63454243D02*
X54378572Y63382815D01*
X54378572Y63382815D02*
X54321429Y63239958D01*
X54321429Y63239958D02*
X54321429Y62811386D01*
X54321429Y62811386D02*
X54378572Y62668529D01*
X54378572Y62668529D02*
X54435714Y62597100D01*
X54435714Y62597100D02*
X54550000Y62525672D01*
X54550000Y62525672D02*
X54721429Y62525672D01*
X53807143Y62668529D02*
X53750000Y62597100D01*
X53750000Y62597100D02*
X53807143Y62525672D01*
X53807143Y62525672D02*
X53864286Y62597100D01*
X53864286Y62597100D02*
X53807143Y62668529D01*
X53807143Y62668529D02*
X53807143Y62525672D01*
X52721429Y63525672D02*
X52721429Y62525672D01*
X53235714Y63525672D02*
X53235714Y62739958D01*
X53235714Y62739958D02*
X53178571Y62597100D01*
X53178571Y62597100D02*
X53064286Y62525672D01*
X53064286Y62525672D02*
X52892857Y62525672D01*
X52892857Y62525672D02*
X52778571Y62597100D01*
X52778571Y62597100D02*
X52721429Y62668529D01*
X52150000Y62525672D02*
X52150000Y64025672D01*
X52035715Y63097100D02*
X51692857Y62525672D01*
X51692857Y63525672D02*
X52150000Y62954243D01*
X74306285Y59265672D02*
X74306285Y60765672D01*
X74306285Y60765672D02*
X74020571Y60765672D01*
X74020571Y60765672D02*
X73849142Y60694243D01*
X73849142Y60694243D02*
X73734857Y60551386D01*
X73734857Y60551386D02*
X73677714Y60408529D01*
X73677714Y60408529D02*
X73620571Y60122815D01*
X73620571Y60122815D02*
X73620571Y59908529D01*
X73620571Y59908529D02*
X73677714Y59622815D01*
X73677714Y59622815D02*
X73734857Y59479958D01*
X73734857Y59479958D02*
X73849142Y59337100D01*
X73849142Y59337100D02*
X74020571Y59265672D01*
X74020571Y59265672D02*
X74306285Y59265672D01*
X72649142Y59337100D02*
X72763428Y59265672D01*
X72763428Y59265672D02*
X72992000Y59265672D01*
X72992000Y59265672D02*
X73106285Y59337100D01*
X73106285Y59337100D02*
X73163428Y59479958D01*
X73163428Y59479958D02*
X73163428Y60051386D01*
X73163428Y60051386D02*
X73106285Y60194243D01*
X73106285Y60194243D02*
X72992000Y60265672D01*
X72992000Y60265672D02*
X72763428Y60265672D01*
X72763428Y60265672D02*
X72649142Y60194243D01*
X72649142Y60194243D02*
X72592000Y60051386D01*
X72592000Y60051386D02*
X72592000Y59908529D01*
X72592000Y59908529D02*
X73163428Y59765672D01*
X72134857Y59337100D02*
X72020571Y59265672D01*
X72020571Y59265672D02*
X71792000Y59265672D01*
X71792000Y59265672D02*
X71677714Y59337100D01*
X71677714Y59337100D02*
X71620571Y59479958D01*
X71620571Y59479958D02*
X71620571Y59551386D01*
X71620571Y59551386D02*
X71677714Y59694243D01*
X71677714Y59694243D02*
X71792000Y59765672D01*
X71792000Y59765672D02*
X71963429Y59765672D01*
X71963429Y59765672D02*
X72077714Y59837100D01*
X72077714Y59837100D02*
X72134857Y59979958D01*
X72134857Y59979958D02*
X72134857Y60051386D01*
X72134857Y60051386D02*
X72077714Y60194243D01*
X72077714Y60194243D02*
X71963429Y60265672D01*
X71963429Y60265672D02*
X71792000Y60265672D01*
X71792000Y60265672D02*
X71677714Y60194243D01*
X71106285Y59265672D02*
X71106285Y60265672D01*
X71106285Y60765672D02*
X71163428Y60694243D01*
X71163428Y60694243D02*
X71106285Y60622815D01*
X71106285Y60622815D02*
X71049142Y60694243D01*
X71049142Y60694243D02*
X71106285Y60765672D01*
X71106285Y60765672D02*
X71106285Y60622815D01*
X70020571Y60265672D02*
X70020571Y59051386D01*
X70020571Y59051386D02*
X70077713Y58908529D01*
X70077713Y58908529D02*
X70134856Y58837100D01*
X70134856Y58837100D02*
X70249142Y58765672D01*
X70249142Y58765672D02*
X70420571Y58765672D01*
X70420571Y58765672D02*
X70534856Y58837100D01*
X70020571Y59337100D02*
X70134856Y59265672D01*
X70134856Y59265672D02*
X70363428Y59265672D01*
X70363428Y59265672D02*
X70477713Y59337100D01*
X70477713Y59337100D02*
X70534856Y59408529D01*
X70534856Y59408529D02*
X70591999Y59551386D01*
X70591999Y59551386D02*
X70591999Y59979958D01*
X70591999Y59979958D02*
X70534856Y60122815D01*
X70534856Y60122815D02*
X70477713Y60194243D01*
X70477713Y60194243D02*
X70363428Y60265672D01*
X70363428Y60265672D02*
X70134856Y60265672D01*
X70134856Y60265672D02*
X70020571Y60194243D01*
X69449142Y60265672D02*
X69449142Y59265672D01*
X69449142Y60122815D02*
X69391999Y60194243D01*
X69391999Y60194243D02*
X69277714Y60265672D01*
X69277714Y60265672D02*
X69106285Y60265672D01*
X69106285Y60265672D02*
X68991999Y60194243D01*
X68991999Y60194243D02*
X68934857Y60051386D01*
X68934857Y60051386D02*
X68934857Y59265672D01*
X66820571Y59265672D02*
X67506285Y59265672D01*
X67163428Y59265672D02*
X67163428Y60765672D01*
X67163428Y60765672D02*
X67277714Y60551386D01*
X67277714Y60551386D02*
X67391999Y60408529D01*
X67391999Y60408529D02*
X67506285Y60337100D01*
X66249142Y59265672D02*
X66020571Y59265672D01*
X66020571Y59265672D02*
X65906285Y59337100D01*
X65906285Y59337100D02*
X65849142Y59408529D01*
X65849142Y59408529D02*
X65734857Y59622815D01*
X65734857Y59622815D02*
X65677714Y59908529D01*
X65677714Y59908529D02*
X65677714Y60479958D01*
X65677714Y60479958D02*
X65734857Y60622815D01*
X65734857Y60622815D02*
X65792000Y60694243D01*
X65792000Y60694243D02*
X65906285Y60765672D01*
X65906285Y60765672D02*
X66134857Y60765672D01*
X66134857Y60765672D02*
X66249142Y60694243D01*
X66249142Y60694243D02*
X66306285Y60622815D01*
X66306285Y60622815D02*
X66363428Y60479958D01*
X66363428Y60479958D02*
X66363428Y60122815D01*
X66363428Y60122815D02*
X66306285Y59979958D01*
X66306285Y59979958D02*
X66249142Y59908529D01*
X66249142Y59908529D02*
X66134857Y59837100D01*
X66134857Y59837100D02*
X65906285Y59837100D01*
X65906285Y59837100D02*
X65792000Y59908529D01*
X65792000Y59908529D02*
X65734857Y59979958D01*
X65734857Y59979958D02*
X65677714Y60122815D01*
X64306285Y60837100D02*
X65334857Y58908529D01*
X63677714Y60765672D02*
X63563428Y60765672D01*
X63563428Y60765672D02*
X63449142Y60694243D01*
X63449142Y60694243D02*
X63392000Y60622815D01*
X63392000Y60622815D02*
X63334857Y60479958D01*
X63334857Y60479958D02*
X63277714Y60194243D01*
X63277714Y60194243D02*
X63277714Y59837100D01*
X63277714Y59837100D02*
X63334857Y59551386D01*
X63334857Y59551386D02*
X63392000Y59408529D01*
X63392000Y59408529D02*
X63449142Y59337100D01*
X63449142Y59337100D02*
X63563428Y59265672D01*
X63563428Y59265672D02*
X63677714Y59265672D01*
X63677714Y59265672D02*
X63792000Y59337100D01*
X63792000Y59337100D02*
X63849142Y59408529D01*
X63849142Y59408529D02*
X63906285Y59551386D01*
X63906285Y59551386D02*
X63963428Y59837100D01*
X63963428Y59837100D02*
X63963428Y60194243D01*
X63963428Y60194243D02*
X63906285Y60479958D01*
X63906285Y60479958D02*
X63849142Y60622815D01*
X63849142Y60622815D02*
X63792000Y60694243D01*
X63792000Y60694243D02*
X63677714Y60765672D01*
X62249143Y60765672D02*
X62477714Y60765672D01*
X62477714Y60765672D02*
X62592000Y60694243D01*
X62592000Y60694243D02*
X62649143Y60622815D01*
X62649143Y60622815D02*
X62763428Y60408529D01*
X62763428Y60408529D02*
X62820571Y60122815D01*
X62820571Y60122815D02*
X62820571Y59551386D01*
X62820571Y59551386D02*
X62763428Y59408529D01*
X62763428Y59408529D02*
X62706285Y59337100D01*
X62706285Y59337100D02*
X62592000Y59265672D01*
X62592000Y59265672D02*
X62363428Y59265672D01*
X62363428Y59265672D02*
X62249143Y59337100D01*
X62249143Y59337100D02*
X62192000Y59408529D01*
X62192000Y59408529D02*
X62134857Y59551386D01*
X62134857Y59551386D02*
X62134857Y59908529D01*
X62134857Y59908529D02*
X62192000Y60051386D01*
X62192000Y60051386D02*
X62249143Y60122815D01*
X62249143Y60122815D02*
X62363428Y60194243D01*
X62363428Y60194243D02*
X62592000Y60194243D01*
X62592000Y60194243D02*
X62706285Y60122815D01*
X62706285Y60122815D02*
X62763428Y60051386D01*
X62763428Y60051386D02*
X62820571Y59908529D01*
X60763428Y60837100D02*
X61792000Y58908529D01*
X60420571Y60622815D02*
X60363428Y60694243D01*
X60363428Y60694243D02*
X60249143Y60765672D01*
X60249143Y60765672D02*
X59963428Y60765672D01*
X59963428Y60765672D02*
X59849143Y60694243D01*
X59849143Y60694243D02*
X59792000Y60622815D01*
X59792000Y60622815D02*
X59734857Y60479958D01*
X59734857Y60479958D02*
X59734857Y60337100D01*
X59734857Y60337100D02*
X59792000Y60122815D01*
X59792000Y60122815D02*
X60477714Y59265672D01*
X60477714Y59265672D02*
X59734857Y59265672D01*
X58992000Y60765672D02*
X58877714Y60765672D01*
X58877714Y60765672D02*
X58763428Y60694243D01*
X58763428Y60694243D02*
X58706286Y60622815D01*
X58706286Y60622815D02*
X58649143Y60479958D01*
X58649143Y60479958D02*
X58592000Y60194243D01*
X58592000Y60194243D02*
X58592000Y59837100D01*
X58592000Y59837100D02*
X58649143Y59551386D01*
X58649143Y59551386D02*
X58706286Y59408529D01*
X58706286Y59408529D02*
X58763428Y59337100D01*
X58763428Y59337100D02*
X58877714Y59265672D01*
X58877714Y59265672D02*
X58992000Y59265672D01*
X58992000Y59265672D02*
X59106286Y59337100D01*
X59106286Y59337100D02*
X59163428Y59408529D01*
X59163428Y59408529D02*
X59220571Y59551386D01*
X59220571Y59551386D02*
X59277714Y59837100D01*
X59277714Y59837100D02*
X59277714Y60194243D01*
X59277714Y60194243D02*
X59220571Y60479958D01*
X59220571Y60479958D02*
X59163428Y60622815D01*
X59163428Y60622815D02*
X59106286Y60694243D01*
X59106286Y60694243D02*
X58992000Y60765672D01*
X58134857Y60622815D02*
X58077714Y60694243D01*
X58077714Y60694243D02*
X57963429Y60765672D01*
X57963429Y60765672D02*
X57677714Y60765672D01*
X57677714Y60765672D02*
X57563429Y60694243D01*
X57563429Y60694243D02*
X57506286Y60622815D01*
X57506286Y60622815D02*
X57449143Y60479958D01*
X57449143Y60479958D02*
X57449143Y60337100D01*
X57449143Y60337100D02*
X57506286Y60122815D01*
X57506286Y60122815D02*
X58192000Y59265672D01*
X58192000Y59265672D02*
X57449143Y59265672D01*
X56420572Y60765672D02*
X56649143Y60765672D01*
X56649143Y60765672D02*
X56763429Y60694243D01*
X56763429Y60694243D02*
X56820572Y60622815D01*
X56820572Y60622815D02*
X56934857Y60408529D01*
X56934857Y60408529D02*
X56992000Y60122815D01*
X56992000Y60122815D02*
X56992000Y59551386D01*
X56992000Y59551386D02*
X56934857Y59408529D01*
X56934857Y59408529D02*
X56877714Y59337100D01*
X56877714Y59337100D02*
X56763429Y59265672D01*
X56763429Y59265672D02*
X56534857Y59265672D01*
X56534857Y59265672D02*
X56420572Y59337100D01*
X56420572Y59337100D02*
X56363429Y59408529D01*
X56363429Y59408529D02*
X56306286Y59551386D01*
X56306286Y59551386D02*
X56306286Y59908529D01*
X56306286Y59908529D02*
X56363429Y60051386D01*
X56363429Y60051386D02*
X56420572Y60122815D01*
X56420572Y60122815D02*
X56534857Y60194243D01*
X56534857Y60194243D02*
X56763429Y60194243D01*
X56763429Y60194243D02*
X56877714Y60122815D01*
X56877714Y60122815D02*
X56934857Y60051386D01*
X56934857Y60051386D02*
X56992000Y59908529D01*
X54992000Y60265672D02*
X54706286Y59265672D01*
X54706286Y59265672D02*
X54420571Y60265672D01*
X53334857Y59265672D02*
X54020571Y59265672D01*
X53677714Y59265672D02*
X53677714Y60765672D01*
X53677714Y60765672D02*
X53792000Y60551386D01*
X53792000Y60551386D02*
X53906285Y60408529D01*
X53906285Y60408529D02*
X54020571Y60337100D01*
X52820571Y59408529D02*
X52763428Y59337100D01*
X52763428Y59337100D02*
X52820571Y59265672D01*
X52820571Y59265672D02*
X52877714Y59337100D01*
X52877714Y59337100D02*
X52820571Y59408529D01*
X52820571Y59408529D02*
X52820571Y59265672D01*
X51620571Y59265672D02*
X52306285Y59265672D01*
X51963428Y59265672D02*
X51963428Y60765672D01*
X51963428Y60765672D02*
X52077714Y60551386D01*
X52077714Y60551386D02*
X52191999Y60408529D01*
X52191999Y60408529D02*
X52306285Y60337100D01*
D12*
X64930476Y84267975D02*
X65597143Y85696547D01*
X66073333Y84267975D02*
X66073333Y87267975D01*
X66073333Y87267975D02*
X65311428Y87267975D01*
X65311428Y87267975D02*
X65120952Y87125118D01*
X65120952Y87125118D02*
X65025714Y86982261D01*
X65025714Y86982261D02*
X64930476Y86696547D01*
X64930476Y86696547D02*
X64930476Y86267975D01*
X64930476Y86267975D02*
X65025714Y85982261D01*
X65025714Y85982261D02*
X65120952Y85839404D01*
X65120952Y85839404D02*
X65311428Y85696547D01*
X65311428Y85696547D02*
X66073333Y85696547D01*
X64168571Y84410832D02*
X63882857Y84267975D01*
X63882857Y84267975D02*
X63406666Y84267975D01*
X63406666Y84267975D02*
X63216190Y84410832D01*
X63216190Y84410832D02*
X63120952Y84553690D01*
X63120952Y84553690D02*
X63025714Y84839404D01*
X63025714Y84839404D02*
X63025714Y85125118D01*
X63025714Y85125118D02*
X63120952Y85410832D01*
X63120952Y85410832D02*
X63216190Y85553690D01*
X63216190Y85553690D02*
X63406666Y85696547D01*
X63406666Y85696547D02*
X63787619Y85839404D01*
X63787619Y85839404D02*
X63978095Y85982261D01*
X63978095Y85982261D02*
X64073333Y86125118D01*
X64073333Y86125118D02*
X64168571Y86410832D01*
X64168571Y86410832D02*
X64168571Y86696547D01*
X64168571Y86696547D02*
X64073333Y86982261D01*
X64073333Y86982261D02*
X63978095Y87125118D01*
X63978095Y87125118D02*
X63787619Y87267975D01*
X63787619Y87267975D02*
X63311428Y87267975D01*
X63311428Y87267975D02*
X63025714Y87125118D01*
X61311428Y86267975D02*
X61311428Y84267975D01*
X61787619Y87410832D02*
X62263809Y85267975D01*
X62263809Y85267975D02*
X61025714Y85267975D01*
X59978095Y85982261D02*
X60168571Y86125118D01*
X60168571Y86125118D02*
X60263809Y86267975D01*
X60263809Y86267975D02*
X60359047Y86553690D01*
X60359047Y86553690D02*
X60359047Y86696547D01*
X60359047Y86696547D02*
X60263809Y86982261D01*
X60263809Y86982261D02*
X60168571Y87125118D01*
X60168571Y87125118D02*
X59978095Y87267975D01*
X59978095Y87267975D02*
X59597142Y87267975D01*
X59597142Y87267975D02*
X59406666Y87125118D01*
X59406666Y87125118D02*
X59311428Y86982261D01*
X59311428Y86982261D02*
X59216190Y86696547D01*
X59216190Y86696547D02*
X59216190Y86553690D01*
X59216190Y86553690D02*
X59311428Y86267975D01*
X59311428Y86267975D02*
X59406666Y86125118D01*
X59406666Y86125118D02*
X59597142Y85982261D01*
X59597142Y85982261D02*
X59978095Y85982261D01*
X59978095Y85982261D02*
X60168571Y85839404D01*
X60168571Y85839404D02*
X60263809Y85696547D01*
X60263809Y85696547D02*
X60359047Y85410832D01*
X60359047Y85410832D02*
X60359047Y84839404D01*
X60359047Y84839404D02*
X60263809Y84553690D01*
X60263809Y84553690D02*
X60168571Y84410832D01*
X60168571Y84410832D02*
X59978095Y84267975D01*
X59978095Y84267975D02*
X59597142Y84267975D01*
X59597142Y84267975D02*
X59406666Y84410832D01*
X59406666Y84410832D02*
X59311428Y84553690D01*
X59311428Y84553690D02*
X59216190Y84839404D01*
X59216190Y84839404D02*
X59216190Y85410832D01*
X59216190Y85410832D02*
X59311428Y85696547D01*
X59311428Y85696547D02*
X59406666Y85839404D01*
X59406666Y85839404D02*
X59597142Y85982261D01*
X57406666Y87267975D02*
X58359047Y87267975D01*
X58359047Y87267975D02*
X58454285Y85839404D01*
X58454285Y85839404D02*
X58359047Y85982261D01*
X58359047Y85982261D02*
X58168571Y86125118D01*
X58168571Y86125118D02*
X57692380Y86125118D01*
X57692380Y86125118D02*
X57501904Y85982261D01*
X57501904Y85982261D02*
X57406666Y85839404D01*
X57406666Y85839404D02*
X57311428Y85553690D01*
X57311428Y85553690D02*
X57311428Y84839404D01*
X57311428Y84839404D02*
X57406666Y84553690D01*
X57406666Y84553690D02*
X57501904Y84410832D01*
X57501904Y84410832D02*
X57692380Y84267975D01*
X57692380Y84267975D02*
X58168571Y84267975D01*
X58168571Y84267975D02*
X58359047Y84410832D01*
X58359047Y84410832D02*
X58454285Y84553690D01*
X69073333Y79438143D02*
X69073333Y82438143D01*
X68120952Y79438143D02*
X68120952Y82438143D01*
X68120952Y82438143D02*
X66978095Y79438143D01*
X66978095Y79438143D02*
X66978095Y82438143D01*
X66311428Y82438143D02*
X65168571Y82438143D01*
X65740000Y79438143D02*
X65740000Y82438143D01*
X64501904Y81009572D02*
X63835237Y81009572D01*
X63549523Y79438143D02*
X64501904Y79438143D01*
X64501904Y79438143D02*
X64501904Y82438143D01*
X64501904Y82438143D02*
X63549523Y82438143D01*
X61549523Y79438143D02*
X62216190Y80866715D01*
X62692380Y79438143D02*
X62692380Y82438143D01*
X62692380Y82438143D02*
X61930475Y82438143D01*
X61930475Y82438143D02*
X61739999Y82295286D01*
X61739999Y82295286D02*
X61644761Y82152429D01*
X61644761Y82152429D02*
X61549523Y81866715D01*
X61549523Y81866715D02*
X61549523Y81438143D01*
X61549523Y81438143D02*
X61644761Y81152429D01*
X61644761Y81152429D02*
X61739999Y81009572D01*
X61739999Y81009572D02*
X61930475Y80866715D01*
X61930475Y80866715D02*
X62692380Y80866715D01*
X60025713Y81009572D02*
X60692380Y81009572D01*
X60692380Y79438143D02*
X60692380Y82438143D01*
X60692380Y82438143D02*
X59739999Y82438143D01*
X59073332Y80295286D02*
X58120951Y80295286D01*
X59263808Y79438143D02*
X58597142Y82438143D01*
X58597142Y82438143D02*
X57930475Y79438143D01*
X56120951Y79723858D02*
X56216189Y79581000D01*
X56216189Y79581000D02*
X56501903Y79438143D01*
X56501903Y79438143D02*
X56692379Y79438143D01*
X56692379Y79438143D02*
X56978094Y79581000D01*
X56978094Y79581000D02*
X57168570Y79866715D01*
X57168570Y79866715D02*
X57263808Y80152429D01*
X57263808Y80152429D02*
X57359046Y80723858D01*
X57359046Y80723858D02*
X57359046Y81152429D01*
X57359046Y81152429D02*
X57263808Y81723858D01*
X57263808Y81723858D02*
X57168570Y82009572D01*
X57168570Y82009572D02*
X56978094Y82295286D01*
X56978094Y82295286D02*
X56692379Y82438143D01*
X56692379Y82438143D02*
X56501903Y82438143D01*
X56501903Y82438143D02*
X56216189Y82295286D01*
X56216189Y82295286D02*
X56120951Y82152429D01*
X55263808Y81009572D02*
X54597141Y81009572D01*
X54311427Y79438143D02*
X55263808Y79438143D01*
X55263808Y79438143D02*
X55263808Y82438143D01*
X55263808Y82438143D02*
X54311427Y82438143D01*
X65501904Y76179740D02*
X65216190Y76036883D01*
X65216190Y76036883D02*
X65120952Y75894026D01*
X65120952Y75894026D02*
X65025714Y75608311D01*
X65025714Y75608311D02*
X65025714Y75179740D01*
X65025714Y75179740D02*
X65120952Y74894026D01*
X65120952Y74894026D02*
X65216190Y74751168D01*
X65216190Y74751168D02*
X65406666Y74608311D01*
X65406666Y74608311D02*
X66168571Y74608311D01*
X66168571Y74608311D02*
X66168571Y77608311D01*
X66168571Y77608311D02*
X65501904Y77608311D01*
X65501904Y77608311D02*
X65311428Y77465454D01*
X65311428Y77465454D02*
X65216190Y77322597D01*
X65216190Y77322597D02*
X65120952Y77036883D01*
X65120952Y77036883D02*
X65120952Y76751168D01*
X65120952Y76751168D02*
X65216190Y76465454D01*
X65216190Y76465454D02*
X65311428Y76322597D01*
X65311428Y76322597D02*
X65501904Y76179740D01*
X65501904Y76179740D02*
X66168571Y76179740D01*
X63787619Y77608311D02*
X63406666Y77608311D01*
X63406666Y77608311D02*
X63216190Y77465454D01*
X63216190Y77465454D02*
X63025714Y77179740D01*
X63025714Y77179740D02*
X62930476Y76608311D01*
X62930476Y76608311D02*
X62930476Y75608311D01*
X62930476Y75608311D02*
X63025714Y75036883D01*
X63025714Y75036883D02*
X63216190Y74751168D01*
X63216190Y74751168D02*
X63406666Y74608311D01*
X63406666Y74608311D02*
X63787619Y74608311D01*
X63787619Y74608311D02*
X63978095Y74751168D01*
X63978095Y74751168D02*
X64168571Y75036883D01*
X64168571Y75036883D02*
X64263809Y75608311D01*
X64263809Y75608311D02*
X64263809Y76608311D01*
X64263809Y76608311D02*
X64168571Y77179740D01*
X64168571Y77179740D02*
X63978095Y77465454D01*
X63978095Y77465454D02*
X63787619Y77608311D01*
X62168571Y75465454D02*
X61216190Y75465454D01*
X62359047Y74608311D02*
X61692381Y77608311D01*
X61692381Y77608311D02*
X61025714Y74608311D01*
X59216190Y74608311D02*
X59882857Y76036883D01*
X60359047Y74608311D02*
X60359047Y77608311D01*
X60359047Y77608311D02*
X59597142Y77608311D01*
X59597142Y77608311D02*
X59406666Y77465454D01*
X59406666Y77465454D02*
X59311428Y77322597D01*
X59311428Y77322597D02*
X59216190Y77036883D01*
X59216190Y77036883D02*
X59216190Y76608311D01*
X59216190Y76608311D02*
X59311428Y76322597D01*
X59311428Y76322597D02*
X59406666Y76179740D01*
X59406666Y76179740D02*
X59597142Y76036883D01*
X59597142Y76036883D02*
X60359047Y76036883D01*
X58359047Y74608311D02*
X58359047Y77608311D01*
X58359047Y77608311D02*
X57882857Y77608311D01*
X57882857Y77608311D02*
X57597142Y77465454D01*
X57597142Y77465454D02*
X57406666Y77179740D01*
X57406666Y77179740D02*
X57311428Y76894026D01*
X57311428Y76894026D02*
X57216190Y76322597D01*
X57216190Y76322597D02*
X57216190Y75894026D01*
X57216190Y75894026D02*
X57311428Y75322597D01*
X57311428Y75322597D02*
X57406666Y75036883D01*
X57406666Y75036883D02*
X57597142Y74751168D01*
X57597142Y74751168D02*
X57882857Y74608311D01*
X57882857Y74608311D02*
X58359047Y74608311D01*
D10*
X70937219Y24233095D02*
X69937219Y24233095D01*
X69937219Y24233095D02*
X69937219Y23995000D01*
X69937219Y23995000D02*
X69984838Y23852143D01*
X69984838Y23852143D02*
X70080076Y23756905D01*
X70080076Y23756905D02*
X70175314Y23709286D01*
X70175314Y23709286D02*
X70365790Y23661667D01*
X70365790Y23661667D02*
X70508647Y23661667D01*
X70508647Y23661667D02*
X70699123Y23709286D01*
X70699123Y23709286D02*
X70794361Y23756905D01*
X70794361Y23756905D02*
X70889600Y23852143D01*
X70889600Y23852143D02*
X70937219Y23995000D01*
X70937219Y23995000D02*
X70937219Y24233095D01*
X70937219Y22709286D02*
X70937219Y23280714D01*
X70937219Y22995000D02*
X69937219Y22995000D01*
X69937219Y22995000D02*
X70080076Y23090238D01*
X70080076Y23090238D02*
X70175314Y23185476D01*
X70175314Y23185476D02*
X70222933Y23280714D01*
X44171904Y57286781D02*
X44171904Y56477258D01*
X44171904Y56477258D02*
X44124285Y56382020D01*
X44124285Y56382020D02*
X44076666Y56334400D01*
X44076666Y56334400D02*
X43981428Y56286781D01*
X43981428Y56286781D02*
X43790952Y56286781D01*
X43790952Y56286781D02*
X43695714Y56334400D01*
X43695714Y56334400D02*
X43648095Y56382020D01*
X43648095Y56382020D02*
X43600476Y56477258D01*
X43600476Y56477258D02*
X43600476Y57286781D01*
X42600476Y56286781D02*
X43171904Y56286781D01*
X42886190Y56286781D02*
X42886190Y57286781D01*
X42886190Y57286781D02*
X42981428Y57143924D01*
X42981428Y57143924D02*
X43076666Y57048686D01*
X43076666Y57048686D02*
X43171904Y57001067D01*
X47156666Y51078020D02*
X47204285Y51030400D01*
X47204285Y51030400D02*
X47347142Y50982781D01*
X47347142Y50982781D02*
X47442380Y50982781D01*
X47442380Y50982781D02*
X47585237Y51030400D01*
X47585237Y51030400D02*
X47680475Y51125639D01*
X47680475Y51125639D02*
X47728094Y51220877D01*
X47728094Y51220877D02*
X47775713Y51411353D01*
X47775713Y51411353D02*
X47775713Y51554210D01*
X47775713Y51554210D02*
X47728094Y51744686D01*
X47728094Y51744686D02*
X47680475Y51839924D01*
X47680475Y51839924D02*
X47585237Y51935162D01*
X47585237Y51935162D02*
X47442380Y51982781D01*
X47442380Y51982781D02*
X47347142Y51982781D01*
X47347142Y51982781D02*
X47204285Y51935162D01*
X47204285Y51935162D02*
X47156666Y51887543D01*
X46775713Y51887543D02*
X46728094Y51935162D01*
X46728094Y51935162D02*
X46632856Y51982781D01*
X46632856Y51982781D02*
X46394761Y51982781D01*
X46394761Y51982781D02*
X46299523Y51935162D01*
X46299523Y51935162D02*
X46251904Y51887543D01*
X46251904Y51887543D02*
X46204285Y51792305D01*
X46204285Y51792305D02*
X46204285Y51697067D01*
X46204285Y51697067D02*
X46251904Y51554210D01*
X46251904Y51554210D02*
X46823332Y50982781D01*
X46823332Y50982781D02*
X46204285Y50982781D01*
X96543219Y47998095D02*
X95543219Y47998095D01*
X95543219Y47998095D02*
X95543219Y47617143D01*
X95543219Y47617143D02*
X95590838Y47521905D01*
X95590838Y47521905D02*
X95638457Y47474286D01*
X95638457Y47474286D02*
X95733695Y47426667D01*
X95733695Y47426667D02*
X95876552Y47426667D01*
X95876552Y47426667D02*
X95971790Y47474286D01*
X95971790Y47474286D02*
X96019409Y47521905D01*
X96019409Y47521905D02*
X96067028Y47617143D01*
X96067028Y47617143D02*
X96067028Y47998095D01*
X95543219Y46521905D02*
X95543219Y46998095D01*
X95543219Y46998095D02*
X96019409Y47045714D01*
X96019409Y47045714D02*
X95971790Y46998095D01*
X95971790Y46998095D02*
X95924171Y46902857D01*
X95924171Y46902857D02*
X95924171Y46664762D01*
X95924171Y46664762D02*
X95971790Y46569524D01*
X95971790Y46569524D02*
X96019409Y46521905D01*
X96019409Y46521905D02*
X96114647Y46474286D01*
X96114647Y46474286D02*
X96352742Y46474286D01*
X96352742Y46474286D02*
X96447980Y46521905D01*
X96447980Y46521905D02*
X96495600Y46569524D01*
X96495600Y46569524D02*
X96543219Y46664762D01*
X96543219Y46664762D02*
X96543219Y46902857D01*
X96543219Y46902857D02*
X96495600Y46998095D01*
X96495600Y46998095D02*
X96447980Y47045714D01*
X38838094Y42727781D02*
X38838094Y43727781D01*
X38838094Y43727781D02*
X38457142Y43727781D01*
X38457142Y43727781D02*
X38361904Y43680162D01*
X38361904Y43680162D02*
X38314285Y43632543D01*
X38314285Y43632543D02*
X38266666Y43537305D01*
X38266666Y43537305D02*
X38266666Y43394448D01*
X38266666Y43394448D02*
X38314285Y43299210D01*
X38314285Y43299210D02*
X38361904Y43251591D01*
X38361904Y43251591D02*
X38457142Y43203972D01*
X38457142Y43203972D02*
X38838094Y43203972D01*
X37790475Y42727781D02*
X37599999Y42727781D01*
X37599999Y42727781D02*
X37504761Y42775400D01*
X37504761Y42775400D02*
X37457142Y42823020D01*
X37457142Y42823020D02*
X37361904Y42965877D01*
X37361904Y42965877D02*
X37314285Y43156353D01*
X37314285Y43156353D02*
X37314285Y43537305D01*
X37314285Y43537305D02*
X37361904Y43632543D01*
X37361904Y43632543D02*
X37409523Y43680162D01*
X37409523Y43680162D02*
X37504761Y43727781D01*
X37504761Y43727781D02*
X37695237Y43727781D01*
X37695237Y43727781D02*
X37790475Y43680162D01*
X37790475Y43680162D02*
X37838094Y43632543D01*
X37838094Y43632543D02*
X37885713Y43537305D01*
X37885713Y43537305D02*
X37885713Y43299210D01*
X37885713Y43299210D02*
X37838094Y43203972D01*
X37838094Y43203972D02*
X37790475Y43156353D01*
X37790475Y43156353D02*
X37695237Y43108734D01*
X37695237Y43108734D02*
X37504761Y43108734D01*
X37504761Y43108734D02*
X37409523Y43156353D01*
X37409523Y43156353D02*
X37361904Y43203972D01*
X37361904Y43203972D02*
X37314285Y43299210D01*
X94146666Y38917781D02*
X94479999Y39393972D01*
X94718094Y38917781D02*
X94718094Y39917781D01*
X94718094Y39917781D02*
X94337142Y39917781D01*
X94337142Y39917781D02*
X94241904Y39870162D01*
X94241904Y39870162D02*
X94194285Y39822543D01*
X94194285Y39822543D02*
X94146666Y39727305D01*
X94146666Y39727305D02*
X94146666Y39584448D01*
X94146666Y39584448D02*
X94194285Y39489210D01*
X94194285Y39489210D02*
X94241904Y39441591D01*
X94241904Y39441591D02*
X94337142Y39393972D01*
X94337142Y39393972D02*
X94718094Y39393972D01*
X93813332Y39917781D02*
X93146666Y39917781D01*
X93146666Y39917781D02*
X93575237Y38917781D01*
X54352832Y20244400D02*
X54209975Y20196781D01*
X54209975Y20196781D02*
X53971880Y20196781D01*
X53971880Y20196781D02*
X53876642Y20244400D01*
X53876642Y20244400D02*
X53829023Y20292020D01*
X53829023Y20292020D02*
X53781404Y20387258D01*
X53781404Y20387258D02*
X53781404Y20482496D01*
X53781404Y20482496D02*
X53829023Y20577734D01*
X53829023Y20577734D02*
X53876642Y20625353D01*
X53876642Y20625353D02*
X53971880Y20672972D01*
X53971880Y20672972D02*
X54162356Y20720591D01*
X54162356Y20720591D02*
X54257594Y20768210D01*
X54257594Y20768210D02*
X54305213Y20815829D01*
X54305213Y20815829D02*
X54352832Y20911067D01*
X54352832Y20911067D02*
X54352832Y21006305D01*
X54352832Y21006305D02*
X54305213Y21101543D01*
X54305213Y21101543D02*
X54257594Y21149162D01*
X54257594Y21149162D02*
X54162356Y21196781D01*
X54162356Y21196781D02*
X53924261Y21196781D01*
X53924261Y21196781D02*
X53781404Y21149162D01*
X53448070Y21196781D02*
X53209975Y20196781D01*
X53209975Y20196781D02*
X53019499Y20911067D01*
X53019499Y20911067D02*
X52829023Y20196781D01*
X52829023Y20196781D02*
X52590928Y21196781D01*
X52257594Y21101543D02*
X52209975Y21149162D01*
X52209975Y21149162D02*
X52114737Y21196781D01*
X52114737Y21196781D02*
X51876642Y21196781D01*
X51876642Y21196781D02*
X51781404Y21149162D01*
X51781404Y21149162D02*
X51733785Y21101543D01*
X51733785Y21101543D02*
X51686166Y21006305D01*
X51686166Y21006305D02*
X51686166Y20911067D01*
X51686166Y20911067D02*
X51733785Y20768210D01*
X51733785Y20768210D02*
X52305213Y20196781D01*
X52305213Y20196781D02*
X51686166Y20196781D01*
X68746666Y51078020D02*
X68794285Y51030400D01*
X68794285Y51030400D02*
X68937142Y50982781D01*
X68937142Y50982781D02*
X69032380Y50982781D01*
X69032380Y50982781D02*
X69175237Y51030400D01*
X69175237Y51030400D02*
X69270475Y51125639D01*
X69270475Y51125639D02*
X69318094Y51220877D01*
X69318094Y51220877D02*
X69365713Y51411353D01*
X69365713Y51411353D02*
X69365713Y51554210D01*
X69365713Y51554210D02*
X69318094Y51744686D01*
X69318094Y51744686D02*
X69270475Y51839924D01*
X69270475Y51839924D02*
X69175237Y51935162D01*
X69175237Y51935162D02*
X69032380Y51982781D01*
X69032380Y51982781D02*
X68937142Y51982781D01*
X68937142Y51982781D02*
X68794285Y51935162D01*
X68794285Y51935162D02*
X68746666Y51887543D01*
X67841904Y51982781D02*
X68318094Y51982781D01*
X68318094Y51982781D02*
X68365713Y51506591D01*
X68365713Y51506591D02*
X68318094Y51554210D01*
X68318094Y51554210D02*
X68222856Y51601829D01*
X68222856Y51601829D02*
X67984761Y51601829D01*
X67984761Y51601829D02*
X67889523Y51554210D01*
X67889523Y51554210D02*
X67841904Y51506591D01*
X67841904Y51506591D02*
X67794285Y51411353D01*
X67794285Y51411353D02*
X67794285Y51173258D01*
X67794285Y51173258D02*
X67841904Y51078020D01*
X67841904Y51078020D02*
X67889523Y51030400D01*
X67889523Y51030400D02*
X67984761Y50982781D01*
X67984761Y50982781D02*
X68222856Y50982781D01*
X68222856Y50982781D02*
X68318094Y51030400D01*
X68318094Y51030400D02*
X68365713Y51078020D01*
X94146666Y35107781D02*
X94479999Y35583972D01*
X94718094Y35107781D02*
X94718094Y36107781D01*
X94718094Y36107781D02*
X94337142Y36107781D01*
X94337142Y36107781D02*
X94241904Y36060162D01*
X94241904Y36060162D02*
X94194285Y36012543D01*
X94194285Y36012543D02*
X94146666Y35917305D01*
X94146666Y35917305D02*
X94146666Y35774448D01*
X94146666Y35774448D02*
X94194285Y35679210D01*
X94194285Y35679210D02*
X94241904Y35631591D01*
X94241904Y35631591D02*
X94337142Y35583972D01*
X94337142Y35583972D02*
X94718094Y35583972D01*
X93289523Y36107781D02*
X93479999Y36107781D01*
X93479999Y36107781D02*
X93575237Y36060162D01*
X93575237Y36060162D02*
X93622856Y36012543D01*
X93622856Y36012543D02*
X93718094Y35869686D01*
X93718094Y35869686D02*
X93765713Y35679210D01*
X93765713Y35679210D02*
X93765713Y35298258D01*
X93765713Y35298258D02*
X93718094Y35203020D01*
X93718094Y35203020D02*
X93670475Y35155400D01*
X93670475Y35155400D02*
X93575237Y35107781D01*
X93575237Y35107781D02*
X93384761Y35107781D01*
X93384761Y35107781D02*
X93289523Y35155400D01*
X93289523Y35155400D02*
X93241904Y35203020D01*
X93241904Y35203020D02*
X93194285Y35298258D01*
X93194285Y35298258D02*
X93194285Y35536353D01*
X93194285Y35536353D02*
X93241904Y35631591D01*
X93241904Y35631591D02*
X93289523Y35679210D01*
X93289523Y35679210D02*
X93384761Y35726829D01*
X93384761Y35726829D02*
X93575237Y35726829D01*
X93575237Y35726829D02*
X93670475Y35679210D01*
X93670475Y35679210D02*
X93718094Y35631591D01*
X93718094Y35631591D02*
X93765713Y35536353D01*
X43601332Y20244400D02*
X43458475Y20196781D01*
X43458475Y20196781D02*
X43220380Y20196781D01*
X43220380Y20196781D02*
X43125142Y20244400D01*
X43125142Y20244400D02*
X43077523Y20292020D01*
X43077523Y20292020D02*
X43029904Y20387258D01*
X43029904Y20387258D02*
X43029904Y20482496D01*
X43029904Y20482496D02*
X43077523Y20577734D01*
X43077523Y20577734D02*
X43125142Y20625353D01*
X43125142Y20625353D02*
X43220380Y20672972D01*
X43220380Y20672972D02*
X43410856Y20720591D01*
X43410856Y20720591D02*
X43506094Y20768210D01*
X43506094Y20768210D02*
X43553713Y20815829D01*
X43553713Y20815829D02*
X43601332Y20911067D01*
X43601332Y20911067D02*
X43601332Y21006305D01*
X43601332Y21006305D02*
X43553713Y21101543D01*
X43553713Y21101543D02*
X43506094Y21149162D01*
X43506094Y21149162D02*
X43410856Y21196781D01*
X43410856Y21196781D02*
X43172761Y21196781D01*
X43172761Y21196781D02*
X43029904Y21149162D01*
X42696570Y21196781D02*
X42458475Y20196781D01*
X42458475Y20196781D02*
X42267999Y20911067D01*
X42267999Y20911067D02*
X42077523Y20196781D01*
X42077523Y20196781D02*
X41839428Y21196781D01*
X40934666Y20196781D02*
X41506094Y20196781D01*
X41220380Y20196781D02*
X41220380Y21196781D01*
X41220380Y21196781D02*
X41315618Y21053924D01*
X41315618Y21053924D02*
X41410856Y20958686D01*
X41410856Y20958686D02*
X41506094Y20911067D01*
X53506666Y51078020D02*
X53554285Y51030400D01*
X53554285Y51030400D02*
X53697142Y50982781D01*
X53697142Y50982781D02*
X53792380Y50982781D01*
X53792380Y50982781D02*
X53935237Y51030400D01*
X53935237Y51030400D02*
X54030475Y51125639D01*
X54030475Y51125639D02*
X54078094Y51220877D01*
X54078094Y51220877D02*
X54125713Y51411353D01*
X54125713Y51411353D02*
X54125713Y51554210D01*
X54125713Y51554210D02*
X54078094Y51744686D01*
X54078094Y51744686D02*
X54030475Y51839924D01*
X54030475Y51839924D02*
X53935237Y51935162D01*
X53935237Y51935162D02*
X53792380Y51982781D01*
X53792380Y51982781D02*
X53697142Y51982781D01*
X53697142Y51982781D02*
X53554285Y51935162D01*
X53554285Y51935162D02*
X53506666Y51887543D01*
X52649523Y51982781D02*
X52839999Y51982781D01*
X52839999Y51982781D02*
X52935237Y51935162D01*
X52935237Y51935162D02*
X52982856Y51887543D01*
X52982856Y51887543D02*
X53078094Y51744686D01*
X53078094Y51744686D02*
X53125713Y51554210D01*
X53125713Y51554210D02*
X53125713Y51173258D01*
X53125713Y51173258D02*
X53078094Y51078020D01*
X53078094Y51078020D02*
X53030475Y51030400D01*
X53030475Y51030400D02*
X52935237Y50982781D01*
X52935237Y50982781D02*
X52744761Y50982781D01*
X52744761Y50982781D02*
X52649523Y51030400D01*
X52649523Y51030400D02*
X52601904Y51078020D01*
X52601904Y51078020D02*
X52554285Y51173258D01*
X52554285Y51173258D02*
X52554285Y51411353D01*
X52554285Y51411353D02*
X52601904Y51506591D01*
X52601904Y51506591D02*
X52649523Y51554210D01*
X52649523Y51554210D02*
X52744761Y51601829D01*
X52744761Y51601829D02*
X52935237Y51601829D01*
X52935237Y51601829D02*
X53030475Y51554210D01*
X53030475Y51554210D02*
X53078094Y51506591D01*
X53078094Y51506591D02*
X53125713Y51411353D01*
X44616666Y31043781D02*
X44949999Y31519972D01*
X45188094Y31043781D02*
X45188094Y32043781D01*
X45188094Y32043781D02*
X44807142Y32043781D01*
X44807142Y32043781D02*
X44711904Y31996162D01*
X44711904Y31996162D02*
X44664285Y31948543D01*
X44664285Y31948543D02*
X44616666Y31853305D01*
X44616666Y31853305D02*
X44616666Y31710448D01*
X44616666Y31710448D02*
X44664285Y31615210D01*
X44664285Y31615210D02*
X44711904Y31567591D01*
X44711904Y31567591D02*
X44807142Y31519972D01*
X44807142Y31519972D02*
X45188094Y31519972D01*
X43759523Y31710448D02*
X43759523Y31043781D01*
X43997618Y32091400D02*
X44235713Y31377115D01*
X44235713Y31377115D02*
X43616666Y31377115D01*
X82716666Y51617781D02*
X83049999Y52093972D01*
X83288094Y51617781D02*
X83288094Y52617781D01*
X83288094Y52617781D02*
X82907142Y52617781D01*
X82907142Y52617781D02*
X82811904Y52570162D01*
X82811904Y52570162D02*
X82764285Y52522543D01*
X82764285Y52522543D02*
X82716666Y52427305D01*
X82716666Y52427305D02*
X82716666Y52284448D01*
X82716666Y52284448D02*
X82764285Y52189210D01*
X82764285Y52189210D02*
X82811904Y52141591D01*
X82811904Y52141591D02*
X82907142Y52093972D01*
X82907142Y52093972D02*
X83288094Y52093972D01*
X81811904Y52617781D02*
X82288094Y52617781D01*
X82288094Y52617781D02*
X82335713Y52141591D01*
X82335713Y52141591D02*
X82288094Y52189210D01*
X82288094Y52189210D02*
X82192856Y52236829D01*
X82192856Y52236829D02*
X81954761Y52236829D01*
X81954761Y52236829D02*
X81859523Y52189210D01*
X81859523Y52189210D02*
X81811904Y52141591D01*
X81811904Y52141591D02*
X81764285Y52046353D01*
X81764285Y52046353D02*
X81764285Y51808258D01*
X81764285Y51808258D02*
X81811904Y51713020D01*
X81811904Y51713020D02*
X81859523Y51665400D01*
X81859523Y51665400D02*
X81954761Y51617781D01*
X81954761Y51617781D02*
X82192856Y51617781D01*
X82192856Y51617781D02*
X82288094Y51665400D01*
X82288094Y51665400D02*
X82335713Y51713020D01*
X86716980Y38266667D02*
X86764600Y38314286D01*
X86764600Y38314286D02*
X86812219Y38457143D01*
X86812219Y38457143D02*
X86812219Y38552381D01*
X86812219Y38552381D02*
X86764600Y38695238D01*
X86764600Y38695238D02*
X86669361Y38790476D01*
X86669361Y38790476D02*
X86574123Y38838095D01*
X86574123Y38838095D02*
X86383647Y38885714D01*
X86383647Y38885714D02*
X86240790Y38885714D01*
X86240790Y38885714D02*
X86050314Y38838095D01*
X86050314Y38838095D02*
X85955076Y38790476D01*
X85955076Y38790476D02*
X85859838Y38695238D01*
X85859838Y38695238D02*
X85812219Y38552381D01*
X85812219Y38552381D02*
X85812219Y38457143D01*
X85812219Y38457143D02*
X85859838Y38314286D01*
X85859838Y38314286D02*
X85907457Y38266667D01*
X86145552Y37409524D02*
X86812219Y37409524D01*
X85764600Y37647619D02*
X86478885Y37885714D01*
X86478885Y37885714D02*
X86478885Y37266667D01*
X94083094Y82732781D02*
X94083094Y83732781D01*
X94083094Y83732781D02*
X93702142Y83732781D01*
X93702142Y83732781D02*
X93606904Y83685162D01*
X93606904Y83685162D02*
X93559285Y83637543D01*
X93559285Y83637543D02*
X93511666Y83542305D01*
X93511666Y83542305D02*
X93511666Y83399448D01*
X93511666Y83399448D02*
X93559285Y83304210D01*
X93559285Y83304210D02*
X93606904Y83256591D01*
X93606904Y83256591D02*
X93702142Y83208972D01*
X93702142Y83208972D02*
X94083094Y83208972D01*
X92654523Y83732781D02*
X92844999Y83732781D01*
X92844999Y83732781D02*
X92940237Y83685162D01*
X92940237Y83685162D02*
X92987856Y83637543D01*
X92987856Y83637543D02*
X93083094Y83494686D01*
X93083094Y83494686D02*
X93130713Y83304210D01*
X93130713Y83304210D02*
X93130713Y82923258D01*
X93130713Y82923258D02*
X93083094Y82828020D01*
X93083094Y82828020D02*
X93035475Y82780400D01*
X93035475Y82780400D02*
X92940237Y82732781D01*
X92940237Y82732781D02*
X92749761Y82732781D01*
X92749761Y82732781D02*
X92654523Y82780400D01*
X92654523Y82780400D02*
X92606904Y82828020D01*
X92606904Y82828020D02*
X92559285Y82923258D01*
X92559285Y82923258D02*
X92559285Y83161353D01*
X92559285Y83161353D02*
X92606904Y83256591D01*
X92606904Y83256591D02*
X92654523Y83304210D01*
X92654523Y83304210D02*
X92749761Y83351829D01*
X92749761Y83351829D02*
X92940237Y83351829D01*
X92940237Y83351829D02*
X93035475Y83304210D01*
X93035475Y83304210D02*
X93083094Y83256591D01*
X93083094Y83256591D02*
X93130713Y83161353D01*
X39187219Y72556667D02*
X38711028Y72890000D01*
X39187219Y73128095D02*
X38187219Y73128095D01*
X38187219Y73128095D02*
X38187219Y72747143D01*
X38187219Y72747143D02*
X38234838Y72651905D01*
X38234838Y72651905D02*
X38282457Y72604286D01*
X38282457Y72604286D02*
X38377695Y72556667D01*
X38377695Y72556667D02*
X38520552Y72556667D01*
X38520552Y72556667D02*
X38615790Y72604286D01*
X38615790Y72604286D02*
X38663409Y72651905D01*
X38663409Y72651905D02*
X38711028Y72747143D01*
X38711028Y72747143D02*
X38711028Y73128095D01*
X38282457Y72175714D02*
X38234838Y72128095D01*
X38234838Y72128095D02*
X38187219Y72032857D01*
X38187219Y72032857D02*
X38187219Y71794762D01*
X38187219Y71794762D02*
X38234838Y71699524D01*
X38234838Y71699524D02*
X38282457Y71651905D01*
X38282457Y71651905D02*
X38377695Y71604286D01*
X38377695Y71604286D02*
X38472933Y71604286D01*
X38472933Y71604286D02*
X38615790Y71651905D01*
X38615790Y71651905D02*
X39187219Y72223333D01*
X39187219Y72223333D02*
X39187219Y71604286D01*
X42584666Y94797781D02*
X42917999Y95273972D01*
X43156094Y94797781D02*
X43156094Y95797781D01*
X43156094Y95797781D02*
X42775142Y95797781D01*
X42775142Y95797781D02*
X42679904Y95750162D01*
X42679904Y95750162D02*
X42632285Y95702543D01*
X42632285Y95702543D02*
X42584666Y95607305D01*
X42584666Y95607305D02*
X42584666Y95464448D01*
X42584666Y95464448D02*
X42632285Y95369210D01*
X42632285Y95369210D02*
X42679904Y95321591D01*
X42679904Y95321591D02*
X42775142Y95273972D01*
X42775142Y95273972D02*
X43156094Y95273972D01*
X42251332Y95797781D02*
X41632285Y95797781D01*
X41632285Y95797781D02*
X41965618Y95416829D01*
X41965618Y95416829D02*
X41822761Y95416829D01*
X41822761Y95416829D02*
X41727523Y95369210D01*
X41727523Y95369210D02*
X41679904Y95321591D01*
X41679904Y95321591D02*
X41632285Y95226353D01*
X41632285Y95226353D02*
X41632285Y94988258D01*
X41632285Y94988258D02*
X41679904Y94893020D01*
X41679904Y94893020D02*
X41727523Y94845400D01*
X41727523Y94845400D02*
X41822761Y94797781D01*
X41822761Y94797781D02*
X42108475Y94797781D01*
X42108475Y94797781D02*
X42203713Y94845400D01*
X42203713Y94845400D02*
X42251332Y94893020D01*
X82716666Y46633020D02*
X82764285Y46585400D01*
X82764285Y46585400D02*
X82907142Y46537781D01*
X82907142Y46537781D02*
X83002380Y46537781D01*
X83002380Y46537781D02*
X83145237Y46585400D01*
X83145237Y46585400D02*
X83240475Y46680639D01*
X83240475Y46680639D02*
X83288094Y46775877D01*
X83288094Y46775877D02*
X83335713Y46966353D01*
X83335713Y46966353D02*
X83335713Y47109210D01*
X83335713Y47109210D02*
X83288094Y47299686D01*
X83288094Y47299686D02*
X83240475Y47394924D01*
X83240475Y47394924D02*
X83145237Y47490162D01*
X83145237Y47490162D02*
X83002380Y47537781D01*
X83002380Y47537781D02*
X82907142Y47537781D01*
X82907142Y47537781D02*
X82764285Y47490162D01*
X82764285Y47490162D02*
X82716666Y47442543D01*
X82383332Y47537781D02*
X81764285Y47537781D01*
X81764285Y47537781D02*
X82097618Y47156829D01*
X82097618Y47156829D02*
X81954761Y47156829D01*
X81954761Y47156829D02*
X81859523Y47109210D01*
X81859523Y47109210D02*
X81811904Y47061591D01*
X81811904Y47061591D02*
X81764285Y46966353D01*
X81764285Y46966353D02*
X81764285Y46728258D01*
X81764285Y46728258D02*
X81811904Y46633020D01*
X81811904Y46633020D02*
X81859523Y46585400D01*
X81859523Y46585400D02*
X81954761Y46537781D01*
X81954761Y46537781D02*
X82240475Y46537781D01*
X82240475Y46537781D02*
X82335713Y46585400D01*
X82335713Y46585400D02*
X82383332Y46633020D01*
X80875094Y29011781D02*
X80875094Y30011781D01*
X80875094Y30011781D02*
X80494142Y30011781D01*
X80494142Y30011781D02*
X80398904Y29964162D01*
X80398904Y29964162D02*
X80351285Y29916543D01*
X80351285Y29916543D02*
X80303666Y29821305D01*
X80303666Y29821305D02*
X80303666Y29678448D01*
X80303666Y29678448D02*
X80351285Y29583210D01*
X80351285Y29583210D02*
X80398904Y29535591D01*
X80398904Y29535591D02*
X80494142Y29487972D01*
X80494142Y29487972D02*
X80875094Y29487972D01*
X79732237Y29583210D02*
X79827475Y29630829D01*
X79827475Y29630829D02*
X79875094Y29678448D01*
X79875094Y29678448D02*
X79922713Y29773686D01*
X79922713Y29773686D02*
X79922713Y29821305D01*
X79922713Y29821305D02*
X79875094Y29916543D01*
X79875094Y29916543D02*
X79827475Y29964162D01*
X79827475Y29964162D02*
X79732237Y30011781D01*
X79732237Y30011781D02*
X79541761Y30011781D01*
X79541761Y30011781D02*
X79446523Y29964162D01*
X79446523Y29964162D02*
X79398904Y29916543D01*
X79398904Y29916543D02*
X79351285Y29821305D01*
X79351285Y29821305D02*
X79351285Y29773686D01*
X79351285Y29773686D02*
X79398904Y29678448D01*
X79398904Y29678448D02*
X79446523Y29630829D01*
X79446523Y29630829D02*
X79541761Y29583210D01*
X79541761Y29583210D02*
X79732237Y29583210D01*
X79732237Y29583210D02*
X79827475Y29535591D01*
X79827475Y29535591D02*
X79875094Y29487972D01*
X79875094Y29487972D02*
X79922713Y29392734D01*
X79922713Y29392734D02*
X79922713Y29202258D01*
X79922713Y29202258D02*
X79875094Y29107020D01*
X79875094Y29107020D02*
X79827475Y29059400D01*
X79827475Y29059400D02*
X79732237Y29011781D01*
X79732237Y29011781D02*
X79541761Y29011781D01*
X79541761Y29011781D02*
X79446523Y29059400D01*
X79446523Y29059400D02*
X79398904Y29107020D01*
X79398904Y29107020D02*
X79351285Y29202258D01*
X79351285Y29202258D02*
X79351285Y29392734D01*
X79351285Y29392734D02*
X79398904Y29487972D01*
X79398904Y29487972D02*
X79446523Y29535591D01*
X79446523Y29535591D02*
X79541761Y29583210D01*
X78573219Y38861905D02*
X79382742Y38861905D01*
X79382742Y38861905D02*
X79477980Y38814286D01*
X79477980Y38814286D02*
X79525600Y38766667D01*
X79525600Y38766667D02*
X79573219Y38671429D01*
X79573219Y38671429D02*
X79573219Y38480953D01*
X79573219Y38480953D02*
X79525600Y38385715D01*
X79525600Y38385715D02*
X79477980Y38338096D01*
X79477980Y38338096D02*
X79382742Y38290477D01*
X79382742Y38290477D02*
X78573219Y38290477D01*
X78668457Y37861905D02*
X78620838Y37814286D01*
X78620838Y37814286D02*
X78573219Y37719048D01*
X78573219Y37719048D02*
X78573219Y37480953D01*
X78573219Y37480953D02*
X78620838Y37385715D01*
X78620838Y37385715D02*
X78668457Y37338096D01*
X78668457Y37338096D02*
X78763695Y37290477D01*
X78763695Y37290477D02*
X78858933Y37290477D01*
X78858933Y37290477D02*
X79001790Y37338096D01*
X79001790Y37338096D02*
X79573219Y37909524D01*
X79573219Y37909524D02*
X79573219Y37290477D01*
X61517190Y49553972D02*
X61517190Y49077781D01*
X61850523Y50077781D02*
X61517190Y49553972D01*
X61517190Y49553972D02*
X61183857Y50077781D01*
X60326714Y49077781D02*
X60898142Y49077781D01*
X60612428Y49077781D02*
X60612428Y50077781D01*
X60612428Y50077781D02*
X60707666Y49934924D01*
X60707666Y49934924D02*
X60802904Y49839686D01*
X60802904Y49839686D02*
X60898142Y49792067D01*
X42711457Y88237239D02*
X42663838Y88332477D01*
X42663838Y88332477D02*
X42568600Y88427715D01*
X42568600Y88427715D02*
X42425742Y88570572D01*
X42425742Y88570572D02*
X42378123Y88665810D01*
X42378123Y88665810D02*
X42378123Y88761048D01*
X42616219Y88713429D02*
X42568600Y88808667D01*
X42568600Y88808667D02*
X42473361Y88903905D01*
X42473361Y88903905D02*
X42282885Y88951524D01*
X42282885Y88951524D02*
X41949552Y88951524D01*
X41949552Y88951524D02*
X41759076Y88903905D01*
X41759076Y88903905D02*
X41663838Y88808667D01*
X41663838Y88808667D02*
X41616219Y88713429D01*
X41616219Y88713429D02*
X41616219Y88522953D01*
X41616219Y88522953D02*
X41663838Y88427715D01*
X41663838Y88427715D02*
X41759076Y88332477D01*
X41759076Y88332477D02*
X41949552Y88284858D01*
X41949552Y88284858D02*
X42282885Y88284858D01*
X42282885Y88284858D02*
X42473361Y88332477D01*
X42473361Y88332477D02*
X42568600Y88427715D01*
X42568600Y88427715D02*
X42616219Y88522953D01*
X42616219Y88522953D02*
X42616219Y88713429D01*
X41711457Y87903905D02*
X41663838Y87856286D01*
X41663838Y87856286D02*
X41616219Y87761048D01*
X41616219Y87761048D02*
X41616219Y87522953D01*
X41616219Y87522953D02*
X41663838Y87427715D01*
X41663838Y87427715D02*
X41711457Y87380096D01*
X41711457Y87380096D02*
X41806695Y87332477D01*
X41806695Y87332477D02*
X41901933Y87332477D01*
X41901933Y87332477D02*
X42044790Y87380096D01*
X42044790Y87380096D02*
X42616219Y87951524D01*
X42616219Y87951524D02*
X42616219Y87332477D01*
X36647219Y72556667D02*
X36171028Y72890000D01*
X36647219Y73128095D02*
X35647219Y73128095D01*
X35647219Y73128095D02*
X35647219Y72747143D01*
X35647219Y72747143D02*
X35694838Y72651905D01*
X35694838Y72651905D02*
X35742457Y72604286D01*
X35742457Y72604286D02*
X35837695Y72556667D01*
X35837695Y72556667D02*
X35980552Y72556667D01*
X35980552Y72556667D02*
X36075790Y72604286D01*
X36075790Y72604286D02*
X36123409Y72651905D01*
X36123409Y72651905D02*
X36171028Y72747143D01*
X36171028Y72747143D02*
X36171028Y73128095D01*
X36647219Y71604286D02*
X36647219Y72175714D01*
X36647219Y71890000D02*
X35647219Y71890000D01*
X35647219Y71890000D02*
X35790076Y71985238D01*
X35790076Y71985238D02*
X35885314Y72080476D01*
X35885314Y72080476D02*
X35932933Y72175714D01*
X76938094Y21645781D02*
X76938094Y22645781D01*
X76938094Y22645781D02*
X76557142Y22645781D01*
X76557142Y22645781D02*
X76461904Y22598162D01*
X76461904Y22598162D02*
X76414285Y22550543D01*
X76414285Y22550543D02*
X76366666Y22455305D01*
X76366666Y22455305D02*
X76366666Y22312448D01*
X76366666Y22312448D02*
X76414285Y22217210D01*
X76414285Y22217210D02*
X76461904Y22169591D01*
X76461904Y22169591D02*
X76557142Y22121972D01*
X76557142Y22121972D02*
X76938094Y22121972D01*
X76033332Y22645781D02*
X75366666Y22645781D01*
X75366666Y22645781D02*
X75795237Y21645781D01*
X32488094Y84891781D02*
X32488094Y85891781D01*
X32488094Y85891781D02*
X32107142Y85891781D01*
X32107142Y85891781D02*
X32011904Y85844162D01*
X32011904Y85844162D02*
X31964285Y85796543D01*
X31964285Y85796543D02*
X31916666Y85701305D01*
X31916666Y85701305D02*
X31916666Y85558448D01*
X31916666Y85558448D02*
X31964285Y85463210D01*
X31964285Y85463210D02*
X32011904Y85415591D01*
X32011904Y85415591D02*
X32107142Y85367972D01*
X32107142Y85367972D02*
X32488094Y85367972D01*
X30964285Y84891781D02*
X31535713Y84891781D01*
X31249999Y84891781D02*
X31249999Y85891781D01*
X31249999Y85891781D02*
X31345237Y85748924D01*
X31345237Y85748924D02*
X31440475Y85653686D01*
X31440475Y85653686D02*
X31535713Y85606067D01*
X61126666Y28853020D02*
X61174285Y28805400D01*
X61174285Y28805400D02*
X61317142Y28757781D01*
X61317142Y28757781D02*
X61412380Y28757781D01*
X61412380Y28757781D02*
X61555237Y28805400D01*
X61555237Y28805400D02*
X61650475Y28900639D01*
X61650475Y28900639D02*
X61698094Y28995877D01*
X61698094Y28995877D02*
X61745713Y29186353D01*
X61745713Y29186353D02*
X61745713Y29329210D01*
X61745713Y29329210D02*
X61698094Y29519686D01*
X61698094Y29519686D02*
X61650475Y29614924D01*
X61650475Y29614924D02*
X61555237Y29710162D01*
X61555237Y29710162D02*
X61412380Y29757781D01*
X61412380Y29757781D02*
X61317142Y29757781D01*
X61317142Y29757781D02*
X61174285Y29710162D01*
X61174285Y29710162D02*
X61126666Y29662543D01*
X60174285Y28757781D02*
X60745713Y28757781D01*
X60459999Y28757781D02*
X60459999Y29757781D01*
X60459999Y29757781D02*
X60555237Y29614924D01*
X60555237Y29614924D02*
X60650475Y29519686D01*
X60650475Y29519686D02*
X60745713Y29472067D01*
X51287219Y82193095D02*
X50287219Y82193095D01*
X50287219Y82193095D02*
X50287219Y81955000D01*
X50287219Y81955000D02*
X50334838Y81812143D01*
X50334838Y81812143D02*
X50430076Y81716905D01*
X50430076Y81716905D02*
X50525314Y81669286D01*
X50525314Y81669286D02*
X50715790Y81621667D01*
X50715790Y81621667D02*
X50858647Y81621667D01*
X50858647Y81621667D02*
X51049123Y81669286D01*
X51049123Y81669286D02*
X51144361Y81716905D01*
X51144361Y81716905D02*
X51239600Y81812143D01*
X51239600Y81812143D02*
X51287219Y81955000D01*
X51287219Y81955000D02*
X51287219Y82193095D01*
X51191980Y80621667D02*
X51239600Y80669286D01*
X51239600Y80669286D02*
X51287219Y80812143D01*
X51287219Y80812143D02*
X51287219Y80907381D01*
X51287219Y80907381D02*
X51239600Y81050238D01*
X51239600Y81050238D02*
X51144361Y81145476D01*
X51144361Y81145476D02*
X51049123Y81193095D01*
X51049123Y81193095D02*
X50858647Y81240714D01*
X50858647Y81240714D02*
X50715790Y81240714D01*
X50715790Y81240714D02*
X50525314Y81193095D01*
X50525314Y81193095D02*
X50430076Y81145476D01*
X50430076Y81145476D02*
X50334838Y81050238D01*
X50334838Y81050238D02*
X50287219Y80907381D01*
X50287219Y80907381D02*
X50287219Y80812143D01*
X50287219Y80812143D02*
X50334838Y80669286D01*
X50334838Y80669286D02*
X50382457Y80621667D01*
X51287219Y80193095D02*
X50287219Y80193095D01*
X50287219Y80193095D02*
X50287219Y79955000D01*
X50287219Y79955000D02*
X50334838Y79812143D01*
X50334838Y79812143D02*
X50430076Y79716905D01*
X50430076Y79716905D02*
X50525314Y79669286D01*
X50525314Y79669286D02*
X50715790Y79621667D01*
X50715790Y79621667D02*
X50858647Y79621667D01*
X50858647Y79621667D02*
X51049123Y79669286D01*
X51049123Y79669286D02*
X51144361Y79716905D01*
X51144361Y79716905D02*
X51239600Y79812143D01*
X51239600Y79812143D02*
X51287219Y79955000D01*
X51287219Y79955000D02*
X51287219Y80193095D01*
X51191980Y78621667D02*
X51239600Y78669286D01*
X51239600Y78669286D02*
X51287219Y78812143D01*
X51287219Y78812143D02*
X51287219Y78907381D01*
X51287219Y78907381D02*
X51239600Y79050238D01*
X51239600Y79050238D02*
X51144361Y79145476D01*
X51144361Y79145476D02*
X51049123Y79193095D01*
X51049123Y79193095D02*
X50858647Y79240714D01*
X50858647Y79240714D02*
X50715790Y79240714D01*
X50715790Y79240714D02*
X50525314Y79193095D01*
X50525314Y79193095D02*
X50430076Y79145476D01*
X50430076Y79145476D02*
X50334838Y79050238D01*
X50334838Y79050238D02*
X50287219Y78907381D01*
X50287219Y78907381D02*
X50287219Y78812143D01*
X50287219Y78812143D02*
X50334838Y78669286D01*
X50334838Y78669286D02*
X50382457Y78621667D01*
X51287219Y77669286D02*
X51287219Y78240714D01*
X51287219Y77955000D02*
X50287219Y77955000D01*
X50287219Y77955000D02*
X50430076Y78050238D01*
X50430076Y78050238D02*
X50525314Y78145476D01*
X50525314Y78145476D02*
X50572933Y78240714D01*
X38245457Y80867239D02*
X38197838Y80962477D01*
X38197838Y80962477D02*
X38102600Y81057715D01*
X38102600Y81057715D02*
X37959742Y81200572D01*
X37959742Y81200572D02*
X37912123Y81295810D01*
X37912123Y81295810D02*
X37912123Y81391048D01*
X38150219Y81343429D02*
X38102600Y81438667D01*
X38102600Y81438667D02*
X38007361Y81533905D01*
X38007361Y81533905D02*
X37816885Y81581524D01*
X37816885Y81581524D02*
X37483552Y81581524D01*
X37483552Y81581524D02*
X37293076Y81533905D01*
X37293076Y81533905D02*
X37197838Y81438667D01*
X37197838Y81438667D02*
X37150219Y81343429D01*
X37150219Y81343429D02*
X37150219Y81152953D01*
X37150219Y81152953D02*
X37197838Y81057715D01*
X37197838Y81057715D02*
X37293076Y80962477D01*
X37293076Y80962477D02*
X37483552Y80914858D01*
X37483552Y80914858D02*
X37816885Y80914858D01*
X37816885Y80914858D02*
X38007361Y80962477D01*
X38007361Y80962477D02*
X38102600Y81057715D01*
X38102600Y81057715D02*
X38150219Y81152953D01*
X38150219Y81152953D02*
X38150219Y81343429D01*
X38150219Y79962477D02*
X38150219Y80533905D01*
X38150219Y80248191D02*
X37150219Y80248191D01*
X37150219Y80248191D02*
X37293076Y80343429D01*
X37293076Y80343429D02*
X37388314Y80438667D01*
X37388314Y80438667D02*
X37435933Y80533905D01*
X84567619Y82083234D02*
X85281904Y82083234D01*
X85281904Y82083234D02*
X85424761Y82130853D01*
X85424761Y82130853D02*
X85520000Y82226091D01*
X85520000Y82226091D02*
X85567619Y82368948D01*
X85567619Y82368948D02*
X85567619Y82464186D01*
X85567619Y81083234D02*
X85567619Y81654662D01*
X85567619Y81368948D02*
X84567619Y81368948D01*
X84567619Y81368948D02*
X84710476Y81464186D01*
X84710476Y81464186D02*
X84805714Y81559424D01*
X84805714Y81559424D02*
X84853333Y81654662D01*
%TO.C,P3*%
D13*
X21132090Y28501910D02*
X21132090Y88501910D01*
X23632090Y91001910D02*
X36182090Y91001910D01*
X36132090Y26001910D02*
X23632090Y26001910D01*
X36132090Y21001910D02*
X36132090Y26001910D01*
X36182090Y96001910D02*
X36182090Y91001910D01*
X38682090Y98501910D02*
X83582090Y98501910D01*
X83632090Y18501910D02*
X38632090Y18501910D01*
X86082090Y96001910D02*
X86082090Y91001910D01*
X86082090Y91001910D02*
X98632090Y90984143D01*
X86132090Y26001910D02*
X86132090Y21001910D01*
X98632090Y26001910D02*
X86132090Y26001910D01*
X101132090Y88484143D02*
X101132090Y28501910D01*
X21132090Y88501910D02*
G75*
G02*
X23632090Y91001910I2500000J0D01*
G01*
X23632090Y26001910D02*
G75*
G02*
X21132090Y28501910I0J2500000D01*
G01*
X36182090Y96001910D02*
G75*
G02*
X38682090Y98501910I2500000J0D01*
G01*
X38632090Y18501910D02*
G75*
G02*
X36132090Y21001910I0J2500000D01*
G01*
X83582090Y98501910D02*
G75*
G02*
X86082090Y96001910I0J-2500000D01*
G01*
X86132090Y21001910D02*
G75*
G02*
X83632090Y18501910I-2500000J0D01*
G01*
X98632090Y90984143D02*
G75*
G02*
X101132123Y88484143I0J-2500033D01*
G01*
X101132090Y28501910D02*
G75*
G02*
X98632090Y26001910I-2500000J0D01*
G01*
%TD*%
M02*
