M48
; DRILL file KiCad 10.0.3 date 2026-06-19T16:25:37
; FORMAT={-:-/ absolute / metric / decimal}
; #@! TF.CreationDate,2026-06-19T16:25:37+01:00
; #@! TF.GenerationSoftware,Kicad,Pcbnew,10.0.3
; #@! TF.FileFunction,MixedPlating,1,2
FMAT,2
METRIC
; #@! TA.AperFunction,Plated,PTH,ViaDrill
T1C0.400
; #@! TA.AperFunction,Plated,PTH,ComponentDrill
T2C0.750
; #@! TA.AperFunction,Plated,PTH,ComponentDrill
T3C0.800
; #@! TA.AperFunction,Plated,PTH,ComponentDrill
T4C0.800
; #@! TA.AperFunction,Plated,PTH,ComponentDrill
T5C0.813
; #@! TA.AperFunction,Plated,PTH,ComponentDrill
T6C1.000
; #@! TA.AperFunction,Plated,PTH,ComponentDrill
T7C1.001
; #@! TA.AperFunction,Plated,PTH,ComponentDrill
T8C1.100
; #@! TA.AperFunction,Plated,PTH,ComponentDrill
T9C1.500
; #@! TA.AperFunction,NonPlated,NPTH,ComponentDrill
T10C3.000
%
G90
G05
T1
X48.26Y60.452
X84.201Y36.83
X88.646Y32.639
T2
X39.476Y82.042
X39.476Y80.772
X39.476Y79.502
T3
X31.321Y80.724
X31.321Y78.724
X31.321Y76.724
X31.321Y74.724
X45.72Y49.53
X46.99Y41.91
X46.99Y34.29
X48.22Y49.53
X49.53Y41.91
X49.53Y34.29
X52.07Y41.91
X52.07Y34.29
X54.61Y41.91
X54.61Y34.29
X57.15Y41.91
X57.15Y34.29
X58.601Y49.53
X59.69Y41.91
X59.69Y34.29
X62.23Y41.91
X62.23Y34.29
X63.481Y49.53
X64.77Y41.91
X64.77Y34.29
X67.31Y41.91
X67.31Y34.29
X69.85Y41.91
X69.85Y34.29
X72.39Y41.91
X72.39Y34.29
X74.93Y41.91
X74.93Y34.29
X77.47Y41.91
X77.47Y34.29
X80.01Y41.91
X80.01Y34.29
X93.551Y80.724
X93.551Y78.724
X93.551Y76.724
X93.551Y74.724
X93.98Y50.26
X93.98Y48.26
X93.98Y46.26
X93.98Y44.26
T4
X36.195Y76.2
X36.195Y68.58
X38.608Y95.25
X38.735Y76.2
X38.735Y68.58
X40.64Y31.496
X46.228Y95.25
X48.26Y31.496
X53.34Y49.53
X53.34Y46.99
X58.42Y29.21
X63.5Y29.21
X68.58Y49.53
X68.58Y46.99
X78.74Y52.07
X80.01Y46.99
X85.09Y46.99
X86.36Y52.07
X86.36Y40.64
X86.36Y35.56
X90.17Y39.37
X90.17Y35.56
X97.79Y39.37
X97.79Y35.56
T5
X68.326Y24.765
X68.326Y22.225
X85.09Y79.121
X85.09Y76.581
X85.09Y74.041
T6
X38.966Y25.53
X38.966Y21.03
X45.466Y25.53
X45.466Y21.03
X46.335Y84.455
X46.335Y76.955
X49.718Y25.53
X49.718Y21.03
X56.217Y25.53
X56.217Y21.03
X76.835Y84.455
X76.835Y76.955
X82.55Y29.464
X85.09Y29.21
X87.63Y29.464
X90.17Y29.21
X92.71Y29.464
X95.25Y29.21
T7
X29.21Y85.344
X29.21Y80.264
X29.21Y75.184
X29.21Y70.104
X36.83Y40.64
X36.83Y38.1
X36.83Y35.56
X39.37Y40.64
X39.37Y38.1
X39.37Y35.56
X42.85Y66.929
X42.85Y64.389
X42.85Y61.849
X42.85Y59.309
X73.66Y26.67
X73.66Y24.13
X76.2Y26.67
X76.2Y24.13
X78.74Y26.67
X78.74Y24.13
X91.44Y85.344
X91.44Y80.264
X91.44Y75.184
X91.44Y70.104
T8
X40.132Y90.432
X40.132Y88.142
X40.132Y85.852
T9
X82.55Y68.169
X82.55Y63.089
X82.55Y58.009
T10
X26.336Y58.502
X61.132Y93.298
X61.132Y23.706
X95.928Y58.502
M30
